<svg width="300" height="300" viewBox="0 0 300 300" fill="none" xmlns="http://www.w3.org/2000/svg">
<path fill-rule="evenodd" clip-rule="evenodd" d="M232 217.905V55.2349H69.3292V165.317H79.907V65.8126H221.422V207.328H175.655V217.905H232ZM114.554 218.44H124.11L103.541 165.318H90.927L70.365 218.44H79.9887C80.914 218.472 81.822 218.183 82.558 217.621C83.1939 217.146 83.6918 216.511 84.0004 215.78L87.1332 206.51H107.327L110.467 215.773C110.789 216.533 111.308 217.194 111.97 217.688C112.725 218.218 113.633 218.482 114.554 218.44ZM99.6041 183.581L104.525 198.156L89.9804 198.133L94.8636 183.656C95.2318 182.732 95.6224 181.635 96.0356 180.373C96.4488 179.111 96.8319 177.759 97.2001 176.256C97.6133 177.714 98.0264 179.066 98.4396 180.321C98.8528 181.575 99.2435 182.657 99.6041 183.581ZM138.294 184.64C139.71 183.288 141.327 182.162 143.087 181.305C144.904 180.446 146.893 180.014 148.902 180.042C150.901 180.006 152.879 180.446 154.674 181.325C156.468 182.204 158.028 183.497 159.225 185.098C160.533 186.855 161.504 188.839 162.087 190.951C162.782 193.442 163.118 196.02 163.086 198.606C163.126 201.444 162.734 204.271 161.922 206.99C161.235 209.324 160.116 211.508 158.624 213.428C157.255 215.171 155.518 216.59 153.538 217.583C151.51 218.59 149.273 219.105 147.009 219.085C145.978 219.096 144.949 218.986 143.944 218.755C142.265 218.361 140.714 217.547 139.436 216.388C138.802 215.814 138.2 215.204 137.633 214.563L137.228 216.464C137.12 217.095 136.783 217.665 136.281 218.064C135.754 218.38 135.144 218.531 134.531 218.499H127.018V163.853H138.287L138.294 184.64ZM138.294 208.162C139.055 209.023 140.003 209.696 141.067 210.13C142.024 210.506 143.043 210.703 144.072 210.709C145.087 210.722 146.094 210.517 147.024 210.108C147.959 209.673 148.759 208.993 149.338 208.14C150.062 207.043 150.571 205.819 150.841 204.534C151.526 201.118 151.569 197.605 150.968 194.174C150.758 193.025 150.338 191.925 149.729 190.928C149.238 190.14 148.531 189.509 147.693 189.11C146.815 188.716 145.86 188.521 144.898 188.539C143.635 188.51 142.388 188.827 141.292 189.456C140.154 190.175 139.139 191.073 138.287 192.115L138.294 208.162ZM117.45 242.221C117.08 242.077 116.738 241.833 116.422 241.491V235.541C116.792 235.108 117.166 234.779 117.544 234.553C117.923 234.328 118.369 234.215 118.883 234.215C119.271 234.215 119.613 234.287 119.911 234.432C120.217 234.567 120.47 234.792 120.668 235.108C120.876 235.414 121.029 235.815 121.128 236.311C121.236 236.798 121.29 237.393 121.29 238.096C121.29 238.908 121.223 239.593 121.087 240.152C120.952 240.702 120.763 241.148 120.519 241.491C120.285 241.824 120.001 242.067 119.668 242.221C119.334 242.365 118.969 242.437 118.572 242.437C118.194 242.437 117.819 242.365 117.45 242.221ZM118.194 231.538C117.553 231.844 116.963 232.255 116.422 232.768V225.06H112.23V245.304H115.016C115.286 245.304 115.503 245.25 115.665 245.142C115.827 245.033 115.944 244.835 116.016 244.547L116.165 243.843C116.382 244.087 116.602 244.312 116.828 244.52C117.062 244.727 117.319 244.907 117.599 245.061C117.878 245.205 118.185 245.317 118.518 245.399C118.852 245.48 119.23 245.52 119.654 245.52C120.537 245.52 121.344 245.34 122.075 244.979C122.805 244.61 123.431 244.096 123.954 243.438C124.486 242.771 124.896 241.973 125.185 241.044C125.473 240.116 125.618 239.083 125.618 237.948C125.618 236.902 125.491 235.955 125.239 235.108C124.995 234.26 124.644 233.539 124.184 232.944C123.724 232.34 123.17 231.876 122.521 231.551C121.872 231.227 121.151 231.065 120.357 231.065C119.564 231.065 118.843 231.222 118.194 231.538ZM80.8973 237.772L79.0718 232.376C78.9365 232.034 78.7923 231.632 78.639 231.173C78.4858 230.704 78.3325 230.199 78.1793 229.658C78.044 230.208 77.8998 230.717 77.7465 231.186C77.5933 231.655 77.449 232.061 77.3138 232.403L75.5018 237.772H80.8973ZM88.159 245.304H84.6161C84.2194 245.304 83.8994 245.214 83.656 245.033C83.4126 244.844 83.2277 244.605 83.1015 244.317L81.9386 240.882H74.447L73.2841 244.317C73.1849 244.569 73.0046 244.799 72.7431 245.006C72.4907 245.205 72.1752 245.304 71.7966 245.304H68.2266L75.8534 225.601H80.5322L88.159 245.304ZM89.2256 245.304V231.281H91.822C92.3449 231.281 92.6874 231.515 92.8497 231.984L93.0796 232.741C93.314 232.498 93.5574 232.277 93.8098 232.079C94.0622 231.871 94.3327 231.696 94.6212 231.551C94.9187 231.398 95.2342 231.281 95.5678 231.2C95.9103 231.11 96.2845 231.065 96.6901 231.065C97.5376 231.065 98.2362 231.285 98.7862 231.727C99.3451 232.16 99.7688 232.741 100.057 233.472C100.292 233.039 100.576 232.669 100.909 232.363C101.252 232.056 101.617 231.808 102.005 231.619C102.401 231.43 102.816 231.29 103.249 231.2C103.69 231.11 104.128 231.065 104.56 231.065C105.363 231.065 106.075 231.186 106.697 231.43C107.319 231.664 107.837 232.011 108.252 232.471C108.676 232.922 108.996 233.481 109.212 234.148C109.429 234.806 109.537 235.554 109.537 236.392V245.304H105.345V236.392C105.345 234.941 104.723 234.215 103.479 234.215C102.911 234.215 102.437 234.405 102.059 234.783C101.689 235.153 101.504 235.689 101.504 236.392V245.304H97.3122V236.392C97.3122 235.59 97.1544 235.027 96.8389 234.702C96.5234 234.378 96.0591 234.215 95.4461 234.215C95.0674 234.215 94.7068 234.301 94.3642 234.472C94.0307 234.644 93.7152 234.873 93.4177 235.162V245.304H89.2256ZM134.995 239.597C134.156 239.633 133.467 239.706 132.926 239.814C132.385 239.922 131.957 240.057 131.641 240.219C131.326 240.382 131.105 240.566 130.978 240.774C130.861 240.981 130.803 241.207 130.803 241.45C130.803 241.928 130.933 242.266 131.195 242.464C131.456 242.653 131.839 242.748 132.344 242.748C132.885 242.748 133.358 242.653 133.764 242.464C134.17 242.275 134.58 241.968 134.995 241.545V239.597ZM127.449 233.228C128.296 232.48 129.234 231.925 130.262 231.565C131.298 231.195 132.407 231.01 133.588 231.01C134.436 231.01 135.198 231.15 135.874 231.43C136.559 231.7 137.136 232.083 137.605 232.579C138.082 233.066 138.447 233.647 138.7 234.323C138.952 235 139.079 235.739 139.079 236.541V245.304H137.158C136.762 245.304 136.46 245.25 136.252 245.142C136.054 245.033 135.887 244.808 135.752 244.466L135.454 243.695C135.103 243.992 134.765 244.254 134.44 244.479C134.116 244.704 133.778 244.898 133.426 245.061C133.083 245.214 132.714 245.326 132.317 245.399C131.93 245.48 131.497 245.52 131.019 245.52C130.379 245.52 129.797 245.439 129.275 245.277C128.752 245.106 128.305 244.858 127.936 244.533C127.575 244.209 127.296 243.807 127.097 243.33C126.899 242.843 126.8 242.284 126.8 241.653C126.8 241.148 126.926 240.639 127.179 240.125C127.431 239.602 127.868 239.129 128.49 238.705C129.112 238.272 129.951 237.912 131.005 237.623C132.06 237.335 133.39 237.172 134.995 237.136V236.541C134.995 235.721 134.823 235.13 134.481 234.77C134.147 234.4 133.669 234.215 133.047 234.215C132.552 234.215 132.146 234.269 131.83 234.378C131.515 234.486 131.231 234.607 130.978 234.743C130.735 234.878 130.496 235 130.262 235.108C130.027 235.216 129.748 235.27 129.423 235.27C129.135 235.27 128.891 235.198 128.693 235.054C128.495 234.909 128.332 234.738 128.206 234.54L127.449 233.228ZM150.318 234.716C150.444 234.644 150.561 234.522 150.67 234.351L151.616 232.877C151.355 232.615 151.053 232.376 150.71 232.16C150.368 231.934 149.989 231.741 149.574 231.578C149.16 231.416 148.713 231.29 148.236 231.2C147.767 231.11 147.28 231.065 146.775 231.065C145.846 231.065 145.035 231.186 144.341 231.43C143.647 231.664 143.07 231.984 142.61 232.39C142.15 232.795 141.803 233.269 141.569 233.81C141.343 234.342 141.231 234.905 141.231 235.5C141.231 236.14 141.325 236.685 141.515 237.136C141.704 237.587 141.952 237.97 142.258 238.286C142.565 238.592 142.912 238.849 143.3 239.056C143.696 239.255 144.098 239.426 144.503 239.57C144.909 239.715 145.306 239.845 145.693 239.962C146.09 240.071 146.441 240.192 146.748 240.328C147.055 240.454 147.302 240.607 147.492 240.787C147.681 240.968 147.776 241.198 147.776 241.477C147.776 241.63 147.744 241.779 147.681 241.923C147.618 242.067 147.519 242.198 147.384 242.315C147.248 242.433 147.068 242.527 146.843 242.599C146.617 242.662 146.342 242.694 146.018 242.694C145.558 242.694 145.175 242.64 144.868 242.532C144.571 242.424 144.309 242.306 144.084 242.18C143.859 242.054 143.647 241.937 143.448 241.829C143.259 241.72 143.043 241.666 142.799 241.666C142.538 241.666 142.322 241.72 142.15 241.829C141.988 241.928 141.853 242.067 141.745 242.248L140.771 243.789C141.041 244.033 141.366 244.263 141.745 244.479C142.123 244.686 142.533 244.867 142.975 245.02C143.426 245.173 143.89 245.295 144.368 245.385C144.846 245.475 145.324 245.52 145.801 245.52C146.757 245.52 147.6 245.403 148.33 245.169C149.069 244.934 149.687 244.605 150.183 244.182C150.688 243.758 151.066 243.253 151.319 242.667C151.571 242.081 151.697 241.441 151.697 240.747C151.697 240.179 151.603 239.692 151.413 239.286C151.233 238.881 150.99 238.538 150.683 238.259C150.377 237.97 150.03 237.731 149.642 237.542C149.254 237.344 148.858 237.172 148.452 237.028C148.046 236.884 147.65 236.753 147.262 236.636C146.874 236.519 146.527 236.397 146.221 236.271C145.914 236.136 145.666 235.982 145.477 235.811C145.297 235.64 145.206 235.423 145.206 235.162C145.206 234.801 145.346 234.522 145.626 234.323C145.914 234.116 146.324 234.012 146.856 234.012C147.226 234.012 147.555 234.058 147.843 234.148C148.132 234.229 148.389 234.319 148.614 234.418C148.849 234.517 149.065 234.612 149.263 234.702C149.462 234.783 149.66 234.824 149.858 234.824C150.048 234.824 150.201 234.788 150.318 234.716ZM162.713 234.351C162.605 234.522 162.488 234.644 162.362 234.716C162.244 234.788 162.091 234.824 161.902 234.824C161.704 234.824 161.505 234.783 161.307 234.702C161.109 234.612 160.892 234.517 160.658 234.418C160.432 234.319 160.175 234.229 159.887 234.148C159.599 234.058 159.269 234.012 158.9 234.012C158.368 234.012 157.958 234.116 157.669 234.323C157.39 234.522 157.25 234.801 157.25 235.162C157.25 235.423 157.34 235.64 157.521 235.811C157.71 235.982 157.958 236.136 158.264 236.271C158.571 236.397 158.918 236.519 159.306 236.636C159.693 236.753 160.09 236.884 160.496 237.028C160.901 237.172 161.298 237.344 161.686 237.542C162.073 237.731 162.42 237.97 162.727 238.259C163.033 238.538 163.277 238.881 163.457 239.286C163.646 239.692 163.741 240.179 163.741 240.747C163.741 241.441 163.615 242.081 163.362 242.667C163.11 243.253 162.731 243.758 162.226 244.182C161.731 244.605 161.113 244.934 160.374 245.169C159.644 245.403 158.801 245.52 157.845 245.52C157.367 245.52 156.889 245.475 156.412 245.385C155.934 245.295 155.47 245.173 155.019 245.02C154.577 244.867 154.167 244.686 153.788 244.479C153.41 244.263 153.085 244.033 152.815 243.789L153.788 242.248C153.896 242.067 154.032 241.928 154.194 241.829C154.365 241.72 154.582 241.666 154.843 241.666C155.086 241.666 155.303 241.72 155.492 241.829C155.69 241.937 155.902 242.054 156.128 242.18C156.353 242.306 156.615 242.424 156.912 242.532C157.219 242.64 157.602 242.694 158.061 242.694C158.386 242.694 158.661 242.662 158.886 242.599C159.112 242.527 159.292 242.433 159.427 242.315C159.562 242.198 159.662 242.067 159.725 241.923C159.788 241.779 159.819 241.63 159.819 241.477C159.819 241.198 159.725 240.968 159.535 240.787C159.346 240.607 159.098 240.454 158.792 240.328C158.485 240.192 158.134 240.071 157.737 239.962C157.349 239.845 156.953 239.715 156.547 239.57C156.141 239.426 155.74 239.255 155.343 239.056C154.956 238.849 154.609 238.592 154.302 238.286C153.996 237.97 153.748 237.587 153.558 237.136C153.369 236.685 153.274 236.14 153.274 235.5C153.274 234.905 153.387 234.342 153.612 233.81C153.847 233.269 154.194 232.795 154.654 232.39C155.113 231.984 155.69 231.664 156.385 231.43C157.079 231.186 157.89 231.065 158.819 231.065C159.324 231.065 159.81 231.11 160.279 231.2C160.757 231.29 161.203 231.416 161.618 231.578C162.033 231.741 162.411 231.934 162.754 232.16C163.096 232.376 163.398 232.615 163.66 232.877L162.713 234.351ZM171.011 239.814C171.552 239.706 172.242 239.633 173.08 239.597V241.545C172.665 241.968 172.255 242.275 171.85 242.464C171.444 242.653 170.971 242.748 170.43 242.748C169.925 242.748 169.542 242.653 169.28 242.464C169.019 242.266 168.888 241.928 168.888 241.45C168.888 241.207 168.947 240.981 169.064 240.774C169.19 240.566 169.411 240.382 169.726 240.219C170.042 240.057 170.47 239.922 171.011 239.814ZM168.347 231.565C167.319 231.925 166.382 232.48 165.534 233.228L166.292 234.54C166.418 234.738 166.58 234.909 166.779 235.054C166.977 235.198 167.22 235.27 167.509 235.27C167.833 235.27 168.113 235.216 168.347 235.108C168.582 235 168.82 234.878 169.064 234.743C169.316 234.607 169.6 234.486 169.916 234.378C170.231 234.269 170.637 234.215 171.133 234.215C171.755 234.215 172.233 234.4 172.566 234.77C172.909 235.13 173.08 235.721 173.08 236.541V237.136C171.475 237.172 170.146 237.335 169.091 237.623C168.036 237.912 167.198 238.272 166.576 238.705C165.954 239.129 165.516 239.602 165.264 240.125C165.012 240.639 164.885 241.148 164.885 241.653C164.885 242.284 164.984 242.843 165.183 243.33C165.381 243.807 165.661 244.209 166.021 244.533C166.391 244.858 166.837 245.106 167.36 245.277C167.883 245.439 168.464 245.52 169.104 245.52C169.582 245.52 170.015 245.48 170.403 245.399C170.799 245.326 171.169 245.214 171.511 245.061C171.863 244.898 172.201 244.704 172.526 244.479C172.85 244.254 173.188 243.992 173.54 243.695L173.837 244.466C173.973 244.808 174.139 245.033 174.338 245.142C174.545 245.25 174.847 245.304 175.244 245.304H177.164V236.541C177.164 235.739 177.038 235 176.785 234.323C176.533 233.647 176.168 233.066 175.69 232.579C175.221 232.083 174.644 231.7 173.959 231.43C173.283 231.15 172.521 231.01 171.674 231.01C170.493 231.01 169.384 231.195 168.347 231.565ZM188.349 235.04C188.034 234.689 187.691 234.445 187.322 234.31C186.952 234.166 186.564 234.094 186.159 234.094C185.771 234.094 185.415 234.17 185.09 234.323C184.766 234.477 184.482 234.725 184.238 235.067C184.004 235.401 183.819 235.838 183.684 236.379C183.549 236.92 183.481 237.573 183.481 238.34C183.481 239.079 183.535 239.701 183.643 240.206C183.752 240.711 183.9 241.121 184.09 241.436C184.288 241.743 184.522 241.964 184.793 242.099C185.063 242.234 185.365 242.302 185.699 242.302C186.005 242.302 186.28 242.275 186.524 242.221C186.776 242.158 187.006 242.072 187.213 241.964C187.421 241.856 187.615 241.72 187.795 241.558C187.984 241.387 188.169 241.193 188.349 240.977V235.04ZM192.541 225.06V245.304H189.945C189.422 245.304 189.08 245.07 188.917 244.601L188.593 243.532C188.313 243.83 188.02 244.1 187.714 244.344C187.407 244.587 187.074 244.799 186.713 244.979C186.361 245.151 185.978 245.281 185.564 245.372C185.158 245.471 184.716 245.52 184.238 245.52C183.508 245.52 182.832 245.358 182.21 245.033C181.588 244.709 181.052 244.24 180.601 243.627C180.15 243.014 179.794 242.266 179.533 241.382C179.28 240.49 179.154 239.476 179.154 238.34C179.154 237.294 179.298 236.325 179.587 235.432C179.875 234.531 180.281 233.756 180.804 233.106C181.336 232.448 181.971 231.934 182.71 231.565C183.45 231.195 184.265 231.01 185.158 231.01C185.888 231.01 186.501 231.114 186.997 231.321C187.493 231.529 187.944 231.808 188.349 232.16V225.06H192.541ZM204.745 231.565C203.87 231.231 202.901 231.065 201.837 231.065C200.765 231.065 199.786 231.231 198.903 231.565C198.028 231.898 197.271 232.376 196.631 232.998C196 233.62 195.509 234.378 195.157 235.27C194.815 236.154 194.643 237.15 194.643 238.259C194.643 239.376 194.815 240.386 195.157 241.288C195.509 242.18 196 242.942 196.631 243.573C197.271 244.195 198.028 244.677 198.903 245.02C199.786 245.353 200.765 245.52 201.837 245.52C202.901 245.52 203.87 245.353 204.745 245.02C205.619 244.677 206.367 244.195 206.99 243.573C207.621 242.942 208.107 242.18 208.45 241.288C208.802 240.386 208.977 239.376 208.977 238.259C208.977 237.15 208.802 236.154 208.45 235.27C208.107 234.378 207.621 233.62 206.99 232.998C206.367 232.376 205.619 231.898 204.745 231.565ZM203.96 241.396C203.51 242.072 202.802 242.41 201.837 242.41C200.846 242.41 200.12 242.072 199.66 241.396C199.2 240.711 198.971 239.674 198.971 238.286C198.971 236.897 199.2 235.865 199.66 235.189C200.12 234.513 200.846 234.175 201.837 234.175C202.802 234.175 203.51 234.513 203.96 235.189C204.42 235.865 204.65 236.897 204.65 238.286C204.65 239.674 204.42 240.711 203.96 241.396ZM215.01 233.445C215.443 232.687 215.939 232.092 216.497 231.66C217.065 231.227 217.714 231.01 218.445 231.01C219.076 231.01 219.59 231.159 219.986 231.457L219.716 234.54C219.671 234.738 219.594 234.873 219.486 234.946C219.387 235.018 219.247 235.054 219.067 235.054C218.995 235.054 218.9 235.049 218.783 235.04L218.61 235.027L218.418 235.013C218.291 234.995 218.161 234.982 218.025 234.973C217.899 234.955 217.782 234.946 217.674 234.946C217.061 234.946 216.57 235.108 216.2 235.432C215.839 235.757 215.533 236.208 215.28 236.785V245.304H211.088V231.281H213.577C213.784 231.281 213.955 231.299 214.09 231.335C214.235 231.371 214.352 231.43 214.442 231.511C214.541 231.583 214.613 231.682 214.658 231.808C214.712 231.934 214.758 232.088 214.794 232.268L215.01 233.445ZM229.975 234.716C230.101 234.644 230.219 234.522 230.327 234.351L231.273 232.877C231.012 232.615 230.71 232.376 230.367 232.16C230.025 231.934 229.646 231.741 229.231 231.578C228.817 231.416 228.37 231.29 227.893 231.2C227.424 231.11 226.937 231.065 226.432 231.065C225.504 231.065 224.692 231.186 223.998 231.43C223.304 231.664 222.727 231.984 222.267 232.39C221.807 232.795 221.46 233.269 221.226 233.81C221.001 234.342 220.888 234.905 220.888 235.5C220.888 236.14 220.983 236.685 221.172 237.136C221.361 237.587 221.609 237.97 221.916 238.286C222.222 238.592 222.569 238.849 222.957 239.056C223.354 239.255 223.755 239.426 224.16 239.57C224.566 239.715 224.963 239.845 225.35 239.962C225.747 240.071 226.099 240.192 226.405 240.328C226.712 240.454 226.96 240.607 227.149 240.787C227.338 240.968 227.433 241.198 227.433 241.477C227.433 241.63 227.401 241.779 227.338 241.923C227.275 242.067 227.176 242.198 227.041 242.315C226.905 242.433 226.725 242.527 226.5 242.599C226.274 242.662 225.999 242.694 225.675 242.694C225.215 242.694 224.832 242.64 224.525 242.532C224.228 242.424 223.967 242.306 223.741 242.18C223.516 242.054 223.304 241.937 223.106 241.829C222.916 241.72 222.7 241.666 222.457 241.666C222.195 241.666 221.979 241.72 221.807 241.829C221.645 241.928 221.51 242.067 221.402 242.248L220.428 243.789C220.699 244.033 221.023 244.263 221.402 244.479C221.78 244.686 222.191 244.867 222.632 245.02C223.083 245.173 223.547 245.295 224.025 245.385C224.503 245.475 224.981 245.52 225.459 245.52C226.414 245.52 227.257 245.403 227.987 245.169C228.727 244.934 229.344 244.605 229.84 244.182C230.345 243.758 230.723 243.253 230.976 242.667C231.228 242.081 231.354 241.441 231.354 240.747C231.354 240.179 231.26 239.692 231.07 239.286C230.89 238.881 230.647 238.538 230.34 238.259C230.034 237.97 229.687 237.731 229.299 237.542C228.911 237.344 228.515 237.172 228.109 237.028C227.703 236.884 227.307 236.753 226.919 236.636C226.531 236.519 226.184 236.397 225.878 236.271C225.571 236.136 225.323 235.982 225.134 235.811C224.954 235.64 224.864 235.423 224.864 235.162C224.864 234.801 225.003 234.522 225.283 234.323C225.571 234.116 225.981 234.012 226.513 234.012C226.883 234.012 227.212 234.058 227.5 234.148C227.789 234.229 228.046 234.319 228.271 234.418C228.506 234.517 228.722 234.612 228.92 234.702C229.119 234.783 229.317 234.824 229.515 234.824C229.705 234.824 229.858 234.788 229.975 234.716Z" fill="white"/>
</svg>
