<?xml version="1.0" encoding="UTF-8" standalone="no"?>
<!DOCTYPE svg PUBLIC "-//W3C//DTD SVG 1.1//EN" "http://www.w3.org/Graphics/SVG/1.1/DTD/svg11.dtd">
<svg width="100%" height="100%" viewBox="0 0 160 160" version="1.1" xmlns="http://www.w3.org/2000/svg" xmlns:xlink="http://www.w3.org/1999/xlink" xml:space="preserve" xmlns:serif="http://www.serif.com/" style="fill-rule:evenodd;clip-rule:evenodd;stroke-linejoin:round;stroke-miterlimit:2;">
    <g transform="matrix(0.74542,0,0,1.22723,9.6761,39.8061)">
        <rect id="Artboard1" x="-12.981" y="-32.436" width="214.644" height="130.374" style="fill:none;"/>
        <g id="Artboard11" serif:id="Artboard1">
            <g transform="matrix(1.34153,0,0,0.81484,-11.4892,-20.3656)">
                <path d="M64.351,116.558C63.748,116.869 63.124,117.099 62.47,117.241C61.813,117.382 61.141,117.45 60.461,117.45C59.737,117.45 59.065,117.338 58.453,117.106C57.84,116.875 57.31,116.554 56.862,116.128C56.414,115.702 56.071,115.187 55.817,114.582C55.57,113.978 55.443,113.306 55.443,112.559C55.443,111.812 55.57,111.14 55.817,110.536C56.063,109.931 56.414,109.416 56.862,108.99C57.31,108.564 57.84,108.236 58.453,108.012C59.065,107.788 59.737,107.668 60.461,107.668C61.185,107.668 61.895,107.758 62.514,107.937C63.142,108.116 63.687,108.422 64.165,108.863L62.716,110.438C62.432,110.147 62.119,109.931 61.768,109.781C61.417,109.632 60.976,109.557 60.454,109.557C60.013,109.557 59.617,109.632 59.266,109.781C58.915,109.931 58.609,110.14 58.355,110.409C58.102,110.677 57.907,110.991 57.773,111.364C57.639,111.73 57.571,112.133 57.571,112.559C57.571,112.985 57.639,113.395 57.773,113.761C57.907,114.127 58.102,114.441 58.355,114.709C58.609,114.978 58.915,115.187 59.266,115.337C59.625,115.486 60.021,115.561 60.454,115.561C60.887,115.561 61.282,115.508 61.611,115.411C61.932,115.314 62.193,115.21 62.387,115.105L62.387,113.597L60.715,113.597L60.715,111.708L64.351,111.708L64.351,116.558ZM64.351,116.558L64.359,116.554L64.351,116.569L64.351,116.558ZM22.593,82.483L14.223,99.485L8.085,99.485L22.563,71.574L37.258,99.485L30.926,99.485L22.593,82.483ZM36.862,95.498L40.416,91.234C42.88,93.265 45.464,94.557 48.592,94.557C51.056,94.557 52.542,93.579 52.542,91.973L52.542,91.899C52.542,90.376 51.601,89.592 47.032,88.419C41.521,87.008 37.96,85.485 37.96,80.049L37.96,79.974C37.96,75.009 41.947,71.724 47.539,71.724C51.526,71.724 54.931,72.978 57.701,75.203L54.573,79.743C52.146,78.063 49.764,77.048 47.457,77.048C45.15,77.048 43.94,78.108 43.94,79.437L43.94,79.512C43.94,81.311 45.113,81.893 49.846,83.11C55.402,84.559 58.523,86.553 58.523,91.324L58.523,91.406C58.523,96.842 54.379,99.888 48.473,99.888C44.329,99.888 40.147,98.44 36.862,95.505L36.862,95.498ZM59.247,95.498L62.801,91.234C65.265,93.265 67.849,94.557 70.977,94.557C73.441,94.557 74.927,93.579 74.927,91.973L74.927,91.899C74.927,90.376 73.986,89.592 69.417,88.419C63.906,87.008 60.345,85.485 60.345,80.049L60.345,79.974C60.345,75.009 64.332,71.724 69.924,71.724C73.912,71.724 77.316,72.978 80.087,75.203L76.958,79.743C74.531,78.063 72.15,77.048 69.842,77.048C67.535,77.048 66.326,78.108 66.326,79.437L66.326,79.512C66.326,81.311 67.498,81.893 72.232,83.11C77.787,84.559 80.915,86.553 80.915,91.324L80.915,91.406C80.915,96.842 76.771,99.888 70.865,99.888C66.721,99.888 62.54,98.44 59.255,95.505L59.247,95.498ZM82.879,72.112L103.524,72.112L103.524,77.473L88.867,77.473L88.867,83.021L101.77,83.021L101.77,88.382L88.867,88.382L88.867,94.131L103.726,94.131L103.726,99.485L82.879,99.485L82.879,72.112ZM113.679,77.667L105.354,77.667L105.354,72.112L128.03,72.112L128.03,77.667L119.705,77.667L119.705,99.485L113.679,99.485L113.679,77.667ZM128.03,95.498L131.584,91.234C134.048,93.265 136.632,94.557 139.76,94.557C142.224,94.557 143.71,93.579 143.71,91.973L143.71,91.899C143.71,90.376 142.769,89.592 138.2,88.419C132.689,87.008 129.128,85.485 129.128,80.049L129.128,79.974C129.128,75.009 133.115,71.724 138.707,71.724C142.695,71.724 146.099,72.978 148.87,75.203L145.741,79.743C143.314,78.063 140.932,77.048 138.625,77.048C136.318,77.048 135.108,78.108 135.108,79.437L135.108,79.512C135.108,81.311 136.281,81.893 141.015,83.11C146.57,84.559 149.691,86.553 149.691,91.324L149.691,91.406C149.691,96.842 145.547,99.888 139.641,99.888C135.497,99.888 131.315,98.44 128.03,95.505L128.03,95.498ZM83.469,39.939L74.382,46.756L69.969,29.411L90.585,34.608L83.469,39.939ZM78.892,12.925L84.611,23.005L70.313,28.037L78.892,12.925ZM60.397,45.509L69.237,29.934L78.078,64.624L60.397,45.509ZM90.704,33.749L70.873,28.754L85.037,23.766L90.704,33.749ZM91.794,35.668L97.379,45.509L89.002,54.566L91.794,35.668ZM79.101,65.274L74.793,48.354L87.718,55.955L79.101,65.274ZM74.905,47.428L90.995,35.362L88.076,55.164L74.905,47.428ZM66.166,107.907L69.764,107.907C70.235,107.907 70.69,107.952 71.108,108.042C71.534,108.131 71.907,108.288 72.229,108.505C72.55,108.721 72.803,109.005 72.99,109.371C73.177,109.737 73.274,110.185 73.274,110.73C73.274,111.387 73.102,111.947 72.759,112.402C72.415,112.865 71.915,113.156 71.258,113.276L73.625,117.203L71.168,117.203L69.227,113.485L68.211,113.485L68.211,117.203L66.158,117.203L66.158,107.9L66.166,107.907ZM68.219,111.76L69.428,111.76C69.615,111.76 69.809,111.76 70.011,111.738C70.22,111.723 70.399,111.685 70.571,111.618C70.735,111.551 70.877,111.446 70.982,111.312C71.086,111.178 71.146,110.976 71.146,110.722C71.146,110.483 71.101,110.297 71.004,110.155C70.907,110.013 70.787,109.908 70.638,109.834C70.489,109.759 70.317,109.707 70.123,109.684C69.929,109.662 69.742,109.647 69.555,109.647L68.219,109.647L68.219,111.76ZM74.177,112.559C74.177,111.812 74.304,111.14 74.551,110.536C74.797,109.931 75.148,109.416 75.596,108.99C76.044,108.564 76.574,108.236 77.186,108.012C77.799,107.788 78.471,107.668 79.195,107.668C79.919,107.668 80.591,107.78 81.204,108.012C81.816,108.236 82.346,108.564 82.794,108.99C83.242,109.416 83.585,109.931 83.839,110.536C84.086,111.14 84.213,111.812 84.213,112.559C84.213,113.306 84.086,113.978 83.839,114.582C83.593,115.187 83.242,115.702 82.794,116.128C82.346,116.554 81.816,116.882 81.204,117.106C80.591,117.33 79.919,117.45 79.195,117.45C78.471,117.45 77.799,117.338 77.186,117.106C76.574,116.875 76.044,116.554 75.596,116.128C75.148,115.702 74.805,115.187 74.551,114.582C74.304,113.978 74.177,113.306 74.177,112.559ZM76.305,112.559C76.305,113 76.373,113.395 76.507,113.761C76.641,114.127 76.836,114.441 77.089,114.709C77.343,114.978 77.649,115.187 78,115.337C78.359,115.486 78.754,115.561 79.188,115.561C79.621,115.561 80.024,115.486 80.375,115.337C80.733,115.187 81.032,114.978 81.286,114.709C81.54,114.441 81.734,114.127 81.868,113.761C82.002,113.395 82.07,113 82.07,112.559C82.07,112.118 82.002,111.73 81.868,111.364C81.734,110.998 81.54,110.677 81.286,110.409C81.032,110.14 80.726,109.931 80.375,109.781C80.024,109.632 79.621,109.557 79.188,109.557C78.754,109.557 78.351,109.632 78,109.781C77.649,109.931 77.343,110.14 77.089,110.409C76.836,110.677 76.641,110.991 76.507,111.364C76.373,111.73 76.305,112.133 76.305,112.559ZM93.449,113.627C93.449,114.179 93.367,114.687 93.202,115.15C93.038,115.613 92.792,116.016 92.463,116.36C92.135,116.703 91.724,116.972 91.231,117.158C90.738,117.345 90.178,117.45 89.536,117.45C88.894,117.45 88.319,117.353 87.826,117.158C87.334,116.964 86.923,116.696 86.594,116.36C86.266,116.016 86.019,115.613 85.855,115.15C85.691,114.687 85.609,114.179 85.609,113.627L85.609,107.915L87.662,107.915L87.662,113.552C87.662,113.843 87.707,114.112 87.797,114.351C87.886,114.597 88.021,114.806 88.185,114.986C88.349,115.165 88.551,115.307 88.782,115.404C89.014,115.508 89.267,115.553 89.536,115.553C89.805,115.553 90.059,115.501 90.283,115.404C90.507,115.307 90.709,115.165 90.873,114.986C91.037,114.806 91.171,114.59 91.261,114.351C91.351,114.105 91.403,113.836 91.403,113.552L91.403,107.915L93.456,107.915L93.456,113.627L93.449,113.627ZM95.338,107.907L98.802,107.907C99.288,107.907 99.743,107.952 100.169,108.042C100.602,108.131 100.975,108.281 101.289,108.497C101.61,108.714 101.864,108.997 102.05,109.363C102.237,109.729 102.334,110.185 102.334,110.737C102.334,111.29 102.245,111.738 102.073,112.104C101.894,112.469 101.655,112.768 101.349,112.985C101.042,113.201 100.677,113.358 100.258,113.448C99.84,113.537 99.385,113.582 98.892,113.582L97.391,113.582L97.391,117.211L95.338,117.211L95.338,107.907ZM97.406,111.85L98.765,111.85C98.952,111.85 99.124,111.835 99.295,111.797C99.467,111.76 99.616,111.7 99.758,111.618C99.893,111.536 100.005,111.424 100.087,111.275C100.169,111.133 100.214,110.946 100.214,110.73C100.214,110.491 100.161,110.304 100.049,110.155C99.937,110.005 99.803,109.901 99.631,109.819C99.459,109.737 99.273,109.692 99.064,109.669C98.855,109.647 98.653,109.64 98.459,109.64L97.406,109.64L97.406,111.85Z" style="fill:white;"/>
            </g>
        </g>
    </g>
</svg>
