<svg width="300" height="300" viewBox="0 0 300 300" fill="none" xmlns="http://www.w3.org/2000/svg">
<path fill-rule="evenodd" clip-rule="evenodd" d="M148.889 60.1855C146.159 64.2407 146.192 65.8569 149.068 69.1801C151.182 71.624 151.527 71.7302 152.913 70.3638C155.568 67.7438 155.717 62.6552 153.227 59.6477L151.034 57L148.889 60.1855ZM121.958 58.7932C121.959 58.9721 125.765 64.3546 130.417 70.7542C135.068 77.1548 140.684 85.2988 142.896 88.8526L146.919 95.3144L142.514 119.421C140.092 132.68 137.944 143.693 137.742 143.896C137.541 144.099 136.582 143.839 135.612 143.317C133.396 142.127 97.3196 133.032 91.2179 132.126L86.69 131.453V136.327C86.69 141.789 85.7749 141.218 97.2987 142.949C102.731 143.765 115.287 148.373 115.287 149.551C115.287 149.77 113.81 155.847 112.003 163.057C106.469 185.149 102.348 209.757 100.767 230.16C100.519 233.358 100.674 233.512 106.963 236.284C110.51 237.848 113.594 238.945 113.817 238.721C114.041 238.497 114.689 231.866 115.257 223.985C116.757 203.178 119.012 182.789 120.569 175.938C122.125 169.099 127.385 154.931 128.662 154.139C129.134 153.846 131.312 154.523 133.503 155.646L137.485 157.685L136.907 165.968C134.931 194.275 134.273 210.619 134.533 224.898L134.829 241.097L137.689 241.99C140.534 242.878 161.589 243.406 162.363 242.608C162.586 242.378 162.167 238.745 161.432 234.535C159.279 222.206 156.278 194.003 156.278 186.091L156.277 178.793L160.805 176.844C163.296 175.772 166.942 174.595 168.907 174.227L172.482 173.559V190.179C172.482 208.709 175.587 239.405 177.673 241.499C177.897 241.726 181.839 240.654 186.432 239.117L194.78 236.323L194.528 222.512C194.227 205.988 195.43 195.184 199.193 180.639C203 165.923 203.556 164.912 208.374 163.956C212.262 163.186 212.34 163.091 212.744 158.664C212.971 156.185 212.906 153.892 212.599 153.568C211.008 151.888 174.392 158.057 160.805 162.294L155.324 164.003V152.812C155.324 129.463 158.973 97.6999 163.403 82.4865C164.768 77.8016 167.372 70.737 169.191 66.7851C171.009 62.8341 172.387 59.5137 172.251 59.4085C172.116 59.3023 169.728 58.9568 166.944 58.641L161.882 58.0669L159.239 64.0091C157.784 67.2778 155.803 72.1043 154.837 74.7358C153.87 77.3672 152.951 79.6886 152.796 79.8953C152.41 80.4043 149.754 77.217 142.379 67.3936L136.148 59.0946L129.052 58.7817C125.149 58.6095 121.956 58.6152 121.958 58.7932ZM107.657 66.1392C107.052 67.9764 106.826 70.7044 107.154 72.202C107.835 75.3128 113.689 81.4684 115.122 80.5794C115.646 80.2541 116.355 78.3231 116.697 76.2878C117.524 71.3771 115.341 66.2167 111.619 64.2857L108.755 62.7987L107.657 66.1392ZM184.183 67.5314C177.878 69.0347 175.11 72.1225 171.915 81.2138C171.167 83.341 170.697 85.2241 170.87 85.3973C171.698 86.2289 185.605 81.543 187.447 79.812C189.416 77.9633 192.5 70.6709 192.5 67.8673C192.5 66.4779 189.167 66.343 184.183 67.5314ZM121.301 74.4965C118.705 79.3604 119.015 88.9072 121.962 94.8293C124.366 99.6596 134.205 108.705 137.054 108.705C139.51 108.705 138.071 91.1443 135.077 84.5792C132.845 79.6857 125.736 71.3867 123.776 71.3867C123.329 71.3867 122.215 72.7856 121.301 74.4965ZM199.529 72.2938C198.414 72.7656 196.593 74.4315 195.484 75.9969C193.722 78.48 193.657 78.9154 194.967 79.4197C197.429 80.3689 200.053 80.0857 203.005 78.5537C205.603 77.2055 208.391 73.6229 207.522 72.7502C206.585 71.8106 201.373 71.513 199.529 72.2938ZM94.7678 78.3949C93.2645 88.4565 102.568 99.2864 114.673 101.566C118.214 102.233 118.237 102.216 117.622 99.4912C114.859 87.2431 110.219 79.9221 102.817 76.1309C96.985 73.1445 95.4894 73.5655 94.7678 78.3949ZM187.097 85.7007C182.477 86.8059 175.806 91.085 172.579 95.0149C168.773 99.6501 166.823 105.579 166.109 114.683L165.527 122.096L170.719 120.302C187.834 114.392 195.169 106.135 196.111 91.7204L196.564 84.783L193.341 84.8806C191.568 84.9352 188.758 85.3036 187.097 85.7007ZM88.5984 94.1796C88.6012 100.98 92.5181 105.972 100.406 109.227L104.114 110.756L103.464 106.679C102.254 99.0778 97.6447 93.2629 91.4095 91.4678C88.6575 90.6755 88.5965 90.7348 88.5984 94.1796ZM206.275 101.416C202.811 102.958 198.455 107.907 197.619 111.251C197.027 113.619 197.753 122.908 198.595 123.754C199.371 124.534 202.708 123.052 206.676 120.167C211.436 116.706 214.573 110.807 214.76 104.964C214.896 100.736 214.795 100.563 212.042 100.347C210.469 100.223 207.874 100.705 206.275 101.416ZM110.615 110.595C109.19 117.263 110.438 121.607 115.405 127.27C119.334 131.751 123.68 134.503 130.818 137.032L134.617 138.377L134.13 129.804C133.304 115.259 127.523 107.475 116.578 106.174L111.684 105.592L110.615 110.595ZM85.7577 112.653C85.7854 115.643 88.8033 122.154 91.1178 124.218C92.1292 125.118 94.5171 126.511 96.4255 127.311C100.586 129.056 110.526 130.369 110.51 129.171C110.504 128.703 109.07 125.737 107.326 122.58C103.167 115.054 98.1146 111.412 91.013 110.821C85.9684 110.401 85.7377 110.481 85.7577 112.653ZM179.868 122.51C172.294 125.223 165.653 132.218 163.346 139.913C162.11 144.035 161.426 155.592 162.419 155.592C162.65 155.592 165.761 154.498 169.33 153.162C182.76 148.13 191.569 139.515 193.585 129.44C195.076 121.985 194.552 121.136 188.479 121.187C185.71 121.21 181.835 121.805 179.868 122.51ZM205.846 126.953C200.845 129.028 195.387 135.66 193.42 142.05C192.39 145.398 191.547 148.365 191.547 148.64C191.547 149.849 200.441 147.98 204.563 145.907C210.413 142.963 214.169 138.139 215.287 132.132C215.775 129.51 216.086 127.277 215.979 127.17C215.132 126.32 207.75 126.162 205.846 126.953ZM94.3417 150.516C90.8519 152.337 84.4775 159.934 85.0342 161.611C85.6424 163.44 91.8776 166.118 95.5304 166.118C101.92 166.118 109.195 161.162 111.407 155.302C112.365 152.764 112.227 152.539 108.848 151.105C103.3 148.752 98.127 148.542 94.3417 150.516ZM191.547 167.799C191.547 168.197 190.507 173.256 189.236 179.042C187.966 184.828 186.664 193.221 186.344 197.695C186.025 202.168 185.506 207.981 185.193 210.613C184.688 214.847 184.524 215.127 183.753 213.047C182.57 209.85 181.573 181.291 182.41 174.572C183.064 169.32 183.194 169.121 186.601 168.211C191.233 166.974 191.547 166.948 191.547 167.799Z" fill="white"/>
</svg>
