<svg width="300" height="300" viewBox="0 0 300 300" fill="none" xmlns="http://www.w3.org/2000/svg">
<path fill-rule="evenodd" clip-rule="evenodd" d="M149.864 64.4194C149.251 66.3001 148.552 68.2262 148.312 68.6994C148.072 69.1729 147.875 69.7043 147.875 69.8802C147.875 70.1681 147.225 71.6906 145.868 74.5805C145.604 75.1425 145.388 75.7709 145.388 75.9768C145.388 76.1827 145.16 76.6408 144.882 76.9947C144.604 77.3488 144.25 78.0073 144.096 78.4582C143.942 78.909 143.611 79.5449 143.359 79.8712C143.107 80.1974 142.901 80.6152 142.901 80.8C142.901 81.0837 141.865 83.3438 141.147 84.6247C141.032 84.8299 139.862 86.9394 138.546 89.3129C137.231 91.686 135.63 94.4459 134.99 95.4453C134.349 96.445 133.601 97.6312 133.327 98.0814C133.054 98.5315 132.711 99.0932 132.567 99.3295C132.422 99.566 132.116 100.019 131.887 100.336C131.657 100.654 129.879 103.151 127.936 105.887C125.992 108.622 123.475 112.005 122.342 113.404C120.061 116.222 119.728 116.962 120.405 117.709C120.998 118.365 121.93 118.321 123.131 117.581C123.678 117.244 124.367 116.965 124.661 116.961C124.955 116.957 125.794 116.675 126.526 116.334C127.258 115.993 128.095 115.714 128.386 115.712C128.677 115.711 129.629 115.446 130.5 115.122C131.371 114.799 132.772 114.466 133.612 114.383C134.453 114.299 135.74 113.991 136.472 113.699C137.539 113.273 138.666 113.122 142.155 112.939C144.549 112.813 147.011 112.59 147.626 112.443C149.741 111.938 153.907 111.874 155.755 112.317C156.687 112.54 159.408 112.826 161.801 112.951C165.134 113.126 166.473 113.298 167.521 113.685C168.273 113.962 169.735 114.304 170.768 114.443C171.802 114.583 173.145 114.922 173.752 115.198C174.36 115.473 175.137 115.702 175.479 115.707C175.82 115.711 176.66 115.99 177.344 116.326C178.028 116.663 178.787 116.941 179.03 116.946C179.274 116.95 180.026 117.233 180.701 117.575C182.015 118.241 182.93 118.352 183.701 117.939C184.661 117.426 184.283 116.531 181.758 113.339C180.424 111.654 178.718 109.419 177.965 108.373C177.213 107.327 176.368 106.171 176.088 105.806C175.807 105.44 175.198 104.525 174.733 103.773C174.268 103.021 173.602 102.058 173.253 101.632C172.904 101.207 172.059 99.9417 171.375 98.8207C170.691 97.6996 169.826 96.3132 169.453 95.7395C169.079 95.1658 168.771 94.5702 168.769 94.4158C168.766 94.2616 168.606 94.0042 168.413 93.8438C168.219 93.6832 167.824 93.0821 167.535 92.5077C167.246 91.9335 166.678 90.9599 166.273 90.3444C165.868 89.7289 165.305 88.7777 165.023 88.2306C164.741 87.6835 164.124 86.5644 163.652 85.7438C162.458 83.6685 159.563 77.7169 159.563 77.3384C159.563 77.1668 159.402 76.7957 159.204 76.514C159.007 76.2322 158.377 74.8401 157.805 73.4199C157.232 71.9999 156.664 70.6667 156.542 70.4576C156.305 70.0508 155.883 68.8688 154.253 64.0463L153.223 61H152.101H150.979L149.864 64.4194ZM152.522 66.9151C152.882 67.1442 153.346 68.3117 153.346 68.9899C153.346 69.2634 153.626 70.0988 153.968 70.8463C154.31 71.5938 154.589 72.3006 154.589 72.4167C154.589 72.7793 156.846 77.8417 157.481 78.9051C157.686 79.247 157.921 79.7476 158.005 80.0174C158.342 81.0989 163.568 90.8843 164.196 91.6074C164.383 91.8233 164.537 92.0735 164.537 92.1632C164.537 92.3744 165.89 94.6503 166.807 95.9803C167.2 96.5497 167.521 97.0943 167.521 97.1903C167.521 97.2863 168.005 98.1075 168.597 99.0149C171.255 103.09 172.037 104.264 173.259 106.011C173.975 107.037 174.795 108.212 175.081 108.622C175.367 109.033 176.366 110.297 177.302 111.432C179.532 114.134 179.275 114.909 176.598 113.559C174.741 112.623 168.144 111.25 161.179 110.349C158.033 109.942 146.467 109.872 143.896 110.244C139.184 110.927 136.899 111.269 135.441 111.512C133.231 111.881 128.284 113.182 127.447 113.615C126.648 114.028 125.494 114.085 125.494 113.711C125.494 113.569 126.412 112.263 127.534 110.81C128.656 109.356 130.006 107.542 130.534 106.778C132.326 104.185 134.818 100.493 135.221 99.8316C138.851 93.8851 140.663 90.8418 140.663 90.692C140.663 90.5908 140.822 90.3312 141.016 90.1154C141.209 89.8993 141.885 88.7155 142.517 87.4846C143.149 86.2536 143.761 85.0786 143.877 84.8734C144.498 83.7715 148.124 76.2181 148.125 76.0243C148.126 75.899 148.29 75.4839 148.489 75.1022C149.093 73.9444 150.752 69.6598 151.109 68.3361C151.509 66.853 151.864 66.4961 152.522 66.9151ZM160.359 74.7272C159.936 75.15 159.966 75.2877 160.869 77.0902C161.313 77.9777 161.875 79.1127 162.118 79.6126C162.361 80.1124 162.666 80.6893 162.795 80.8945C162.923 81.0997 163.593 82.3866 164.282 83.7543C164.971 85.1221 165.638 86.409 165.765 86.6142C165.892 86.8193 166.479 87.8581 167.069 88.9222C167.66 89.9865 168.446 91.3854 168.817 92.0307C169.188 92.6763 169.779 93.7078 170.131 94.3233C170.482 94.9388 171.102 95.9459 171.507 96.5614C171.912 97.1769 172.417 98.0162 172.629 98.4265C172.84 98.8369 173.285 99.5642 173.617 100.043C175.557 102.842 175.665 102.938 176.326 102.45C177.004 101.95 177.717 98.8995 177.717 96.493C177.717 94.572 177.629 94.1378 176.992 92.8862C175.959 90.8587 173.34 88.5116 171.756 88.1948C170.527 87.9488 170.383 87.5562 170.355 84.3648C170.33 81.4864 170.317 81.4234 169.417 79.8147C168.085 77.4321 165.753 75.7436 162.525 74.8244C160.859 74.35 160.741 74.3447 160.359 74.7272ZM141.409 75.1497C138.723 76.0059 136.668 77.7947 135.522 80.2728C134.91 81.5968 134.831 82.0633 134.816 84.4116C134.806 86.0141 134.687 87.1941 134.515 87.4022C134.357 87.5915 133.802 87.8996 133.281 88.0869C131.383 88.7682 129.29 90.7473 128.205 92.8862C127.562 94.1544 127.483 94.56 127.486 96.6164C127.488 98.5384 127.589 99.142 128.096 100.229C128.817 101.78 129.416 101.931 130.065 100.727C131.121 98.771 131.44 98.2413 131.812 97.8302C132.03 97.5895 132.208 97.3017 132.208 97.1906C132.208 97.0792 132.811 96.025 133.547 94.8475C134.284 93.6703 135.072 92.3711 135.297 91.9608C135.523 91.5505 136.038 90.7112 136.442 90.0957C136.846 89.4802 137.406 88.529 137.687 87.9819C137.969 87.4348 138.542 86.3717 138.963 85.6194C139.383 84.8672 139.95 83.8115 140.223 83.2736C140.496 82.7355 140.871 82.1431 141.058 81.9569C141.244 81.7706 141.515 81.1755 141.661 80.6346C141.807 80.0937 142.02 79.6511 142.135 79.6511C142.25 79.6511 142.477 79.2873 142.641 78.8429C142.805 78.3985 143.165 77.5855 143.442 77.0365C144.053 75.8261 143.979 74.8202 143.274 74.7578C143.001 74.7337 142.161 74.91 141.409 75.1497ZM150.978 76.6048C150.678 78.0839 150.132 79.8488 149.496 81.3919C148.205 84.5235 144.258 92.1409 142.086 95.691C139.444 100.008 136.001 104.942 134.409 106.69C133.334 107.87 133.224 108.359 133.944 108.745C134.331 108.952 134.695 108.878 135.637 108.401C136.296 108.066 137.278 107.715 137.817 107.621C138.357 107.526 139.581 107.246 140.539 106.998C142.1 106.593 147.707 105.901 148.272 106.042C148.395 106.073 149.253 106.01 150.178 105.901C152.381 105.643 159.498 106.16 162.547 106.8C163.846 107.072 165.463 107.407 166.141 107.544C166.817 107.681 167.792 108.007 168.307 108.27C170.765 109.524 171.074 108.237 168.93 105.673C166.263 102.484 162.794 97.1433 159.134 90.5931C157.131 87.0086 156.323 85.3556 154.133 80.3618C153.855 79.7269 153.549 78.7757 153.453 78.248C153.156 76.61 152.682 75.9209 151.852 75.9209C151.25 75.9209 151.092 76.0442 150.978 76.6048ZM146.134 113.99C144.151 114.114 141.465 114.299 140.166 114.403L137.803 114.591L137.729 115.471C137.662 116.276 137.778 116.451 139.097 117.526C141.488 119.474 142.648 119.938 145.126 119.935C147.748 119.931 149.215 119.505 151.066 118.206C151.853 117.654 152.589 117.202 152.701 117.202C152.812 117.202 153.444 117.654 154.103 118.206C155.654 119.505 158.269 120.435 160.366 120.435C162.187 120.434 164.031 119.664 166.335 117.942C169.31 115.718 168.401 114.902 162.321 114.339C157.286 113.872 150.416 113.724 146.134 113.99ZM195.1 117.39C190.032 120.79 182.511 130.101 171.611 146.47C170.045 148.821 168.764 150.817 168.764 150.905C168.764 150.994 168.442 151.532 168.047 152.101C167.653 152.67 166.652 154.271 165.823 155.657C164.994 157.043 163.583 159.243 162.688 160.545C161.793 161.846 160.939 163.174 160.789 163.495C160.64 163.816 160.14 164.75 159.677 165.57C159.215 166.391 158.666 167.454 158.457 167.933C158.247 168.412 157.968 168.971 157.836 169.176C157.703 169.382 157.325 170.119 156.995 170.815C156.266 172.35 155.3 173.002 152.949 173.546C152.005 173.764 150.505 174.153 149.616 174.411C148.727 174.668 147.608 174.943 147.129 175.022C146.65 175.101 145.18 175.399 143.862 175.685C140.851 176.339 139.826 176.203 139.442 175.1C138.958 173.714 139.124 173.298 141.115 170.898C143.955 167.474 144.634 166.938 146.134 166.938C147.154 166.938 147.51 166.807 148.248 166.159C148.736 165.731 149.967 164.962 150.984 164.451C152.722 163.578 152.939 163.53 154.578 163.647C156.557 163.788 157.076 163.542 157.076 162.462C157.076 161.553 153.79 157.488 153.054 157.488C152.776 157.488 151.989 157.992 151.304 158.607C150.619 159.223 149.943 159.726 149.802 159.726C149.661 159.726 148.955 160.23 148.235 160.846C147.515 161.461 146.775 161.968 146.592 161.972C146.408 161.975 145.819 162.311 145.282 162.718C144.744 163.124 144.207 163.457 144.089 163.457C143.412 163.457 141.037 165.404 139.42 167.284C137.108 169.973 136.428 171.227 136.256 173.122C136.042 175.484 136.331 176.706 137.381 177.872C138.197 178.78 138.483 178.924 139.917 179.151C141.49 179.401 144.113 179.127 144.766 178.645C145.147 178.364 150.355 176.692 151.481 176.489C152.028 176.391 152.774 176.089 153.14 175.82C154.136 175.083 155.001 175.402 155.563 176.712C155.861 177.407 156.307 177.923 156.871 178.227C157.668 178.656 157.78 178.661 158.496 178.291C158.919 178.072 160.144 176.911 161.217 175.71C163.645 172.996 165.3 171.414 165.712 171.414C166.201 171.414 166.089 172.358 165.434 173.753C164.663 175.394 164.215 177.612 164.426 178.739C164.737 180.395 166.753 181.192 168.025 180.163C168.56 179.729 168.57 179.655 168.255 178.424L167.925 177.137L169.153 174.719C169.828 173.389 170.986 171.457 171.726 170.427C174.399 166.707 176.002 164.553 176.974 163.373C177.595 162.62 177.965 161.916 177.965 161.491C177.965 160.608 176.387 158.731 175.646 158.733C174.387 158.735 170.438 160.79 169.36 162.003C168.492 162.979 166.007 164.949 165.643 164.949C165.093 164.949 165.22 164.458 166.157 162.959C166.627 162.207 167.525 160.752 168.153 159.726C168.781 158.701 169.731 157.19 170.264 156.369C170.798 155.549 171.309 154.73 171.4 154.55C172.115 153.137 177.301 145.595 179.479 142.801C180.517 141.47 181.944 139.502 182.651 138.428C183.357 137.354 184.327 135.917 184.805 135.236C185.283 134.555 185.674 133.869 185.674 133.712C185.674 133.555 185.83 133.298 186.02 133.14C186.211 132.982 186.443 132.341 186.537 131.715C186.849 129.638 188.394 127.527 193.483 122.23C195.194 120.449 196.667 118.702 196.757 118.346C197.096 116.995 196.339 116.559 195.1 117.39ZM266.352 125.015C265.613 125.337 265.211 126.005 264.906 127.416C264.83 127.768 264.508 128.439 264.191 128.908C263.874 129.377 262.836 131.031 261.885 132.583C260.933 134.136 259.514 136.43 258.731 137.681C257.947 138.932 257.076 140.348 256.795 140.827C256.513 141.305 255.675 142.648 254.933 143.811C253.47 146.103 251.527 149.246 250.654 150.728C250.353 151.24 249.737 152.083 249.286 152.601C248.49 153.515 248.402 153.548 246.228 153.759C242.94 154.077 239.76 155.195 237.249 156.913C236.687 157.298 235.792 157.907 235.26 158.267C234.727 158.627 234.02 159.214 233.689 159.572C232.831 160.5 231.812 160.453 231.3 159.462C230.696 158.295 229.926 158.54 229.55 160.018C229.348 160.814 228.538 162.147 226.981 164.246C223.963 168.314 223.76 168.618 221.979 171.723C220.279 174.686 220.295 174.431 221.65 177.01C222.584 178.786 223.323 179.621 223.962 179.621C224.723 179.621 225.889 178.463 226.064 177.534C226.258 176.499 228.57 171.461 229.557 169.922C229.951 169.307 230.586 168.176 230.966 167.41C232.031 165.265 233.404 163.701 236.135 161.521C238.634 159.526 241.262 158.076 244.319 157.005C246.688 156.175 247.182 156.603 245.907 158.384C245.525 158.917 244.446 160.584 243.51 162.089C242.573 163.593 241.414 165.44 240.933 166.192C240.453 166.944 239.797 167.98 239.476 168.492C239.155 169.006 238.629 169.845 238.307 170.358C237.985 170.871 237.089 172.31 236.317 173.556C235.544 174.802 234.457 176.339 233.9 176.972C233.242 177.719 232.916 178.309 232.968 178.658C233.012 178.954 233.687 179.752 234.467 180.432C235.58 181.403 236.119 181.695 236.969 181.791L238.052 181.913L240.862 178.964C242.407 177.342 243.793 175.735 243.94 175.393C244.087 175.051 245.391 173.597 246.838 172.161C248.284 170.724 250.118 168.843 250.913 167.981C251.708 167.118 252.49 166.457 252.651 166.511C252.834 166.573 252.925 167.109 252.896 167.955C252.76 171.82 252.788 173.629 253.039 177.258C253.19 179.447 253.53 182.077 253.794 183.103C254.057 184.128 254.351 185.471 254.446 186.087C254.542 186.702 254.886 187.734 255.211 188.379C255.536 189.024 255.803 189.87 255.803 190.259C255.803 190.647 255.961 191.181 256.154 191.446C256.493 191.91 256.515 191.904 256.806 191.265C257.042 190.748 257.041 190.264 256.802 189.03C256.634 188.163 256.396 186.895 256.273 186.211C256.039 184.905 255.518 175.119 255.48 171.29C255.455 168.891 255.943 164.622 256.321 163.914C256.793 163.033 261.67 159.726 262.498 159.726C262.66 159.726 263.204 159.447 263.707 159.105C264.21 158.763 264.792 158.483 264.999 158.482C265.207 158.481 266.104 158.005 266.993 157.423C268.106 156.695 268.636 156.182 268.693 155.779C268.803 155.002 268.378 154.575 267.893 154.977C267.693 155.143 266.989 155.487 266.329 155.741C261.974 157.416 260.036 158.216 258.911 158.804C258.638 158.946 257.699 159.436 256.824 159.892C255.95 160.348 254.993 160.721 254.697 160.721C254.401 160.721 253.774 161.126 253.302 161.62C252.831 162.115 251.326 163.251 249.959 164.144C248.591 165.037 247.155 166.031 246.769 166.353C245.123 167.723 244.826 166.381 246.332 164.379C246.867 163.666 248.111 161.741 249.095 160.099C250.079 158.458 251.057 156.919 251.268 156.68C251.749 156.135 252.652 156.118 253.09 156.646C253.56 157.212 254.378 157.476 254.746 157.18C255.208 156.808 255.138 156.586 254.228 155.562C253.05 154.236 252.995 153.922 253.765 152.911C254.133 152.428 255.05 151.129 255.803 150.026C256.555 148.923 257.877 147.101 258.741 145.978C259.604 144.854 260.739 143.376 261.262 142.692C261.785 142.008 263.514 140.113 265.105 138.48C267.014 136.521 268.22 135.055 268.655 134.167C269.017 133.427 269.462 132.765 269.645 132.695C270.081 132.527 270.134 126.154 269.699 126.154C269.546 126.154 269.039 125.819 268.572 125.408C267.621 124.573 267.44 124.542 266.352 125.015ZM99.1386 131.144C98.7994 131.286 98.3518 131.552 98.1439 131.733C97.9357 131.915 97.4859 132.149 97.1439 132.253C96.5916 132.421 95.4631 132.957 92.046 134.676C90.6317 135.387 87.8361 137.296 83.2173 140.705C81.9182 141.664 80.6146 142.615 80.3204 142.819C77.987 144.435 70.502 150.292 68.9915 151.685C68.3476 152.278 67.5934 152.763 67.3154 152.763C67.0376 152.763 66.1864 152.199 65.4242 151.508C64.3309 150.518 63.9231 150.289 63.4941 150.423C62.4954 150.734 62.4156 151.094 62.953 152.865C63.4626 154.545 63.417 155.662 62.7976 156.664C62.5084 157.132 60.6052 159.067 58.5683 160.965L54.8646 164.416L53.4365 164.563C51.0964 164.804 47.876 165.636 46.2886 166.41C45.7415 166.677 44.1898 167.41 42.8402 168.039C38.9217 169.866 35.7607 172.299 34.1274 174.744C33.6166 175.509 33.4815 176.014 33.4815 177.161C33.4815 178.496 33.5524 178.681 34.3887 179.517C35.5063 180.634 37.5281 181.605 38.7456 181.608C40.6053 181.613 40.9298 182.239 39.7806 183.605C38.8742 184.682 33.9473 191.871 31.3904 195.847C30.8846 196.634 30.3648 197.277 30.2355 197.277C30.1059 197.277 30 198.066 30 199.03C30 200.766 30.0099 200.792 31.0917 201.89C31.692 202.499 32.3075 202.997 32.4595 202.997C32.6112 202.997 32.7355 203.165 32.7355 203.37C32.7355 203.66 33.067 203.743 34.2276 203.743C35.3822 203.743 35.7197 203.659 35.7197 203.373C35.7197 203.17 36.1026 202.844 36.5707 202.648C37.5907 202.222 38.1759 201.398 38.3803 200.101C38.4636 199.574 38.906 198.553 39.3638 197.832C39.8214 197.111 40.1959 196.433 40.1959 196.325C40.1959 196.216 40.5384 195.874 40.9569 195.565C41.831 194.919 41.9031 193.92 41.0758 193.92C40.7204 193.92 40.5302 194.163 40.3762 194.814C40.2143 195.499 39.9557 195.808 39.2713 196.134C38.5499 196.478 38.3383 196.497 38.1717 196.235C37.8581 195.74 37.9158 195.384 38.3701 195.007C38.9204 194.552 39.6864 192.834 39.6931 192.039C39.6961 191.688 40.5324 190.009 41.5517 188.309L43.4047 185.216L44.8316 185.092C46.2001 184.973 46.2792 184.927 46.7713 183.973C47.1861 183.168 47.4365 182.963 48.0806 182.901C48.5185 182.859 49.1214 182.955 49.4203 183.115C49.8982 183.371 50.0363 183.313 50.5687 182.632C51.1195 181.929 51.301 181.859 52.5857 181.86C53.3624 181.86 54.9489 181.634 56.1115 181.357C58.4959 180.789 65.4756 179.413 67.5509 179.103C68.3031 178.99 69.3662 178.74 69.9133 178.546C70.4604 178.353 71.7474 178.055 72.7732 177.883C73.799 177.712 74.929 177.423 75.2844 177.242C75.6397 177.06 76.7028 176.773 77.6468 176.604C78.5908 176.435 79.8482 176.094 80.4408 175.845C81.0334 175.597 81.8028 175.393 82.1505 175.393C82.4981 175.393 83.412 175.118 84.1814 174.781C84.9509 174.444 86.6924 173.879 88.0519 173.525C89.4112 173.171 91.0766 172.616 91.7528 172.293C93.0967 171.649 93.1844 171.661 95.0936 172.725C96.4193 173.463 96.9301 173.983 97.6918 175.369C97.9721 175.879 98.309 176.142 98.6865 176.146C99.0046 176.15 99.8091 176.645 100.501 177.263C102.726 179.251 104.031 179.565 105.648 178.502C106.168 178.16 107.02 177.6 107.54 177.258C108.06 176.917 108.59 176.637 108.717 176.637C108.845 176.637 109.51 176.372 110.196 176.049C110.882 175.725 111.835 175.278 112.314 175.056C112.792 174.833 113.352 174.547 113.557 174.42C114.554 173.804 116.173 173.185 116.342 173.354C116.447 173.459 116.199 174.25 115.791 175.113C115.383 175.976 115.049 176.878 115.049 177.118C115.049 177.801 116.716 179.372 117.441 179.372C117.916 179.372 119.019 178.441 121.968 175.549C124.112 173.446 126.594 171.134 127.483 170.411C128.372 169.687 129.939 168.291 130.965 167.309C132.926 165.431 133.8 164.827 134.201 165.075C134.455 165.233 133.886 166.413 132.822 167.933C130.669 171.011 129.703 172.592 128.529 174.957C127.8 176.427 127.273 177.742 127.358 177.879C127.648 178.348 128.216 178.13 128.59 177.405C128.796 177.007 129.072 176.644 129.203 176.597C129.453 176.508 129.579 176.351 132.984 171.872C134.163 170.321 135.794 168.37 136.608 167.536C137.422 166.702 138.62 165.218 139.272 164.239C140.321 162.66 140.457 162.301 140.468 161.071C140.481 159.55 140.008 158.65 138.851 157.993C138.303 157.682 138.062 157.676 137.258 157.954C136.188 158.323 134.658 159.324 132.83 160.85C130.213 163.034 129.409 162.978 131.201 160.736C131.9 159.862 132.431 159.026 132.381 158.877C132.332 158.729 131.965 158.511 131.566 158.392C131.167 158.274 130.473 158.022 130.024 157.833C128.93 157.371 127.972 157.399 127.228 157.912C126.376 158.499 126.008 159.013 125.999 159.631C125.982 160.771 118.995 170.171 118.164 170.171C117.998 170.171 117.665 170.388 117.424 170.654C117.184 170.92 116.67 171.207 116.284 171.292C115.897 171.377 115.445 171.609 115.28 171.809C115.115 172.008 114.495 172.293 113.903 172.442C113.31 172.591 112.697 172.868 112.541 173.057C112.384 173.246 111.794 173.525 111.23 173.676C110.666 173.828 109.905 174.166 109.539 174.427C109.173 174.687 108.501 174.974 108.045 175.064C107.589 175.155 106.656 175.488 105.972 175.806C104.525 176.478 103.552 176.545 103.103 176.004C102.837 175.683 102.905 175.449 103.516 174.579C103.919 174.006 104.58 173.371 104.986 173.167C105.391 172.963 106.115 172.559 106.594 172.27C107.073 171.981 107.8 171.661 108.21 171.56C108.621 171.459 109.545 170.987 110.265 170.51C110.985 170.033 112.104 169.41 112.752 169.125C114.602 168.311 117.755 166.114 119.719 164.271C121.397 162.696 121.515 162.517 121.515 161.537C121.515 160.644 121.344 160.295 120.357 159.175C119.72 158.453 119.06 157.779 118.891 157.677C118.134 157.224 111.824 160.906 107.636 164.246C105.678 165.807 104.934 166.079 105.203 165.135C105.891 162.728 105.645 161.461 104.084 159.353C101.257 155.537 95.8901 151.958 92.3616 151.535C91.5777 151.441 90.8603 151.287 90.767 151.194C90.3599 150.787 91.2383 149.743 92.4762 149.162C93.1971 148.825 94.0106 148.407 94.2841 148.235C94.5577 148.062 95.7886 147.306 97.0196 146.555C98.2506 145.803 99.9583 144.71 100.814 144.126C101.671 143.543 102.444 143.065 102.533 143.065C102.684 143.065 103.358 142.66 106.414 140.736C107.755 139.892 108.076 139.145 107.598 137.985C107.424 137.565 107.119 136.717 106.918 136.102C106.272 134.12 106.171 133.972 104.48 132.487C102.875 131.077 102.759 131.022 101.285 130.954C100.443 130.916 99.4776 131.001 99.1386 131.144ZM97.3926 139.076C97.3926 139.365 97.4647 139.304 93.9752 141.973C93.1272 142.622 92.1703 142.947 92.1703 142.587C92.1703 142.443 92.5916 142.059 93.1066 141.734C93.6214 141.409 94.1946 140.96 94.3803 140.736C94.5661 140.512 94.8536 140.329 95.0195 140.329C95.1853 140.329 95.62 139.994 95.9856 139.583C96.6284 138.862 97.3926 138.586 97.3926 139.076ZM91.673 143.176C91.673 143.59 89.7867 144.885 87.4454 146.078C86.5563 146.531 85.5621 147.101 85.2358 147.345C84.5492 147.86 83.3715 147.952 83.5279 147.479C83.5843 147.308 83.9574 147 84.3568 146.795C84.7561 146.59 85.1187 146.343 85.1625 146.245C85.259 146.031 87.8231 144.294 88.6888 143.857C89.0307 143.684 89.5903 143.381 89.9322 143.183C90.7402 142.716 91.673 142.712 91.673 143.176ZM192.751 151.591C192.244 151.892 189.638 154.563 184.569 159.975C181.709 163.028 178.961 166.311 176.687 169.391C175.916 170.435 175.008 171.626 174.67 172.036C173.071 173.978 171.5 176.63 171.5 177.389C171.5 178.262 172.861 179.87 173.601 179.87C174.52 179.87 176.785 178.29 178.962 176.13C179.449 175.647 180.292 174.925 180.834 174.526C181.376 174.127 182.79 172.983 183.975 171.985C185.16 170.987 186.308 170.171 186.524 170.171C187.075 170.171 187.026 171.087 186.386 172.759L185.855 174.148L186.462 175.33C187.093 176.56 188.093 177.268 188.857 177.026C189.098 176.949 190.182 175.795 191.265 174.461C195.403 169.368 199.946 164.451 200.515 164.451C200.887 164.451 200.97 165.588 200.614 165.807C200.488 165.886 200.192 166.536 199.956 167.252C199.72 167.969 199.319 168.945 199.066 169.421C198.813 169.898 198.606 170.515 198.606 170.791C198.606 171.068 198.326 171.82 197.984 172.462C197.625 173.138 197.362 174.042 197.362 174.607C197.362 175.376 197.229 175.672 196.741 175.992C196.255 176.311 196.119 176.61 196.119 177.362C196.119 179.216 197.293 178.781 197.546 176.833C197.622 176.246 197.827 175.682 198.002 175.578C198.177 175.474 198.454 174.984 198.618 174.487C198.781 173.991 199.182 173.193 199.507 172.714C199.832 172.234 200.098 171.66 200.098 171.438C200.098 171.215 200.356 170.643 200.672 170.167C200.988 169.69 201.38 168.838 201.544 168.273C201.707 167.708 202.008 167.107 202.213 166.937C202.417 166.768 202.585 166.454 202.585 166.24C202.585 166.027 202.795 165.397 203.052 164.841C205.361 159.841 205.347 159.895 204.57 158.908C203.288 157.278 201.028 157.585 198.524 159.728C196.977 161.053 196.248 161.239 195.124 160.597C193.692 159.778 192.399 160.219 188.41 162.887C185.396 164.903 184.68 165.306 184.68 164.982C184.68 164.681 187.643 160.959 189.16 159.353C189.807 158.67 190.855 157.327 191.489 156.369C192.123 155.412 193.033 154.085 193.51 153.42C194.532 151.997 194.638 151.267 193.819 151.28C193.511 151.285 193.031 151.425 192.751 151.591ZM86.6528 154.511C92.0209 154.886 93.418 155.143 95.526 156.144C97.3526 157.011 99.5646 158.566 100.432 159.593C101.145 160.437 101.697 162.123 101.507 162.879C101.184 164.165 97.8686 166.68 95.5101 167.429C94.9727 167.6 94.0392 168.022 93.4359 168.367C91.86 169.27 90.6183 169.215 89.6256 168.2C89.0422 167.603 88.704 167.44 88.273 167.548C87.9569 167.628 87.2778 167.511 86.7635 167.289C85.2684 166.644 82.1524 165.703 81.4964 165.699C81.1654 165.697 80.2125 165.422 79.3789 165.089C78.316 164.663 77.1783 164.443 75.5674 164.351C74.3043 164.279 73.0544 164.105 72.7896 163.963C72.1845 163.639 71.0247 163.636 70.535 163.958C70.2036 164.176 70.2036 164.23 70.535 164.452C70.7402 164.589 71.3557 164.82 71.9028 164.964C72.4499 165.109 73.3954 165.391 74.0039 165.592C74.6124 165.792 76.2351 166.078 77.6098 166.226C78.9845 166.375 80.4114 166.652 80.7807 166.842C81.1503 167.032 81.7672 167.187 82.1522 167.187C82.5372 167.187 83.2981 167.431 83.8432 167.729C84.3883 168.027 85.4791 168.35 86.2669 168.448C88.0144 168.664 88.9375 169.216 88.9375 170.043C88.9375 170.558 88.7442 170.706 87.6488 171.032C86.9403 171.242 86.1632 171.414 85.9225 171.414C85.6815 171.414 85.1142 171.633 84.6619 171.9C83.3944 172.647 78.3451 174.192 74.4513 175.024C73.5277 175.221 72.5205 175.544 72.2131 175.742C71.9058 175.939 71.0946 176.18 70.4107 176.277C69.7268 176.374 68.4625 176.669 67.6011 176.932C66.7397 177.195 64.8169 177.561 63.328 177.744C61.8394 177.928 60.4911 178.159 60.3322 178.257C60.173 178.356 58.7946 178.629 57.2689 178.865C55.7432 179.101 54.3272 179.34 54.1221 179.396C53.8505 179.469 53.7304 179.26 53.6807 178.626C53.6217 177.875 53.805 177.541 55.0166 176.19C55.9148 175.188 56.9349 174.364 57.8476 173.904C59.2909 173.175 61.685 170.749 63.1256 168.555C63.4847 168.008 64.3755 166.932 65.1051 166.164C66.3119 164.894 66.5504 164.754 67.7434 164.621C69.4826 164.426 69.6567 164.293 69.1633 163.54C68.7791 162.954 68.7968 162.846 69.5229 161.341C70.4221 159.476 70.4348 159.334 69.789 158.359C69.3891 157.755 69.0944 156.31 69.3538 156.225C69.3879 156.213 70.4791 156.153 71.7785 156.09C73.1375 156.025 74.7218 155.779 75.5087 155.512C76.2609 155.256 77.8836 154.913 79.1146 154.75C80.3455 154.586 81.4646 154.417 81.6014 154.374C82.0582 154.229 82.9746 154.254 86.6528 154.511ZM220.501 158.842C220.337 159.04 219.661 159.382 218.998 159.602C218.335 159.822 217.658 160.164 217.494 160.362C217.33 160.56 217.09 160.721 216.961 160.721C216.831 160.721 216.237 161.057 215.641 161.467C215.044 161.878 214.496 162.213 214.422 162.213C214.211 162.213 210.59 164.686 208.783 166.064C206.032 168.162 203.766 170.208 202.08 172.118C199.389 175.166 199.344 175.494 201.326 177.569C203.111 179.438 203.541 179.384 205.997 176.985C208.998 174.055 214.171 170.31 214.986 170.478C215.603 170.606 215.347 171.378 214.189 172.882C213.021 174.398 212.239 175.631 211.682 176.838C211.473 177.29 211.075 177.949 210.798 178.301C210.215 179.042 210.152 179.691 210.625 180.084C211.046 180.433 211.466 180.115 212.479 178.685C213.213 177.647 214.6 176.045 217.657 172.702C218.493 171.789 219.824 170.146 220.615 169.052C221.407 167.958 222.395 166.7 222.811 166.256C223.568 165.45 223.568 165.45 223.148 164.569C222.595 163.409 222.618 162.887 223.25 162.315C223.665 161.94 223.746 161.646 223.643 160.881C223.404 159.101 221.378 157.786 220.501 158.842ZM104.537 166.744C103.815 167.811 100.999 170.586 100 171.216C99.451 171.561 98.8499 172.027 98.6641 172.251C98.4784 172.475 98.0029 172.658 97.6072 172.658C97.0626 172.658 96.7682 172.462 96.3952 171.85C95.7598 170.808 95.773 170.492 96.4601 170.284C96.7679 170.192 97.3553 169.976 97.7656 169.804C98.176 169.633 99.0153 169.287 99.6308 169.036C100.246 168.784 101.405 168.09 102.206 167.492C104.308 165.923 105.309 165.602 104.537 166.744ZM52.0401 167.553C52.1289 167.785 51.4403 168.725 50.172 170.102C49.0671 171.303 46.839 173.907 45.2203 175.89C43.4507 178.059 42.0163 179.588 41.6224 179.726C41.1474 179.893 40.7077 179.845 40.0221 179.55C39.5024 179.326 38.6021 179.022 38.0217 178.875C36.8629 178.582 36.0631 177.513 36.3431 176.632C36.4264 176.369 37.642 175.106 39.0443 173.824C41.2377 171.82 42.0262 171.282 44.6874 169.973C48.0105 168.338 50.7425 167.218 51.4565 167.199C51.7002 167.192 51.9628 167.352 52.0401 167.553ZM57.1038 168.01C57.0976 168.76 55.745 171.085 54.3623 172.722L52.8406 174.523L53.0038 176.077C53.1286 177.266 53.0913 177.632 52.8456 177.632C52.669 177.632 52.2816 177.936 51.9849 178.308C51.5194 178.892 51.3901 178.939 51.0429 178.651C50.5749 178.262 50.5199 177.327 50.9208 176.578C51.1456 176.158 51.121 175.996 50.7965 175.759C49.8271 175.05 50.3207 174.222 54.1368 170.155C56.4684 167.671 57.1105 167.206 57.1038 168.01ZM48.8998 178.037C48.8998 178.439 47.8272 179.87 47.5263 179.87C46.6462 179.87 46.8763 178.797 47.8725 178.256C48.5941 177.864 48.8998 177.799 48.8998 178.037ZM45.0562 184.08C44.8117 184.475 44.4178 184.153 44.5916 183.7C44.6874 183.45 44.8229 183.402 44.9821 183.562C45.1161 183.696 45.1494 183.929 45.0562 184.08ZM150.939 187.96C149.679 188.812 148.855 190.184 149.235 190.799C149.46 191.163 148.692 192.546 147.677 193.605C146.91 194.405 146.774 194.73 146.684 195.974C146.585 197.351 146.625 197.474 147.587 198.69C148.376 199.688 148.871 200.056 149.873 200.389C151.084 200.791 151.225 200.79 152.559 200.373C154.565 199.746 155.706 198.95 156.474 197.64C157.045 196.665 157.12 196.317 156.993 195.241C156.845 193.993 156.855 193.969 158.196 192.463C160.2 190.214 160.289 189.144 158.569 187.952L157.591 187.274L156.775 187.751C155.609 188.432 155.339 189.363 156.034 190.303C156.334 190.708 156.577 191.185 156.574 191.361C156.572 191.538 155.943 191.986 155.178 192.358C153.591 193.129 153.329 193.065 151.481 191.461C150.657 190.747 150.532 190.523 150.752 190.16C150.899 189.919 151.319 189.622 151.686 189.5C152.233 189.318 152.49 189.392 153.105 189.91C153.949 190.62 154.523 190.54 154.738 189.683C154.959 188.804 154.648 188.153 153.739 187.591C152.646 186.916 152.447 186.942 150.939 187.96ZM93.7325 190.117C92.9843 190.478 92.5754 191.846 92.7532 193.394C92.8336 194.094 92.8047 195.078 92.6893 195.581C92.4143 196.78 92.8253 197.624 93.736 197.73C94.3135 197.797 94.4761 197.674 94.7832 196.938C95.3007 195.7 95.5586 195.647 96.2029 196.651C96.7771 197.546 97.5781 197.948 98.2625 197.685C98.8106 197.475 98.7178 196.526 98.083 195.85L97.5301 195.262L98.2257 194.025C99.2179 192.259 98.834 191.055 96.9738 190.097C96.2994 189.749 94.4701 189.761 93.7325 190.117ZM101.39 190.472C100.934 191.051 100.874 191.47 100.874 194.068C100.874 197.507 101.066 197.853 103.127 198.126C104.689 198.333 105.35 198.005 105.35 197.025C105.35 196.271 105.154 196.153 103.612 195.979C103.27 195.941 102.958 195.724 102.914 195.496C102.837 195.088 103.001 195 104.434 194.681C104.98 194.559 105.117 194.403 105.056 193.974C104.997 193.558 104.784 193.404 104.188 193.346C102.667 193.199 102.454 192.055 103.948 192.055C104.879 192.055 105.35 191.679 105.35 190.936C105.35 190.096 104.847 189.817 103.329 189.817C102.087 189.817 101.839 189.9 101.39 190.472ZM108.185 190.662C106.856 191.991 107.155 193.428 108.995 194.566C110.002 195.188 110.028 195.897 109.044 195.934C107.513 195.992 107.228 196.503 108.104 197.617C109.069 198.844 111.402 198.28 112.185 196.629C112.393 196.192 112.562 195.712 112.562 195.562C112.562 195.154 110.854 193.342 110.305 193.168C109.585 192.94 109.683 192.055 110.428 192.055C111.877 192.055 112.268 191.252 111.272 190.324C110.409 189.52 109.194 189.654 108.185 190.662ZM116.168 190.23C114.931 190.882 114.34 191.567 113.918 192.838C113.547 193.953 113.548 194.128 113.925 195.102C114.404 196.342 114.884 196.959 115.958 197.718C117.64 198.906 120.103 197.995 121.194 195.782C121.913 194.321 121.892 193.678 121.074 192.186C119.952 190.141 117.894 189.32 116.168 190.23ZM124.002 190.314C123.728 190.588 123.493 191.008 123.48 191.247C123.285 194.766 123.368 197.31 123.687 197.575C124.157 197.965 124.813 197.557 125.001 196.758C125.218 195.839 125.914 195.887 126.827 196.884C127.741 197.882 128.335 198.009 128.72 197.29C128.914 196.927 128.872 196.58 128.55 195.906C128.126 195.017 128.13 194.992 128.814 193.775L129.507 192.542L128.956 191.651C128.199 190.426 127.115 189.819 125.68 189.818C124.83 189.817 124.36 189.956 124.002 190.314ZM131.027 190.196C130.251 190.743 130.321 191.469 131.191 191.919C132.119 192.399 132.164 192.554 132.017 194.808C131.876 196.979 132.16 197.775 133.078 197.775C134.012 197.775 134.283 196.984 134.127 194.713C133.992 192.744 133.995 192.731 134.766 192.027C135.447 191.405 135.511 191.236 135.299 190.63C135.07 189.977 134.968 189.938 133.322 189.871C132.049 189.82 131.437 189.907 131.027 190.196ZM137.64 190.822C137.114 191.375 136.684 192.066 136.684 192.359C136.684 192.864 138.73 195.039 139.206 195.039C139.323 195.039 139.42 195.195 139.42 195.385C139.42 195.602 138.979 195.812 138.239 195.946C137.289 196.119 137.042 196.269 136.979 196.713C136.921 197.115 137.123 197.4 137.725 197.767C138.933 198.504 139.981 198.419 141.027 197.5C141.741 196.874 141.907 196.552 141.907 195.793C141.907 194.69 141.251 193.748 140.174 193.302C139.087 192.851 139.141 192.055 140.26 192.055C140.729 192.055 141.247 191.878 141.432 191.654C141.72 191.308 141.656 191.155 140.962 190.535C139.782 189.481 138.839 189.562 137.64 190.822ZM174.111 190.231C173.014 190.81 172.498 191.323 171.971 192.356C171.281 193.707 171.372 194.726 172.308 196.15C173.243 197.571 174.378 198.322 175.595 198.322C177.422 198.322 179.706 195.858 179.706 193.888C179.706 192.827 178.567 191.142 177.377 190.445C176.153 189.728 175.184 189.664 174.111 190.231ZM180.963 190.288C180.536 191.087 180.655 191.509 181.476 192.11L182.252 192.677L182.104 194.809C181.945 197.096 182.1 197.526 183.083 197.526C184.036 197.526 184.256 196.949 184.13 194.775C184.016 192.802 184.025 192.766 184.739 192.207C185.331 191.744 185.449 191.484 185.383 190.79L185.301 189.941L183.264 189.869C181.448 189.805 181.198 189.851 180.963 190.288ZM188.22 190.075C187.388 190.409 187.167 191.29 187.167 194.271C187.167 197.404 187.264 197.565 189.424 198.006C190.996 198.327 191.597 198.186 191.883 197.429C192.194 196.607 191.745 196.034 190.79 196.034C189.907 196.034 189.493 195.547 189.971 195.07C190.125 194.916 190.494 194.791 190.792 194.791C191.09 194.791 191.472 194.623 191.643 194.418C192.058 193.917 191.63 193.408 190.624 193.206C189.569 192.996 189.721 192.209 190.836 192.102C191.825 192.006 192.242 191.359 191.898 190.455C191.675 189.869 191.538 189.818 190.219 189.833C189.429 189.841 188.53 189.95 188.22 190.075ZM201.056 190.427C199.452 191.517 199.588 192.65 201.538 194.436C202.609 195.417 202.499 196.034 201.251 196.034C200.082 196.034 199.883 196.652 200.758 197.567C201.964 198.824 204.367 198.233 205.084 196.501C205.359 195.838 205.343 195.617 204.968 194.921C204.729 194.476 204.088 193.863 203.545 193.558C202.35 192.886 202.33 192.217 203.501 192.103C204.98 191.959 205.154 191.013 203.844 190.239C202.862 189.659 202.112 189.709 201.056 190.427ZM163.537 190.445C163.161 190.898 162.993 196.669 163.336 197.34C163.593 197.841 164.66 197.923 164.957 197.464C165.068 197.294 165.275 196.706 165.417 196.159C165.632 195.334 165.795 195.15 166.365 195.083C167.247 194.981 167.769 195.42 167.769 196.263C167.769 197.063 168.18 197.526 168.888 197.526C169.805 197.526 169.91 197.14 169.84 194.017C169.772 190.943 169.589 190.314 168.764 190.314C168.37 190.314 168.121 190.727 167.682 192.101C167.49 192.703 166.744 193.026 166.104 192.784C165.739 192.647 165.462 192.222 165.27 191.508C164.884 190.072 164.196 189.65 163.537 190.445ZM194.844 190.477C194.611 190.757 194.475 191.804 194.416 193.776C194.313 197.218 194.533 197.682 196.437 198.038C197.795 198.291 198.279 198.165 198.489 197.503C198.743 196.701 198.391 196.103 197.565 195.938C196.254 195.676 196.154 195.466 196.303 193.298C196.411 191.716 196.356 191.204 196.024 190.697C195.54 189.958 195.31 189.915 194.844 190.477ZM96.5973 192.598C96.6414 192.83 96.4359 193.145 96.1353 193.306C95.7013 193.538 95.5188 193.521 95.2159 193.218C95.007 193.009 94.9081 192.656 94.9948 192.431C95.203 191.888 96.4882 192.022 96.5973 192.598ZM118.559 192.319C119.833 193.001 119.627 195.228 118.237 195.804C117.301 196.192 116.349 195.77 115.859 194.751C115.081 193.134 116.945 191.455 118.559 192.319ZM127.093 192.472C127.182 192.706 127.089 193.053 126.88 193.262C126.579 193.563 126.384 193.579 125.876 193.348C125.208 193.044 125.034 192.43 125.556 192.22C126.215 191.954 126.939 192.073 127.093 192.472ZM176.857 192.666C177.688 193.496 177.655 194.518 176.77 195.366C176.387 195.733 175.84 196.034 175.555 196.034C174.098 196.034 173.267 193.965 174.231 192.739C174.927 191.853 176.015 191.823 176.857 192.666ZM151.022 194.276C151.511 194.574 151.868 195.036 151.97 195.501C152.161 196.37 152.544 196.742 153.517 197.002C154.303 197.212 154.544 197.852 154.058 198.438C153.801 198.747 153.382 198.803 152.051 198.708C150.176 198.574 149.75 198.328 149.228 197.08C148.772 195.988 148.776 195.444 149.249 194.529C149.694 193.669 149.964 193.631 151.022 194.276ZM155.732 195.664C155.9 196.336 155.497 197.029 154.937 197.029C154.549 197.029 154.217 195.969 154.43 195.413C154.669 194.791 155.555 194.962 155.732 195.664Z" fill="white"/>
</svg>
