<svg width="351" height="88" viewBox="0 0 351 88" fill="none" xmlns="http://www.w3.org/2000/svg">
<g clip-path="url(#clip0)">
<path d="M127.716 53.9022C125.926 54.9799 122.871 55.5645 120.99 55.5645C113.582 55.5645 108.584 51.3453 108.584 44.3572C108.584 40.818 109.972 38.0145 112.349 36.0758C114.662 34.168 117.809 33.1192 121.266 33.1192C124.136 33.1192 126.913 33.8607 128.394 34.3827C128.085 35.8293 127.808 37.4607 127.808 39.0623H126.852V36.8453C126.852 35.9833 125.617 35.4594 124.198 34.9365C123.211 34.5985 121.883 34.4135 120.742 34.4135C114.94 34.4135 111.885 38.6318 111.885 43.8651C111.885 49.9604 115.928 53.9022 122.038 53.9022C124.259 53.9022 126.883 53.1029 128.302 52.056L128.58 52.3632L127.716 53.9022Z" fill="black"/>
<path d="M132.559 47.0367C132.559 50.2678 133.732 54.5496 137.682 54.5496C140.49 54.5496 141.694 51.7461 141.694 48.8839C141.694 44.9122 139.811 41.5261 136.848 41.5261C133.578 41.5261 132.559 44.1726 132.559 47.0367ZM129.689 48.361C129.689 43.7421 132.59 40.51 137.557 40.51C141.508 40.51 144.563 43.588 144.563 47.5289C144.563 52.2373 141.199 55.5638 136.478 55.5638C132.59 55.688 129.689 52.61 129.689 48.361" fill="black"/>
<path d="M147.681 44.8807C147.681 43.8954 147.618 43.2184 147.465 42.9728C147.279 42.7263 146.97 42.6338 146.322 42.6338H145.181V41.7719C147.002 41.5879 148.853 41.0024 149.996 40.5103L150.273 40.6335V43.7413H150.334L152.002 41.7719C152.741 40.8801 153.79 40.5103 154.592 40.5103C155.117 40.5103 155.766 40.6643 156.012 40.8493L155.735 44.5417H155.087C154.747 43.803 154.099 43.1259 152.989 43.1259C151.63 43.1259 150.273 44.5417 150.273 46.514V51.807C150.273 52.6411 150.304 53.2565 150.427 53.5955C150.55 53.8709 151.013 53.9951 151.724 54.026L153.328 54.1184V55.042C151.724 55.0112 150.489 54.9486 148.975 54.9486C147.465 54.9486 146.23 55.0112 145.119 55.042V54.1184L146.538 54.026C147.063 53.9951 147.403 53.8709 147.526 53.5955C147.649 53.2565 147.681 52.6411 147.681 51.807V44.8807Z" fill="black"/>
<path d="M162.123 51.807C162.123 52.6411 162.154 53.2565 162.276 53.5964C162.4 53.8719 162.739 53.9951 163.265 54.026L164.653 54.1184V55.042C163.573 55.0112 162.338 54.9495 160.826 54.9495C159.314 54.9495 158.08 55.0112 157 55.042V54.1184L158.388 54.026C158.912 53.9951 159.252 53.8719 159.376 53.5964C159.498 53.2565 159.53 52.6411 159.53 51.807V44.8807C159.53 43.8954 159.468 43.2184 159.314 42.9728C159.128 42.7263 158.82 42.6338 158.172 42.6338H157.031V41.7728C158.851 41.5879 160.703 41.0024 161.844 40.5103L162.123 40.6335V43.2492H162.183L164.467 41.2797C165.146 40.6952 165.733 40.5103 166.967 40.5103C170.577 40.5103 172.058 42.5105 172.058 45.8678V51.807C172.058 52.6411 172.089 53.2565 172.213 53.5964C172.336 53.8719 172.676 53.9951 173.2 54.026L174.466 54.1184V55.042C173.693 55.0112 172.8 54.9495 171.936 54.9495C171.071 54.9495 170.175 55.0112 169.466 55.042V46.2983C169.466 43.7413 168.017 42.3873 165.918 42.3873C164.036 42.3873 162.123 44.0187 162.123 45.2813V51.807Z" fill="black"/>
<path d="M178.045 46.6358C180.575 46.9142 183.167 46.8525 185.39 46.7293C185.39 43.8651 184.34 41.5258 182.117 41.5258C179.741 41.5258 177.89 43.2795 178.045 46.6358ZM188.136 46.1437C188.136 46.5742 188.136 47.0047 188.073 47.4361C186.222 47.7443 184.34 47.8666 182.488 47.8666H177.983C177.983 51.4685 179.773 53.933 183.568 53.933C185.049 53.933 186.222 53.1943 187.394 52.4865L187.795 52.7937L187.178 53.8396C186.962 54.2104 184.34 55.5635 182.241 55.5635C177.581 55.5635 175.113 52.6097 175.113 48.4531C175.113 45.4667 175.915 43.6802 177.334 42.5726C177.921 42.1104 178.57 41.6481 179.249 41.3409C180.328 40.8488 181.223 40.5098 182.273 40.5098C185.636 40.5098 188.136 42.6641 188.136 46.1437" fill="black"/>
<path d="M191.22 35.8606C191.22 35.1527 191.127 34.598 190.449 34.598H188.72V33.736C190.357 33.4904 191.992 33.2131 193.536 32.5967L193.812 32.8433V51.807C193.812 52.6411 193.843 53.2555 193.967 53.5955C194.091 53.8709 194.429 53.9951 194.954 54.025L196.375 54.1184V55.042C195.263 55.0112 194.028 54.9486 192.516 54.9486C191.003 54.9486 189.769 55.0112 188.658 55.042V54.1184L190.079 54.025C190.602 53.9951 190.943 53.8709 191.065 53.5955C191.189 53.2555 191.22 52.6411 191.22 51.807V35.8606Z" fill="black"/>
<path d="M200.353 35.8606C200.353 35.1527 200.26 34.598 199.582 34.598H197.853V33.736C199.489 33.4904 201.125 33.2131 202.668 32.5967L202.946 32.8433V51.807C202.946 52.6411 202.975 53.2555 203.1 53.5955C203.224 53.8709 203.562 53.9951 204.087 54.025L205.505 54.1184V55.042C204.395 55.0112 203.161 54.9486 201.649 54.9486C200.138 54.9486 198.902 55.0112 197.793 55.042V54.1184L199.211 54.025C199.735 53.9951 200.076 53.8709 200.198 53.5955C200.322 53.2555 200.353 52.6411 200.353 51.807V35.8606Z" fill="black"/>
<path d="M215.104 37.4299C215.104 36.2607 215.042 35.4594 214.826 35.1214C214.642 34.8142 214.27 34.6909 213.531 34.6601L212.049 34.5676V33.6441C213.652 33.7057 215.104 33.7365 216.615 33.7365C218.035 33.7365 219.485 33.7057 221.09 33.6441V34.5676L219.609 34.6601C218.868 34.6909 218.499 34.8142 218.311 35.1214C218.097 35.4594 218.035 36.2607 218.035 37.4299V48.0227C218.035 52.3921 220.318 53.6566 224.392 53.6566C227.724 53.6566 230.748 52.3921 230.748 47.283V37.4299C230.748 36.2607 230.687 35.4594 230.47 35.1214C230.286 34.8142 229.916 34.7208 229.174 34.6601L227.817 34.5676L227.816 33.6441C229.05 33.6749 230.286 33.7365 231.397 33.7365C232.63 33.7365 233.741 33.6749 235.1 33.6441V34.5676L233.741 34.6601C233.001 34.7208 232.63 34.8142 232.446 35.1214C232.229 35.4594 232.167 36.2607 232.167 37.4299V46.3296C232.167 52.9179 229.669 55.5645 223.434 55.5645C218.19 55.5645 215.104 53.9956 215.104 48.3607V37.4299Z" fill="black"/>
<path d="M239.145 51.807C239.145 52.6411 239.175 53.2565 239.299 53.5964C239.421 53.8719 239.761 53.9951 240.285 54.026L241.674 54.1184V55.042C240.594 55.0112 239.359 54.9495 237.849 54.9495C236.335 54.9495 235.102 55.0112 234.021 55.042V54.1184L235.409 54.026C235.934 53.9951 236.274 53.8719 236.397 53.5964C236.521 53.2565 236.551 52.6411 236.551 51.807V44.8807C236.551 43.8954 236.49 43.2184 236.335 42.9728C236.151 42.7263 235.843 42.6338 235.194 42.6338H234.052V41.7728C235.874 41.5879 237.724 41.0024 238.865 40.5103L239.145 40.6335V43.2492H239.205L241.49 41.2797C242.166 40.6952 242.754 40.5103 243.988 40.5103C247.598 40.5103 249.081 42.5105 249.081 45.8678V51.807C249.081 52.6411 249.112 53.2565 249.234 53.5964C249.358 53.8719 249.697 53.9951 250.223 54.026L251.487 54.1184V55.042C250.714 55.0112 249.82 54.9495 248.957 54.9495C248.093 54.9495 247.197 55.0112 246.488 55.042V46.2983C246.488 43.7413 245.038 42.3873 242.939 42.3873C241.056 42.3873 239.145 44.0187 239.145 45.2813V51.807Z" fill="black"/>
<path d="M258.49 35.5225C258.49 36.4143 257.656 37.2146 256.761 37.2146C255.867 37.2146 255.064 36.4143 255.064 35.5225C255.064 34.6298 255.867 33.7986 256.761 33.7986C257.656 33.7986 258.49 34.6298 258.49 35.5225ZM258.211 51.807C258.211 52.6411 258.242 53.2565 258.368 53.5964C258.49 53.8719 258.829 53.9961 259.354 54.026L260.773 54.1194V55.042C259.661 55.0112 258.428 54.9495 256.916 54.9495C255.403 54.9495 254.17 55.0112 253.059 55.042V54.1194L254.478 54.026C255.002 53.9961 255.342 53.8719 255.465 53.5964C255.59 53.2565 255.619 52.6411 255.619 51.807V44.8807C255.619 43.8954 255.558 43.2184 255.403 42.9728C255.219 42.7263 254.91 42.6338 254.263 42.6338H253.12V41.7728C254.941 41.5879 256.793 41.0024 257.932 40.5103L258.211 40.6335V51.807V51.807Z" fill="black"/>
<path d="M270.463 51.8068C269.938 52.949 269.63 54.1182 269.196 55.1641H267.655L262.347 42.7578C262.161 42.3254 261.976 41.7726 261.388 41.7408L260.34 41.6792V40.8182C261.544 40.849 262.748 40.9106 263.951 40.9106C265.155 40.9106 266.327 40.849 267.531 40.8182V41.6792L266.019 41.7408C265.215 41.7726 265.001 42.2031 265.525 43.4955L269.196 52.3635C269.845 50.9449 270.523 49.4993 271.11 48.0528L272.406 44.788C273.239 42.6644 273.178 41.7726 272.251 41.7408L270.987 41.6792V40.8182C271.943 40.849 272.93 40.9106 273.887 40.9106C274.843 40.9106 275.831 40.849 276.788 40.8182V41.6792L275.831 41.7408C275.06 41.8034 274.536 42.8801 274.104 43.8037L270.463 51.8068Z" fill="black"/>
<path d="M279.472 46.6358C282.003 46.9142 284.596 46.8525 286.816 46.7293C286.816 43.8651 285.767 41.5258 283.547 41.5258C281.17 41.5258 279.318 43.2795 279.472 46.6358ZM289.563 46.1437C289.563 46.5742 289.563 47.0047 289.501 47.4361C287.649 47.7443 285.767 47.8666 283.917 47.8666H279.412C279.412 51.4685 281.2 53.933 284.997 53.933C286.477 53.933 287.649 53.1943 288.823 52.4865L289.224 52.7937L288.608 53.8396C288.391 54.2104 285.767 55.5635 283.669 55.5635C279.009 55.5635 276.541 52.6097 276.541 48.4531C276.541 45.4667 277.344 43.6802 278.763 42.5726C279.349 42.1104 279.998 41.6481 280.676 41.3409C281.756 40.8488 282.651 40.5098 283.7 40.5098C287.064 40.5098 289.563 42.6641 289.563 46.1437" fill="black"/>
<path d="M293.729 44.8807C293.729 43.8954 293.668 43.2184 293.514 42.9728C293.327 42.7263 293.019 42.6338 292.372 42.6338H291.229V41.7719C293.05 41.5879 294.902 41.0024 296.044 40.5103L296.322 40.6335V43.7413H296.382L298.05 41.7719C298.791 40.8801 299.839 40.5103 300.64 40.5103C301.165 40.5103 301.814 40.6643 302.06 40.8493L301.782 44.5417H301.134C300.796 43.803 300.148 43.1259 299.037 43.1259C297.679 43.1259 296.322 44.5417 296.322 46.514V51.807C296.322 52.6411 296.35 53.2565 296.476 53.5955C296.599 53.8709 297.061 53.9951 297.773 54.026L299.377 54.1184V55.042C297.773 55.0112 296.537 54.9486 295.025 54.9486C293.514 54.9486 292.277 55.0112 291.168 55.042V54.1184L292.588 54.026C293.113 53.9951 293.451 53.8709 293.574 53.5955C293.698 53.2565 293.729 52.6411 293.729 51.807V44.8807Z" fill="black"/>
<path d="M304.282 50.5459V51.8066C304.282 53.7183 306.473 54.4261 308.262 54.4261C310.206 54.4261 311.875 53.2878 311.875 51.6226C311.875 50.6374 311.348 49.838 310.391 49.5915C309.034 49.2525 307.337 48.9135 305.857 48.3607C304.374 47.8069 303.233 46.8834 303.233 45.0044C303.233 41.6799 306.134 40.5107 309.034 40.5107C310.485 40.5107 311.811 40.8497 313.017 41.2802C312.922 42.3878 312.891 43.5271 312.862 44.7569H311.996V44.05C311.996 42.4494 310.176 41.5268 308.417 41.5268C305.796 41.5268 305.393 42.9723 305.393 44.0192C305.393 45.3434 306.41 46.0522 308.756 46.4529C312.43 47.0683 314.157 47.9909 314.157 50.3918C314.157 53.7799 310.764 55.5645 307.337 55.5645C305.857 55.5645 304.529 55.3487 303.016 54.8258C303.325 53.4717 303.354 51.9924 303.354 50.5459H304.282Z" fill="black"/>
<path d="M321.254 35.5225C321.254 36.4143 320.42 37.2146 319.525 37.2146C318.63 37.2146 317.827 36.4143 317.827 35.5225C317.827 34.6298 318.63 33.7986 319.525 33.7986C320.42 33.7986 321.254 34.6298 321.254 35.5225ZM320.977 51.807C320.977 52.6411 321.008 53.2565 321.131 53.5964C321.254 53.8719 321.594 53.9961 322.117 54.026L323.537 54.1194V55.042C322.427 55.0112 321.192 54.9495 319.681 54.9495C318.167 54.9495 316.932 55.0112 315.822 55.042V54.1194L317.241 54.026C317.766 53.9961 318.105 53.8719 318.23 53.5964C318.351 53.2565 318.382 52.6411 318.382 51.807V44.8807C318.382 43.8954 318.322 43.2184 318.167 42.9728C317.983 42.7263 317.675 42.6338 317.025 42.6338H315.884V41.7728C317.704 41.5879 319.555 41.0024 320.698 40.5103L320.977 40.6335V51.807V51.807Z" fill="black"/>
<path d="M324.215 43.3108V42.6646L326.621 41.5869V39.4316C326.621 38.6313 326.589 37.83 326.498 36.9989C327.61 36.6608 328.595 36.1677 329.122 35.8297L329.492 36.1677C329.309 37.5228 329.151 39.2467 329.151 40.541V41.7102L333.379 41.5262L333.101 43.1875H329.151V51.2523C329.151 52.6718 329.555 53.3797 330.849 53.3797C331.652 53.3797 332.237 53.0407 332.67 52.7941L333.07 53.3181L331.589 54.9485C331.312 55.2567 330.232 55.3174 329.585 55.3174C327.948 55.3174 326.559 54.5489 326.559 52.0564V43.1875L324.215 43.3108Z" fill="black"/>
<path d="M347.052 43.311C347.514 42.1717 347.052 41.8337 345.941 41.7412L345.138 41.6796V40.8186C346.127 40.8494 347.081 40.9101 348.069 40.9101C349.058 40.9101 350.016 40.8494 351.001 40.8186V41.6796L350.137 41.7412C349.397 41.8029 348.717 42.7573 347.545 45.4673L341.281 59.8768C340.294 62.1226 339.183 63.6616 336.593 63.6616C336.067 63.6616 335.387 63.4141 335.048 63.1993L335.789 60.8918H336.191C336.561 61.2617 337.332 61.6305 337.765 61.5997C339.553 61.4755 340.54 58.9801 341.127 57.5644L341.835 55.6884C341.312 54.2399 340.695 52.7298 340.108 51.3141L336.746 43.2494C336.252 42.0802 335.819 41.8029 335.141 41.7412L334.586 41.6796V40.8186C335.789 40.8494 336.962 40.9101 338.165 40.9101C339.369 40.9101 340.54 40.8494 341.744 40.8186V41.6796L340.572 41.7412C339.708 41.772 339.183 42.0802 339.83 43.7415L341.804 48.9132C342.238 50.0843 342.734 51.1918 343.38 52.2993L347.052 43.311Z" fill="black"/>
<path d="M87.1727 43.9996C87.1727 67.7344 67.8885 86.9746 44.0995 86.9746C20.3124 86.9746 1.0293 67.7344 1.0293 43.9996C1.0293 20.2677 20.3124 1.02652 44.0995 1.02652C67.8885 1.02652 87.1727 20.2677 87.1727 43.9996Z" stroke="black" stroke-width="1.1735"/>
<path d="M76.2009 43.9996C76.2009 61.6863 61.8271 76.0293 44.099 76.0293C26.369 76.0293 12 61.6863 12 43.9996C12 26.3109 26.369 11.9727 44.099 11.9727C61.8271 11.9727 76.2009 26.3109 76.2009 43.9996Z" stroke="black" stroke-width="1.1658"/>
<path d="M64.1095 50.4485C64.1095 45.9057 64.1056 22.7554 64.1056 22.7554L24.0654 22.7593C24.0654 22.7593 24.0625 45.4135 24.0625 49.9496C24.0625 65.1603 44.1092 73.7432 44.1092 73.7432C44.1092 73.7432 64.1095 65.0101 64.1095 50.4485V50.4485ZM34.832 37.0743C34.832 37.0743 32.6312 35.7886 31.1958 34.8294C29.7595 33.8712 29.7499 33.1421 29.7363 32.9572C29.7228 32.7685 29.7286 25.8238 29.7286 25.8238H39.9952C39.9952 25.8238 40.0106 32.7685 39.9952 32.9572C39.9807 33.1421 40.0695 33.8712 38.6322 34.8294C37.1979 35.7886 34.832 37.0743 34.832 37.0743V37.0743ZM53.8719 37.0243C53.8719 37.0243 51.674 35.7405 50.2415 34.7813C48.8062 33.822 48.7936 33.094 48.7791 32.91C48.7637 32.7203 48.7714 25.7746 48.7714 25.7746H59.0361C59.0361 25.7746 59.0515 32.7203 59.0361 32.91C59.0245 33.094 59.1104 33.822 57.676 34.7813C56.2397 35.7405 53.8719 37.0243 53.8719 37.0243V37.0243Z" stroke="black" stroke-width="1.1735"/>
<path d="M23.1934 39.9976H64.3987" stroke="black" stroke-width="1.16195"/>
<path d="M43.8564 45.4328C43.8564 45.4328 44.1402 44.8482 45.2454 44.5911C45.2454 44.5911 46.3226 44.3667 47.5273 44.5025C49.285 44.6575 50.6953 44.8627 51.8526 44.8896C53.4077 44.9272 54.426 44.8993 55.1732 44.9156L55.1761 62.195C55.1761 62.195 54.0303 62.2596 52.5679 62.2249C49.5765 62.1565 48.4481 61.8445 46.0987 61.8502C44.6961 61.8522 44.5736 62.9761 44.0475 62.9761C43.5156 62.9761 43.4596 61.8522 42.0803 61.8502C39.7279 61.8445 38.6014 62.1565 35.6091 62.2249C34.1448 62.2596 33 62.195 33 62.195L33.0029 44.9156C33.7519 44.8993 34.7674 44.9272 36.3205 44.8896C37.4856 44.8627 38.893 44.6575 40.6488 44.5025C41.8534 44.3667 42.9326 44.5911 42.9326 44.5911C44.032 44.8482 44.3969 45.481 44.3969 45.481" stroke="black" stroke-width="1.1735"/>
<path d="M29.7324 29.6675H39.9189" stroke="black" stroke-width="0.976085"/>
<path d="M29.7324 29.6675H39.9189" stroke="black" stroke-width="1.1735"/>
<path d="M44.0176 39.3447V73.916" stroke="black" stroke-width="0.976085"/>
<path d="M44.0176 39.3447V73.916" stroke="black" stroke-width="0.879851"/>
<path d="M58.7181 31.8125L53.6977 28.4726L49.0645 31.8125" stroke="black" stroke-width="0.976085"/>
<path d="M58.8617 31.8125L53.8403 28.4726L49.209 31.8125" stroke="black" stroke-width="1.1735"/>
<path d="M41.2615 58.0626C41.1071 58.0606 40.9391 58.0626 40.7692 58.0818C39.8455 58.1685 39.1061 58.2754 38.497 58.2889C37.6804 58.312 36.2971 58.3505 35.9023 58.3563M46.833 48.1978C46.9933 48.1911 47.1728 48.194 47.3572 48.2142C48.2809 48.299 49.0213 48.4059 49.6304 48.4194C50.4489 48.4425 51.8293 48.482 52.2231 48.4906L46.833 48.1978ZM46.833 51.4944C46.9933 51.4896 47.1728 51.4944 47.3572 51.5147C48.2809 51.5975 49.0213 51.7044 49.6304 51.7179C50.4489 51.7352 51.8293 51.7756 52.2231 51.7834L46.833 51.4944ZM46.833 54.7939C46.9933 54.7881 47.1728 54.7939 47.3572 54.8122C48.2809 54.8941 49.0213 55.0029 49.6304 55.0144C50.4489 55.0337 51.8293 55.077 52.2231 55.0819L46.833 54.7939ZM46.833 58.0895C46.9933 58.0847 47.1728 58.0895 47.3572 58.1107C48.2809 58.1935 49.0213 58.2995 49.6304 58.3149C50.4489 58.3361 51.8293 58.3727 52.2231 58.3804L46.833 58.0895ZM41.2644 48.1699C41.1109 48.168 40.942 48.1738 40.7692 48.1911C39.8455 48.2778 39.1061 48.3837 38.497 48.3953C37.6804 48.4165 36.2971 48.454 35.9023 48.4617L41.2644 48.1699ZM41.2644 51.4723C41.1109 51.4655 40.942 51.4723 40.7692 51.4858C39.8455 51.5724 39.1061 51.6784 38.497 51.6938C37.6804 51.7121 36.2971 51.7516 35.9023 51.7602L41.2644 51.4723ZM41.2644 54.7669C41.1109 54.765 40.942 54.7669 40.7692 54.7881C39.8455 54.87 39.1061 54.9779 38.497 54.9856C37.6804 55.0087 36.2971 55.0482 35.9023 55.053L41.2644 54.7669Z" stroke="black" stroke-width="0.616996"/>
<path d="M29.9473 46.6506H32.1896V49.1084H29.9473V46.6506Z" fill="black"/>
<path d="M29.9473 52.3338H32.3102V54.7935H29.9473V52.3338Z" fill="black"/>
<path d="M29.9473 57.4196H32.1896V59.8687H29.9473V57.4196Z" fill="black"/>
<path d="M55.7676 47.1369H58.0109V49.5889H55.7676V47.1369Z" fill="black"/>
<path d="M55.7676 52.8181H58.1306V55.2749H55.7676V52.8181Z" fill="black"/>
<path d="M55.7676 57.9001H58.0109V60.355H55.7676V57.9001Z" fill="black"/>
<path d="M9.48295 39.7712C9.5592 40.2046 9.61519 40.6688 9.58623 41.1127C9.4675 43.0003 8.42405 44.2523 6.42112 44.1271C4.3902 44 3.33033 42.7066 3.45292 40.7294C3.47898 40.3432 3.58709 39.8396 3.78208 39.4235L4.78016 39.5689C4.49637 39.9975 4.41143 40.3933 4.38633 40.8113C4.31104 42.0151 5.19619 42.8251 6.41243 42.9011C7.61998 42.9782 8.57173 42.2954 8.65089 41.053C8.68081 40.5946 8.61131 40.0447 8.48486 39.7606L9.48295 39.7712Z" fill="black"/>
<path d="M9.85113 34.7353C10.1793 33.5844 9.26135 32.8611 8.22948 32.5693C7.22174 32.2823 6.05956 32.4499 5.74005 33.5719C5.42248 34.69 6.32308 35.4412 7.33081 35.7263C8.35979 36.019 9.52294 35.8881 9.85113 34.7353ZM4.84235 33.3138C5.34333 31.5494 6.83563 30.9042 8.56539 31.3944C10.2923 31.8817 11.2575 33.2136 10.7508 34.9905C10.2372 36.7943 8.74783 37.4011 6.9949 36.906C5.24198 36.4072 4.33173 35.1051 4.84235 33.3138Z" fill="black"/>
<path d="M9.99275 27.3391L10.1752 26.9992C10.4484 26.4897 10.6848 25.8647 10.0304 25.518C9.39911 25.1819 9.03906 25.7327 8.763 26.2489L8.58153 26.5889L9.99275 27.3391ZM7.20312 27.1841L7.80063 26.0698C8.38944 24.9603 9.0574 23.6159 10.5159 24.3912C11.1308 24.7186 11.4252 25.3976 11.1646 26.1006L11.1781 26.1122C11.3509 25.8406 11.7244 25.831 12.0131 25.8521L14.5034 26.1122L13.8895 27.265L11.9214 27.0155C11.4503 26.9568 11.2293 27.0088 10.9976 27.4431L10.8209 27.7773L12.9976 28.9359L12.4455 29.9712L7.20312 27.1841Z" fill="black"/>
<path d="M11.2188 20.4138L12.1415 19.3063L16.9853 20.4196L16.9968 20.4071L13.5779 17.5795L14.2941 16.7137L18.8675 20.4976L17.9515 21.5994L13.101 20.4909L13.0914 20.5044L16.5094 23.3348L15.7912 24.1968L11.2188 20.4138Z" fill="black"/>
<path d="M17.168 13.9755L19.8466 11.8L20.4383 12.5232L18.667 13.9592L19.5918 15.0937L21.2134 13.7752L21.8051 14.4985L20.1825 15.8179L21.2366 17.1084L23.0194 15.6599L23.6092 16.3842L20.9161 18.5723L17.168 13.9755Z" fill="black"/>
<path d="M22.9961 9.70172L24.0212 9.12388L26.4749 13.475L28.4556 12.3617L28.9151 13.1774L25.9073 14.8638L22.9961 9.70172Z" fill="black"/>
<path d="M29.0293 6.68353L30.1355 6.28386L31.8363 10.9759L33.9744 10.2064L34.2958 11.0828L31.0506 12.2549L29.0293 6.68353Z" fill="black"/>
<path d="M38.498 4.10887L39.6708 4.01064L39.9517 7.42375C40.0348 8.42823 40.4083 9.06482 41.306 8.9897C42.1989 8.91747 42.4614 8.22888 42.3775 7.22536L42.0937 3.80936L43.2665 3.71401L43.5792 7.48828C43.7115 9.07156 42.8784 9.79675 41.3803 9.92195C39.8861 10.0452 38.943 9.46642 38.8118 7.8841L38.498 4.10887Z" fill="black"/>
<path d="M47.2983 3.80956L48.7289 4.00314L50.3476 8.69425L50.366 8.69713L50.9577 4.30169L52.0735 4.45289L51.2781 10.3257L49.8573 10.135L48.2308 5.44389L48.2134 5.44293L47.6217 9.83163L46.5059 9.68428L47.2983 3.80956Z" fill="black"/>
<path d="M55.7175 5.41911L56.8381 5.76967L55.0601 11.4248L53.9395 11.0733L55.7175 5.41911Z" fill="black"/>
<path d="M59.895 6.82151L61.0195 7.39069L60.256 12.2186L60.2714 12.2263L63.702 8.7438L64.7425 9.26578L60.3023 13.668L59.0137 13.0198L59.895 6.82151Z" fill="black"/>
<path d="M67.5969 11.1935L70.3209 13.3209L69.7465 14.0548L67.9473 12.6526L67.0467 13.8034L68.6905 15.0882L68.1152 15.8259L66.4704 14.5402L65.4414 15.8519L67.2542 17.2657L66.6789 18.0005L63.9414 15.8654L67.5969 11.1935Z" fill="black"/>
<path d="M71.9346 18.4327L72.1894 18.7236C72.5698 19.157 73.0727 19.599 73.6287 19.1098C74.1673 18.6408 73.7792 18.1111 73.3912 17.671L73.1354 17.3801L71.9346 18.4327ZM73.0659 15.8835L73.9018 16.8321C74.7329 17.7779 75.7551 18.8758 74.5148 19.964C73.9897 20.4224 73.2503 20.4562 72.6798 19.9659L72.6663 19.9746C72.8593 20.2308 72.7387 20.5823 72.618 20.8423L71.4906 23.0767L70.6267 22.0953L71.5553 20.3454C71.7773 19.9284 71.8082 19.704 71.479 19.3342L71.2319 19.0501L69.3757 20.6719L68.5996 19.7916L73.0659 15.8835V15.8835Z" fill="black"/>
<path d="M78.6089 25.2808C78.5587 24.8811 78.4312 24.4805 78.2218 24.128C78.0162 23.7813 77.5992 23.4278 77.0422 23.7533C76.1532 24.2773 77.8366 26.2621 76.1223 27.2734C75.0026 27.935 74.0586 27.3128 73.4572 26.2987C73.1319 25.7488 73.0595 25.4618 72.8887 24.8927L73.8675 24.4381C73.8839 24.8984 73.9949 25.3684 74.2265 25.7633C74.4563 26.1475 74.9543 26.5424 75.4157 26.267C76.3936 25.6939 74.6802 23.7273 76.3733 22.7286C77.5162 22.0545 78.4505 22.6814 78.9757 23.5665C79.2314 23.998 79.412 24.4362 79.5056 24.8753L78.6089 25.2808Z" fill="black"/>
<path d="M81.213 28.2302L81.659 29.3165L76.1569 31.5547L75.7148 30.4703L81.213 28.2302Z" fill="black"/>
<path d="M82.2361 34.0973L81.8336 32.4707L82.7429 32.2492L83.8269 36.6418L82.9186 36.8633L82.517 35.2367L77.6578 36.4299L77.377 35.2906L82.2361 34.0973Z" fill="black"/>
<path d="M80.8095 41.7329L84.2757 39.4032L84.3539 40.7737L81.9379 42.2905L84.5084 43.5589L84.5759 44.7983L80.8751 42.9049L78.5276 43.035L78.4629 41.8629L80.8095 41.7329Z" fill="black"/>
<path d="M10.4058 51.9786L11.3161 55.1317L10.4165 55.3927L9.83343 53.3741L8.428 53.7805L8.9811 55.698L8.0834 55.959L7.52934 54.0377L5.02543 54.76L4.69531 53.6207L10.4058 51.9786Z" fill="black"/>
<path d="M8.51508 61.5388C9.04983 62.628 10.2159 62.5558 11.1792 62.081C12.1194 61.6235 12.8675 60.7154 12.3472 59.6618C11.8308 58.6082 10.6551 58.6477 9.71394 59.1061C8.7506 59.578 7.97935 60.4534 8.51508 61.5388ZM13.1889 59.2476C14.0094 60.9118 13.3395 62.4017 11.7246 63.1904C10.1145 63.9821 8.50253 63.6306 7.67529 61.951C6.83551 60.2521 7.53533 58.794 9.16953 57.9957C10.8047 57.1953 12.3568 57.5642 13.1889 59.2476Z" fill="black"/>
<path d="M15.7165 63.9128L16.4569 64.8392L13.7734 66.9647C12.979 67.5917 12.6605 68.2581 13.2251 68.966C13.7889 69.6777 14.5089 69.5178 15.3014 68.887L17.9858 66.7577L18.7262 67.687L15.7532 70.0408C14.5089 71.0289 13.4365 70.7351 12.4896 69.5515C11.5465 68.3641 11.5002 67.2507 12.7444 66.2626L15.7165 63.9128Z" fill="black"/>
<path d="M20.5898 69.5858L21.7211 70.5056L20.6535 75.3604L20.667 75.3681L23.4788 71.9415L24.3601 72.657L20.5965 77.2441L19.4739 76.3292L20.5338 71.4648L20.5183 71.4571L17.7084 74.8846L16.8281 74.1691L20.5898 69.5858Z" fill="black"/>
<path d="M25.428 79.11L26.0197 79.4075C26.9068 79.8496 28.0941 79.6185 28.6761 78.4637C29.2562 77.3138 28.735 76.2227 27.8469 75.7777L27.2552 75.4792L25.428 79.11ZM26.6133 74.1145L28.0641 74.8387C29.6829 75.6535 30.8431 76.917 29.7823 79.0204C28.7253 81.1218 27.0159 80.9475 25.3952 80.1347L23.9473 79.4124L26.6133 74.1145Z" fill="black"/>
<path d="M33.4831 77.1622L36.8596 78.0646L36.6173 78.9641L34.3895 78.3719L34.013 79.7818L36.0536 80.324L35.8132 81.2254L33.7707 80.6822L33.3421 82.2915L35.5883 82.8886L35.348 83.792L31.9531 82.8886L33.4831 77.1622Z" fill="black"/>
<path d="M40.3723 83.5832L41.0344 83.6198C42.0258 83.6757 43.0239 82.9919 43.0991 81.7014C43.1706 80.4147 42.2555 79.6231 41.2661 79.5662L40.6078 79.5296L40.3723 83.5832ZM39.4736 78.528L41.0914 78.6215C42.9013 78.7216 44.4689 79.4237 44.3337 81.7707C44.1995 84.1196 42.5644 84.6406 40.7535 84.5395L39.1367 84.4471L39.4736 78.528Z" fill="black"/>
<path d="M51.2571 79.1268L51.2397 79.1297L50.9173 81.6982L52.6085 81.337L51.2571 79.1268ZM50.3691 78.1001L51.677 77.8199L55.1993 83.1245L53.9116 83.4028L53.1307 82.1797L50.7832 82.6863L50.5621 84.1193L49.3613 84.3765L50.3691 78.1001Z" fill="black"/>
<path d="M56.5215 81.3428L57.6373 80.9402L58.0437 82.0564L56.9288 82.458L56.5215 81.3428Z" fill="black"/>
<path d="M61.4608 79.5531L62.0419 79.242C62.9136 78.7663 63.402 77.6636 62.7871 76.5271C62.1703 75.3907 60.9753 75.1981 60.1027 75.6739L59.5207 75.9869L61.4608 79.5531ZM58.0312 75.7288L59.4541 74.9593C61.0516 74.0925 62.7524 73.872 63.8759 75.9387C64.9995 78.0083 63.8808 79.3066 62.2861 80.1685L60.8614 80.938L58.0312 75.7288V75.7288Z" fill="black"/>
<path d="M65.5977 76.8276L66.5745 76.1487L67.2531 77.1272L66.2791 77.8042L65.5977 76.8276Z" fill="black"/>
<path d="M68.0468 68.7197L68.793 67.9829L72.9658 72.205L72.1212 73.0371L68.9001 69.781L68.7602 71.0599L67.793 70.9261L68.0468 68.7197Z" fill="black"/>
<path d="M75.8213 67.5939C76.107 67.2135 76.0858 66.7387 75.69 66.4459C75.219 66.0973 74.6939 66.3332 74.2701 66.6299C74.1842 67.0912 74.2064 67.5169 74.6089 67.8173C75.0085 68.1101 75.5394 67.9753 75.8213 67.5939ZM73.6485 65.8883C73.7489 65.5532 73.6427 65.0658 73.3492 64.8492C72.9931 64.5853 72.5799 64.6296 72.3125 64.9898C72.0577 65.3374 71.9911 65.8228 72.3724 66.1069C72.7855 66.4084 73.2836 66.1233 73.6485 65.8883ZM73.3666 67.0247C72.799 67.3425 72.1726 67.3657 71.6716 66.9987C70.8173 66.366 70.8917 65.4231 71.5316 64.5593C72.1523 63.7224 73.0597 63.2254 73.8589 63.8119C74.2913 64.1336 74.5964 64.7673 74.4178 65.4472L74.4255 65.452C75.1833 65.0437 75.8068 65.0601 76.3532 65.4626C77.3204 66.1734 77.2316 67.1807 76.5337 68.1217C75.8474 69.0443 74.8888 69.4988 73.9207 68.7775C73.385 68.3855 73.2382 67.8135 73.3792 67.0353L73.3666 67.0247V67.0247Z" fill="black"/>
<path d="M78.2127 61.8322C78.7127 62.0816 79.2619 62.0893 79.5206 61.5664C79.7697 61.0771 79.3932 60.6322 78.9202 60.3982C78.4019 60.14 77.8179 60.1121 77.5621 60.6216C77.3044 61.133 77.6779 61.5664 78.2127 61.8322ZM76.5457 58.3959C76.2841 58.6165 76.0495 58.8534 75.87 59.2117C75.4144 60.1237 76.1103 60.8614 76.8874 61.289L76.9105 61.2784C76.6692 60.8469 76.6663 60.4396 76.8883 59.9917C77.3883 58.993 78.3005 58.7658 79.2832 59.2531C80.4338 59.8299 80.9135 60.767 80.317 61.9622C79.5805 63.4318 78.1905 63.1487 76.9443 62.5256C75.5013 61.8081 74.1508 60.5571 75.008 58.8466C75.1982 58.4624 75.4424 58.1263 75.7522 57.8268L76.5457 58.3959V58.3959Z" fill="black"/>
<path d="M78.5285 52.0763L77.8799 54.2615L79.0865 54.6477C79.099 54.508 79.1193 54.3289 79.1859 54.1132C79.4224 53.3157 80.1058 52.3979 81.5807 52.8381C82.6493 53.1539 83.2912 54.1546 82.8539 55.6175C82.7246 56.0566 82.4977 56.5439 82.2979 56.8926L81.2844 56.5632C81.4823 56.3215 81.7689 55.9844 81.9157 55.4913C82.0923 54.8971 82.0006 54.1941 81.2747 53.9812C80.5392 53.7636 80.0952 54.3366 79.9002 54.9847C79.7959 55.3353 79.7467 55.682 79.7525 56.048L76.7109 55.082L77.681 51.8268L78.5285 52.0763Z" fill="black"/>
</g>
<defs>
<clipPath id="clip0">
<rect width="351" height="88" fill="white"/>
</clipPath>
</defs>
</svg>
