<svg width="300" height="300" viewBox="0 0 300 300" fill="none" xmlns="http://www.w3.org/2000/svg">
<path fill-rule="evenodd" clip-rule="evenodd" d="M20.0329 148.482C20.0633 186.704 20.0819 190.008 20.2695 190.532C20.9652 192.473 22.2006 193.507 24.2147 193.834C25.3003 194.01 101.313 194.009 102.718 193.833C105.099 193.535 107.317 192.725 109.568 191.333C110.965 190.469 112 189.614 113.233 188.305C115.361 186.046 116.683 183.548 117.462 180.306C117.671 179.437 117.686 177.864 117.725 152.326C117.751 135.188 117.722 124.521 117.643 123.236C117.423 119.612 116.506 116.791 114.648 114.022C113.49 112.297 111.302 110.269 109.445 109.2C108.342 108.565 106.637 107.871 105.382 107.546C103.221 106.987 104.639 107.005 61.0906 107.002L20 107L20.0329 148.482ZM127.292 109.86C127.26 109.944 127.248 115.299 127.265 121.76L127.297 133.507L133.76 133.544C140.461 133.584 141.435 133.536 143.486 133.063C146.321 132.411 148.653 130.993 150.169 129.001C152.985 125.3 153.172 118.495 150.564 114.57C148.892 112.053 145.855 110.413 141.886 109.883C140.11 109.646 127.381 109.626 127.292 109.86ZM157.152 121.637V133.568H159.491H161.831V128.894V124.22H165.518C169.201 124.22 169.206 124.22 169.407 124.497C169.899 125.176 172.937 129.281 174.46 131.323L176.134 133.568H178.954C180.506 133.568 181.775 133.52 181.775 133.461C181.775 133.402 180.196 131.265 178.266 128.711C176.337 126.157 174.758 124.03 174.758 123.985C174.758 123.94 175.197 123.811 175.734 123.698C177.193 123.392 178.238 122.834 179.251 121.822C180.284 120.79 180.812 119.785 181.089 118.323C181.333 117.041 181.332 116.393 181.088 115.101C180.49 111.931 178.441 110.307 174.45 109.837C173.776 109.758 170.172 109.707 165.247 109.706L157.152 109.706V121.637ZM185.033 109.86C185.001 109.944 184.988 115.299 185.006 121.76L185.038 133.507H195.933H206.829V131.539V129.571L198.303 129.539L189.778 129.507V126.372V123.236H196.983H204.188L204.154 121.237L204.121 119.239L196.949 119.207L189.778 119.175V116.47V113.765H198.067C202.627 113.765 206.38 113.742 206.408 113.714C206.437 113.686 206.443 112.773 206.423 111.685L206.386 109.706H195.739C187.334 109.706 185.079 109.738 185.033 109.86ZM218.658 114.534C215.187 121.579 212.479 127.076 210.817 130.449C210.012 132.082 209.353 133.452 209.353 133.493C209.353 133.534 210.463 133.568 211.82 133.568H214.287L214.882 132.307C215.681 130.61 216.203 129.474 216.513 128.754L216.77 128.156L223.68 128.156L230.59 128.157L231.13 129.356C231.427 130.015 231.978 131.233 232.353 132.061L233.036 133.568H235.476C236.862 133.568 237.916 133.52 237.916 133.456C237.916 133.394 237.328 132.135 236.609 130.658C235.89 129.18 235.093 127.529 234.838 126.988C234.583 126.446 233.725 124.675 232.93 123.052C232.136 121.428 231.166 119.435 230.775 118.624C230.384 117.812 229.333 115.653 228.441 113.827C227.548 112 226.732 110.326 226.628 110.106L226.438 109.706H223.737H221.036L218.658 114.534ZM240.927 109.86C240.895 109.944 240.883 115.299 240.9 121.76L240.932 133.507L242.993 133.54L245.055 133.574L245.086 124.573C245.111 117.494 245.149 115.636 245.265 115.868C245.346 116.031 246.056 117.686 246.844 119.546C247.631 121.406 248.375 123.15 248.497 123.421C248.62 123.691 248.864 124.272 249.041 124.712C249.218 125.152 250.132 127.31 251.071 129.509L252.778 133.507L254.647 133.541L256.516 133.575L256.892 132.741C257.342 131.742 257.194 132.086 258.723 128.464C261.695 121.425 262.313 119.963 262.416 119.731C262.476 119.595 262.643 119.208 262.787 118.87C262.931 118.531 263.12 118.088 263.207 117.886C263.293 117.683 263.519 117.143 263.709 116.686C263.898 116.23 264.1 115.856 264.158 115.856C264.215 115.856 264.262 119.843 264.262 124.715V133.574L266.324 133.54L268.387 133.507L268.418 121.606L268.449 109.706H265.329H262.208L261.381 111.643C260.926 112.709 260.504 113.691 260.445 113.827C259.977 114.885 259.83 115.236 259.83 115.292C259.83 115.328 259.695 115.649 259.529 116.006C259.218 116.677 255.099 126.233 254.862 126.834C254.788 127.02 254.693 127.172 254.649 127.172C254.605 127.172 254.344 126.605 254.069 125.911C253.638 124.826 250.3 116.863 249.983 116.164C249.921 116.028 249.394 114.783 248.811 113.396C248.228 112.009 247.7 110.764 247.637 110.629C247.575 110.493 247.468 110.23 247.401 110.044L247.278 109.706H244.132C241.728 109.706 240.972 109.742 240.927 109.86ZM173.469 113.767C175.32 114.027 176.26 114.834 176.463 116.34C176.675 117.91 176.164 119.08 175.01 119.665C174.012 120.171 173.345 120.221 167.494 120.222L161.892 120.223L161.859 116.972C161.84 115.082 161.874 113.691 161.94 113.651C162.15 113.521 172.452 113.625 173.469 113.767ZM224.53 115.18C224.837 115.856 225.481 117.233 225.962 118.239C226.442 119.245 226.835 120.084 226.835 120.103C226.835 120.156 228.419 123.51 228.561 123.759C228.677 123.962 228.414 123.974 223.763 123.974H218.842L219.069 123.451C219.194 123.164 219.656 122.181 220.094 121.268C220.533 120.355 221.014 119.341 221.162 119.015C221.31 118.689 221.698 117.859 222.022 117.17C222.347 116.481 222.852 115.403 223.144 114.774C223.568 113.862 223.706 113.663 223.824 113.79C223.906 113.878 224.224 114.503 224.53 115.18ZM103.597 114.095C105.127 114.59 105.784 114.88 106.504 115.379C108.417 116.702 109.695 118.444 110.353 120.624C110.946 122.589 110.922 121.355 110.922 150.788C110.922 181.948 111.012 179.01 110.002 181.108C108.596 184.026 105.875 186.168 102.58 186.95C101.551 187.194 101.19 187.196 64.1882 187.166L26.835 187.135L26.8035 150.604C26.7861 130.511 26.7985 114.003 26.831 113.917C26.8786 113.792 34.3408 113.769 64.8435 113.799L102.797 113.836L103.597 114.095ZM141.578 114.11C144.943 114.813 146.581 116.121 147.384 118.747C147.709 119.809 147.709 123.221 147.384 124.276C146.533 127.038 144.884 128.348 141.247 129.152C140.267 129.369 139.518 129.415 136.079 129.473L132.058 129.541L132.017 129.248C131.994 129.087 131.99 125.532 132.008 121.348L132.04 113.741L136.194 113.797C139.787 113.846 140.513 113.888 141.578 114.11ZM167.74 138.603C163.344 139.373 159.99 141.703 158.262 145.187C157.631 146.461 157.436 147.119 157.131 149.005C156.703 151.66 157.096 154.39 158.23 156.631C160.68 161.473 166.898 164.15 173.526 163.215C178.107 162.569 181.856 160.192 183.611 156.821C184.654 154.818 185.073 152.715 184.933 150.183C184.528 142.862 179.087 138.314 170.818 138.383C169.66 138.392 168.45 138.479 167.74 138.603ZM127.728 150.915V162.85L129.174 162.815L130.621 162.781L130.653 157.215L130.685 151.649H140.04H149.396V157.246V162.842H150.812H152.228V150.911V138.98H150.813H149.399L149.366 143.992L149.334 149.005L140.008 149.036L130.682 149.068V144.024V138.98H129.205H127.728V150.915ZM186.33 140.272V141.563H192.055H197.779L197.81 152.172L197.842 162.781L199.288 162.815L200.734 162.85L200.765 152.237L200.796 141.625L206.521 141.563L212.246 141.502L212.281 140.241L212.316 138.98H199.323H186.33V140.272ZM215.416 150.88L215.447 162.781L226.25 162.812L237.054 162.843V161.552V160.261L227.728 160.229L218.402 160.198L218.369 155.986L218.337 151.774L226.003 151.742L233.668 151.711V150.419V149.128L226.004 149.096L218.34 149.064V145.314V141.565L227.543 141.533L236.746 141.502L236.765 140.241L236.785 138.98H226.085H215.384L215.416 150.88ZM241.609 150.911V162.842H252.505H263.4V161.551V160.261L254.013 160.229L244.625 160.198L244.594 149.589L244.562 138.98H243.086H241.609V150.911ZM172.849 140.95C176.353 141.339 179.507 143.36 180.916 146.119C181.551 147.362 182.021 149.272 182.021 150.604C182.02 151.443 181.695 153.381 181.409 154.253C180.059 158.359 176.208 160.764 170.992 160.757C165.049 160.749 161.11 157.855 160.186 152.818C159.329 148.146 161.243 144.07 165.216 142.106C167.47 140.992 169.905 140.623 172.849 140.95ZM136.849 167.772C130.829 168.551 126.862 172.343 126.116 178.033C125.896 179.712 126.041 182.427 126.426 183.838C128.044 189.768 133.022 192.888 140.47 192.641C143.909 192.527 146.626 191.451 148.628 189.411L149.15 188.879V190.563V192.248L150.473 192.213L151.797 192.178L151.831 186.581C151.85 183.503 151.835 180.86 151.797 180.707L151.73 180.429L145.608 180.461L139.485 180.493L139.45 181.752L139.415 183.011L144.252 183.043L149.088 183.076L149.051 183.506C148.941 184.777 148.143 186.344 147.045 187.446C146.09 188.404 144.552 189.227 142.871 189.681C141.949 189.93 141.554 189.963 139.547 189.955C137.607 189.948 137.119 189.907 136.254 189.676C134.057 189.09 132.975 188.499 131.605 187.135C130.524 186.059 129.975 185.204 129.471 183.814C128.985 182.47 128.847 180.27 129.133 178.397C129.787 174.107 131.965 171.6 136.038 170.452C137.406 170.067 141.081 170.034 142.501 170.395C145.187 171.078 147.371 172.603 148.461 174.558C148.716 175.014 148.983 175.388 149.053 175.388C149.274 175.388 151.366 174.244 151.366 174.123C151.366 174.06 151.187 173.668 150.968 173.253C150.416 172.206 148.381 170.174 147.241 169.532C145.534 168.569 143.952 168.029 142.092 167.772C140.993 167.62 138.022 167.621 136.849 167.772ZM195.749 167.759C195.342 167.807 194.622 167.943 194.148 168.061C189.14 169.314 186.018 172.224 184.769 176.803C184.465 177.917 184.433 178.234 184.428 180.185C184.423 181.912 184.469 182.52 184.657 183.26C185.71 187.4 188.586 190.376 192.917 191.811C196.341 192.945 200.219 192.944 203.751 191.809C205.908 191.115 207.354 190.273 208.876 188.824C211.971 185.878 213.087 181.454 211.924 176.741C211.093 173.371 208.624 170.46 205.35 168.991C204.133 168.445 202.217 167.916 200.92 167.768C199.7 167.628 196.906 167.624 195.749 167.759ZM276.02 168.081C275.433 168.292 274.873 168.77 274.521 169.361C273.713 170.717 274.289 172.564 275.756 173.324C276.457 173.686 277.673 173.688 278.371 173.327C279.07 172.965 279.598 172.321 279.849 171.523C280.04 170.92 280.044 170.771 279.893 170.135C279.488 168.438 277.686 167.483 276.02 168.081ZM156.865 168.213C156.82 168.258 156.783 173.657 156.783 180.21V192.124L158.229 192.089L159.676 192.055L159.708 186.796L159.74 181.538H164.404H169.067L172.917 186.827L176.766 192.116H178.463C179.396 192.116 180.188 192.072 180.221 192.018C180.255 191.963 180.017 191.562 179.692 191.126C174.373 183.979 172.665 181.653 172.665 181.56C172.665 181.498 173.002 181.409 173.415 181.362C173.828 181.316 174.646 181.12 175.233 180.929C177.958 180.039 179.412 178.488 179.889 175.962C180.051 175.106 180.056 174.799 179.922 173.868C179.565 171.381 178.05 169.629 175.601 168.874C173.466 168.215 173.407 168.211 164.899 168.169C160.526 168.147 156.911 168.167 156.865 168.213ZM217.164 168.288C217.129 168.379 217.117 172.103 217.137 176.564C217.177 185.646 217.143 185.275 218.099 187.271C219.815 190.855 223.512 192.627 229.298 192.637C235.137 192.647 238.877 190.87 240.616 187.258C241.559 185.299 241.547 185.44 241.547 176.311V168.193L240.162 168.158L238.777 168.123L238.775 175.292C238.772 184.365 238.705 184.944 237.447 186.87C236.045 189.013 233.31 190.148 229.482 190.173C224.726 190.204 221.707 188.618 220.518 185.465C219.992 184.068 219.941 183.191 219.941 175.493L219.941 168.157L218.584 168.14C217.55 168.127 217.212 168.162 217.164 168.288ZM248.09 168.226C248.05 168.291 248.008 173.68 247.997 180.2L247.978 192.055H249.38H250.781L250.843 187.012L250.904 181.969L257.737 181.903C264.36 181.839 264.606 181.828 265.74 181.55C268.076 180.977 269.6 179.961 270.458 178.402C270.906 177.587 271.059 176.9 271.122 175.408C271.195 173.714 271.018 172.756 270.429 171.654C269.783 170.443 268.334 169.317 266.786 168.824C264.964 168.243 264.619 168.221 256.182 168.163C251.106 168.128 248.136 168.151 248.09 168.226ZM278.063 168.786C279.386 169.484 279.618 171.207 278.544 172.358L278.069 172.867H277.106C276.015 172.867 275.66 172.691 275.241 171.944C274.893 171.322 274.815 170.808 274.978 170.203C275.176 169.47 275.494 169.065 276.111 168.76C276.791 168.423 277.389 168.431 278.063 168.786ZM276.42 169.336L275.958 169.376V170.783V172.19H276.259C276.525 172.19 276.564 172.129 276.597 171.667C276.631 171.202 276.669 171.145 276.943 171.145C277.185 171.145 277.303 171.257 277.494 171.667C277.698 172.105 277.795 172.19 278.092 172.19C278.366 172.19 278.43 172.145 278.372 171.994C278.33 171.886 278.261 171.651 278.218 171.471C278.175 171.292 278.085 171.074 278.017 170.989C277.931 170.88 277.955 170.765 278.096 170.61C278.561 170.097 278.173 169.415 277.374 169.341C277.103 169.316 276.674 169.314 276.42 169.336ZM277.521 170.055C277.623 170.321 277.305 170.607 276.955 170.567C276.608 170.526 276.468 170.191 276.687 169.926C276.851 169.729 277.43 169.819 277.521 170.055ZM201.658 170.44C205.628 171.535 207.931 173.669 209.059 177.295C209.409 178.418 209.38 181.48 209.006 182.83C208.001 186.464 205.471 188.786 201.474 189.743C200.09 190.074 196.377 190.045 195.01 189.692C192.826 189.129 191.391 188.343 190.022 186.962C188.055 184.978 187.085 181.86 187.441 178.667C187.938 174.213 191.226 171.01 196.118 170.215C197.233 170.034 200.696 170.174 201.658 170.44ZM174.153 171.174C176.095 171.776 176.845 172.539 177.11 174.179C177.345 175.639 176.866 176.987 175.851 177.722C174.397 178.774 172.646 178.974 165.278 178.928L159.799 178.894L159.767 174.857L159.734 170.82L166.538 170.871C172.966 170.92 173.387 170.937 174.153 171.174ZM265.124 171.133C266.759 171.655 267.532 172.223 268.027 173.268C268.302 173.849 268.362 174.148 268.366 174.958C268.372 176.376 268.106 177.071 267.264 177.84C265.851 179.13 264.141 179.354 256.137 179.299L250.904 179.263L250.872 175.042L250.839 170.822L257.643 170.869C263.709 170.912 264.52 170.94 265.124 171.133Z" fill="white"/>
</svg>
