<svg width="270" height="58" viewBox="0 0 270 58" fill="none" xmlns="http://www.w3.org/2000/svg">
<path d="M18.242 27.4037C17.9966 28.5935 17.2962 30.592 16.8412 31.6063C15.9297 33.4635 13.4076 35.8115 10.7457 35.8115C7.4876 35.8115 6.22657 34.1996 6.22657 32.5178C6.22657 31.2924 6.89272 30.3466 8.11812 30.3466C9.41478 30.3466 9.6245 31.4336 9.6245 31.8173C9.6245 32.2381 9.48469 32.8344 9.30924 33.0085C9.16943 33.1483 9.09953 33.3237 9.09953 33.6047C9.09953 34.3051 9.90549 34.6903 10.6415 34.6903C12.4632 34.6903 13.4432 33.2182 14.0724 30.803C14.4945 29.1555 15.1251 26.3867 16.4204 21.5536L16.2106 21.4837C15.7199 22.1499 13.7229 24.9858 8.99398 24.9858C4.15957 24.9858 0.867188 21.5893 0.867188 15.5281C0.867188 11.0103 2.93418 7.1916 5.52615 4.56537C7.4876 2.60255 10.536 0.46565 15.4047 0.46565C19.048 0.46565 20.9052 1.65815 21.6043 2.21739C22.0607 2.56691 22.3746 2.63682 22.5514 2.63682C22.9709 2.63682 23.182 2.28866 23.3917 1.51696C23.4259 1.34152 23.5315 1.30588 23.7069 1.34152L24.2319 1.48132C24.3731 1.51696 24.4773 1.58687 24.443 1.76095L22.4459 8.80353C22.3746 9.01325 22.3061 9.04888 22.0607 9.01325L21.5001 8.94334C21.3247 8.90907 21.2191 8.80353 21.2548 8.59244C21.8496 5.57968 20.1335 1.90213 15.5801 1.90213C13.3377 1.90213 10.8156 2.67245 8.36484 5.8963C6.33211 8.45263 5.17525 12.2357 5.17525 16.4753C5.17525 22.2198 8.71436 23.1313 10.255 23.1313C14.4589 23.1313 16.4903 19.5223 16.6314 17.4553C16.7356 16.1244 16.3505 15.8447 15.4047 15.8447H14.1779C13.8983 15.8447 13.864 15.7392 13.9339 15.4938L14.0724 14.7235C14.108 14.5124 14.1779 14.4425 14.4589 14.4425C14.9853 14.4425 16.2106 14.5481 19.2933 14.5481C21.6756 14.5481 22.5158 14.4425 23.0051 14.4425C23.2519 14.4425 23.356 14.5481 23.3218 14.7235L23.2162 15.5638C23.182 15.7748 23.1107 15.8447 22.901 15.8447H22.1663C21.5001 15.8447 21.0094 16.1244 20.5543 17.9816L18.242 27.4037Z" fill="black"/>
<path d="M45.6334 18.4352C45.7033 18.5051 45.7732 18.575 45.7033 18.8204L43.8816 23.9358C43.7418 24.495 43.5307 24.5649 43.1113 24.5649C42.8303 24.5649 41.3952 24.5307 39.3981 24.495C37.401 24.4608 34.879 24.4608 32.4624 24.4608H27.9076C26.8221 24.4608 25.8064 24.495 25.0004 24.495C24.2301 24.5307 23.6695 24.5649 23.4584 24.5649C23.2843 24.5649 23.2144 24.495 23.2487 24.2853L23.3885 23.3738C23.4241 23.2354 23.494 23.1641 23.6339 23.1641H24.7551C26.1559 23.1641 26.8577 22.4651 27.2072 21.3068L32.5666 4.66807C33.1615 2.77652 31.9005 2.28718 30.8505 2.28718H29.7293C29.5538 2.28718 29.4483 2.14601 29.5196 1.93629L29.7293 1.16597C29.7992 0.954879 29.8691 0.886342 30.1501 0.886342C30.3598 0.886342 31.2014 0.919241 32.1814 0.919241C33.1971 0.954879 34.354 0.989144 35.1942 0.989144H37.7163C40.2383 0.989144 42.1655 0.989145 43.5664 0.954878C44.9672 0.91924 45.8074 0.886342 46.194 0.886342C46.7546 0.886342 46.8245 1.02478 46.9643 1.58539L48.0156 6.27999C48.0855 6.52535 48.0855 6.52535 47.8758 6.66516L47.455 6.87624C47.3152 6.94478 47.2439 6.87624 47.0342 6.66516L43.4608 2.53117C43.2511 2.32145 43.0414 2.25155 42.8303 2.25155H37.3668L34.4239 11.3255H37.4353C38.9417 11.3255 40.3082 11.1487 41.5693 8.41552C41.6392 8.27708 41.7091 8.20718 41.8503 8.20718L42.4808 8.41552C42.6206 8.41552 42.6905 8.5567 42.6206 8.62661C42.06 9.95754 40.9388 14.3026 40.799 15.6336C40.729 15.8433 40.6591 15.8433 40.5193 15.8433H39.8888C39.6777 15.7734 39.6777 15.7035 39.6777 15.4924C39.6777 12.9703 38.3468 12.5851 35.8247 12.5851H34.073L30.6408 23.1997H38.4866C39.6777 23.1997 40.6591 22.6734 41.5693 21.8674C42.3396 21.2369 44.2311 18.8547 44.7918 18.2241C44.863 18.0857 45.0028 18.0158 45.2126 18.1542L45.6334 18.4352Z" fill="black"/>
<path d="M58.6238 4.73807C55.7522 7.96055 53.6496 13.1459 53.6496 16.9989C53.6496 21.3426 55.9619 23.3739 58.8349 23.3739C63.9489 23.3739 68.5037 15.5281 68.5722 7.96055C68.5722 4.45845 66.8205 2.1461 63.6693 2.1461C61.5666 2.1461 59.8848 3.26732 58.6238 4.73807ZM72.3567 10.6937C72.3567 17.6993 67.3825 24.9858 59.4654 24.9858C58.0645 24.9858 55.3314 24.7761 53.1588 22.6735C50.9877 20.5722 50.0762 17.7705 50.0762 14.6166C50.0762 7.33141 55.4013 0.465641 62.8277 0.465641C68.4324 0.465641 72.3567 4.24736 72.3567 10.6937" fill="black"/>
<path d="M82.1252 11.9205C83.526 11.9205 85.3477 12.0603 87.7299 11.0789C89.5515 10.3085 91.1621 8.34708 91.1621 5.82502C91.1621 4.35427 90.1108 2.07619 86.6786 2.07619C86.0481 2.07619 85.6273 2.07619 85.2078 2.1461L82.1252 11.9205ZM79.392 20.6421C78.7971 22.5351 79.1823 23.1656 80.1637 23.1656H81.6345C81.8442 23.1656 81.9141 23.3054 81.8442 23.4452L81.7743 24.2854C81.7044 24.4951 81.5646 24.5664 81.3548 24.5664C80.934 24.5664 79.392 24.4609 76.3806 24.4609C73.9285 24.4609 72.5962 24.5664 72.1767 24.5664C71.9656 24.5664 71.8957 24.4252 71.9656 24.2155L72.1055 23.4452C72.1055 23.2355 72.1767 23.1656 72.4564 23.1656H73.3665C74.2081 23.1656 74.8386 22.3939 75.1182 21.518L80.7243 4.03765C81.0739 2.9178 80.8641 2.28728 79.673 2.28728H78.4819C78.2009 2.28728 78.131 2.21737 78.2009 2.00629L78.3421 1.27023C78.412 1.06051 78.4819 0.990609 78.8314 0.990609C82.4761 0.990609 86.118 0.886437 87.0994 0.886437C90.1108 0.886437 95.366 1.13042 95.366 5.96483C95.366 9.3984 91.6528 12.2001 87.0994 12.6908V12.8306C88.2206 13.1102 88.7812 14.1629 89.1307 14.8633C89.3405 15.2128 91.7227 20.1871 92.319 21.1328C93.2647 22.6036 94.1063 23.1656 95.366 23.1656H96.2775C96.4872 23.1656 96.5571 23.3054 96.4872 23.5151L96.4173 24.2155C96.3474 24.4252 96.2775 24.5664 96.0664 24.5664C95.7169 24.5664 95.1563 24.4609 93.2647 24.4609C91.232 24.4609 90.6015 24.5664 90.0423 24.5664C89.6914 24.5664 89.5515 24.2155 89.0608 23.4095C88.5701 22.5707 85.4875 15.7036 85.0667 14.8633C84.2264 12.9348 82.6844 13.1459 81.74 13.1459L79.392 20.6421V20.6421Z" fill="black"/>
<path d="M113.44 17.7349C113.72 16.3341 113.16 16.0531 112.179 16.0531H111.023C110.742 16.0531 110.673 15.8776 110.707 15.6679L110.848 14.9332C110.882 14.7221 110.988 14.6522 111.198 14.6522C111.758 14.6522 112.949 14.7578 115.822 14.7578C118.624 14.7578 119.466 14.6522 119.956 14.6522C120.166 14.6522 120.271 14.792 120.236 15.073L120.166 15.7735C120.13 15.9832 120.025 16.0531 119.815 16.0531H119.256C118.414 16.0531 117.784 16.3341 117.574 17.2456L116.383 22.6036C116.277 23.0244 116.102 23.1656 115.682 23.3739C114.701 23.7947 111.688 24.9858 108.677 24.9858C102.161 24.9858 98.2363 20.5722 98.2363 15.4582C98.2363 6.98051 105.102 0.465641 112.949 0.465641C115.962 0.465641 117.923 1.65677 118.624 2.21738C119.045 2.56553 119.324 2.63681 119.466 2.63681C119.886 2.63681 120.096 2.28728 120.446 1.51559C120.446 1.37578 120.587 1.30587 120.796 1.37578L121.287 1.51559C121.427 1.51559 121.497 1.58686 121.497 1.79521L119.466 8.80215C119.396 9.01324 119.324 9.08314 119.115 9.01324H118.414C118.203 9.01324 118.133 8.87343 118.203 8.59107C118.624 5.57967 117.153 1.90075 112.67 1.90075C107.275 1.90075 102.651 8.38272 102.651 15.8447C102.651 21.237 105.874 23.4438 108.536 23.4438C110.287 23.4438 111.479 22.9888 111.969 22.6379C112.319 22.4295 112.53 21.9374 112.67 21.3782L113.44 17.7349Z" fill="black"/>
<path d="M142.335 18.4352C142.405 18.5051 142.474 18.575 142.405 18.8204L140.583 23.9358C140.443 24.495 140.233 24.5649 139.811 24.5649C139.532 24.5649 138.096 24.5307 136.099 24.495C134.102 24.4608 131.58 24.4608 129.164 24.4608H124.609C123.523 24.4608 122.508 24.495 121.702 24.495C120.931 24.5307 120.371 24.5649 120.16 24.5649C119.984 24.5649 119.916 24.495 119.95 24.2853L120.09 23.3738C120.125 23.2354 120.195 23.1641 120.335 23.1641H121.456C122.857 23.1641 123.558 22.4651 123.908 21.3068L129.269 4.66807C129.863 2.77652 128.602 2.28718 127.552 2.28718H126.431C126.255 2.28718 126.15 2.14601 126.221 1.93629L126.431 1.16597C126.5 0.954879 126.57 0.886342 126.851 0.886342C127.061 0.886342 127.901 0.919241 128.883 0.919241C129.898 0.954879 131.055 0.989144 131.895 0.989144H134.418C136.94 0.989144 138.867 0.989145 140.268 0.954878C141.668 0.91924 142.509 0.886342 142.894 0.886342C143.456 0.886342 143.526 1.02478 143.666 1.58539L144.716 6.27999C144.787 6.52535 144.787 6.52535 144.577 6.66516L144.156 6.87624C144.015 6.94478 143.945 6.87624 143.735 6.66516L140.162 2.53117C139.952 2.32145 139.741 2.25155 139.532 2.25155H134.067L131.125 11.3255H134.138C135.643 11.3255 137.01 11.1487 138.271 8.41552C138.34 8.27708 138.41 8.20718 138.552 8.20718L139.181 8.41552C139.322 8.41552 139.392 8.5567 139.322 8.62661C138.761 9.95754 137.64 14.3026 137.5 15.6336C137.43 15.8433 137.36 15.8433 137.221 15.8433H136.59C136.379 15.7734 136.379 15.7035 136.379 15.4924C136.379 12.9703 135.048 12.5851 132.526 12.5851H130.774L127.342 23.1997H135.188C136.379 23.1997 137.36 22.6734 138.271 21.8674C139.041 21.2369 140.934 18.8547 141.493 18.2241C141.564 18.0857 141.704 18.0158 141.914 18.1542L142.335 18.4352Z" fill="black"/>
<path d="M164.576 0.990605C167.73 0.990605 168.991 0.710986 169.622 0.360091C169.761 0.290186 169.831 0.220279 169.971 0.220279C170.112 0.220279 170.254 0.290185 170.254 0.4999C170.182 1.06051 169.831 6.17454 169.901 7.57675C169.901 7.78647 169.831 7.85637 169.622 7.89201L169.06 7.99755C168.851 7.99755 168.71 7.85637 168.572 7.43694C168.289 6.31572 167.66 4.14318 167.17 3.23168C166.398 2.6368 163.876 2.32291 162.264 2.32291H161.565L156.029 20.1884C155.331 22.3952 155.679 23.1656 157.499 23.1656H158.902C159.078 23.1656 159.148 23.3054 159.113 23.5151L158.971 24.2155C158.937 24.4609 158.797 24.5664 158.552 24.5664C158.061 24.5664 156.66 24.4609 153.367 24.4609C149.933 24.4609 148.077 24.5664 147.728 24.5664C147.484 24.5664 147.377 24.4266 147.412 24.2155L147.484 23.4452C147.517 23.2355 147.622 23.1656 147.903 23.1656H148.813C150.776 23.1656 151.442 22.2541 152.247 19.6265L157.641 2.32291H156.73C153.507 2.32291 151.967 2.49699 151.16 3.09324C149.933 4.00337 148.113 6.0361 147.273 7.01614C147.131 7.15595 146.99 7.15595 146.852 7.15595L146.293 6.80643C146.151 6.73652 146.151 6.59534 146.223 6.45553C146.642 5.6852 148.813 0.78089 148.882 0.571175C148.953 0.36009 149.023 0.220279 149.233 0.220279C149.374 0.220279 149.515 0.290185 149.793 0.4999C150.494 0.710985 152.176 0.990605 155.82 0.990605H164.576Z" fill="black"/>
<path d="M178.865 4.73807C175.993 7.96055 173.892 13.1459 173.892 16.9989C173.892 21.3426 176.203 23.3739 179.074 23.3739C184.191 23.3739 188.744 15.5281 188.816 7.96055C188.816 4.45845 187.063 2.1461 183.91 2.1461C181.809 2.1461 180.127 3.26732 178.865 4.73807ZM192.597 10.6937C192.597 17.6993 187.623 24.9858 179.706 24.9858C178.305 24.9858 175.572 24.7761 173.401 22.6735C171.228 20.5722 170.318 17.7705 170.318 14.6166C170.318 7.33141 175.643 0.465641 183.07 0.465641C188.675 0.465641 192.597 4.24736 192.597 10.6937" fill="black"/>
<path d="M199.985 18.3658C199.915 18.7866 200.195 18.925 200.545 18.5056C200.755 18.2959 208.531 7.08639 208.674 6.87667C209.512 5.61427 209.935 4.21343 209.935 3.47874C209.935 2.77695 209.654 2.28762 209.023 2.28762H208.531C208.323 2.28762 208.253 2.21771 208.253 2.04226L208.393 1.09649C208.463 0.955311 208.531 0.886777 208.812 0.886777C209.162 0.886777 210.074 0.990949 212.246 0.990949C214.278 0.990949 215.186 0.886777 215.608 0.886777C215.89 0.886777 215.96 0.955309 215.923 1.16639L215.819 2.00662C215.749 2.21771 215.679 2.28762 215.398 2.28762H214.838C214.207 2.28762 213.856 2.70705 213.716 3.93244L211.965 18.5056C211.895 19.1361 212.106 19.206 212.455 18.7866C213.157 18.0162 216.591 12.3402 217.288 11.1505C218.972 8.34742 220.512 5.05503 220.827 4.10789C221.143 3.19638 221.073 2.28762 220.023 2.28762H219.462C219.253 2.28762 219.113 2.21771 219.183 1.97236L219.321 1.2363C219.321 0.95531 219.462 0.886777 219.671 0.886777C220.161 0.886777 221.003 0.990949 222.825 0.990949C224.927 0.990949 225.837 0.886777 226.327 0.886777C226.609 0.886777 226.712 0.955308 226.68 1.13076L226.539 2.00662C226.468 2.21771 226.398 2.28762 226.258 2.28762H225.626C224.997 2.28762 224.365 2.49733 223.806 3.23202C223.455 3.72409 218.2 12.4101 217.36 13.811C216.38 15.4229 211.789 22.1845 210.283 24.0418C209.829 24.601 209.41 25.1616 208.846 25.1616C208.288 25.1616 208.147 24.6723 208.219 23.9006L209.233 9.18765C209.303 8.76822 209.023 8.76822 208.744 9.11911C208.393 9.60845 198.935 22.7437 197.638 24.2501C197.217 24.7422 196.867 25.1616 196.307 25.1616C195.851 25.1616 195.677 24.6723 195.817 23.6909L198.304 4.10789C198.443 2.91813 198.304 2.28762 197.533 2.28762H196.692C196.411 2.28762 196.342 2.21771 196.376 1.97236L196.483 1.16639C196.554 0.955309 196.623 0.886777 196.902 0.886777C197.252 0.886777 198.654 0.990949 200.966 0.990949C203.139 0.990949 204.468 0.886777 204.888 0.886777C205.239 0.886777 205.309 0.955311 205.239 1.20066L205.099 2.00662C205.099 2.14643 205.029 2.28762 204.748 2.28762H204.189C203.068 2.28762 202.578 2.70705 202.331 4.14352L199.985 18.3658Z" fill="black"/>
<path d="M219.494 20.9589C219.494 19.0673 220.721 18.0873 221.668 18.0873C222.578 18.0873 223.384 18.5766 223.384 19.7664C223.384 20.7834 222.404 21.2728 222.226 22.0445C222.085 22.7093 222.611 23.4796 224.574 23.4796C227.939 23.4796 230.775 20.8191 232.316 18.7164C234.802 15.2486 237.571 7.61252 237.571 4.14332C237.571 3.33735 237.15 3.09337 236.381 3.09337C234.243 3.09337 232.246 3.0591 230.25 3.68962C228.813 4.10905 227.445 5.05482 227.445 5.89505C227.445 6.31585 227.692 7.08618 228.426 7.29726C229.512 7.47134 230.003 8.10186 230.003 8.87218C230.003 9.64388 229.337 10.3799 228.251 10.3799C227.026 10.3799 225.975 9.049 225.975 7.36717C225.975 5.57979 226.746 3.68962 228.393 2.49712C230.916 0.71112 234.417 0.990738 240.723 0.990738C241.389 0.990738 241.599 1.23609 241.739 1.7967C242.93 7.15608 246.188 16.1245 248.08 19.1715C248.324 19.5923 248.501 19.2771 248.64 18.6123C250.181 11.6752 252.423 4.91364 256.312 1.93651C258.097 0.535671 259.78 0.184776 261.216 0.184776C263.318 0.184776 264.298 1.41154 264.298 2.56703C264.298 3.54844 263.459 4.31876 262.582 4.31876C261.846 4.31876 261.321 3.75815 261.04 3.33735C260.866 2.91792 260.271 2.53139 259.78 2.53139C259.114 2.53139 258.413 2.67257 257.291 3.47853C254.876 5.23027 252.141 8.94346 249.901 18.9961C249.339 21.5538 249.936 22.2898 250.287 22.8847C252.073 25.9331 257.188 32.4123 263.282 32.4123C265.069 32.4123 266.33 31.642 266.61 30.4865C266.961 28.9445 267.416 28.2455 268.118 28.2455C268.887 28.2455 269.132 28.9102 269.132 29.4352C269.132 29.8916 268.713 30.9416 268.081 31.6064C267.486 32.2739 265.63 34.2354 261.602 34.2354C254.489 34.2354 249.901 28.5936 247.833 25.8618C243.876 20.6423 240.689 12.9006 238.97 5.96633C238.9 5.6497 238.691 5.61543 238.586 6.17467C237.78 10.6253 236.273 15.1773 234.487 18.2257C232.666 21.4496 229.512 25.3725 224.4 25.3725C221.912 25.3725 219.494 23.8305 219.494 20.9589Z" fill="black"/>
<path d="M46.1582 46.4911C44.231 52.6921 41.4636 56.8247 35.0186 56.8247C30.4639 56.8247 27.1016 54.7234 27.1016 50.4154C27.1016 48.9433 27.5923 46.7721 27.8034 46.0018L30.8148 36.2987C31.3055 34.6868 30.8148 34.1261 29.8333 34.1261H28.5723C28.4339 34.1261 28.2927 34.0562 28.364 33.8452L28.5038 33.0049C28.5723 32.7938 28.6436 32.7253 28.9931 32.7253C29.4139 32.7253 30.605 32.8295 33.8275 32.8295C36.6306 32.8295 37.8217 32.7253 38.1712 32.7253C38.4522 32.7253 38.5221 32.8637 38.5221 33.1447L38.3809 33.8452C38.3467 33.9863 38.2411 34.1261 38.0314 34.1261H37.0514C36.351 34.1261 35.4737 34.266 34.9487 35.9821L32.0758 45.3713C31.8661 46.1416 31.0258 48.7335 31.0258 50.2386C31.0258 54.5137 34.739 54.9332 35.789 54.9332C37.4009 54.9332 39.2225 54.3739 40.3438 53.3925C41.9543 51.9917 43.1454 50.0988 44.2667 46.28L46.7887 37.313C47.4549 34.9664 47.0697 34.1261 45.9485 34.1261H44.8273C44.5477 34.1261 44.4764 33.9863 44.512 33.8452L44.6176 33.0748C44.6875 32.8637 44.7574 32.7253 45.1069 32.7253C45.5277 32.7253 46.86 32.8295 49.1011 32.8295C51.1324 32.8295 51.9028 32.7253 52.2536 32.7253C52.6032 32.7253 52.6744 32.8637 52.6032 33.1447L52.4647 33.8452C52.4647 33.9863 52.3935 34.1261 52.1138 34.1261H51.5532C50.432 34.1261 49.7316 35.1405 49.171 36.8936L46.1582 46.4911Z" fill="black"/>
<path d="M58.4808 37.5925C58.2711 37.2416 57.9901 37.2416 57.9215 37.6624L54.4167 49.3626C53.227 53.3568 53.3668 55.003 54.8375 55.003H56.1684C56.4494 55.003 56.5193 55.1441 56.5193 55.3525L56.3795 56.0886C56.3083 56.3339 56.3083 56.4038 55.9587 56.4038C55.6092 56.4038 54.1371 56.2996 51.7548 56.2996C49.304 56.2996 48.1828 56.4038 47.762 56.4038C47.5509 56.4038 47.481 56.264 47.5167 56.0186L47.6208 55.2826C47.6921 55.1441 47.762 55.003 47.9717 55.003H48.7421C50.354 55.003 51.1942 53.8118 52.2455 50.6935L56.5193 37.1731C57.1855 35.1047 56.4494 34.1247 54.9773 34.1247H53.6464C53.3668 34.1247 53.2969 33.9849 53.3668 33.7039L53.5066 33.0747C53.5765 32.8636 53.6464 32.7238 53.926 32.7238C54.3468 32.7238 55.749 32.828 59.8816 32.828C60.5135 32.828 60.7232 33.2488 60.9329 33.7395L68.7102 49.9246C68.9898 50.344 69.131 50.2741 69.4106 49.4339L73.1238 38.0832C74.034 35.2459 73.7543 34.1247 72.5618 34.1247H71.5119C71.161 34.1247 71.0911 34.0548 71.161 33.7738L71.2323 33.0035C71.3022 32.8636 71.3721 32.7238 71.5818 32.7238C72.0026 32.7238 73.1238 32.828 75.576 32.828C77.3976 32.828 78.098 32.7238 78.5874 32.7238C78.9383 32.7238 79.0082 32.9336 78.9383 33.2145L78.7985 33.8451C78.7985 34.0548 78.7286 34.1247 78.5175 34.1247H77.6073C76.7657 34.1247 76.0667 34.9663 75.3649 36.962L68.9199 55.3881C68.7102 55.9487 68.4292 56.2284 68.2195 56.2996C67.8686 56.2996 67.5191 56.0886 67.308 55.5978L58.4808 37.5925Z" fill="black"/>
<path d="M83.1057 36.4385C83.5964 34.6868 83.0358 34.1261 82.1257 34.1261H80.5137C80.2341 34.1261 80.1628 34.0562 80.1628 33.8452L80.3726 32.9336C80.3726 32.7938 80.5137 32.7253 80.7934 32.7253C81.2142 32.7253 83.1057 32.8295 85.9074 32.8295C88.9201 32.8295 90.3923 32.7253 90.883 32.7253C91.2325 32.7253 91.3737 32.8637 91.3024 33.1447L91.0941 33.8452C91.0941 33.9863 91.0228 34.1261 90.7432 34.1261H89.8317C88.3595 34.1261 87.5549 34.4757 87.0286 36.4728L82.6863 52.6208C82.2298 54.304 82.7548 55.0044 84.2269 55.0044H85.488C85.6977 55.0044 85.7689 55.1442 85.6977 55.354L85.6278 56.0544C85.5579 56.3354 85.5579 56.4053 85.207 56.4053C84.7862 56.4053 83.1756 56.2997 79.6022 56.2997C76.6594 56.2997 74.8377 56.4053 74.4183 56.4053C74.2086 56.4053 74.1387 56.2655 74.1387 56.0544L74.3484 55.2841C74.3484 55.0743 74.4183 55.0044 74.6294 55.0044H75.9603C77.9917 55.0044 78.2014 54.304 78.6921 52.5166L83.1057 36.4385Z" fill="black"/>
<path d="M106.786 37.0337C108.047 35.3519 108.187 34.1265 107.207 34.1265H106.505C106.155 34.1265 106.085 33.9853 106.12 33.7756L106.295 33.0039C106.295 32.7942 106.365 32.7243 106.716 32.7243C107.207 32.7243 108.396 32.8284 110.288 32.8284C112.321 32.8284 113.231 32.7243 113.652 32.7243C114.001 32.7243 114.072 32.8641 114.037 33.0395L113.933 33.7756C113.861 33.9853 113.791 34.1265 113.582 34.1265H112.811C111.62 34.1265 109.834 35.8768 108.466 37.5929L93.5093 56.37C93.2996 56.651 92.8788 57.0005 92.3881 57.0005C91.8275 57.0005 91.7576 56.5098 91.8987 55.6696L94.6648 36.0167C94.8046 34.9667 94.4551 34.1265 93.3339 34.1265H92.2126C91.933 34.1265 91.7932 34.0566 91.8631 33.8112L92.0728 33.0752C92.1427 32.7942 92.1427 32.7243 92.4237 32.7243C92.9131 32.7243 94.3852 32.8284 97.3979 32.8284C99.9186 32.8284 101.391 32.7243 101.812 32.7243C102.161 32.7243 102.231 32.7942 102.161 33.0395L102.057 33.8455C102.021 34.0566 101.951 34.1265 101.672 34.1265H100.69C99.5691 34.1265 98.9386 34.5459 98.7631 35.5616L96.3466 49.5741C96.2068 50.4856 96.6262 50.5555 97.1169 49.925L106.786 37.0337Z" fill="black"/>
<path d="M130.567 50.2742C130.637 50.3441 130.705 50.414 130.637 50.6607L128.815 55.7748C128.675 56.334 128.464 56.4053 128.045 56.4053C127.764 56.4053 126.327 56.3696 124.332 56.334C122.335 56.2997 119.813 56.2997 117.395 56.2997H112.841C111.754 56.2997 110.739 56.334 109.934 56.334C109.164 56.3696 108.603 56.4053 108.392 56.4053C108.218 56.4053 108.148 56.334 108.182 56.1243L108.322 55.2128C108.358 55.0743 108.428 55.0044 108.567 55.0044H109.689C111.09 55.0044 111.79 54.304 112.141 53.1472L117.502 36.507C118.095 34.6169 116.834 34.1261 115.784 34.1261H114.663C114.487 34.1261 114.382 33.9863 114.452 33.7753L114.663 33.0049C114.733 32.7938 114.803 32.7253 115.082 32.7253C115.293 32.7253 116.134 32.7596 117.115 32.7596C118.131 32.7938 119.288 32.8295 120.128 32.8295H122.65C125.171 32.8295 127.099 32.8295 128.499 32.7938C129.901 32.7596 130.741 32.7253 131.126 32.7253C131.688 32.7253 131.757 32.8651 131.898 33.4257L132.948 38.119C133.019 38.3643 133.019 38.3643 132.809 38.5041L132.389 38.7152C132.247 38.7837 132.178 38.7152 131.968 38.5041L128.394 34.3701C128.185 34.1618 127.974 34.0919 127.764 34.0919H122.299L119.357 43.1644H122.369C123.875 43.1644 125.242 42.989 126.503 40.2545C126.573 40.116 126.643 40.0461 126.784 40.0461L127.413 40.2545C127.554 40.2545 127.624 40.3957 127.554 40.4656C126.994 41.7965 125.872 46.1416 125.731 47.4725C125.661 47.6836 125.591 47.6836 125.453 47.6836H124.822C124.611 47.6137 124.611 47.5424 124.611 47.3327C124.611 44.8093 123.28 44.4241 120.758 44.4241H119.007L115.573 55.0387H123.42C124.611 55.0387 125.591 54.5124 126.503 53.7064C127.273 53.0759 129.166 50.6936 129.725 50.0645C129.797 49.926 129.936 49.8548 130.146 49.9946L130.567 50.2742Z" fill="black"/>
<path d="M141.459 43.7593C142.86 43.7593 144.682 43.8991 147.065 42.9191C148.886 42.1474 150.495 40.1859 150.495 37.6639C150.495 36.1931 149.445 33.9151 146.011 33.9151C145.382 33.9151 144.963 33.9151 144.542 33.985L141.459 43.7593ZM138.726 52.481C138.131 54.3739 138.516 55.0044 139.498 55.0044H140.968C141.178 55.0044 141.248 55.1442 141.178 55.2841L141.108 56.1243C141.038 56.334 140.899 56.4053 140.689 56.4053C140.268 56.4053 138.726 56.2997 135.715 56.2997C133.262 56.2997 131.93 56.4053 131.511 56.4053C131.3 56.4053 131.23 56.2641 131.3 56.0544L131.439 55.2841C131.439 55.0743 131.511 55.0044 131.79 55.0044H132.7C133.542 55.0044 134.173 54.2327 134.452 53.3569L140.058 35.8765C140.408 34.7567 140.198 34.1261 139.007 34.1261H137.816C137.535 34.1261 137.465 34.0562 137.535 33.8452L137.676 33.1091C137.746 32.8994 137.816 32.8295 138.165 32.8295C141.81 32.8295 145.452 32.7253 146.432 32.7253C149.445 32.7253 154.7 32.9693 154.7 37.8037C154.7 41.2359 150.987 44.0389 146.432 44.5297V44.6695C147.553 44.9491 148.114 46.0018 148.466 46.7022C148.674 47.0517 151.057 52.0259 151.653 52.9717C152.599 54.4425 153.439 55.0044 154.7 55.0044H155.611C155.823 55.0044 155.891 55.1442 155.823 55.354L155.753 56.0544C155.681 56.2641 155.611 56.4053 155.4 56.4053C155.05 56.4053 154.492 56.2997 152.599 56.2997C150.565 56.2997 149.937 56.4053 149.375 56.4053C149.024 56.4053 148.886 56.0544 148.396 55.2484C147.905 54.4082 144.823 47.5424 144.402 46.7022C143.56 44.7736 142.02 44.9847 141.074 44.9847L138.726 52.481V52.481Z" fill="black"/>
<path d="M173.082 39.6596C173.012 39.7994 172.943 39.8707 172.804 39.8707H172.172C171.889 39.8707 171.819 39.7295 171.819 39.5198C172.03 38.1176 171.611 33.9151 168.038 33.9151C166.005 33.9151 164.885 35.8052 164.885 37.3116C164.885 39.7651 166.426 40.8864 168.038 42.4969C169.65 44.1089 171.961 46.0703 171.961 49.9576C171.961 54.4411 168.739 56.8247 165.096 56.8247C162.852 56.8247 161.243 55.4938 160.122 54.2327C159.772 53.8818 159.422 53.9518 159.21 54.1628C159.001 54.4411 158.65 55.0031 158.369 55.4938C158.299 55.6336 158.229 55.7035 158.021 55.6336L157.6 55.4239C157.387 55.354 157.387 55.354 157.459 55.0743L160.051 47.4369C160.122 47.2971 160.19 47.2971 160.402 47.2971L160.964 47.4369C161.102 47.5068 161.172 47.5767 161.172 47.7864C160.19 52.8319 162.922 55.2128 165.096 55.2128C167.336 55.2128 168.878 53.4624 168.878 51.5352C168.878 49.2928 167.128 47.9619 165.586 46.28C163.416 43.8991 161.591 42.0775 161.591 38.4699C161.591 35.9464 163.554 32.3031 168.108 32.3031C170 32.3031 171.681 33.4956 172.242 33.9151C172.383 33.985 172.523 34.0549 172.732 34.0549C172.943 34.0549 173.152 33.5642 173.293 32.8637C173.293 32.7239 173.363 32.7239 173.642 32.7239L174.063 32.7938C174.274 32.7938 174.344 32.8637 174.344 33.0049L173.082 39.6596Z" fill="black"/>
<path d="M181.634 36.4385C182.124 34.6868 181.565 34.1261 180.653 34.1261H179.041C178.763 34.1261 178.692 34.0562 178.692 33.8452L178.901 32.9336C178.901 32.7938 179.041 32.7253 179.319 32.7253C179.741 32.7253 181.634 32.8295 184.436 32.8295C187.449 32.8295 188.921 32.7253 189.41 32.7253C189.76 32.7253 189.901 32.8637 189.83 33.1447L189.62 33.8452C189.62 33.9863 189.55 34.1261 189.271 34.1261H188.358C186.887 34.1261 186.081 34.4757 185.556 36.4728L181.214 52.6208C180.757 54.304 181.282 55.0044 182.754 55.0044H184.015C184.225 55.0044 184.295 55.1442 184.225 55.354L184.155 56.0544C184.085 56.3354 184.085 56.4053 183.734 56.4053C183.315 56.4053 181.704 56.2997 178.13 56.2997C175.187 56.2997 173.366 56.4053 172.946 56.4053C172.736 56.4053 172.666 56.2655 172.666 56.0544L172.876 55.2841C172.876 55.0743 172.946 55.0044 173.155 55.0044H174.488C176.519 55.0044 176.729 54.304 177.219 52.5166L181.634 36.4385Z" fill="black"/>
<path d="M207.693 32.8295C210.846 32.8295 212.107 32.5499 212.736 32.199C212.877 32.1291 212.947 32.0591 213.085 32.0591C213.228 32.0591 213.368 32.1291 213.368 32.3401C213.298 32.8994 212.947 38.0148 213.017 39.4156C213.017 39.6253 212.947 39.6952 212.736 39.7309L212.177 39.8364C211.965 39.8364 211.827 39.6952 211.686 39.2758C211.406 38.1546 210.774 35.982 210.285 35.0719C209.512 34.4757 206.991 34.1618 205.381 34.1618H204.68L199.144 52.0273C198.445 54.2341 198.795 55.0044 200.615 55.0044H202.016C202.192 55.0044 202.264 55.1456 202.228 55.354L202.087 56.0544C202.053 56.2997 201.913 56.4053 201.666 56.4053C201.177 56.4053 199.776 56.2997 196.484 56.2997C193.049 56.2997 191.193 56.4053 190.842 56.4053C190.598 56.4053 190.494 56.2655 190.528 56.0544L190.598 55.2841C190.632 55.0757 190.738 55.0044 191.019 55.0044H191.929C193.892 55.0044 194.556 54.0943 195.362 51.4653L200.755 34.1618H199.847C196.622 34.1618 195.081 34.3359 194.277 34.9321C193.049 35.8422 191.227 37.875 190.387 38.855C190.247 38.9962 190.106 38.9962 189.967 38.9962L189.408 38.6453C189.267 38.5754 189.267 38.4342 189.337 38.2944C189.756 37.5241 191.929 32.6211 191.999 32.41C192.069 32.199 192.139 32.0591 192.35 32.0591C192.489 32.0591 192.631 32.1291 192.909 32.3401C193.611 32.5499 195.292 32.8295 198.936 32.8295H207.693Z" fill="black"/>
<path d="M223.731 53.0416C223.345 54.8646 223.8 55.0044 224.993 55.0044H225.763C225.973 55.0044 226.043 55.1442 226.043 55.2841L225.903 56.0544C225.903 56.2655 225.835 56.4053 225.552 56.4053C224.993 56.4053 223.87 56.2997 221.069 56.2997C217.916 56.2997 216.865 56.4053 216.444 56.4053C216.234 56.4053 216.163 56.3354 216.163 56.0544L216.304 55.2841C216.304 55.1442 216.374 55.0044 216.655 55.0044H217.425C219.037 55.0044 219.527 54.2341 219.736 53.2184L220.859 48.0331C220.997 47.5438 220.929 46.6323 220.788 46.2115L217.147 35.4571C216.865 34.6169 216.163 34.1261 214.973 34.1261H214.204C213.992 34.1261 213.922 34.0562 213.922 33.8452L214.063 33.0049C214.134 32.7952 214.204 32.7253 214.413 32.7253C214.903 32.7253 215.813 32.8295 218.616 32.8295C221.631 32.8295 222.819 32.7253 223.24 32.7253C223.521 32.7253 223.589 32.7952 223.589 33.0049L223.521 33.8452C223.45 34.0562 223.381 34.1261 223.171 34.1261H222.258C221.139 34.1261 221.139 34.9677 221.35 35.6682L224.151 45.0903C224.291 45.6509 224.572 45.6509 224.852 45.1615C225.342 44.3912 230.317 37.0334 230.666 35.9821C231.123 34.6525 230.666 34.1261 229.476 34.1261H228.706C228.494 34.1261 228.424 33.9863 228.494 33.7753L228.565 33.0049C228.565 32.7952 228.636 32.7253 228.986 32.7253C229.476 32.7253 230.807 32.8295 232.769 32.8295C234.941 32.8295 235.991 32.7253 236.483 32.7253C236.762 32.7253 236.832 32.8651 236.832 33.0748L236.692 33.7753C236.692 34.0562 236.623 34.1261 236.412 34.1261H235.782C234.589 34.1261 233.89 34.6868 233.19 35.6325C232.628 36.4042 226.253 45.3013 225.763 46.1416C225.271 46.9133 224.923 47.6137 224.572 49.1543L223.731 53.0416Z" fill="black"/>
</svg>
