<svg width="403" height="70" viewBox="0 0 403 70" fill="none" xmlns="http://www.w3.org/2000/svg">
<path d="M97.2233 16.1077H91.0237V30.9053H80.1631V16.1077H73.873V50.4091H80.1631V36.6071H91.0237V50.3639H97.2233V16.1077Z" fill="black"/>
<path d="M112.453 50.8164C119.467 50.8164 122.816 47.6035 122.816 40.4083V33.9824C122.816 26.7873 119.467 23.5744 112.453 23.5744C105.439 23.5744 102.09 26.9683 102.09 33.9824V40.4083C102.09 47.6035 105.439 50.8164 112.453 50.8164ZM112.453 45.2956C109.195 45.2956 108.335 43.395 108.335 40.0915V34.2992C108.335 30.9958 109.195 29.0952 112.453 29.0952C115.711 29.0952 116.571 30.9958 116.571 34.2992V40.0915C116.571 43.395 115.711 45.2956 112.453 45.2956Z" fill="black"/>
<path d="M146.918 32.0366C146.918 27.2398 143.796 23.5291 137.234 23.5291C131.442 23.5291 127.143 26.199 127.143 32.2176C127.143 37.4669 130.899 39.1412 134.791 39.639C138.004 40.0463 140.945 40.0915 140.945 42.3542C140.945 43.6665 139.678 45.0693 137.189 45.0693C134.202 45.0693 133.207 43.9833 133.071 42.1279H126.781C126.781 47.2867 130.582 50.4996 136.918 50.4996C142.665 50.4996 147.235 47.9655 147.235 42.1279C147.235 37.3764 143.66 35.2495 140.085 34.8422C136.51 34.435 133.433 34.8422 133.433 31.9008C133.433 30.0455 134.881 29.0952 137.28 29.0952C139.271 29.0952 140.855 30.0002 140.855 32.0366H146.918Z" fill="black"/>
<path d="M151.647 23.6649V58.4641H157.846V48.2822C158.887 50.0471 161.15 50.6354 163.322 50.6354C169.25 50.6354 172.282 46.9699 172.282 40.6798V33.8014C172.282 26.38 168.752 23.4839 163.503 23.4839C160.471 23.4839 158.253 24.6604 157.213 26.561L156.76 23.6649H151.647ZM161.874 44.8883C159.385 44.8883 157.846 43.6665 157.846 40.4536V34.3445C157.846 31.2673 158.977 29.0047 162.055 29.0047C164.498 29.0047 166.082 30.2717 166.082 34.1182V40.4083C166.082 43.6212 164.544 44.8883 161.874 44.8883Z" fill="black"/>
<path d="M184.455 24.2532H178.255V50.4091H184.455V24.2532ZM177.893 18.2798C177.893 22.8503 184.907 22.8051 184.907 18.2798C184.907 13.7093 177.893 13.6641 177.893 18.2798Z" fill="black"/>
<path d="M190.622 40.5893C190.622 48.5085 193.563 51.2237 201.437 50.3639V44.9336C197.274 45.4313 196.821 43.4402 196.821 40.4988V29.2309H201.347V23.5744H196.821V18.3703L190.622 19.0491V40.5893Z" fill="black"/>
<path d="M218.904 39.7295C218.632 42.3994 217.637 45.0241 214.017 45.0241C211.89 45.0241 210.351 44.4358 210.351 42.6709C210.351 40.5441 212.568 39.096 218.904 39.7295ZM211.211 32.8511C211.166 30.0002 212.161 29.0499 214.876 29.0499C218.134 29.0499 218.904 31.041 218.904 35.0233C209.718 34.3897 204.468 36.8786 204.468 43.1687C204.468 48.1917 207.772 50.7259 212.161 50.7259C215.148 50.7259 217.682 49.3683 219.175 47.2867L219.764 50.3639H224.832V33.9372C224.832 27.0136 221.8 23.5291 214.831 23.5291C208.45 23.5291 204.876 26.199 205.283 32.8511H211.211Z" fill="black"/>
<path d="M230.578 40.5893C230.578 48.237 232.704 50.3639 239.9 50.3639V44.3905C237.32 44.3905 236.777 43.4402 236.777 40.4988V15.4742H230.578V40.5893Z" fill="black"/>
<path d="M250.654 24.2532H244.455V50.4091H250.654V24.2532ZM244.093 18.2798C244.093 22.8503 251.107 22.8051 251.107 18.2798C251.107 13.7093 244.093 13.6641 244.093 18.2798Z" fill="black"/>
<path d="M256.821 40.5893C256.821 48.5085 259.763 51.2237 267.636 50.3639V44.9336C263.473 45.4313 263.021 43.4402 263.021 40.4988V29.2309H267.546V23.5744H263.021V18.3703L256.821 19.0491V40.5893Z" fill="black"/>
<path d="M285.103 23.6649L282.75 31.6746C281.845 35.34 281.166 39.458 280.669 42.8972C280.216 39.5033 279.492 35.2948 278.587 31.6746L276.189 23.6649H269.717L277.727 50.1828L276.686 53.9388C276.053 56.2919 274.378 55.6131 272.795 55.2511L271.844 59.8216C276.958 61.858 280.533 61.2245 282.252 55.2059L283.7 50.0471H283.655L291.574 23.6649H285.103Z" fill="black"/>
<path d="M321.898 15.6552H301.263V21.2212H308.503V50.3639H314.703V21.2212H321.898V15.6552Z" fill="black"/>
<path d="M333.051 39.7295C332.78 42.3994 331.784 45.0241 328.164 45.0241C326.037 45.0241 324.499 44.4358 324.499 42.6709C324.499 40.5441 326.716 39.096 333.051 39.7295ZM325.359 32.8511C325.313 30.0002 326.309 29.0499 329.024 29.0499C332.282 29.0499 333.051 31.041 333.051 35.0233C323.865 34.3897 318.616 36.8786 318.616 43.1687C318.616 48.1917 321.919 50.7259 326.309 50.7259C329.295 50.7259 331.83 49.3683 333.323 47.2867L333.911 50.3639H338.98V33.9372C338.98 27.0136 335.948 23.5291 328.979 23.5291C322.598 23.5291 319.023 26.199 319.43 32.8511H325.359Z" fill="black"/>
<path d="M344.725 40.5893C344.725 48.237 346.852 50.3639 354.047 50.3639V44.3905C351.468 44.3905 350.925 43.4402 350.925 40.4988V15.4742H344.725V40.5893Z" fill="black"/>
<path d="M380.233 50.3639L370.775 35.6568L379.328 23.6649H372.359L365.752 33.1679H364.078V15.4289H357.878V50.3639H364.078V38.7792H365.843L373.264 50.3639H380.233Z" fill="black"/>
<path d="M401.906 32.0366C401.906 27.2398 398.783 23.5291 392.222 23.5291C386.429 23.5291 382.13 26.199 382.13 32.2176C382.13 37.4669 385.886 39.1412 389.778 39.639C392.991 40.0463 395.932 40.0915 395.932 42.3542C395.932 43.6665 394.665 45.0693 392.176 45.0693C389.19 45.0693 388.194 43.9833 388.058 42.1279H381.768C381.768 47.2867 385.569 50.4996 391.905 50.4996C397.652 50.4996 402.222 47.9655 402.222 42.1279C402.222 37.3764 398.647 35.2495 395.072 34.8422C391.498 34.435 388.42 34.8422 388.42 31.9008C388.42 30.0455 389.868 29.0952 392.267 29.0952C394.258 29.0952 395.842 30.0002 395.842 32.0366H401.906Z" fill="black"/>
<path fill-rule="evenodd" clip-rule="evenodd" d="M29.37 0C30.1811 0 30.8386 0.657483 30.8386 1.46853V2.00082C43.6725 2.76005 53.846 13.4085 53.846 26.4331V51.7788V52.3772H57.8163C58.5973 52.3772 59.2305 53.0103 59.2305 53.7913V57.8162C59.2305 58.5972 58.5973 59.2303 57.8163 59.2303H1.41387C0.632862 59.2303 -0.000270844 58.5972 -0.000270844 57.8162V53.7913C-0.000270844 53.0103 0.632862 52.3772 1.41387 52.3772H4.89502V51.7788V26.433C4.89502 13.4088 15.068 2.76059 27.9015 2.00088V1.46853C27.9015 0.657483 28.559 0 29.37 0ZM30.6927 5.53394C30.4551 6.02497 29.9521 6.36363 29.37 6.36363C28.788 6.36363 28.285 6.025 28.0474 5.534C17.0989 6.21664 8.43037 15.3125 8.43037 26.433V51.7788H50.3107V26.4331C50.3107 15.3122 41.6416 6.21611 30.6927 5.53394ZM46.5033 65.1046C46.5033 67.8081 48.6949 69.9997 51.3984 69.9997C54.1019 69.9997 56.2935 67.8081 56.2935 65.1046C56.2935 62.4011 54.1019 60.2095 51.3984 60.2095C48.6949 60.2095 46.5033 62.4011 46.5033 65.1046ZM2.93687 65.1046C2.93687 67.8081 5.12849 69.9997 7.83198 69.9997C10.5355 69.9997 12.7271 67.8081 12.7271 65.1046C12.7271 62.4011 10.5355 60.2095 7.83198 60.2095C5.12849 60.2095 2.93687 62.4011 2.93687 65.1046ZM35.7339 23.442C35.7339 22.661 35.1008 22.0278 34.3198 22.0278H24.9103C24.1293 22.0278 23.4962 22.661 23.4962 23.442V26.4336H20.5596V50.4196H38.6715V26.4336H35.7339V23.442ZM34.2651 26.4336H24.9644V24.2039C24.9644 23.8134 25.281 23.4968 25.6715 23.4968H33.558C33.9485 23.4968 34.2651 23.8134 34.2651 24.2039V26.4336ZM46.5576 26.4336H41.6086V50.4196H46.5576C47.3386 50.4196 47.9718 49.7865 47.9718 49.0055V27.8477C47.9718 27.0667 47.3386 26.4336 46.5576 26.4336ZM17.6225 50.4196H12.6726C11.8916 50.4196 11.2585 49.7865 11.2585 49.0055V27.8477C11.2585 27.0667 11.8916 26.4336 12.6726 26.4336H17.6225V50.4196Z" fill="black"/>
</svg>
