<svg width="403" height="70" viewBox="0 0 403 70" fill="none" xmlns="http://www.w3.org/2000/svg">
<path fill-rule="evenodd" clip-rule="evenodd" d="M30.8388 1.46853C30.8388 0.657483 30.1813 0 29.3703 0C28.5593 0 27.9018 0.657483 27.9018 1.46853V2.00088C15.0683 2.76059 4.89529 13.4088 4.89529 26.433V51.7788V52.3772H1.41414C0.633133 52.3772 0 53.0103 0 53.7913V57.8162C0 58.5972 0.633133 59.2303 1.41414 59.2303H57.8166C58.5976 59.2303 59.2307 58.5972 59.2307 57.8162V53.7913C59.2307 53.0103 58.5976 52.3772 57.8166 52.3772H53.8463V51.7788V26.4331C53.8463 13.4085 43.6728 2.76005 30.8388 2.00082V1.46853ZM29.3703 6.36363C29.9524 6.36363 30.4554 6.02497 30.693 5.53394C41.6419 6.21611 50.311 15.3122 50.311 26.4331V51.7788H8.43064V26.433C8.43064 15.3125 17.0992 6.21664 28.0477 5.534C28.2853 6.025 28.7882 6.36363 29.3703 6.36363ZM51.3987 69.9997C48.6952 69.9997 46.5036 67.8081 46.5036 65.1046C46.5036 62.4011 48.6952 60.2095 51.3987 60.2095C54.1021 60.2095 56.2938 62.4011 56.2938 65.1046C56.2938 67.8081 54.1021 69.9997 51.3987 69.9997ZM7.83225 69.9997C5.12876 69.9997 2.93715 67.8081 2.93715 65.1046C2.93715 62.4011 5.12876 60.2095 7.83225 60.2095C10.5357 60.2095 12.7274 62.4011 12.7274 65.1046C12.7274 67.8081 10.5357 69.9997 7.83225 69.9997ZM34.32 22.0278C35.1011 22.0278 35.7342 22.661 35.7342 23.442V26.4336H38.6718V50.4196H20.5598V26.4336H23.4964V23.442C23.4964 22.661 24.1296 22.0278 24.9106 22.0278H34.32ZM24.9647 26.4336H34.2654V24.2039C34.2654 23.8134 33.9488 23.4968 33.5583 23.4968H25.6718C25.2812 23.4968 24.9647 23.8134 24.9647 24.2039V26.4336ZM41.6088 26.4336H46.5579C47.3389 26.4336 47.972 27.0667 47.972 27.8477V49.0055C47.972 49.7865 47.3389 50.4196 46.5579 50.4196H41.6088V26.4336ZM12.6729 50.4196H17.6228V26.4336H12.6729C11.8919 26.4336 11.2588 27.0667 11.2588 27.8477V49.0055C11.2588 49.7865 11.8919 50.4196 12.6729 50.4196ZM184.455 24.2532H178.256V50.4091H184.455V24.2532ZM177.894 18.2798C177.894 22.8503 184.908 22.8051 184.908 18.2798C184.908 13.7093 177.894 13.6641 177.894 18.2798ZM91.024 16.1077H97.2236V50.3639H91.024V36.6071H80.1634V50.4091H73.8733V16.1077H80.1634V30.9053H91.024V16.1077ZM122.816 40.4083C122.816 47.6035 119.468 50.8164 112.454 50.8164C105.439 50.8164 102.091 47.6035 102.091 40.4083V33.9824C102.091 26.9683 105.439 23.5744 112.454 23.5744C119.468 23.5744 122.816 26.7873 122.816 33.9824V40.4083ZM108.336 40.0915C108.336 43.395 109.195 45.2956 112.454 45.2956C115.712 45.2956 116.572 43.395 116.572 40.0915V34.2992C116.572 30.9958 115.712 29.0952 112.454 29.0952C109.195 29.0952 108.336 30.9958 108.336 34.2992V40.0915ZM146.919 32.0366C146.919 27.2398 143.796 23.5291 137.235 23.5291C131.442 23.5291 127.143 26.199 127.143 32.2176C127.143 37.4669 130.899 39.1412 134.791 39.639C135.159 39.6857 135.524 39.7276 135.881 39.7687C138.64 40.0858 140.945 40.3509 140.945 42.3542C140.945 43.6665 139.678 45.0693 137.189 45.0693C134.203 45.0693 133.207 43.9833 133.071 42.1279H126.781C126.781 47.2867 130.582 50.4996 136.918 50.4996C142.665 50.4996 147.235 47.9655 147.235 42.1279C147.235 37.3764 143.66 35.2495 140.086 34.8422C139.448 34.7696 138.826 34.7229 138.235 34.6784C135.511 34.4737 133.433 34.3176 133.433 31.9008C133.433 30.0455 134.881 29.0952 137.28 29.0952C139.271 29.0952 140.855 30.0002 140.855 32.0366H146.919ZM151.647 58.4641V23.6649H156.76L157.213 26.561C158.254 24.6604 160.471 23.4839 163.503 23.4839C168.752 23.4839 172.282 26.38 172.282 33.8014V40.6798C172.282 46.9699 169.25 50.6354 163.322 50.6354C161.15 50.6354 158.887 50.0471 157.846 48.2822V58.4641H151.647ZM157.846 40.4536C157.846 43.6665 159.385 44.8883 161.874 44.8883C164.544 44.8883 166.082 43.6212 166.082 40.4083V34.1182C166.082 30.2717 164.499 29.0047 162.055 29.0047C158.978 29.0047 157.846 31.2673 157.846 34.3445V40.4536ZM201.437 50.3639C193.563 51.2237 190.622 48.5085 190.622 40.5893V19.0491L196.822 18.3703V23.5744H201.347V29.2309H196.822V40.4988C196.822 43.4402 197.274 45.4313 201.437 44.9336V50.3639ZM218.904 39.7295C218.633 42.3994 217.637 45.0241 214.017 45.0241C211.89 45.0241 210.351 44.4358 210.351 42.6709C210.351 40.5441 212.569 39.096 218.904 39.7295ZM211.211 32.8511C211.166 30.0002 212.161 29.0499 214.877 29.0499C218.135 29.0499 218.904 31.041 218.904 35.0233C209.718 34.3897 204.469 36.8786 204.469 43.1687C204.469 48.1917 207.772 50.7259 212.161 50.7259C215.148 50.7259 217.682 49.3683 219.176 47.2867L219.764 50.3639H224.832V33.9372C224.832 27.0136 221.8 23.5291 214.831 23.5291C208.451 23.5291 204.876 26.199 205.283 32.8511H211.211ZM239.9 50.3639C232.705 50.3639 230.578 48.237 230.578 40.5893V15.4742H236.777V40.4988C236.777 43.4402 237.32 44.3905 239.9 44.3905V50.3639ZM250.655 24.2532H244.455V50.4091H250.655V24.2532ZM244.093 18.2798C244.093 22.8503 251.107 22.8051 251.107 18.2798C251.107 13.7093 244.093 13.6641 244.093 18.2798ZM267.637 50.3639C259.763 51.2237 256.821 48.5085 256.821 40.5893V19.0491L263.021 18.3703V23.5744H267.546V29.2309H263.021V40.4988C263.021 43.4402 263.474 45.4313 267.637 44.9336V50.3639ZM285.104 23.6649L282.75 31.6746C281.845 35.34 281.167 39.458 280.669 42.8972C280.216 39.5033 279.492 35.2948 278.587 31.6746L276.189 23.6649H269.718L277.727 50.1828L276.687 53.9388C276.114 56.0662 274.69 55.7155 273.252 55.3611L273.251 55.3609C273.099 55.3234 272.947 55.2858 272.795 55.2511L271.845 59.8216C276.958 61.858 280.533 61.2245 282.253 55.2059L283.701 50.0471H283.655L291.575 23.6649H285.104ZM301.263 15.6552H321.898V21.2212H314.703V50.3639H308.504V21.2212H301.263V15.6552ZM333.052 39.7295C332.78 42.3994 331.785 45.0241 328.164 45.0241C326.038 45.0241 324.499 44.4358 324.499 42.6709C324.499 40.5441 326.716 39.096 333.052 39.7295ZM325.359 32.8511C325.314 30.0002 326.309 29.0499 329.024 29.0499C332.282 29.0499 333.052 31.041 333.052 35.0233C323.865 34.3897 318.616 36.8786 318.616 43.1687C318.616 48.1917 321.92 50.7259 326.309 50.7259C329.296 50.7259 331.83 49.3683 333.323 47.2867L333.912 50.3639H338.98V33.9372C338.98 27.0136 335.948 23.5291 328.979 23.5291C322.598 23.5291 319.023 26.199 319.431 32.8511H325.359ZM354.047 50.3639C346.852 50.3639 344.725 48.237 344.725 40.5893V15.4742H350.925V40.4988C350.925 43.4402 351.468 44.3905 354.047 44.3905V50.3639ZM380.233 50.3639L370.776 35.6568L379.328 23.6649H372.36L365.753 33.1679H364.078V15.4289H357.879V50.3639H364.078V38.7792H365.843L373.265 50.3639H380.233ZM392.222 23.5291C398.783 23.5291 401.906 27.2398 401.906 32.0366H395.842C395.842 30.0002 394.258 29.0952 392.267 29.0952C389.869 29.0952 388.421 30.0455 388.421 31.9008C388.421 34.3176 390.498 34.4737 393.222 34.6784C393.813 34.7229 394.435 34.7696 395.073 34.8422C398.648 35.2495 402.223 37.3764 402.223 42.1279C402.223 47.9655 397.652 50.4996 391.905 50.4996C385.57 50.4996 381.769 47.2867 381.769 42.1279H388.059C388.194 43.9833 389.19 45.0693 392.177 45.0693C394.665 45.0693 395.933 43.6665 395.933 42.3542C395.933 40.3509 393.627 40.0858 390.868 39.7687C390.511 39.7276 390.146 39.6857 389.778 39.639C385.886 39.1412 382.131 37.4669 382.131 32.2176C382.131 26.199 386.43 23.5291 392.222 23.5291Z" fill="#0900A7"/>
</svg>
