<svg width="300" height="300" viewBox="0 0 300 300" fill="none" xmlns="http://www.w3.org/2000/svg">
<path fill-rule="evenodd" clip-rule="evenodd" d="M134.317 62.2516C129.333 64.5879 124.075 67.0586 122.635 67.7422L120.015 68.9847V96.3975C120.015 113.606 120.116 123.81 120.285 123.81C120.434 123.81 123.397 122.472 126.87 120.837C130.343 119.202 135.57 116.756 138.486 115.4L143.788 112.935L143.725 105.874L143.663 98.812L132.443 97.2237C126.272 96.3503 121.047 95.5772 120.832 95.5057C120.618 95.4346 121.525 94.9662 122.848 94.4651C124.172 93.964 129.396 91.9362 134.459 89.9584L143.663 86.363L143.736 72.1794C143.777 64.3786 143.713 57.9977 143.595 58C143.477 58.002 139.302 59.9151 134.317 62.2516ZM166.178 63.4719L154.708 68.8954L154.633 76.2723L154.557 83.6491L155.624 83.816C156.21 83.9081 161.278 84.5558 166.886 85.2557C172.493 85.9557 177.273 86.5714 177.506 86.6245C178.005 86.7378 175.969 87.6987 163.771 93.1087L154.708 97.1282L154.634 110.469C154.592 118.058 154.669 123.81 154.811 123.81C154.949 123.81 160.271 121.36 166.638 118.366L178.214 112.922L178.287 85.4591C178.344 63.5699 178.287 58.0014 178.003 58.0223C177.808 58.0367 172.486 60.4891 166.178 63.4719ZM126.423 138.654C120.265 139.875 114.939 142.7 110.502 147.101C106.8 150.772 104.332 154.99 102.974 159.965C102.406 162.044 102.321 162.991 102.34 167.027C102.358 170.883 102.468 172.073 102.976 173.921C104.894 180.91 108.963 186.557 114.867 190.423C117.803 192.346 120.539 193.548 124.466 194.64C127.048 195.357 127.604 195.409 132.618 195.398C137.512 195.387 138.246 195.319 140.727 194.648C143.905 193.788 146.79 192.574 149.554 190.933C151.946 189.514 156.411 185.371 158.112 182.993C159.727 180.736 161.43 177.142 162.398 173.947C163.109 171.598 163.168 171.03 163.168 166.462C163.168 161.898 163.109 161.328 162.406 159.038C160.867 154.029 158.793 150.44 155.489 147.068C151.11 142.599 146.182 139.946 140.042 138.754C136.701 138.105 129.462 138.052 126.423 138.654ZM186.994 138.646C176.977 140.485 171.652 145.924 172.204 153.751C172.489 157.782 174.474 161.251 178.018 163.907C180.298 165.616 182.08 166.57 188.828 169.692C196.611 173.293 199.268 175.277 200.283 178.25C202.191 183.834 197.818 188.597 189.967 189.487C187.961 189.715 183.268 189.013 180.416 188.058C177.705 187.15 174.453 185.477 172.45 183.958C171.616 183.326 170.881 182.862 170.816 182.926C170.688 183.054 172.614 191.641 172.996 192.644C173.17 193.102 173.736 193.412 175.157 193.829C179.735 195.172 181.658 195.415 187.56 195.398C192.883 195.382 193.374 195.335 195.713 194.619C205.109 191.742 210.668 185.317 210.305 177.752C210.148 174.463 209.114 172.3 206.565 169.921C204.065 167.589 201.423 166.02 194.841 162.958C186.26 158.968 183.85 157.311 182.44 154.437C181.785 153.101 181.699 152.643 181.833 151.179C182.107 148.163 184.111 146.063 187.775 144.953C190.573 144.105 195.71 144.298 198.689 145.361C200.914 146.156 203.693 147.719 204.54 148.653C204.829 148.971 205.173 149.232 205.305 149.232C205.436 149.232 205.544 147.139 205.544 144.582V139.932L204.37 139.617C199.616 138.34 191.214 137.871 186.994 138.646ZM218.018 140.052C216.737 144.105 215.455 148.76 215.584 148.888C215.671 148.975 216.028 148.778 216.378 148.45C217.542 147.361 220.606 146.143 222.97 145.831C224.211 145.667 226.947 145.571 229.05 145.617L232.873 145.701V167.168C232.873 186.797 232.831 188.772 232.379 190.228C231.905 191.755 230.941 193.055 229.75 193.773C229.309 194.039 230.952 194.114 237.542 194.127L245.891 194.143L244.45 192.886C243.544 192.095 242.757 191.073 242.331 190.132L241.653 188.635V167.168V145.701L246.892 145.709C252.874 145.719 254.071 146.027 255.529 147.935C255.963 148.501 256.365 148.917 256.424 148.858C256.516 148.766 259.07 139.533 259.07 139.292C259.07 139.244 249.894 139.204 238.678 139.204H218.285L218.018 140.052ZM41 139.595C41 139.733 41.3481 140.073 41.7734 140.351C42.9244 141.103 43.4863 141.871 44.0332 143.441C44.4792 144.722 44.5339 146.766 44.6188 165.332C44.6789 178.524 44.6069 186.6 44.4161 188.028C44.0711 190.61 42.9912 192.848 41.7924 193.466C41.3566 193.691 41 193.936 41 194.009C41 194.083 44.5874 194.143 48.9717 194.143H56.9435L55.9854 193.499C54.7296 192.655 53.8545 191.052 53.4807 188.91C53.3051 187.905 53.1779 183.062 53.1779 177.384V167.592H68.2061H83.234L83.1453 178.537L83.0564 189.483L82.2068 191.177C81.6823 192.224 80.989 193.115 80.3948 193.508L79.4325 194.143H87.4093H95.3859L94.1332 192.943C91.7648 190.673 91.8358 191.479 91.8358 166.886C91.8358 147.115 91.8755 145.29 92.3391 143.795C92.8636 142.104 94.1644 140.345 95.1143 140.045C95.4184 139.948 95.5943 139.752 95.5051 139.608C95.3244 139.316 80.0045 139.235 79.7145 139.524C79.616 139.623 80.0193 140.053 80.6109 140.48C82.8723 142.114 83.23 144.02 83.132 153.911L83.0564 161.519H68.188H53.3195L53.238 154.175C53.1887 149.728 53.2796 146.106 53.4685 144.995C53.8347 142.838 54.8344 140.982 55.9984 140.296C56.4552 140.027 56.7645 139.703 56.686 139.576C56.4909 139.262 41 139.281 41 139.595ZM138.848 145.107C147.738 147.912 153.744 157.174 153.706 168.015C153.663 180.095 146.291 188.432 134.742 189.461C130.922 189.802 126.48 188.815 123.13 186.882C120.552 185.394 116.775 181.537 115.248 178.834C109.77 169.132 110.862 157.272 117.887 150.193C122.157 145.889 127.137 144.034 133.751 144.285C135.754 144.361 137.246 144.601 138.848 145.107ZM65.069 203.283C57.008 205.015 56.1482 215.851 63.8543 218.592C64.4465 218.803 65.9076 218.981 67.1013 218.988C69.0115 218.999 69.4853 218.89 71.0574 218.078C74.1713 216.47 75.8204 213.491 75.4701 210.106C74.9782 205.351 70.1574 202.189 65.069 203.283ZM208.208 203.18C205.5 203.74 203.549 205.107 202.205 207.387C201.532 208.53 201.438 208.985 201.441 211.091C201.445 213.959 201.987 215.208 203.99 216.967C205.608 218.387 207.356 219 209.792 219C212.239 219 213.977 218.386 215.623 216.942C217.468 215.322 218.282 213.478 218.285 210.911C218.288 209.249 218.149 208.63 217.495 207.382C215.855 204.25 211.833 202.431 208.208 203.18ZM76.5653 204.594C76.3577 205.293 76.2161 205.899 76.2509 205.94C76.2857 205.981 76.7757 205.822 77.3396 205.587C77.9037 205.352 78.9428 205.159 79.6488 205.159H80.9323V211.498C80.9323 215.419 80.8244 217.903 80.6491 218.011C79.9057 218.47 80.5548 218.718 82.4985 218.718H84.631L84.0502 217.934C83.5016 217.194 83.4736 216.822 83.5461 211.225L83.6228 205.301L84.8347 205.213C85.5095 205.165 86.4164 205.31 86.8814 205.541C87.716 205.957 87.7166 205.956 88.0046 204.923C88.1629 204.354 88.2932 203.798 88.294 203.688C88.2949 203.578 85.7412 203.45 82.6191 203.405L76.9425 203.323L76.5653 204.594ZM119.001 203.718C117.354 204.464 116.616 205.512 116.618 207.104C116.619 209.165 117.311 209.982 120.345 211.505C124.13 213.406 124.86 214.172 124.261 215.616C123.499 217.45 120.195 217.803 117.557 216.332C116.836 215.931 116.213 215.636 116.172 215.677C116.13 215.719 116.235 216.356 116.404 217.094C116.68 218.297 116.816 218.464 117.726 218.716C119.281 219.147 122.718 219.062 123.914 218.563C125.941 217.718 127.095 216.143 127.095 214.222C127.095 212.595 126.001 211.504 122.725 209.864C119.769 208.383 119.028 207.639 119.327 206.45C119.728 204.856 122.38 204.404 124.64 205.545L125.962 206.212V204.973C125.962 203.902 125.864 203.696 125.236 203.457C123.979 202.981 120.288 203.135 119.001 203.718ZM138.239 204.12C137.376 204.908 137.213 205.243 137.213 206.229C137.213 207.284 137.412 207.736 138.547 209.269C138.734 209.52 138.541 209.855 137.898 210.394C135.605 212.319 135.198 215.585 137.019 217.458C138.085 218.555 139.322 218.996 141.338 218.998C142.922 219 144.717 218.186 145.391 217.16L145.852 216.458L147.285 217.507C148.495 218.392 148.99 218.573 150.462 218.667C153.309 218.847 153.504 218.688 151.688 217.666C149.898 216.658 145.813 213.326 143.69 211.141L142.301 209.712L143.194 208.697C143.93 207.861 144.087 207.446 144.081 206.35C144.071 204.233 142.904 203.182 140.562 203.182C139.488 203.182 139.089 203.343 138.239 204.12ZM190.087 203.718C188.439 204.464 187.701 205.512 187.703 207.104C187.705 209.19 188.394 209.99 191.538 211.558C195.488 213.526 196.444 214.887 194.889 216.324C193.513 217.596 190.851 217.59 188.593 216.309C187.915 215.925 187.324 215.61 187.278 215.61C187.04 215.61 187.791 218.071 188.135 218.418C188.772 219.061 193.353 219.19 194.88 218.608C197.138 217.748 198.635 215.504 198.26 213.543C198.05 212.449 196.573 211.238 193.651 209.764C190.659 208.254 189.982 207.468 190.568 206.185C191.18 204.845 193.506 204.504 195.592 205.448C196.271 205.755 196.876 206.007 196.937 206.007C196.998 206.007 197.048 205.495 197.048 204.87C197.048 203.909 196.935 203.69 196.321 203.457C195.065 202.981 191.373 203.135 190.087 203.718ZM250.651 203.737C249.003 204.483 248.243 205.752 248.394 207.503C248.551 209.324 249.459 210.223 252.78 211.845C255.572 213.208 256.336 213.964 256.188 215.211C255.946 217.242 252.339 217.87 249.463 216.382L247.951 215.599L248.143 216.805C248.431 218.619 248.77 218.816 251.844 218.95C254.316 219.058 254.663 219.006 256.081 218.314C257.71 217.519 258.647 216.377 258.963 214.803C259.343 212.91 257.948 211.398 254.367 209.819C252.29 208.903 251.14 207.844 251.14 206.845C251.14 205.032 253.949 204.314 256.309 205.523L257.654 206.212V204.871C257.654 203.267 257.49 203.189 254.114 203.192C252.489 203.194 251.51 203.348 250.651 203.737ZM41.2832 203.73C41.2832 203.877 41.4107 204.075 41.5664 204.171C41.7423 204.279 41.8496 206.873 41.8496 211.015C41.8496 216.824 41.7893 217.751 41.3809 218.201C40.9306 218.697 40.9972 218.718 43.0635 218.718H45.2144L44.8083 217.941C44.5327 217.414 44.4013 216.231 44.4002 214.269L44.3985 211.374H48.505H52.6115V214.605C52.6115 216.455 52.4903 217.911 52.3283 218.011C51.6002 218.46 52.2133 218.718 54.0109 218.718H55.9763L55.5702 217.941C54.9817 216.816 54.9817 205.366 55.5702 204.241L55.9763 203.465H54.0109C52.0873 203.465 51.7452 203.617 52.3399 204.211C52.5135 204.384 52.601 205.54 52.5523 207.021L52.4699 209.537H48.505H44.5401L44.4574 207.357C44.3985 205.797 44.501 204.933 44.8188 204.321L45.2626 203.465H43.273C42.1787 203.465 41.2832 203.584 41.2832 203.73ZM91.2844 204.241C91.8729 205.366 91.8729 216.816 91.2844 217.941L90.8783 218.718H95.6492H100.42L100.871 217.398C101.119 216.673 101.278 216.036 101.225 215.983C101.171 215.93 100.518 216.155 99.7722 216.484C98.6139 216.995 98.1126 217.054 96.3298 216.887L94.2431 216.692V214.033V211.374H95.7441C96.5697 211.374 97.398 211.526 97.585 211.712C97.8492 211.976 97.9248 211.769 97.9248 210.781V209.511L96.084 209.628L94.2431 209.745V207.623C94.2431 205.95 94.3377 205.466 94.6911 205.331C95.5088 205.018 97.4884 205.157 98.3111 205.585C98.7574 205.817 99.1715 206.007 99.2315 206.007C99.2916 206.007 99.3409 205.435 99.3409 204.736V203.465H95.1094H90.8783L91.2844 204.241ZM104.281 204.092C104.648 204.616 104.722 205.782 104.722 211.091C104.722 216.4 104.648 217.566 104.281 218.09L103.84 218.718H108.671C111.327 218.718 113.501 218.659 113.501 218.587C113.501 218.515 113.75 217.825 114.055 217.055L114.609 215.653L113.041 216.369C111.633 217.012 111.259 217.065 109.372 216.889L107.271 216.692V210.706C107.271 205.745 107.346 204.612 107.712 204.092L108.152 203.465H105.996H103.84L104.281 204.092ZM159.538 204.241C159.854 204.846 159.944 206.365 159.944 211.091C159.944 215.817 159.854 217.336 159.538 217.941L159.131 218.718H161.282C163.349 218.718 163.415 218.697 162.965 218.201C162.559 217.753 162.496 216.855 162.496 211.455V205.225L163.239 205.083C164.311 204.879 165.809 205.365 166.311 206.08C167.435 207.681 166.248 209.993 164.096 210.396C163.528 210.502 163.063 210.735 163.063 210.914C163.063 211.681 167.78 217.93 168.75 218.448C169.028 218.596 169.997 218.714 170.903 218.711L172.55 218.704L171.033 217.388C169.555 216.106 165.895 211.823 165.895 211.376C165.895 211.253 166.183 211.08 166.536 210.992C166.889 210.903 167.604 210.392 168.126 209.855C169.995 207.932 169.552 205.069 167.221 204.013C166.268 203.582 165.361 203.476 162.584 203.471L159.131 203.465L159.538 204.241ZM174.83 204.444C175.142 205.189 175.241 206.781 175.241 211.091C175.241 215.401 175.142 216.993 174.83 217.738L174.42 218.718H179.193H183.967L184.417 217.398C184.665 216.673 184.816 216.028 184.754 215.966C184.691 215.903 184.277 216.034 183.834 216.256C182.515 216.919 181.476 217.068 179.582 216.866L177.789 216.674V214.024V211.374H179.083C179.794 211.374 180.622 211.505 180.923 211.666C181.426 211.934 181.471 211.857 181.471 210.735V209.511L179.63 209.628L177.789 209.745V207.623C177.789 205.95 177.884 205.466 178.238 205.331C179.055 205.018 181.035 205.157 181.857 205.585C182.304 205.817 182.718 206.007 182.778 206.007C182.838 206.007 182.887 205.435 182.887 204.736V203.465H178.654H174.42L174.83 204.444ZM221.529 204.092C221.897 204.616 221.97 205.782 221.97 211.091C221.97 216.4 221.897 217.566 221.529 218.09L221.088 218.718H223.244H225.4L224.96 218.09C224.593 217.568 224.519 216.421 224.519 211.311V205.159L225.298 205.115C226.838 205.029 227.504 205.203 228.186 205.874C229.631 207.294 228.779 209.554 226.53 210.27C225.969 210.448 225.401 210.694 225.268 210.815C224.822 211.223 229.557 217.608 230.859 218.355C231.188 218.543 232.208 218.702 233.127 218.708L234.796 218.718L233.501 217.731C232.788 217.189 231.41 215.759 230.437 214.554C229.464 213.348 228.491 212.153 228.274 211.896C227.925 211.483 228.012 211.357 229.046 210.777C230.547 209.936 231.316 208.688 231.316 207.095C231.316 204.379 229.644 203.48 224.573 203.471L221.088 203.465L221.529 204.092ZM234.615 203.679C234.542 203.796 234.393 204.368 234.284 204.948L234.085 206.004L235.099 205.582C235.656 205.349 236.69 205.159 237.396 205.159H238.679V211.498C238.679 215.419 238.571 217.903 238.396 218.011C237.649 218.472 238.306 218.718 240.281 218.718H242.449L241.909 218.124C241.414 217.578 241.37 217.032 241.37 211.415V205.301L242.582 205.213C243.251 205.165 244.162 205.31 244.618 205.536C245.423 205.937 245.449 205.926 245.742 205.087C246.331 203.402 246.536 203.465 240.395 203.465C237.289 203.465 234.688 203.561 234.615 203.679ZM262.327 203.731C260.086 204.646 259.705 207.888 261.646 209.517C262.983 210.639 264.773 210.544 266.037 209.283C266.814 208.508 267 208.103 267 207.183C267 206.556 266.876 205.717 266.724 205.319C266.185 203.907 263.91 203.085 262.327 203.731ZM265.485 204.917C267.178 206.503 265.998 209.679 263.716 209.679C262.881 209.679 261.693 208.844 261.349 208.016C260.865 206.849 261.209 205.598 262.258 204.718C263.281 203.86 264.432 203.93 265.485 204.917ZM141.379 204.87C142.366 205.244 142.397 206.765 141.435 207.666L140.764 208.295L140.019 207.412C139.108 206.332 139.073 205.614 139.903 205.034C140.648 204.513 140.486 204.531 141.379 204.87ZM69.4831 205.452C72.2364 206.781 73.576 211.049 72.184 214.057C70.5604 217.566 65.9747 218.421 63.261 215.721C59.982 212.458 60.9928 206.365 65.0135 205.156C66.4069 204.737 68.2565 204.86 69.4831 205.452ZM212.907 205.832C215.333 207.433 216.283 211.469 214.903 214.313C213.211 217.798 208.326 218.328 205.734 215.308C203.628 212.854 203.579 208.832 205.628 206.609C207.368 204.722 210.688 204.367 212.907 205.832ZM262.469 206.854C262.469 207.984 262.59 208.831 262.752 208.831C262.908 208.831 263.035 208.521 263.035 208.142C263.035 206.928 263.905 206.965 264.291 208.196C264.654 209.356 264.958 208.854 264.942 207.122C264.925 205.269 264.62 204.877 263.195 204.877C262.485 204.877 262.469 204.92 262.469 206.854ZM264.131 205.821C264.505 206.271 264.274 206.572 263.554 206.572C263.047 206.572 262.848 206.005 263.224 205.63C263.51 205.345 263.782 205.402 264.131 205.821ZM144.59 215.592C144.439 216.375 142.67 217.305 141.334 217.305C140.325 217.305 139.917 217.144 139.251 216.48C137.987 215.218 138.133 213.379 139.628 211.74L140.196 211.118L142.434 213.144C143.668 214.261 144.635 215.359 144.59 215.592Z" fill="white"/>
</svg>
