<svg width="135" height="52" viewBox="0 0 135 52" fill="none" xmlns="http://www.w3.org/2000/svg">
<g clip-path="url(#clip0)">
<path fill-rule="evenodd" clip-rule="evenodd" d="M42.5694 -0.000213623H0L1 0.999786H41.5694V30.3862C41.5694 41.5692 32.5031 50.6709 21.2847 50.6709C10.1017 50.6709 1 41.6045 1 30.3862V0.999786L0 -0.000213623V30.3862C0 42.1579 9.55051 51.6709 21.2847 51.6709C33.0565 51.6709 42.5694 42.1204 42.5694 30.3862V-0.000213623Z" fill="black"/>
<path d="M20.9922 17.6909H0.992188V0.690918H20.9922V17.6909Z" fill="black"/>
<path fill-rule="evenodd" clip-rule="evenodd" d="M31.5406 9.27116C33.0223 9.27116 34.257 8.07171 34.257 6.55477C34.257 5.03782 33.0576 3.83838 31.5406 3.83838C30.0589 3.83838 28.8242 5.03782 28.8242 6.55477C28.8242 8.03643 30.0237 9.27116 31.5406 9.27116ZM38.1246 9.27116C39.6063 9.27116 40.841 8.07171 40.841 6.55477C40.841 5.03782 39.6063 3.83838 38.1246 3.83838C36.6429 3.83838 35.4082 5.03782 35.4082 6.55477C35.4082 8.03643 36.6429 9.27116 38.1246 9.27116ZM27.7101 15.0045C27.7101 16.5214 26.4754 17.7209 24.9937 17.7209C23.4768 17.7209 22.2773 16.4861 22.2773 15.0045C22.2773 13.4875 23.5121 12.2881 24.9937 12.2881C26.4754 12.2881 27.7101 13.4875 27.7101 15.0045ZM31.5406 17.7209C33.0223 17.7209 34.257 16.5214 34.257 15.0045C34.257 13.4875 33.0576 12.2881 31.5406 12.2881C30.0589 12.2881 28.8242 13.4875 28.8242 15.0045C28.8242 16.4861 30.0237 17.7209 31.5406 17.7209ZM40.841 15.0045C40.841 16.5214 39.6063 17.7209 38.1246 17.7209C36.6429 17.7209 35.4082 16.4861 35.4082 15.0045C35.4082 13.4875 36.6429 12.2881 38.1246 12.2881C39.6063 12.2881 40.841 13.4875 40.841 15.0045ZM24.9937 26.1711C26.4754 26.1711 27.7101 24.9716 27.7101 23.4547C27.7101 21.9377 26.4754 20.7383 24.9937 20.7383C23.5121 20.7383 22.2773 21.9377 22.2773 23.4547C22.2773 24.9363 23.4768 26.1711 24.9937 26.1711ZM34.257 23.4547C34.257 24.9716 33.0223 26.1711 31.5406 26.1711C30.0237 26.1711 28.8242 24.9363 28.8242 23.4547C28.8242 21.9377 30.0589 20.7383 31.5406 20.7383C33.0576 20.7383 34.257 21.9377 34.257 23.4547ZM38.1246 26.1711C39.6063 26.1711 40.841 24.9716 40.841 23.4547C40.841 21.9377 39.6063 20.7383 38.1246 20.7383C36.6429 20.7383 35.4082 21.9377 35.4082 23.4547C35.4082 24.9363 36.6429 26.1711 38.1246 26.1711ZM27.7101 31.9044C27.7101 33.4213 26.4754 34.6208 24.9937 34.6208C23.4768 34.6208 22.2773 33.386 22.2773 31.9044C22.2773 30.4227 23.5121 29.188 24.9937 29.188C26.4754 29.188 27.7101 30.3874 27.7101 31.9044ZM24.9937 9.27116C26.4754 9.27116 27.7101 8.07171 27.7101 6.55477C27.7101 5.03782 26.4754 3.83838 24.9937 3.83838C23.5121 3.83838 22.2773 5.03782 22.2773 6.55477C22.2773 8.03643 23.4768 9.27116 24.9937 9.27116ZM34.257 31.9044C34.257 33.4213 33.0223 34.6208 31.5406 34.6208C30.0237 34.6208 28.8242 33.386 28.8242 31.9044C28.8242 30.4227 30.0589 29.188 31.5406 29.188C33.0576 29.188 34.257 30.3874 34.257 31.9044ZM38.1246 34.6208C39.6063 34.6208 40.841 33.4213 40.841 31.9044C40.841 30.3874 39.6063 29.188 38.1246 29.188C36.6429 29.188 35.4082 30.4227 35.4082 31.9044C35.4082 33.386 36.6429 34.6208 38.1246 34.6208ZM27.7101 40.3541C27.7101 41.871 26.4754 43.0705 24.9937 43.0705C23.4768 43.0705 22.2773 41.8358 22.2773 40.3541C22.2773 38.8371 23.5121 37.6377 24.9937 37.6377C26.4754 37.6377 27.7101 38.8371 27.7101 40.3541ZM1 23.4997V17.6789H6.43278L21.4258 37.6108V50.6636L1 23.4997Z" fill="black"/>
<path fill-rule="evenodd" clip-rule="evenodd" d="M86.4015 5.54057C86.6484 6.31669 86.9306 7.16335 87.1776 7.76307L88.9415 12.2081H83.7557L85.5548 7.76307C85.837 7.16335 86.1193 6.31669 86.3309 5.54057H86.4015ZM89.894 14.3953L91.8695 19.0872H94.5859L86.8601 0.70752H85.8723L78.1465 19.0872H80.8629L82.8384 14.3953H89.894ZM68.8003 3.28572H66.5426V8.78906H68.8003C70.4231 8.78906 71.9401 7.94239 71.9401 6.03739C71.9048 4.16767 70.3878 3.28572 68.8003 3.28572ZM69.2589 11.1174H66.5426V19.0902H63.8262V0.957392H69.2942C71.8695 0.957392 74.7623 2.61545 74.7623 6.03739C74.727 9.45934 71.8342 11.1174 69.2589 11.1174ZM52.6113 0.984212H55.4113V19.0842H52.6113V0.984212ZM106.52 3.28572H104.156V16.7618H106.52C110.612 16.7618 113.998 14.6452 113.998 10.0238C113.998 5.40239 110.612 3.28572 106.52 3.28572ZM106.978 19.0902H101.404V0.957392H106.978C112.023 0.957392 116.785 4.16767 116.785 10.0238C116.785 15.8799 112.058 19.0902 106.978 19.0902ZM124.131 0.958856V19.0916H134.891V16.728H126.883V11.1541H132.774V8.79052H126.883V3.32247H133.903V0.958856H124.131ZM53.9896 27.4941H53.2488V29.3286H53.9896C54.554 29.3286 55.0479 29.0464 55.0479 28.4114C55.0832 27.8116 54.554 27.4941 53.9896 27.4941ZM53.8132 25.448H53.284V26.8239H53.8132C54.2365 26.8239 54.6246 26.6122 54.6246 26.1536C54.5893 25.6597 54.2365 25.448 53.8132 25.448ZM54.166 29.9989H52.4727V24.7425H53.919C54.6246 24.7425 55.4007 25.2011 55.4007 26.1183C55.4007 26.5064 55.2243 26.8944 54.9068 27.0355C55.4007 27.1766 55.8593 27.7058 55.8593 28.3761C55.8946 29.505 54.9774 29.9989 54.166 29.9989ZM58 28.1694C58 29.4041 58.9172 30.1097 60.1519 30.1097C61.3867 30.1097 62.3039 29.4041 62.2686 28.1694V24.7828H61.4925V28.0989C61.4925 28.9103 61.0692 29.4394 60.1519 29.4394C59.2347 29.4394 58.8114 28.875 58.8114 28.0989V24.7828H58V28.1694ZM65.9173 30.1097C65.3529 30.1097 64.8237 29.9333 64.5768 29.7569L64.4004 28.875C64.8943 29.2278 65.4234 29.4041 65.9879 29.4041C66.5876 29.4041 66.9404 29.0866 66.9404 28.5928C66.9404 28.1341 66.6582 27.8519 66.0232 27.6403C65.0707 27.3228 64.5768 26.7936 64.5768 26.088C64.5768 25.3472 65.1059 24.6416 66.2348 24.6416C66.764 24.6416 67.1873 24.818 67.3637 24.9591L67.2226 25.6294C67.0462 25.4883 66.6229 25.3119 66.1996 25.3119C65.6704 25.3119 65.3529 25.6294 65.3529 26.0175C65.3529 26.3703 65.6351 26.6525 66.1996 26.8289C67.1168 27.1464 67.7165 27.6403 67.7165 28.5222C67.7165 29.4747 67.0815 30.1097 65.9173 30.1097ZM70.8117 24.784H70.0117V29.984H70.8117V24.784ZM77.701 30.1154L75.2315 27.4343C74.8435 27.011 74.3849 26.4818 74.0321 26.0585V27.3638V30.0096H73.2207V24.7532H73.7851L76.0429 27.2227C76.0897 27.2746 76.1394 27.3296 76.1914 27.3869L76.1914 27.387L76.1914 27.387C76.4924 27.7193 76.8658 28.1317 77.1365 28.4927V27.2579V24.7885H77.9479V30.1507H77.701V30.1154ZM80.3086 24.7478V29.969H83.413V29.2987H81.0847V27.6759H82.778V27.0056H81.0847V25.4181H83.1308V24.7478H80.3086ZM86.6791 30.1097C86.1146 30.1097 85.5854 29.9333 85.3385 29.7569L85.1621 28.875C85.656 29.2278 86.1852 29.4041 86.7496 29.4041C87.3493 29.4041 87.7021 29.0866 87.7021 28.5928C87.7021 28.1341 87.4199 27.8519 86.7849 27.6403C85.8324 27.3228 85.3385 26.7936 85.3385 26.088C85.3385 25.3472 85.8677 24.6416 86.9966 24.6416C87.5257 24.6416 87.9491 24.818 88.1254 24.9591L87.9843 25.6294C87.8079 25.4883 87.3846 25.3119 86.9613 25.3119C86.4321 25.3119 86.1146 25.6294 86.1146 26.0175C86.1146 26.3703 86.3968 26.6525 86.9613 26.8289C87.8785 27.1464 88.4782 27.6403 88.4782 28.5222C88.4782 29.4747 87.8432 30.1097 86.6791 30.1097ZM90.4694 29.7569C90.7163 29.9333 91.2455 30.1097 91.8099 30.1097C93.0094 30.1097 93.6091 29.4747 93.6091 28.5222C93.6091 27.6403 93.0094 27.1464 92.0921 26.8289C91.5277 26.6525 91.2455 26.3703 91.2455 26.0175C91.2455 25.6294 91.563 25.3119 92.0921 25.3119C92.5155 25.3119 92.9388 25.4883 93.1152 25.6294L93.2563 24.9591C93.0799 24.818 92.6566 24.6416 92.1274 24.6416C90.9985 24.6416 90.4694 25.3472 90.4694 26.088C90.4694 26.7936 90.9632 27.3228 91.9157 27.6403C92.5507 27.8519 92.833 28.1341 92.833 28.5928C92.833 29.0866 92.4802 29.4041 91.8805 29.4041C91.316 29.4041 90.7869 29.2278 90.293 28.875L90.4694 29.7569ZM100.199 30.1097C99.6341 30.1097 99.105 29.9333 98.858 29.7569L98.6816 28.875C99.1755 29.2278 99.7047 29.4041 100.269 29.4041C100.869 29.4041 101.222 29.0866 101.222 28.5928C101.222 28.1341 100.939 27.8519 100.304 27.6403C99.3519 27.3228 98.858 26.7936 98.858 26.088C98.858 25.3472 99.3872 24.6416 100.516 24.6416C101.045 24.6416 101.469 24.818 101.645 24.9591L101.504 25.6294C101.327 25.4883 100.904 25.3119 100.481 25.3119C99.9516 25.3119 99.6341 25.6294 99.6341 26.0175C99.6341 26.3703 99.9164 26.6525 100.481 26.8289C101.398 27.1464 101.998 27.6403 101.998 28.5222C101.998 29.4747 101.363 30.1097 100.199 30.1097ZM106.801 25.3423C107.33 25.3423 107.859 25.5187 108.106 25.6951L108.247 25.0248C107.93 24.8484 107.401 24.672 106.695 24.672C105.39 24.672 103.873 25.5893 103.873 27.3884C103.873 29.1876 105.355 30.1048 106.695 30.1048C107.366 30.1048 107.754 30.0343 108.071 29.8579L108.247 29.117C107.93 29.2934 107.436 29.4345 106.801 29.4345C105.743 29.4345 104.684 28.729 104.684 27.3884C104.684 26.0126 105.778 25.3423 106.801 25.3423ZM113.782 30.0042V27.7112H111.065V30.0042H110.254V24.7478H111.065V27.0056H113.782V24.7478H114.593V30.0042H113.782ZM117.528 27.4075C117.528 26.1022 118.551 25.3614 119.504 25.3614C120.456 25.3614 121.479 26.1022 121.479 27.4075C121.479 28.7128 120.456 29.4536 119.504 29.4536C118.516 29.4536 117.528 28.7128 117.528 27.4075ZM116.717 27.4075C116.717 29.1008 118.093 30.1239 119.504 30.1239C120.915 30.1239 122.291 29.1008 122.291 27.4075C122.291 25.7141 120.915 24.6911 119.504 24.6911C118.093 24.6911 116.717 25.7141 116.717 27.4075ZM127.015 25.3614C126.063 25.3614 125.04 26.1022 125.04 27.4075C125.04 28.7128 126.028 29.4536 127.015 29.4536C127.968 29.4536 128.991 28.7128 128.991 27.4075C128.991 26.1022 127.968 25.3614 127.015 25.3614ZM127.015 30.1239C125.604 30.1239 124.229 29.1008 124.229 27.4075C124.229 25.7141 125.604 24.6911 127.015 24.6911C128.427 24.6911 129.802 25.7141 129.802 27.4075C129.767 29.1008 128.391 30.1239 127.015 30.1239ZM131.928 24.7478V29.969H135.032V29.2987H132.739V24.7478H131.928Z" fill="black"/>
<path fill-rule="evenodd" clip-rule="evenodd" d="M122.447 36.3723C122.235 36.2312 121.847 36.0901 121.424 36.0901C120.612 36.0901 119.801 36.6192 119.801 37.6776C119.801 38.7359 120.612 39.2651 121.424 39.2651C121.918 39.2651 122.306 39.1592 122.553 39.0181L122.412 39.6179C122.165 39.759 121.882 39.8295 121.353 39.8295C120.33 39.8295 119.166 39.124 119.166 37.7129C119.166 36.3017 120.33 35.5962 121.353 35.5962C121.918 35.5962 122.306 35.7373 122.553 35.8784L122.447 36.3723ZM83.0973 36.919L83.0973 36.919L83.0973 36.919C83.0743 36.8456 83.0504 36.7693 83.0199 36.6931C82.9846 36.8695 82.914 37.0459 82.8435 37.187L82.4554 38.1748H83.6196L83.1963 37.187C83.1562 37.1069 83.1275 37.0154 83.0973 36.919L83.0973 36.919ZM84.2546 39.727L83.8313 38.6687H82.2438L81.8204 39.727H81.2207L82.9493 35.5995H83.161L84.8896 39.727H84.2546ZM72.77 39.5204C72.9817 39.6616 73.405 39.8027 73.8283 39.8027C74.7456 39.8027 75.2395 39.3088 75.31 38.6032C75.31 37.9329 74.8161 37.5449 74.1106 37.2979C73.652 37.1568 73.4403 36.9452 73.4403 36.6629C73.4403 36.3454 73.6872 36.0985 74.1106 36.0985C74.4281 36.0985 74.7456 36.2396 74.8867 36.3454L74.9925 35.8516C74.8514 35.7457 74.4986 35.6046 74.1106 35.6046C73.2286 35.6046 72.8053 36.1338 72.8053 36.6982C72.8053 37.2627 73.1581 37.6507 73.8989 37.8977C74.3928 38.0388 74.6045 38.2857 74.6045 38.6385C74.6045 39.0266 74.3222 39.2735 73.8636 39.2735C73.405 39.2735 73.017 39.1324 72.6289 38.8502L72.77 39.5204ZM64.2798 39.7607H64.0681L62.4453 35.6332H63.0803L63.8211 37.5735C63.8571 37.6692 63.893 37.7732 63.9303 37.8811C64.0029 38.0911 64.0807 38.3162 64.1739 38.526C64.2798 38.1732 64.3856 37.8557 64.5267 37.5735L65.2675 35.6332H65.8673L64.2798 39.7607ZM54.203 39.8027C53.2505 39.8027 52.5449 39.2382 52.5449 38.2857V35.6399H53.1799V38.2152C53.1799 38.8149 53.5327 39.2382 54.2383 39.2382C54.9438 39.2382 55.2966 38.8149 55.2966 38.2152V35.6399H55.8963V38.2857C55.861 39.2382 55.1555 39.8027 54.203 39.8027ZM60.1468 39.8074L58.2418 37.726C58.0116 37.4958 57.7628 37.21 57.5359 36.9492L57.5359 36.9492L57.5358 36.9491L57.5358 36.9491C57.4498 36.8502 57.3669 36.755 57.2893 36.6677V37.6908V39.7369H56.6543V35.6799H57.0776L58.8415 37.5849C59.0885 37.8319 59.4412 38.2552 59.6882 38.5727V37.6202V35.6799H60.3232V39.8427H60.1468V39.8074ZM61.9105 35.684H61.3105V39.784H61.9105V35.684ZM66.3574 35.6481V39.705H68.7563V39.1758H66.9571V37.9411H68.2624V37.412H66.9571V36.1772H68.5446V35.6481H66.3574ZM70.5 36.1615H69.9355V37.3962H70.5C70.8528 37.3962 71.2055 37.2198 71.2055 36.7612C71.2055 36.3732 70.8528 36.1615 70.5 36.1615ZM71.8053 39.7245L70.5353 37.9254H69.9708V39.7245H69.3711V35.6676H70.6764C71.2408 35.6676 71.9111 36.0204 71.9111 36.7965C71.9111 37.3257 71.5936 37.6784 71.2055 37.8548L72.5814 39.7245H71.8053ZM76.0117 35.684H76.6117V39.784H76.0117V35.684ZM78.1486 36.1615H78.6777C79.5949 36.1615 80.371 36.6554 80.371 37.6784C80.371 38.7015 79.5949 39.1954 78.6777 39.1954H78.1486V36.1615ZM77.5488 39.7245H78.7836C79.9124 39.7245 81.0061 38.9837 80.9708 37.7137C80.9708 36.3732 79.9124 35.6676 78.7836 35.6676H77.5488V39.7245ZM86.0039 36.1615H86.5331C87.4856 36.1615 88.2264 36.6554 88.2264 37.6784C88.2264 38.7015 87.4503 39.1954 86.5331 39.1954H86.0039V36.1615ZM85.4395 39.7245H86.6742C87.8031 39.7245 88.8614 38.9837 88.8614 37.7137C88.8614 36.3732 87.8031 35.6676 86.6742 35.6676H85.4395V39.7245ZM92.0915 36.1615H91.5976V37.3962H92.0915C92.4443 37.3962 92.7971 37.2198 92.7971 36.7612C92.7971 36.3732 92.4796 36.1615 92.0915 36.1615ZM92.2327 37.9254H91.6329V39.7245H91.0332V35.6676H92.2679C92.8324 35.6676 93.5026 36.0204 93.5026 36.7965C93.4321 37.5726 92.7971 37.9254 92.2327 37.9254ZM95.15 36.919C95.1802 37.0154 95.2089 37.1069 95.249 37.187L95.6723 38.1748H94.5082L94.8962 37.187C94.9668 37.0459 95.0373 36.8695 95.0726 36.6931C95.1031 36.7693 95.127 36.8456 95.15 36.919ZM95.884 38.6687L96.3073 39.727H96.9423L95.2137 35.5995H95.0021L93.2734 39.727H93.8732L94.2965 38.6687H95.884ZM100.922 39.8074L99.0172 37.726C98.787 37.4958 98.5382 37.21 98.3113 36.9492L98.311 36.9488C98.225 36.8501 98.1422 36.7549 98.0647 36.6677V37.6908V39.7369H97.4297V35.6799H97.853L99.6169 37.5849C99.8639 37.8319 100.217 38.2552 100.464 38.5727V37.6202V35.6799H101.099V39.8427H100.922V39.8074ZM103.59 36.919C103.62 37.0154 103.649 37.1069 103.689 37.187L104.112 38.1748H102.948L103.336 37.187C103.406 37.0459 103.477 36.8695 103.512 36.6931C103.543 36.7693 103.567 36.8456 103.59 36.919ZM104.288 38.6687L104.747 39.727H105.347L103.618 35.5995H103.406L101.678 39.727H102.277L102.701 38.6687H104.288ZM109.905 39.7054L109.728 37.8709C109.711 37.7298 109.702 37.5711 109.693 37.4123C109.684 37.2536 109.675 37.0948 109.658 36.9537C109.587 37.0948 109.508 37.2624 109.428 37.43C109.349 37.5975 109.27 37.7651 109.199 37.9062L108.247 39.7407H108.035L107.082 37.9062L106.624 36.989C106.624 37.3065 106.589 37.6593 106.553 37.9062L106.377 39.7407H105.812L106.165 35.6837H106.553L107.647 37.7651C107.823 38.0826 108.035 38.5059 108.141 38.8234C108.282 38.5059 108.458 38.1179 108.635 37.7651L109.693 35.6837H110.081L110.434 39.7407H109.905V39.7054ZM111.205 35.6481V39.705H113.604V39.1758H111.805V37.9411H113.11V37.412H111.805V36.1772H113.392V35.6481H111.205ZM115.348 36.1615H114.783V37.3962H115.348C115.701 37.3962 116.053 37.2198 116.053 36.7612C116.018 36.3732 115.701 36.1615 115.348 36.1615ZM116.618 39.7245L115.348 37.9254H114.783V39.7245H114.148V35.6676H115.454C116.018 35.6676 116.688 36.0204 116.688 36.7965C116.688 37.3257 116.371 37.6784 115.983 37.8548L117.359 39.7245H116.618ZM118.411 35.684H117.811V39.784H118.411V35.684ZM124.793 36.919C124.823 37.0154 124.852 37.1069 124.892 37.187L125.315 38.1748H124.151L124.539 37.187C124.609 37.0459 124.68 36.8695 124.715 36.6931C124.746 36.7693 124.77 36.8456 124.793 36.919ZM125.491 38.6687L125.95 39.727H126.55L124.821 35.5995H124.609L122.881 39.727H123.481L123.904 38.6687H125.491ZM130.563 39.8074L128.658 37.726C128.428 37.4959 128.179 37.2101 127.952 36.9493L127.952 36.9491C127.866 36.8503 127.783 36.755 127.705 36.6677V37.6908V39.7369H127.07V35.6799H127.494L129.258 37.5849C129.504 37.8319 129.857 38.2552 130.104 38.5727V37.6202V35.6799H130.739V39.8427H130.563V39.8074ZM133.195 36.919C133.225 37.0154 133.254 37.1069 133.294 37.187L133.717 38.1748H132.553L132.941 37.187C133.012 37.0459 133.082 36.8695 133.118 36.6931C133.148 36.7693 133.172 36.8456 133.195 36.919ZM133.894 38.6687L134.352 39.727H134.952L133.223 35.5995H133.012L131.283 39.727H131.883L132.306 38.6687H133.894Z" fill="black"/>
</g>
<defs>
<clipPath id="clip0">
<rect width="135" height="52" fill="white"/>
</clipPath>
</defs>
</svg>
