<svg width="394" height="90" viewBox="0 0 394 90" fill="none" xmlns="http://www.w3.org/2000/svg">
<g clip-path="url(#clip0)">
<path fill-rule="evenodd" clip-rule="evenodd" d="M76.0355 21.594L75.9515 21.096L75.4475 21.031C75.3555 21.02 66.0885 19.802 55.4215 15.179C53.5455 14.368 51.8185 13.595 50.2375 12.871C50.6585 12.892 51.1455 12.881 51.6805 12.794C52.3575 12.686 53.6855 12.299 53.6855 12.299C55.8435 11.669 58.3345 10.964 61.9475 12.406C62.0095 12.432 62.0455 12.44 62.0775 12.419C62.1188 12.388 62.1009 12.3333 62.0791 12.2671L62.079 12.2666C62.0755 12.256 62.0719 12.2451 62.0685 12.234C61.4455 10.329 58.4745 9.873 58.4745 9.873C58.4745 9.873 58.8155 9.24 60.5695 9.597C60.5843 9.59986 60.5977 9.60268 60.61 9.60527C60.6707 9.61805 60.7027 9.62479 60.7285 9.599C60.7535 9.565 60.7435 9.522 60.6895 9.459C59.1665 7.633 55.3845 7.917 53.7595 8.262C53.4525 8.329 53.1175 8.449 53.1175 8.449C53.1155 8.449 53.1045 8.47 53.1045 8.47C53.0945 8.487 52.0985 10.164 51.6875 10.807C51.4155 11.233 51.0705 11.4 50.6205 11.4C50.4969 11.4 50.2733 11.3284 50.0297 11.2503C49.7173 11.1503 49.3721 11.0397 49.1625 11.056C48.3035 11.123 47.8515 11.4 47.6755 11.679C43.2845 9.61 40.3985 8.083 39.2145 7.441C45.7515 7.545 50.8995 8.673 50.8995 10.051C50.8995 10.062 50.8973 10.073 50.8951 10.0838C50.8937 10.0907 50.8923 10.0974 50.8915 10.104L50.8932 10.1101C50.8945 10.1146 50.8955 10.118 50.8955 10.123V10.126L50.9037 10.1624L50.9038 10.1625C50.9095 10.188 50.9143 10.2095 50.9205 10.231C50.9225 10.237 50.9245 10.246 50.9265 10.251C50.9325 10.276 50.9395 10.293 50.9475 10.31L50.9501 10.3171L50.9535 10.3278L50.9565 10.3366C50.9575 10.3394 50.9585 10.342 50.9595 10.344C50.963 10.348 50.9667 10.3511 50.9705 10.354L50.9705 10.3541L50.9735 10.3565C50.9752 10.3579 50.9769 10.3594 50.9785 10.361C50.9807 10.3627 50.9829 10.3646 50.985 10.3666C50.9906 10.3718 50.9963 10.377 51.0035 10.377C51.0055 10.377 51.0114 10.374 51.0154 10.372L51.0155 10.372L51.0155 10.372C51.0853 10.3624 51.1915 10.1963 51.4084 9.85699C51.4403 9.80709 51.4746 9.75344 51.5115 9.696C54.6855 4.733 54.9195 4.085 54.4885 3.529H54.4865L54.4855 3.52749C54.4257 3.43725 52.1746 0.0386952 38.8615 0H38.8595H38.8345H38.8065C38.7068 0.0010071 38.6104 0.00252131 38.5142 0.00403193L38.5142 0.00403234C38.4194 0.00552153 38.3248 0.00700719 38.2275 0.008C38.1352 0.00703326 38.0436 0.00559922 37.9509 0.00414965C37.852 0.00260033 37.7518 0.00103326 37.6485 0H37.6235H37.5965C24.2054 0.0389132 22.0083 3.47565 21.9737 3.52969L21.9735 3.53H21.9715C21.5405 4.086 21.7745 4.734 24.9485 9.697L24.9745 9.73796L24.9745 9.73798C25.2408 10.1581 25.369 10.3604 25.4455 10.373L25.4475 10.374C25.4511 10.3759 25.4552 10.378 25.4585 10.378C25.4659 10.378 25.4733 10.3695 25.4799 10.3619L25.4815 10.36C25.4895 10.356 25.4955 10.352 25.5015 10.345C25.5047 10.3398 25.5076 10.3313 25.5102 10.3232L25.5129 10.3154L25.5145 10.311C25.5225 10.294 25.5285 10.275 25.5355 10.252C25.5355 10.247 25.5375 10.236 25.5395 10.228L25.5395 10.228C25.5475 10.196 25.5545 10.168 25.5625 10.126V10.123L25.5639 10.1173L25.5639 10.1173L25.5639 10.1173C25.5644 10.1151 25.5649 10.1131 25.5657 10.1108C25.5663 10.1088 25.5672 10.1066 25.5685 10.104C25.5645 10.087 25.5605 10.069 25.5605 10.051C25.5605 8.671 30.7375 7.538 37.2975 7.439C35.9515 8.138 32.6765 9.815 28.7955 11.653C28.6075 11.382 28.1575 11.119 27.3255 11.056C27.1148 11.0397 26.7693 11.1503 26.4567 11.2504C26.2131 11.3284 25.9895 11.4 25.8655 11.4C25.4175 11.4 25.0725 11.233 24.8005 10.807C24.3885 10.164 23.3935 8.487 23.3835 8.47L23.3705 8.449C23.3705 8.449 23.0355 8.329 22.7265 8.262C21.1015 7.916 17.3195 7.633 15.7965 9.459C15.7425 9.522 15.7345 9.565 15.7615 9.599C15.7855 9.62464 15.817 9.61813 15.8781 9.60548L15.8783 9.60546L15.8981 9.60138L15.9205 9.597C17.6725 9.24 18.0135 9.873 18.0135 9.873C18.0135 9.873 15.0405 10.329 14.4205 12.234L14.4129 12.2564C14.3887 12.3275 14.3686 12.3864 14.4085 12.419C14.4435 12.44 14.4775 12.432 14.5385 12.406C18.1515 10.964 20.6445 11.668 22.8025 12.299C22.8025 12.299 24.1305 12.685 24.8055 12.794C25.3055 12.875 25.7635 12.89 26.1675 12.875C24.4355 13.667 22.6435 14.454 20.8965 15.173C10.1832 19.5916 1.44332 20.9685 1.01806 21.0355L1.01803 21.0355H1.01802L1.00251 21.038L0.490511 21.112L0.425511 21.629C0.400511 21.83 -2.00249 42.016 4.88951 56.961C11.1915 70.624 19.8285 78.734 25.9675 83.133C32.6415 87.915 37.7595 89.437 37.9745 89.5L38.1815 89.56L38.3825 89.491C38.6245 89.41 44.3635 87.438 51.3675 82.434C57.8295 77.815 66.5825 69.641 71.5835 56.924C78.8035 38.568 76.0645 21.763 76.0355 21.594ZM50.3925 67.761L70.2115 56.671C67.5595 63.321 63.8485 68.725 59.8815 73.056L50.3925 67.761ZM38.3505 60.861L20.1335 50.581H56.4525L38.3505 60.861ZM16.7985 72.931C13.0475 68.681 9.35851 63.326 6.24351 56.637L26.0915 67.761L16.7985 72.931ZM38.1505 88.125C37.1155 87.781 32.2205 86.015 26.1775 81.557L38.3495 74.799L50.3225 81.461C44.2975 85.73 39.2145 87.731 38.1505 88.125ZM72.6925 49.216H3.58551C0.451511 37.438 1.46551 24.912 1.72651 22.29C1.72651 22.29 10.3225 21.011 21.4165 16.434C28.6305 13.46 36.5785 9.355 38.2615 8.476C39.6545 9.242 45.4755 12.362 54.8765 16.431C64.2695 20.501 72.6045 21.976 74.7475 22.308C74.7475 22.308 76.7155 34.342 72.6925 49.216ZM26.3204 9.92684C26.5604 9.66684 27.4784 9.20284 28.5264 9.03984C28.7564 9.01984 29.2864 10.0298 29.5394 10.5158C29.7184 10.8528 29.0664 11.1378 28.9704 11.0398C28.6774 10.7378 27.9854 10.2188 26.7724 10.5508C26.3044 10.6798 25.9854 10.2938 26.3204 9.92684ZM50.1342 9.92684C49.8942 9.66684 48.9762 9.20284 47.9282 9.03984C47.701 9.02008 47.1819 10.0056 46.9226 10.498L46.9132 10.5158C46.7362 10.8528 47.3862 11.1378 47.4842 11.0398C47.7772 10.7378 48.4672 10.2188 49.6802 10.5508C50.1512 10.6798 50.4712 10.2938 50.1342 9.92684ZM15.3145 24.5558C15.3145 24.5558 16.4215 23.8178 17.9185 24.3638C18.9615 24.7448 19.5075 24.7718 19.5075 24.7708C18.5563 25.1533 18.2197 25.415 17.8492 25.7032C17.5657 25.9236 17.2623 26.1596 16.6485 26.4768C16.2665 26.6718 15.6725 26.9558 14.4615 26.6018C14.4615 26.6018 15.7895 26.8258 16.4435 25.9138C16.0065 26.1438 15.6445 26.2518 14.9715 26.1418C13.0765 25.8318 12.5625 26.2908 12.5625 26.2908C12.5625 26.2908 13.7705 24.7218 15.0255 24.8338C15.2692 24.8557 15.4771 24.8845 15.6644 24.9104L15.6645 24.9104L15.6645 24.9104C16.076 24.9673 16.3878 25.0104 16.7595 24.9368C16.4665 24.4408 15.3145 24.5558 15.3145 24.5558ZM69.273 25.9689L69.2273 25.9554C67.5038 25.4439 64.8938 24.6693 61.045 27.9809C58.6449 30.049 59.7844 31.229 61.0948 32.586C61.7778 33.2933 62.5072 34.0487 62.806 35.0029C63.195 36.2479 60.707 35.8359 57.834 34.1929C55.971 33.0669 54.045 32.7909 53.1 32.9289C53.0592 31.7111 51.2085 31.1502 50.4981 30.9349C50.3015 30.8753 50.1922 30.8421 50.233 30.8289C51.325 30.4809 52.117 30.1179 52.928 29.5889C50.664 29.5519 48.416 29.2859 48.342 28.9019C54.3925 29.5063 56.4991 26.7658 56.9235 26.2137L56.9236 26.2135C56.9423 26.1892 56.9576 26.1692 56.97 26.1539C54.781 26.6169 51.168 26.8139 51.027 26.3819C52.614 26.2799 59.262 24.8389 58.486 21.8229C56.684 23.4359 53.825 23.9709 53.545 23.7169C57.19 22.3159 57.795 20.5599 57.602 18.9909C55.507 21.4189 53.545 22.2319 52.178 22.6229C50.1325 23.2126 48.2241 23.4479 46.1406 23.7049L46.1405 23.7049C45.6022 23.7713 45.0521 23.8392 44.485 23.9149C43.7323 24.0161 42.8661 24.1164 41.9682 24.2203L41.9681 24.2203C39.6991 24.4829 37.228 24.7689 35.876 25.1529C32.066 26.2349 31.219 27.8159 31.219 27.8159C31.219 27.8159 31.718 26.2549 33.831 25.2059C35.6374 24.3081 37.7333 23.9893 40.1152 23.6271L40.34 23.5929C40.8409 23.5166 41.446 23.431 42.1175 23.336C45.2482 22.8932 49.8223 22.2462 52.01 21.3849C53.666 20.2899 53.009 17.7659 53.007 17.7619C52.601 19.1849 50.824 20.4549 50.496 20.3509C51.485 19.2309 51.947 18.1369 51.791 16.9199C47.91 20.3089 43.584 21.8059 38.619 22.7519C38.4653 22.7811 38.311 22.8102 38.1563 22.8392L38.1559 22.8393C35.2233 23.3907 32.1343 23.9715 30.266 26.5399C30.151 26.6649 30.034 26.7929 29.919 26.9239C29.919 26.9239 29.919 26.9149 29.921 26.9019C29.572 27.2729 29.256 27.3629 29.271 27.0879C29.271 27.0879 29.88 25.2859 29.741 23.4429C29.582 22.8389 29.408 22.3759 29.333 22.2989C29.287 22.2539 29.091 21.7649 28.957 21.0099C28.957 21.007 28.9567 21.0046 28.9565 21.0021C28.9562 20.9994 28.956 20.9966 28.956 20.9929C28.91 20.7349 28.873 20.4419 28.852 20.1239C28.7809 19.0716 27.6311 17.6551 27.4386 17.418L27.416 17.3899C27.259 17.1919 26.693 17.5259 26.745 17.6479C27.002 18.2589 26.783 19.5549 26.783 19.5549C26.193 18.5869 25.461 18.2519 25.461 18.2519C25.461 18.2519 24.871 17.8579 25.028 18.4479C25.3 19.4689 24.957 20.4519 24.714 20.4319C23.328 20.3279 21.95 20.2849 21.04 20.4949C20.137 20.7069 19.84 20.8579 19.353 21.4099C19.2229 21.553 19.1564 21.564 18.6789 21.6435L18.6786 21.6435C18.5285 21.6685 18.3379 21.7002 18.092 21.7449C16.066 22.1119 16.292 23.7309 16.296 23.7459C16.296 23.7459 16.302 23.9069 16.449 23.8389C16.5567 23.7877 16.6595 23.7054 16.7641 23.6216C16.913 23.5022 17.0658 23.3799 17.242 23.3399C17.7976 23.2133 18.0078 23.3893 18.2276 23.5732C18.48 23.7845 18.7451 24.0063 19.561 23.7919C19.64 23.7709 19.7227 23.7466 19.808 23.7215C20.3688 23.5565 21.0424 23.3584 21.512 23.8539C21.892 24.2529 21.868 25.0279 21.062 25.4069C20.8577 25.5033 20.6881 25.5041 20.4976 25.505C20.3579 25.5057 20.207 25.5064 20.023 25.5449C19.6675 25.617 19.4919 25.764 19.3441 25.8877C19.2416 25.9736 19.1525 26.0482 19.026 26.0789C18.7404 26.149 18.4499 26.1308 18.2187 26.1163C18.011 26.1033 17.8513 26.0933 17.786 26.1529C17.644 26.2849 18.051 26.7609 18.743 26.8339C18.9812 26.8601 19.2173 26.7971 19.5274 26.7145C19.8578 26.6264 20.2723 26.5159 20.863 26.4669C20.9516 26.4597 21.0576 26.4467 21.1699 26.4329C21.5428 26.3869 21.9839 26.3326 22.08 26.4579L22.082 26.4605C22.3678 26.8303 22.7615 27.3396 21.718 27.6259C20.862 27.8579 19.903 28.1219 18.753 28.8729C17.9 29.4309 17.235 30.4339 16.948 31.0199C16.417 31.0509 15.972 31.2919 15.629 31.8779C14.824 32.0299 12.348 32.2309 11.819 32.1529C11.721 32.1369 11.301 31.8779 11.298 31.8689L11.2939 31.8631C11.2618 31.8181 11.0747 31.5553 11.071 31.2739L11.0693 31.1709C11.0545 30.2785 11.0332 28.9935 10.887 28.8289C10.682 28.5999 10.094 28.7799 9.98597 28.8569C9.91871 28.9047 9.97156 28.9651 10.0352 29.0379C10.0729 29.0809 10.1143 29.1283 10.137 29.1799C10.179 29.2779 10.292 29.6899 10.288 30.1939C10.286 30.4069 10.183 30.4999 10.156 30.5029C10.1531 30.5034 10.148 30.5055 10.141 30.5084C10.0926 30.5283 9.95334 30.5855 9.82397 30.4089C9.71377 30.2548 9.58996 30.0754 9.46422 29.8932C9.08903 29.3496 8.69658 28.7809 8.59697 28.7839C8.38797 28.7899 7.97397 29.4119 8.00297 29.5049C8.02419 29.5742 8.1136 29.5839 8.21596 29.595C8.31615 29.6059 8.42876 29.6182 8.50197 29.6889C8.55897 29.7469 9.00597 30.3819 9.30097 30.9929C9.40597 31.2149 9.29297 31.3439 9.26397 31.3619L9.25863 31.3648C9.223 31.3842 9.08878 31.4575 8.91897 31.3829C8.32897 31.1329 7.62397 30.8679 7.35897 30.9749C7.05397 31.0979 6.93597 31.6889 6.96797 31.7969C7.00703 31.9267 7.15335 31.8778 7.29104 31.8317C7.38247 31.8011 7.47009 31.7718 7.51997 31.7969C7.54366 31.8085 7.63059 31.8376 7.75886 31.8806C8.12856 32.0044 8.84166 32.2431 9.37397 32.5089C9.59499 32.619 9.63163 32.6794 9.76453 32.8988L9.79497 32.9489C9.87929 33.0851 9.8394 33.2567 9.79456 33.4496C9.78835 33.4763 9.78205 33.5034 9.77597 33.5309C9.76334 33.5919 9.73939 33.6423 9.70914 33.706C9.65554 33.8189 9.58217 33.9733 9.51697 34.3019C9.49203 34.4344 9.37668 34.4786 9.27832 34.5163C9.18735 34.5512 9.1109 34.5805 9.13397 34.6689C9.17797 34.8529 10.115 34.9819 10.207 34.8909C10.246 34.8524 10.3146 34.6741 10.3987 34.4553C10.4718 34.2653 10.5566 34.0448 10.644 33.8589C10.696 33.7519 10.811 33.6469 10.936 33.5839C11.103 33.5019 11.344 33.4529 11.562 33.5069C12.248 33.6719 15.006 33.8559 15.546 33.8749C15.655 34.4809 16.19 34.9069 16.61 34.9559C17.183 37.8999 19.216 39.2779 20.702 39.7819C20.353 40.7769 20.556 41.8289 21.285 42.4179C21.082 43.2359 20.45 44.3249 20.049 44.9139C19.99 45.0031 19.1383 44.9465 18.3252 44.8923L18.3251 44.8923C17.6345 44.8464 16.9718 44.8022 16.846 44.8509C16.606 44.9469 16.018 45.7089 16.25 45.8319C16.2899 45.8545 16.3851 45.843 16.5524 45.8227C16.7704 45.7962 17.1108 45.7549 17.611 45.7549L17.6458 45.7549C17.9618 45.7548 18.1503 45.7547 18.215 45.8589C18.2708 45.9476 17.882 46.0565 17.4472 46.1782L17.4472 46.1783C16.9403 46.3202 16.371 46.4797 16.371 46.6449C16.371 46.9229 17.521 47.5049 17.674 47.4579C17.739 47.4389 17.7369 47.4063 17.734 47.3598C17.7279 47.2647 17.718 47.1111 18.27 46.8949C18.3811 46.8506 18.4647 46.8136 18.5347 46.7826C18.7363 46.6935 18.8252 46.6542 19.134 46.6319C19.3492 46.6198 19.0391 46.8956 18.7837 47.1228L18.732 47.1689C18.544 47.3359 18.669 47.4659 18.747 47.5389C18.868 47.6449 19.598 48.0079 19.834 48.0249C19.9451 48.0332 19.9502 47.9351 19.9563 47.8152C19.9621 47.7031 19.9688 47.5721 20.064 47.4909C20.6179 47.0231 21.1587 46.4863 21.2586 46.3871L21.275 46.3709C21.568 46.1419 21.98 45.8519 22.915 45.8649C22.9236 45.8652 22.9439 45.8652 22.9734 45.8651C23.1671 45.8648 23.7587 45.8638 24.065 45.9419C24.1487 45.9642 24.1902 46.0261 24.225 46.0779C24.265 46.1375 24.296 46.1837 24.372 46.1409C24.575 46.0239 24.968 45.0239 24.569 44.9909C24.5277 44.988 24.4596 44.9949 24.3654 45.0044L24.3654 45.0044C24.0394 45.0374 23.4014 45.1019 22.486 44.9009C22.2366 44.8438 22.3912 44.5184 22.4733 44.3458C22.4847 44.3219 22.4947 44.3009 22.502 44.2839C22.6482 43.947 22.7904 43.5876 22.9329 43.2276C22.9921 43.0779 23.0514 42.9282 23.111 42.7799C23.73 42.6249 24.334 42.2239 24.775 41.6179C25.064 41.2219 25.246 40.7859 25.325 40.3499C29.57 40.5238 32.4876 39.3347 34.1144 38.6718C34.3405 38.5796 34.5416 38.4977 34.718 38.4309C36.175 37.8779 37.974 37.4129 40.665 37.8309C40.665 37.8309 35.969 40.9659 40.027 42.6509C40.0987 42.6806 40.1643 42.7073 40.2242 42.7317L40.2246 42.7319C40.7326 42.9388 40.8342 42.9802 40.819 43.2279C40.786 43.7899 39.27 45.0509 38.92 45.1279C37.5883 45.4168 35.9403 45.3602 34.9762 45.327C34.5721 45.3131 34.2881 45.3034 34.198 45.3249C33.707 45.4489 33.602 46.2629 33.602 46.2629C33.602 46.2629 34.815 46.0239 35.179 46.1529C35.295 46.1936 35.0201 46.3111 34.6826 46.4555L34.6826 46.4555C34.389 46.5811 34.0481 46.7269 33.876 46.8599C33.51 47.1449 35.118 48.2069 35.118 47.9619C35.118 47.943 35.1138 47.9231 35.1093 47.9015L35.1093 47.9014C35.0918 47.818 35.0686 47.7077 35.256 47.5179C35.635 47.1379 36.276 47.0159 36.234 47.2379C36.1 47.9029 36.207 48.1029 36.299 48.1929C36.391 48.2849 37.581 48.4219 38.235 48.3419C38.6354 48.291 38.541 48.1777 38.4271 48.0411C38.3554 47.955 38.2759 47.8597 38.308 47.7649C38.3134 47.7484 38.3187 47.7318 38.324 47.7151C38.3977 47.4823 38.4785 47.2272 39.113 46.7859C39.861 46.2701 40.8002 46.2819 41.4356 46.2899C41.7771 46.2941 42.0308 46.2973 42.12 46.2169C42.1467 46.1924 42.2006 46.0977 42.2814 45.9555C42.524 45.5289 43.0094 44.6752 43.734 44.0099C44.0789 43.6943 44.513 43.4893 44.8505 43.33C45.239 43.1465 45.4994 43.0235 45.348 42.8619C43.311 40.6739 45.079 38.5679 47.255 38.4379C46.51 38.5679 43.56 42.6539 48.476 43.2929C49.923 43.4839 50.785 43.2539 52.93 42.5189C54.047 42.1349 55.067 42.2259 55.508 42.6809C55.9915 43.1853 54.8041 44.2595 54.2593 44.7523L54.176 44.8279C53.873 45.1069 53.701 45.1839 52.706 45.3159C51.7863 45.4383 50.7923 45.4081 49.9678 45.3829H49.9677C49.5192 45.3693 49.1209 45.3571 48.812 45.3719C48.369 45.3919 48.051 46.4489 48.285 46.3739C48.41 46.3339 49.23 46.1289 49.51 46.1429C49.792 46.1589 49.738 46.2999 49.667 46.3339C49.65 46.3416 49.6307 46.3503 49.6093 46.3598C49.587 46.3696 49.5626 46.3804 49.5363 46.392C49.21 46.5359 48.6028 46.8036 48.475 46.9789C48.212 47.3329 49.845 48.2599 49.723 48.0549C49.675 47.9749 49.802 47.6599 50.039 47.4729C50.397 47.1909 50.936 47.0749 50.869 47.4419C50.819 47.7109 50.827 48.0729 51.001 48.1799C51.348 48.4049 53.37 48.3659 53.24 48.3009C53.075 48.2199 52.828 47.8749 53.033 47.6069C53.926 46.4579 55.158 46.3999 55.936 46.3999L55.9862 46.4C56.2938 46.4008 56.5684 46.4015 56.816 46.1349C58.972 43.8039 60.036 40.1049 59.491 40.2079C58.1174 40.4748 57.7044 40.4461 56.7462 40.3795C56.3796 40.3541 55.9333 40.3231 55.323 40.3009C52.323 40.1889 53.268 34.7209 53.268 34.7209C54.6436 34.5259 55.3069 34.9651 56.1819 35.5446C56.9359 36.0439 57.8472 36.6474 59.507 37.0389C62.604 37.7679 65.408 36.5749 63.484 33.8709C63.316 33.5839 62.033 32.0629 61.161 31.4279C58.8139 29.7098 64.1884 28.8913 65.6926 28.6623C65.872 28.6349 65.9963 28.616 66.046 28.6049C66.3916 28.3794 65.9149 28.3141 65.4414 28.2492C65.0834 28.2002 64.7274 28.1515 64.73 28.0339C65.347 28.0449 67.689 27.9569 67.689 27.4539C67.684 27.3861 67.4291 27.3427 67.1215 27.2902C66.6803 27.215 66.1308 27.1213 66.056 26.9109C66.2901 26.8922 66.5407 26.8894 66.796 26.8865C67.7701 26.8753 68.8134 26.8634 69.273 25.9689ZM24.543 22.0869C24.5034 22.0948 24.4224 22.0582 24.3241 22.0137C24.122 21.9224 23.8466 21.7978 23.706 21.9579C23.706 21.9579 23.557 22.4209 23.302 22.5419C23.12 22.6279 22.671 22.7479 22.37 22.4589C22.2643 22.3582 22.2021 22.2677 22.1526 22.1959C22.0818 22.093 22.0373 22.0283 21.929 22.0259C21.9239 22.0259 21.9133 22.0269 21.8976 22.0283C21.7764 22.0393 21.3571 22.0773 20.955 21.9019C20.771 21.8239 20.7337 21.8323 20.7077 21.8381C20.6963 21.8406 20.6872 21.8427 20.669 21.8369C20.629 21.8229 20.844 21.4249 21.01 21.4419C21.1703 21.46 21.2258 21.4926 21.2853 21.5274C21.3509 21.5659 21.4212 21.6071 21.642 21.6349C21.8979 21.668 22.1999 21.5971 22.3859 21.5534C22.4419 21.5402 22.4874 21.5296 22.518 21.5249C22.576 21.5166 22.6588 21.4966 22.7584 21.4724L22.7584 21.4724C23.1032 21.3889 23.6495 21.2566 24.07 21.3939C24.285 21.4649 24.478 21.5979 24.599 21.6959C24.645 21.7349 24.608 22.0759 24.543 22.0869ZM37.681 34.4129C36.538 33.8419 35.833 32.3569 36.326 32.9009C37.539 34.2359 40.042 34.0569 40.042 34.0569C40.479 34.1489 39.228 35.1849 37.681 34.4129ZM42.24 33.8729C40.853 33.4229 39.808 31.8649 40.458 32.3949C42.053 33.6979 44.845 33.0739 44.845 33.0739C45.355 33.1059 44.117 34.4829 42.24 33.8729ZM46.817 32.6639C45.193 32.4759 43.695 30.9959 44.525 31.4339C46.57 32.5129 49.506 31.2059 49.506 31.2059C50.075 31.1259 49.018 32.9179 46.817 32.6639ZM37.441 3.13288C37.456 3.99188 37.073 4.74388 36.477 5.32088C35.892 5.88988 34.974 6.36688 34.382 6.44188C34.294 6.41188 34.275 6.26488 34.332 6.20988C35.689 5.75488 36.381 4.54488 36.335 3.23688C36.312 2.69888 36.101 1.67288 35.44 1.70988C35.07 1.73188 34.888 2.14988 34.917 2.57488C34.959 3.15588 35.249 3.74688 35.764 3.80388C35.862 3.81388 35.906 3.81188 35.973 3.80788C36.014 3.82788 36.031 3.89788 36.027 3.95488C35.904 4.08788 35.606 4.19688 35.301 4.21588C34.605 4.25888 33.99 3.76688 33.923 3.05288C33.837 2.14788 34.552 1.43088 35.533 1.37888C36.744 1.31088 37.428 2.14688 37.441 3.13288ZM31.8091 5.54089C31.8881 6.10389 31.9411 6.16689 32.2941 6.14989C32.3428 6.14697 32.3907 6.14452 32.4384 6.14209C32.4888 6.13952 32.5388 6.13697 32.5891 6.13389C32.6601 6.16889 32.6751 6.35189 32.6061 6.38389C32.3491 6.39989 31.9181 6.44689 31.4791 6.51189C31.0091 6.58189 30.5841 6.66089 30.3311 6.71789C30.2581 6.71089 30.2201 6.52989 30.2751 6.47689L30.3327 6.46244C30.4098 6.44303 30.4875 6.4235 30.5651 6.40589C30.9081 6.31989 30.9401 6.24289 30.8521 5.68089L30.7174 4.83236C30.6409 4.3511 30.5643 3.86919 30.4881 3.38689C30.4151 2.92589 30.3671 2.82389 30.0221 2.83789C29.9031 2.84389 29.7821 2.84989 29.6641 2.85489C29.5871 2.83389 29.5491 2.66589 29.6041 2.61389C29.9131 2.51589 30.2631 2.38089 30.5621 2.25589C30.7376 2.17888 30.8984 2.09271 31.0186 2.02829C31.1232 1.97226 31.1971 1.93268 31.2231 1.92989C31.2591 1.92289 31.3191 1.93689 31.3421 1.99189C31.3481 2.15489 31.3861 2.47889 31.4341 2.83189C31.518 3.43268 31.6009 4.03347 31.6839 4.63426L31.6844 4.63793L31.8091 5.54089ZM41.2178 5.84119C40.8678 5.79219 40.8258 5.71919 40.8558 5.15219L40.8804 4.67585C40.9194 3.92392 40.9583 3.17256 40.9938 2.42119C41.0128 2.06719 41.0358 1.74119 41.0608 1.57819C41.0478 1.52119 40.9938 1.49719 40.9558 1.49619C40.9289 1.4943 40.8471 1.51962 40.7315 1.55539C40.6024 1.59538 40.431 1.64844 40.2468 1.69119C39.9328 1.75819 39.5628 1.82719 39.2428 1.86419C39.1798 1.90519 39.1838 2.07619 39.2548 2.11119L39.2692 2.11339L39.2692 2.1134C39.3823 2.13066 39.4947 2.1478 39.6108 2.16219C39.9508 2.21319 39.9778 2.32119 39.9638 2.79019C39.9388 3.56419 39.9138 4.33919 39.8908 5.11219C39.8738 5.68019 39.8278 5.74819 39.4728 5.76819C39.4263 5.77057 39.3799 5.77317 39.3334 5.77578C39.282 5.77867 39.2303 5.78157 39.1778 5.78419C39.1108 5.82519 39.1168 6.01119 39.1878 6.03319C39.4468 6.02319 39.8778 6.02519 40.3488 6.04519C40.7938 6.06519 41.2228 6.09619 41.4778 6.12819C41.5508 6.11219 41.5738 5.92719 41.5108 5.88019C41.4802 5.8761 41.4494 5.87181 41.4185 5.86751C41.3512 5.85815 41.2836 5.84873 41.2178 5.84119ZM45.0127 5.34501C45.0377 5.16301 45.0267 5.13901 44.8727 5.12001C44.3077 5.04301 43.7437 4.97601 43.1787 4.92201C43.0927 4.87701 43.0807 4.77401 43.1167 4.68601C44.0257 3.67101 44.9837 2.68001 45.9937 1.71801C46.0977 1.62001 46.1677 1.57301 46.2777 1.58901L46.3917 1.60701L46.5057 1.62501C46.6377 1.64701 46.6937 1.70501 46.5537 1.82701C45.6157 2.67501 44.7207 3.55001 43.8707 4.44501C43.7937 4.52801 43.7807 4.58501 44.0147 4.61201C44.3125 4.64521 44.6075 4.68318 44.9034 4.72126L44.9034 4.72127L44.9247 4.72401C45.0787 4.74501 45.0997 4.72801 45.1227 4.54401C45.1504 4.33738 45.1797 4.13115 45.2091 3.92432L45.2092 3.92349L45.2094 3.9224C45.2266 3.80154 45.2438 3.68048 45.2607 3.55901C45.2817 3.39801 45.3357 3.35401 45.4627 3.32901C45.6707 3.28001 46.1027 3.20201 46.2327 3.22301C46.2997 3.23401 46.3247 3.28801 46.3117 3.35701C46.2657 3.65367 46.2188 3.94945 46.1719 4.24522L46.1017 4.68901C46.0747 4.87201 46.0837 4.89501 46.2397 4.92101C46.4007 4.94701 46.5637 4.97401 46.7247 5.00401C46.8267 5.07901 46.7767 5.35101 46.6577 5.39401L46.4968 5.3668C46.3894 5.34858 46.2821 5.33035 46.1747 5.31301C46.0217 5.28801 46.0037 5.30801 45.9737 5.49001L45.9668 5.53448C45.959 5.58415 45.9512 5.63469 45.9427 5.68701C45.8527 6.26201 45.8847 6.33001 46.1937 6.41101C46.2369 6.42309 46.2785 6.43368 46.3219 6.44471L46.322 6.44474L46.3427 6.45001C46.3987 6.50401 46.3597 6.68401 46.2847 6.69201C46.0317 6.63501 45.6567 6.56801 45.3287 6.51901C44.8607 6.44801 44.4317 6.40101 44.1897 6.38601C44.1207 6.35601 44.1337 6.17101 44.2057 6.13601C44.266 6.14032 44.326 6.14349 44.3865 6.14669C44.4242 6.14869 44.4623 6.1507 44.5007 6.15301C44.8547 6.17201 44.9047 6.12101 44.9857 5.54601L44.9885 5.52216C44.9954 5.46172 45.0021 5.40337 45.0127 5.34501Z" fill="black"/>
<path fill-rule="evenodd" clip-rule="evenodd" d="M268.901 47.4529C264.797 47.4529 260.755 43.8859 260.755 39.6519C260.755 37.8049 262.213 35.3199 264.224 35.3199C264.746 35.3199 265.531 36.2039 266.874 37.716C268.482 39.5273 270.89 42.2398 274.606 45.4139C273.044 46.7509 270.942 47.4529 268.901 47.4529ZM272.185 27.9386L272.186 27.9359C272.192 27.6267 272.202 27.1379 271.803 27.1379C271.637 27.1379 271.524 27.2337 271.428 27.315C271.358 27.3749 271.297 27.4269 271.23 27.4269C271.195 27.4269 271.11 27.3858 270.977 27.3216C270.502 27.0916 269.412 26.5649 267.82 26.5649C265.24 26.5649 262.663 27.9999 262.663 30.8949C262.663 32.2359 263.301 33.5109 264.131 34.5259C260.721 35.2599 259.035 37.8709 259.035 41.2769C259.035 46.2419 263.144 49.3319 267.821 49.3319C270.943 49.3319 273.362 48.2509 275.654 46.1149C275.919 46.3263 276.183 46.5472 276.45 46.77C277.949 48.0217 279.518 49.3319 281.546 49.3319C282.596 49.3319 284.187 48.8539 284.187 48.3119C284.187 48.2499 284.156 48.0579 283.932 48.0579C283.85 48.0579 283.754 48.0799 283.634 48.1074C283.431 48.1541 283.157 48.2169 282.757 48.2169C281.668 48.2169 279.678 46.434 278.257 45.1597L278.256 45.159L278.255 45.1587L278.254 45.1571L278.252 45.1552C277.803 44.7535 277.412 44.4028 277.123 44.1749C278.137 42.3579 278.392 40.3209 278.616 38.3149C278.714 37.449 279.217 37.2524 279.586 37.1078C279.814 37.0185 279.991 36.9491 279.991 36.7539C279.991 36.4369 279.83 36.3719 279.544 36.3719C278.873 36.3719 278.409 36.4205 278.055 36.4575C277.836 36.4804 277.659 36.4989 277.501 36.4989C277.318 36.4989 277.038 36.4799 276.696 36.4565C276.154 36.4196 275.455 36.3719 274.733 36.3719C274.701 36.3719 274.666 36.371 274.629 36.37C274.366 36.3629 274.004 36.3531 274.004 36.6579C274.004 37.0089 274.357 37.0887 274.82 37.1934C275.704 37.3935 276.99 37.6845 276.99 40.1279C276.99 41.4689 276.867 42.6129 276.068 43.5029C269.195 37.1379 264.479 32.1069 264.479 29.9739C264.479 28.4479 265.66 27.3929 267.122 27.3929C269.063 27.3929 270.718 29.0819 271.486 30.7379C271.503 30.7717 271.52 30.8116 271.538 30.8544L271.538 30.8559C271.622 31.0533 271.731 31.3109 271.965 31.3109C272.091 31.3109 272.279 31.2149 272.279 31.0559L272.184 28.0339C272.184 28.0183 272.184 28.0017 272.185 27.9844L272.185 27.9386ZM191.063 37.4871C193.07 38.7291 195.042 40.5741 195.042 43.6001C195.042 47.1041 192.4 49.4921 188.26 49.4931C185.586 49.4931 183.898 48.6661 183.294 48.3151C182.913 47.6111 182.497 45.3511 182.434 43.8561C182.592 43.6341 183.072 43.5671 183.197 43.7611C183.676 45.3841 184.981 48.5041 188.676 48.5041C191.348 48.5041 192.655 46.7501 192.655 44.8431C192.655 43.4421 192.368 41.8831 190.043 40.3831L187.019 38.4131C185.429 37.3591 183.579 35.5451 183.579 32.9351C183.579 29.9111 185.936 27.4561 190.078 27.4561C191.063 27.4561 192.209 27.6171 193.039 27.8741C193.451 27.9681 193.898 28.0621 194.155 28.0621C194.439 28.8281 194.728 30.6111 194.728 31.9501C194.599 32.1381 194.088 32.2351 193.929 32.0421C193.515 30.5151 192.656 28.4471 189.599 28.4471C186.479 28.4471 185.812 30.5151 185.812 31.9801C185.812 33.8271 187.337 35.1311 188.518 35.8971L191.063 37.4871ZM115.736 49.492C121.879 49.492 126.781 44.808 126.781 38.381C126.781 32.777 123.09 27.457 115.736 27.457C109.178 27.457 104.4 32.33 104.4 38.698C104.4 44.43 108.665 49.492 115.736 49.492ZM116.148 48.503C109.877 48.503 107.583 42.389 107.583 37.679C107.583 30.706 111.884 28.448 115.193 28.448C121.275 28.448 123.599 34.114 123.599 39.367C123.6 45.64 119.972 48.503 116.148 48.503ZM95.8626 44.842C95.8626 46.56 95.7686 51.335 95.0366 52.832C94.8146 53.278 94.4316 53.662 93.7626 53.662C93.3176 53.662 92.8716 53.564 92.4226 53.435C92.0106 53.309 91.6296 53.247 91.2476 53.247C90.5786 53.247 90.0996 54.167 90.0996 54.709C90.0996 55.35 91.0866 55.378 91.4706 55.378C94.4316 55.378 96.6916 53.343 97.7416 50.792C98.3466 49.33 98.4736 47.134 98.4736 44.619V32.806C98.4736 29.431 98.5386 28.986 100.417 28.733L100.894 28.668C101.088 28.543 101.022 27.968 100.831 27.874C99.5576 27.939 98.4736 27.968 97.2026 27.968C95.8626 27.968 94.7796 27.94 92.9356 27.874C92.7426 27.968 92.6786 28.543 92.8706 28.668L93.6656 28.733C95.5456 28.894 95.8616 29.275 95.8616 32.806V44.842H95.8626ZM147.989 39.718C147.989 38.76 147.927 38.697 146.4 38.697H137.291C135.765 38.697 135.702 38.76 135.702 39.718V44.205C135.702 47.548 135.859 47.994 137.643 48.185L138.565 48.281C138.755 48.408 138.697 48.982 138.502 49.079C136.783 49.013 135.702 48.982 134.458 48.982C133.515 48.982 132.709 49.0114 131.894 49.0411C131.524 49.0546 131.152 49.0681 130.765 49.079C130.574 48.982 130.513 48.474 130.702 48.281L131.244 48.185C133.028 47.867 133.088 47.549 133.088 44.205V32.745C133.088 29.4 132.866 28.859 131.212 28.733L130.386 28.669C130.194 28.541 130.256 27.968 130.449 27.874C131.065 27.8863 131.606 27.9035 132.12 27.9199L132.12 27.9199C132.907 27.945 133.63 27.968 134.459 27.968C135.703 27.968 136.784 27.937 138.154 27.874C138.344 27.968 138.409 28.541 138.216 28.669L137.612 28.733C135.766 28.924 135.703 29.4 135.703 32.745V36.407C135.703 37.393 135.767 37.422 137.292 37.422H146.401C147.928 37.422 147.99 37.392 147.99 36.407V32.745C147.99 29.4 147.929 28.923 146.051 28.733L145.445 28.669C145.255 28.541 145.318 27.968 145.508 27.874C146.972 27.938 148.057 27.968 149.362 27.968C150.604 27.968 151.684 27.937 153.118 27.874C153.307 27.968 153.371 28.541 153.181 28.669L152.512 28.733C150.664 28.924 150.603 29.4 150.603 32.745V44.205C150.603 47.548 150.664 47.962 152.512 48.185L153.277 48.281C153.469 48.408 153.405 48.982 153.212 49.079C151.684 49.013 150.603 48.982 149.361 48.982C148.056 48.982 146.908 49.014 145.507 49.079C145.318 48.982 145.255 48.474 145.444 48.281L146.05 48.185C147.923 47.9417 147.929 47.5753 147.983 44.5394L147.989 44.205V39.718ZM176.64 35.5382V35.5367C176.635 33.8461 176.624 30.4489 177.119 29.3991C177.247 29.1441 177.884 28.8931 178.903 28.7321L179.347 28.6671C179.539 28.4761 179.539 28.0321 179.284 27.8731C178.201 27.9361 177.373 27.9671 176.005 27.9671C174.794 27.9671 173.713 27.9371 172.247 27.8731C171.994 27.9671 171.963 28.4761 172.182 28.6671L172.724 28.7321C174 28.8931 174.507 29.0841 174.7 29.3691C175.305 30.3221 175.336 34.4631 175.336 35.9591V42.7721C175.336 43.4401 175.336 43.9481 175.208 44.1091H175.147C173.646 42.5811 172.057 40.8321 169.892 38.3461L166.805 34.8741C166.691 34.7429 166.543 34.574 166.369 34.3752L166.368 34.3751L166.368 34.3749L166.368 34.3748L166.368 34.3742L166.367 34.374L166.367 34.3735L166.367 34.3733C164.976 32.7895 161.925 29.3134 161.36 27.8721C160.946 27.9351 160.406 27.9661 159.896 27.9661C159.323 27.9661 157.636 27.9661 156.296 27.8721C156.043 27.9971 156.043 28.4751 156.233 28.6661L156.774 28.7311C157.539 28.8251 158.305 29.0491 158.748 29.4951C159.417 30.2271 159.452 30.8921 159.452 31.7871V40.9861L159.452 41.2524V41.2526C159.454 42.9261 159.457 46.4627 159.036 47.5471C158.879 47.8971 158.371 48.1181 157.637 48.1841L156.775 48.2801C156.587 48.4731 156.618 48.9171 156.84 49.0781C157.954 49.0131 158.814 48.9811 160.152 48.9811C161.331 48.9811 162.442 49.0121 163.878 49.0781C164.098 48.9171 164.133 48.5331 163.94 48.2801L162.955 48.1841C162.158 48.1191 161.554 47.9291 161.332 47.5801C160.822 46.6231 160.759 42.4841 160.759 40.9861V34.0461C160.759 33.0951 160.79 32.3601 160.916 31.9781H160.979C161.414 32.4326 162.477 33.6896 163.405 34.7873L163.405 34.7877C163.908 35.3828 164.372 35.9311 164.674 36.2791L172.06 44.6801C174.831 47.8351 175.753 48.9471 176.135 49.4911C176.486 49.4911 176.676 49.3311 176.74 49.1381C176.644 48.3132 176.644 44.5253 176.644 43.5655V43.5651V35.9591H176.641C176.641 35.8354 176.641 35.6941 176.64 35.5382ZM210.173 49.492C216.319 49.492 221.226 44.808 221.226 38.381C221.226 32.777 217.531 27.457 210.173 27.457C203.616 27.457 198.84 32.33 198.84 38.698C198.84 44.43 203.106 49.492 210.173 49.492ZM210.589 48.503C204.316 48.503 202.026 42.389 202.026 37.679C202.026 30.706 206.323 28.448 209.635 28.448C215.714 28.448 218.043 34.114 218.043 39.367C218.042 45.64 214.41 48.503 210.589 48.503ZM244.653 35.5385C244.654 35.6943 244.654 35.8355 244.654 35.9591V43.5651C244.654 44.5241 244.654 48.3131 244.748 49.1381C244.69 49.3311 244.497 49.4911 244.148 49.4911C243.762 48.9471 242.842 47.8351 240.071 44.6801L232.685 36.2791C232.385 35.9332 231.926 35.3895 231.426 34.7986L231.424 34.7966C230.494 33.6968 229.427 32.4339 228.994 31.9781H228.929C228.801 32.3601 228.77 33.0951 228.77 34.0461V40.9861C228.77 42.4841 228.831 46.6231 229.341 47.5801C229.565 47.9291 230.171 48.1191 230.966 48.1841L231.953 48.2801C232.143 48.5331 232.112 48.9171 231.89 49.0781C230.456 49.0121 229.341 48.9811 228.162 48.9811C226.828 48.9811 225.966 49.0131 224.852 49.0781C224.628 48.9171 224.597 48.4731 224.789 48.2801L225.649 48.1841C226.381 48.1181 226.889 47.8971 227.05 47.5471C227.47 46.4663 227.466 42.9491 227.464 41.2691V41.2688L227.464 40.9861V31.7871C227.464 30.8921 227.43 30.2271 226.763 29.4951C226.316 29.0491 225.552 28.8251 224.789 28.7311L224.248 28.6661C224.054 28.4751 224.054 27.9971 224.307 27.8721C225.649 27.9661 227.336 27.9661 227.909 27.9661C228.416 27.9661 228.959 27.9351 229.371 27.8721C229.941 29.3167 233.002 32.8054 234.388 34.3841L234.388 34.3842L234.392 34.3895C234.561 34.5821 234.705 34.746 234.816 34.8741L237.905 38.3461C240.07 40.8321 241.663 42.5811 243.158 44.1091H243.225C243.35 43.9481 243.35 43.4401 243.35 42.7721V35.9591C243.35 34.4631 243.317 30.3221 242.712 29.3691C242.523 29.0841 242.014 28.8931 240.74 28.7321L240.198 28.6671C239.975 28.4761 240.006 27.9671 240.263 27.8731C241.725 27.9371 242.808 27.9671 244.017 27.9671C245.389 27.9671 246.215 27.9361 247.296 27.8731C247.551 28.0321 247.551 28.4761 247.363 28.6671L246.917 28.7321C245.9 28.8931 245.261 29.1441 245.135 29.3991C244.637 30.4493 244.648 33.8486 244.653 35.5385ZM295.771 30.928C295.181 29.659 294.794 28.826 293.48 28.702L292.713 28.637C292.519 28.446 292.552 27.998 292.807 27.873C293.668 27.937 295.098 27.967 296.088 27.967C296.974 27.967 298.603 27.936 299.718 27.873C300.004 27.967 299.971 28.413 299.783 28.637L299.047 28.701C298.376 28.763 297.999 28.953 297.999 29.241C297.999 29.622 298.664 31.245 299.651 33.51C301.432 37.487 303.311 41.468 305.161 45.383C305.488 44.6994 305.827 43.9802 306.176 43.2409L306.179 43.2348C306.641 42.2553 307.12 41.2407 307.61 40.2271C307.667 40.0914 307.724 39.9592 307.778 39.8339C307.967 39.3971 308.12 39.0436 308.12 38.92C308.12 38.759 308.024 38.476 307.867 38.092C306.75 35.547 305.573 32.996 304.365 30.45C303.887 29.463 303.411 28.792 302.326 28.701L301.561 28.637C301.341 28.382 301.369 27.998 301.624 27.873C302.546 27.937 303.755 27.967 305.031 27.967C306.62 27.967 307.803 27.936 308.535 27.873C308.756 27.967 308.79 28.382 308.597 28.637L307.769 28.701C306.527 28.792 306.463 29.017 307.102 30.45C307.596 31.6614 308.265 33.1424 308.954 34.6676L308.954 34.668C309.153 35.1068 309.353 35.5493 309.551 35.9901C310.159 34.751 310.73 33.539 311.431 31.82C312.578 29.114 312.419 28.764 311.403 28.701L310.443 28.637C310.222 28.318 310.287 27.967 310.513 27.873C311.368 27.937 312.322 27.967 313.503 27.967C314.555 27.967 315.825 27.936 316.556 27.873C316.776 27.967 316.812 28.382 316.621 28.637L315.699 28.701C314.515 28.7816 313.928 29.9137 313.324 31.0789C313.246 31.2305 313.167 31.3826 313.087 31.533C312.418 32.712 311.081 35.479 310.604 36.596C310.443 36.912 310.318 37.232 310.318 37.36C310.318 37.487 310.382 37.741 310.543 38.126C311.016 39.1977 311.494 40.2576 311.971 41.3136L311.973 41.3167L311.974 41.3197L311.976 41.3232L311.977 41.3267L311.979 41.3303C312.59 42.6821 313.197 44.0275 313.787 45.383C314.602 43.5435 315.375 41.7039 316.157 39.8441L316.36 39.3616L316.654 38.663C316.976 37.85 317.614 36.2675 318.174 34.8797L318.175 34.8774C318.666 33.6616 319.096 32.5956 319.2 32.328C319.283 32.0985 319.371 31.8602 319.459 31.6227L319.46 31.6198L319.46 31.6185C319.811 30.6717 320.156 29.7393 320.156 29.431C320.156 28.987 319.776 28.733 319.105 28.702L318.181 28.638C317.93 28.352 317.959 27.999 318.212 27.874C319.423 27.938 320.282 27.968 321.267 27.968C322.482 27.968 323.402 27.937 324.234 27.874C324.485 27.968 324.519 28.383 324.296 28.638L323.689 28.702C322.219 28.8472 321.863 29.6772 320.311 33.2962C320.184 33.5912 320.049 33.9048 319.906 34.238L317.581 39.62C316.213 42.868 314.903 45.989 313.595 49.396C313.505 49.456 313.374 49.4921 313.217 49.4921C313.057 49.4921 312.898 49.456 312.773 49.396C311.946 47.0946 310.573 44.0411 309.557 41.7821C309.321 41.2574 309.105 40.7756 308.919 40.356C307.772 42.677 305.865 46.75 304.939 49.396C304.849 49.456 304.717 49.4921 304.556 49.4921C304.396 49.4921 304.239 49.456 304.078 49.396C303.538 48.058 302.298 45.191 301.882 44.2681C301.065 42.4949 300.26 40.723 299.454 38.9513L299.453 38.9484L299.451 38.9455L299.45 38.9425L299.449 38.9396C298.244 36.291 297.04 33.643 295.801 30.992L295.771 30.928ZM336.137 45.9231C336.39 46.6901 336.547 47.2611 336.547 47.6101C336.547 47.9321 336.106 48.1201 335.431 48.1831L334.511 48.2811C334.289 48.4401 334.32 48.9481 334.574 49.0791C334.732 49.0731 334.897 49.0663 335.071 49.0593C335.919 49.0247 336.967 48.9821 338.237 48.9821C339.669 48.9821 340.782 49.0131 342.085 49.0791C342.246 48.9481 342.308 48.4401 342.085 48.2811L341.227 48.1831C339.857 48.0261 339.447 47.5461 338.521 44.8081L334.159 32.0111C334.094 31.8185 334.028 31.6247 333.962 31.43L333.962 31.4297L333.962 31.4291L333.961 31.4279C333.546 30.2068 333.119 28.9509 332.763 27.7441C332.698 27.5201 332.473 27.4561 332.282 27.4561C331.933 27.8721 331.388 28.4471 330.624 28.6681C330.724 29.1791 330.534 29.7841 330.09 30.9281L326.837 39.5241C325.937 41.9257 325.238 43.6502 324.705 44.9669L324.704 44.9692C324.446 45.6065 324.226 46.1483 324.041 46.6251C323.591 47.7731 322.892 48.1201 322.124 48.1841L321.078 48.2821C320.885 48.4411 320.947 48.9491 321.14 49.0801C321.312 49.0731 321.494 49.0651 321.685 49.0566C322.453 49.0228 323.357 48.9831 324.197 48.9831C324.564 48.9906 324.899 48.9964 325.209 49.0016L325.21 49.0017H325.21C326.168 49.018 326.883 49.0302 327.509 49.0801C327.795 48.9491 327.795 48.4411 327.571 48.2821L326.523 48.1841C325.756 48.1211 325.601 47.9331 325.601 47.5471C325.601 47.1981 325.823 46.3381 326.298 44.9061L327.413 41.5631C327.638 40.8941 327.825 40.7971 328.624 40.7971H333.436C334.386 40.7971 334.514 40.8941 334.735 41.5971L336.137 45.9231ZM330.435 33.2221C330.788 32.2661 331.106 31.5031 331.2 31.3421H331.265C331.451 31.7207 331.733 32.5645 331.986 33.3219L331.994 33.3481L333.717 38.5381C334 39.3981 333.94 39.5231 333.014 39.5231H329.102C328.207 39.5231 328.176 39.4941 328.427 38.7591L330.435 33.2221ZM344.492 48.185C346.34 47.992 346.405 47.549 346.405 44.205V32.746C346.405 29.401 346.34 28.892 344.335 28.732L343.538 28.669C343.345 28.542 343.412 27.969 343.6 27.874C345.383 27.938 346.466 27.969 347.742 27.969C348.98 27.969 350.065 27.937 351.657 27.874C351.847 27.969 351.908 28.542 351.72 28.669L350.953 28.732C349.077 28.892 349.014 29.401 349.014 32.746V43.824C349.014 45.83 349.108 46.657 349.681 47.262C350.034 47.61 350.637 47.992 353.15 47.992C355.86 47.992 356.527 47.867 357.039 47.58C357.672 47.2 358.504 46.051 359.136 44.429C359.33 44.269 359.934 44.398 359.934 44.619C359.934 44.97 359.044 48.218 358.598 49.079C356.973 49.013 353.954 48.982 350.673 48.982H347.742C346.406 48.982 345.382 49.014 343.6 49.079C343.412 48.982 343.345 48.472 343.538 48.281L344.492 48.185ZM364.703 44.205C364.703 47.549 364.547 48.024 362.733 48.1851L361.681 48.281C361.489 48.472 361.552 48.982 361.745 49.079C363.622 49.014 364.702 48.982 366.073 48.982H368.94C371.772 48.982 374.607 49.013 377.472 49.079C377.888 48.218 378.681 45.765 378.906 44.651C378.774 44.366 378.329 44.2691 378.109 44.428C377.281 46.084 376.421 47.199 375.849 47.514C375.145 47.867 374.219 47.9921 371.772 47.9921C368.97 47.9921 368.301 47.643 367.918 47.262C367.408 46.724 367.314 45.641 367.314 43.9501V39.46C367.314 38.635 367.409 38.6031 368.365 38.6031H370.211C371.455 38.6031 372.218 38.635 372.662 38.76C373.304 38.921 373.522 39.398 373.651 39.97L373.936 41.2131C374.097 41.403 374.639 41.403 374.766 41.178C374.766 40.8726 374.741 40.4696 374.714 40.0166L374.714 40.0149V40.0143C374.679 39.4326 374.639 38.7689 374.639 38.124C374.639 37.4495 374.678 36.7657 374.713 36.1598C374.741 35.6779 374.766 35.2454 374.766 34.906C374.639 34.685 374.097 34.685 373.936 34.876L373.685 36.18C373.522 36.978 373.303 37.17 372.916 37.2961C372.536 37.4211 371.546 37.486 370.21 37.486H368.364C367.408 37.486 367.313 37.486 367.313 36.596V30.226C367.313 29.017 367.313 28.953 368.268 28.953H370.564C371.961 28.953 372.981 28.986 373.65 29.143C375.23 29.5384 375.56 30.5739 376.006 31.971C376.027 32.0369 376.048 32.1036 376.07 32.1711C376.225 32.3601 376.735 32.296 376.868 32.106C376.848 31.9032 376.828 31.6817 376.807 31.4495C376.68 30.0785 376.52 28.3348 376.356 27.873C375.976 27.968 374.096 27.968 372.057 27.968H366.072C364.766 27.968 363.681 27.937 362.315 27.873C362.122 27.968 362.058 28.541 362.25 28.668L362.76 28.731C364.637 28.953 364.701 29.431 364.701 32.745V44.205H364.703ZM389.868 37.4871C391.876 38.7291 393.85 40.5741 393.85 43.6001C393.85 47.1041 391.207 49.4921 387.067 49.4931C384.395 49.4931 382.702 48.6661 382.097 48.3151C381.718 47.6111 381.305 45.3511 381.24 43.8561C381.399 43.6341 381.877 43.5671 382.003 43.7611C382.481 45.3841 383.791 48.5041 387.479 48.5041C390.156 48.5041 391.46 46.7501 391.46 44.8431C391.46 43.4421 391.172 41.8831 388.854 40.3831L385.828 38.4131C384.236 37.3591 382.388 35.5451 382.388 32.9351C382.388 29.9111 384.745 27.4561 388.881 27.4561C389.868 27.4561 391.016 27.6171 391.844 27.8741C392.26 27.9681 392.704 28.0621 392.959 28.0621C393.243 28.8281 393.53 30.6111 393.53 31.9501C393.404 32.1381 392.896 32.2351 392.737 32.0421C392.321 30.5151 391.461 28.4471 388.407 28.4471C385.283 28.4471 384.616 30.5151 384.616 31.9801C384.616 33.8271 386.144 35.1311 387.323 35.8971L389.868 37.4871Z" fill="#231F20"/>
<path fill-rule="evenodd" clip-rule="evenodd" d="M253.297 64.4411C252.536 63.9351 251.714 63.6821 250.888 63.6821C248.914 63.6821 247.613 64.8051 247.613 66.5611C247.613 68.1429 248.95 68.9504 250.194 69.7014C251.275 70.3544 252.285 70.9647 252.285 72.0041C252.285 72.6041 251.731 73.3621 250.528 73.3621C249.466 73.3621 248.471 72.8081 247.68 71.7951V73.7571C248.583 74.4401 249.532 74.7521 250.699 74.7521C252.441 74.7521 253.723 73.5221 253.723 71.8271C253.723 69.8965 252.246 69.0627 250.953 68.3334C249.949 67.7667 249.056 67.2632 249.056 66.3571C249.056 65.5941 249.767 65.0731 250.766 65.0731C251.494 65.0731 252.376 65.3261 253.298 66.1961V64.4411H253.297ZM222.248 74.6132V63.8242V63.8232H224.971C227.154 63.8232 228.513 64.9782 228.513 66.8442C228.513 68.0982 227.863 69.0302 226.71 69.4902C227.678 70.1283 228.276 71.1069 229.081 72.422L229.115 72.4772C229.532 73.1517 229.793 73.5131 230.391 74.3414L230.587 74.6132H228.735L227.311 72.4012C225.887 70.1832 225.238 69.9302 224.448 69.9302H223.8V74.6132H222.248ZM224.797 65.1542H223.8V68.5392H224.797C226.457 68.5392 226.932 67.6822 226.917 66.7822C226.901 65.7712 226.298 65.1542 224.797 65.1542ZM102.77 63.8242H104.32H104.321V70.3752C104.321 73.0172 102.738 74.7532 99.5262 74.7532C97.2472 74.7532 95.0332 73.4742 95.0332 70.5322V63.8242H96.5862V70.1992C96.5862 71.4182 96.7442 71.9282 97.2332 72.4152C97.8512 73.0322 98.6252 73.3332 99.5602 73.3332C100.744 73.3332 101.597 72.9552 102.088 72.4612C102.644 71.9052 102.77 71.1172 102.77 70.1072V63.8242ZM131.396 63.8242H132.85V74.6112H131.522L124.306 66.3082V74.6112H122.854V63.8242H124.088L131.396 72.1782V63.8242ZM153.188 63.8242V74.6132H151.688V63.8242H153.188ZM178.796 63.8242H180.331L175.76 74.7082H175.442L170.775 63.8242H172.326L175.568 71.4022L178.796 63.8242ZM204.038 63.8242H197.918V74.6112H204.18V73.2232H199.469V69.8692H203.881V68.4742H199.469V65.2172H204.038V63.8242ZM273.338 74.6132V63.8242H271.838V74.6132H273.338ZM300.209 63.8242H291.193V65.2172H294.929V74.6112H296.479V65.2172H300.209V63.8242ZM318.745 63.8242L321.64 67.5422L324.563 63.8242H326.433L322.433 68.9182V74.6152H320.881V68.9032L316.877 63.8242H318.745Z" fill="#231F20"/>
</g>
<defs>
<clipPath id="clip0">
<rect width="393.851" height="89.562" fill="white"/>
</clipPath>
</defs>
</svg>
