<svg width="376" height="65" viewBox="0 0 376 65" fill="none" xmlns="http://www.w3.org/2000/svg">
<rect width="375.15" height="64.6" fill="white"/>
<path fill-rule="evenodd" clip-rule="evenodd" d="M2.04072 3.65082C11.1137 1.71082 20.5226 0.682129 30.1716 0.682129H30.1718C39.8098 0.682129 49.2097 1.70682 58.2697 3.64302L58.2887 3.65082C58.9537 3.78832 59.4567 4.38211 59.4567 5.08831L59.4547 10.1724C59.4547 13.5134 59.2507 16.6634 58.8907 19.6474C40.0858 15.6754 20.2938 15.6744 1.45892 19.6523C1.09522 16.6664 0.892535 13.5164 0.892535 10.1724L0.890625 5.08831C0.890625 4.39961 1.36952 3.82262 2.00582 3.66262L2.04072 3.65082ZM76.9844 4.38131C76.6954 4.19011 76.7944 3.33492 77.0774 3.18992C79.8414 3.28492 81.4574 3.33642 83.4544 3.33642C85.3594 3.33642 86.9794 3.28492 88.8804 3.18992C89.1694 3.33492 89.2654 4.19011 88.9784 4.38131L88.2674 4.47511C85.4594 4.85881 85.3614 5.52331 85.3614 10.5704V28.2323C85.3614 31.9913 85.1714 35.2763 84.2674 37.4653C82.6934 41.2763 79.3144 44.3222 74.8884 44.3222C74.3174 44.3222 72.8434 44.2752 72.8434 43.3222C72.8434 42.5142 73.5534 41.1313 74.5524 41.1313C75.1244 41.1313 75.6994 41.2273 76.3184 41.4163C76.9844 41.6103 77.6494 41.7503 78.3164 41.7503C79.3144 41.7503 79.8874 41.1813 80.2184 40.5163C81.3124 38.2763 81.4564 31.1333 81.4564 28.5643V10.5704C81.4564 5.28701 80.9814 4.71511 78.1734 4.47511L76.9844 4.38131ZM206.497 4.38131C206.217 4.19131 206.307 3.33562 206.597 3.19192C207.526 3.21034 208.342 3.23671 209.117 3.26178C210.287 3.29959 211.364 3.33442 212.597 3.33442C214.447 3.33442 216.067 3.28812 218.117 3.19192C218.397 3.33562 218.497 4.19131 218.207 4.38131L217.297 4.47511C214.547 4.76261 214.447 5.47511 214.447 10.4754V15.9514C214.447 17.4264 214.547 17.4714 216.827 17.4714H230.447C232.727 17.4714 232.817 17.4264 232.817 15.9514V10.4754C232.817 5.47511 232.727 4.76261 229.917 4.47511L229.017 4.38131C228.727 4.19131 228.827 3.33562 229.117 3.19192C231.297 3.28812 232.917 3.33442 234.867 3.33442C236.727 3.33442 238.347 3.28812 240.487 3.19192C240.777 3.33562 240.867 4.19131 240.577 4.38131L239.587 4.47511C236.817 4.76261 236.727 5.47511 236.727 10.4754V27.6133C236.727 32.6123 236.817 33.2303 239.587 33.5643L240.727 33.7073C241.007 33.8963 240.917 34.7513 240.627 34.8953C238.347 34.7973 236.727 34.7523 234.867 34.7523C232.917 34.7523 231.207 34.7973 229.117 34.8953C228.827 34.7513 228.727 33.9923 229.017 33.7073L229.917 33.5643C232.817 33.0883 232.817 32.6123 232.817 27.6133V20.8983C232.817 19.4713 232.727 19.3774 230.447 19.3774H216.827C214.547 19.3774 214.447 19.4713 214.447 20.8983V27.6133C214.447 32.6123 214.687 33.2783 217.357 33.5643L218.737 33.7073C219.017 33.8963 218.917 34.7513 218.637 34.8953C216.067 34.7973 214.447 34.7523 212.597 34.7523C211.221 34.7523 210.039 34.7946 208.848 34.8373C208.264 34.8582 207.678 34.8792 207.067 34.8953C206.787 34.7513 206.687 33.9923 206.977 33.7073L207.787 33.5643C210.447 33.0883 210.547 32.6123 210.547 27.6133V10.4754C210.547 5.47511 210.207 4.66631 207.737 4.47511L206.497 4.38131ZM30.1626 4.97311C27.3996 3.95671 23.8906 3.43852 20.7076 3.38912V3.38872C18.7986 3.35912 17.0077 3.49802 15.5657 3.80082L13.8877 5.10161L13.4407 5.17191C13.2867 5.19191 13.1697 5.29761 13.1177 5.39301L8.44029 15.734C8.28899 16.022 8.52379 16.265 8.79369 16.213C15.9147 14.859 23.4666 14.443 30.1666 14.443H30.1726C36.8706 14.443 44.4255 14.859 51.5475 16.213C51.8155 16.265 52.0525 16.022 51.9015 15.734L47.2215 5.39301C47.1715 5.29801 47.0515 5.19231 46.9015 5.17231L46.4495 5.10201L44.7725 3.80122C40.9276 2.99372 34.5936 3.34692 30.1746 4.97311H30.1626ZM13.5167 6.30121L15.0617 5.13131L12.7357 11.7424C17.4377 10.8534 24.0476 11.1394 29.8116 13.0274C29.499 13.0274 29.2719 13.1304 29.0865 13.2145C29.0685 13.2227 29.0509 13.2307 29.0336 13.2384C24.2486 13.1724 14.5887 13.9554 10.3117 14.6484L13.5167 6.30121ZM47.5415 11.7424L45.2075 5.13131L46.7525 6.30121L49.9595 14.6484C45.6835 13.9554 36.0216 13.1724 31.2336 13.2384C31.2183 13.2314 31.2027 13.2243 31.1868 13.217C31.0027 13.1324 30.774 13.0274 30.4556 13.0274C36.2196 11.1394 42.8375 10.8534 47.5415 11.7424ZM88.8714 21.7829C88.8714 13.7514 94.8993 7.604 103.166 7.604C112.446 7.604 117.106 14.311 117.106 21.3789C117.106 29.4899 110.926 35.3969 103.166 35.3969C94.2553 35.3969 88.8714 29.0099 88.8714 21.7829ZM240.426 21.7829C240.426 13.7514 246.446 7.604 254.716 7.604C263.996 7.604 268.656 14.311 268.656 21.3789C268.656 29.4899 262.466 35.3969 254.716 35.3969C245.806 35.3969 240.426 29.0099 240.426 21.7829ZM178.536 14.5124C178.536 10.6964 181.506 7.6059 186.726 7.6059C187.976 7.6059 189.416 7.8454 190.466 8.1254C190.986 8.2867 191.546 8.3696 191.866 8.3696C192.226 9.33329 192.586 11.5814 192.586 13.2684C192.426 13.5094 191.786 13.6264 191.586 13.3894C191.066 11.4594 189.976 8.85199 186.126 8.85199C182.186 8.85199 181.346 11.4584 181.346 13.3074C181.346 15.6354 183.276 17.3264 184.756 18.2484L187.966 20.2543C190.496 21.8213 192.996 24.1493 192.996 27.9673C192.996 32.3823 189.656 35.3973 184.436 35.3973C181.066 35.3973 178.936 34.3513 178.176 33.9103C177.696 33.0253 177.166 30.1753 177.086 28.2873C177.296 28.0063 177.896 27.9263 178.056 28.1683C178.656 30.2143 180.306 34.1503 184.956 34.1503C188.326 34.1503 189.986 31.9433 189.986 29.5313C189.986 27.7643 189.616 25.7953 186.686 23.9103L182.876 21.4183C180.856 20.0933 178.536 17.8024 178.536 14.5124ZM359.575 14.5124C359.575 10.6964 362.555 7.6059 367.775 7.6059C369.015 7.6059 370.465 7.8454 371.505 8.1254C372.025 8.2867 372.595 8.3696 372.915 8.3696C373.275 9.33329 373.635 11.5814 373.635 13.2684C373.475 13.5094 372.835 13.6264 372.635 13.3894C372.105 11.4594 371.025 8.85199 367.175 8.85199C363.235 8.85199 362.385 11.4584 362.385 13.3074C362.385 15.6354 364.315 17.3264 365.805 18.2484L369.015 20.2543C371.545 21.8213 374.035 24.1493 374.035 27.9673C374.035 32.3823 370.705 35.3973 365.485 35.3973C362.105 35.3973 359.985 34.3513 359.215 33.9103C358.735 33.0253 358.215 30.1753 358.135 28.2873C358.335 28.0063 358.935 27.9263 359.095 28.1683C359.695 30.2143 361.345 34.1503 366.005 34.1503C369.375 34.1503 371.025 31.9433 371.025 29.5313C371.025 27.7643 370.665 25.7953 367.735 23.9103L363.915 21.4183C361.905 20.0933 359.575 17.8024 359.575 14.5124ZM117.516 9.12939C117.276 8.96939 117.356 8.2442 117.596 8.1254C118.354 8.14128 119.021 8.16258 119.654 8.18278C120.667 8.2151 121.592 8.2446 122.656 8.2446C124.226 8.2446 125.586 8.2067 127.316 8.1254C127.556 8.2442 127.636 8.96939 127.396 9.12939L126.626 9.20939C124.306 9.45189 124.226 10.0554 124.226 14.2724V18.8894C124.226 20.1353 124.306 20.1763 126.226 20.1763H137.716C139.646 20.1763 139.726 20.1353 139.726 18.8894V14.2724C139.726 10.0554 139.646 9.45189 137.276 9.20939L136.516 9.12939C136.266 8.96939 136.346 8.2442 136.596 8.1254C138.436 8.2067 139.796 8.2446 141.456 8.2446C143.016 8.2446 144.386 8.2067 146.196 8.1254C146.426 8.2442 146.506 8.96939 146.276 9.12939L145.426 9.20939C143.096 9.45189 143.016 10.0554 143.016 14.2724V28.7293C143.016 32.9453 143.096 33.4673 145.426 33.7483L146.386 33.8693C146.626 34.0293 146.546 34.7523 146.306 34.8733C144.386 34.7913 143.016 34.7523 141.456 34.7523C139.796 34.7523 138.356 34.7913 136.596 34.8733C136.346 34.7523 136.266 34.1093 136.516 33.8693L137.276 33.7483C139.726 33.3493 139.726 32.9453 139.726 28.7293V23.0663C139.726 21.8613 139.646 21.7813 137.716 21.7813H126.226C124.306 21.7813 124.226 21.8613 124.226 23.0663V28.7293C124.226 32.9453 124.426 33.5073 126.676 33.7483L127.836 33.8693C128.076 34.0293 127.996 34.7523 127.756 34.8733C125.586 34.7913 124.226 34.7523 122.656 34.7523C121.514 34.7523 120.533 34.7876 119.547 34.8231C119.039 34.8414 118.53 34.8597 117.996 34.8733C117.756 34.7523 117.676 34.1093 117.916 33.8693L118.596 33.7483C120.846 33.3493 120.926 32.9453 120.926 28.7293V14.2724C120.926 10.0554 120.646 9.37069 118.556 9.20939L117.516 9.12939ZM148.086 9.13329C147.836 8.89199 147.846 8.2879 148.156 8.1254C149.846 8.2442 151.976 8.2446 152.696 8.2446C153.346 8.2446 154.026 8.2054 154.546 8.1254C155.329 10.1319 159.887 15.2537 161.317 16.8617L161.406 16.9614L165.306 21.3383C165.794 21.8835 166.257 22.4023 166.7 22.8977C168.768 25.2142 170.379 27.019 171.936 28.6073H172.016C172.176 28.4073 172.176 27.7643 172.176 26.9203V18.3264C172.176 16.4404 172.136 11.2194 171.376 10.0144C171.126 9.65159 170.486 9.41069 168.886 9.20939L168.206 9.13329C167.916 8.89199 167.956 8.2442 168.276 8.1254C170.126 8.2054 171.496 8.2446 173.016 8.2446C174.746 8.2446 175.796 8.2054 177.156 8.1254C177.476 8.3267 177.476 8.89199 177.236 9.13329L176.676 9.20939C175.386 9.41069 174.586 9.73319 174.426 10.0534C173.804 11.3769 173.818 15.655 173.825 17.789C173.825 17.9882 173.826 18.1687 173.826 18.3264V27.9243C173.826 29.1303 173.826 33.9113 173.946 34.9553C173.866 35.1943 173.626 35.3973 173.186 35.3973C172.696 34.7143 171.536 33.3073 168.036 29.3343L158.726 18.7294C158.305 18.2484 157.638 17.4611 156.93 16.6252C155.808 15.2992 154.581 13.851 154.066 13.3094H153.986C153.826 13.7914 153.786 14.7134 153.786 15.9184V24.6743C153.786 26.5603 153.826 31.7803 154.506 32.9823C154.746 33.4273 155.546 33.6683 156.556 33.7483L157.796 33.8693C158.036 34.1923 157.996 34.6733 157.716 34.8733C155.916 34.7933 154.506 34.7523 153.016 34.7523C151.336 34.7523 150.246 34.7933 148.836 34.8733C148.556 34.6733 148.516 34.1093 148.766 33.8693L149.846 33.7483C150.776 33.6283 151.416 33.3903 151.616 32.9453C152.144 31.5841 152.139 27.158 152.136 25.0384C152.136 24.9079 152.136 24.7861 152.136 24.6743V13.0664C152.136 11.9434 152.096 11.0974 151.256 10.1764C150.686 9.61369 149.726 9.33189 148.766 9.20939L148.086 9.13329ZM269.376 8.4477C271.506 8.1665 273.996 8.1254 277.336 8.1254C280.656 8.1254 283.156 8.56789 285.036 9.73289C286.886 10.9004 288.256 12.9874 288.256 15.7584C288.256 19.4533 285.966 21.2993 284.236 22.1433C282.466 22.9863 280.346 23.3483 278.696 23.3483C278.416 23.2263 278.416 22.6263 278.656 22.5473C282.986 21.7423 284.556 19.2923 284.556 15.7974C284.556 11.9014 282.266 9.37149 278.096 9.37149C275.966 9.37149 275.926 9.53009 275.926 10.8184V28.7293C275.926 32.9453 276.006 33.4673 278.566 33.7483L279.656 33.8693C279.896 34.0683 279.816 34.7523 279.576 34.8733C277.286 34.7913 275.966 34.7523 274.356 34.7523C272.676 34.7523 271.226 34.7913 269.466 34.8733C269.216 34.7523 269.136 34.1093 269.376 33.8693L270.216 33.7483C272.546 33.4283 272.626 32.9453 272.626 28.7293V13.9104C272.626 10.4954 272.546 9.81249 270.746 9.61369L269.296 9.45359C269.016 9.21229 269.056 8.60899 269.376 8.4477ZM316.745 9.13129C316.495 8.97009 316.585 8.2454 316.825 8.1254C318.835 8.2054 320.195 8.2465 321.885 8.2465C323.495 8.2465 324.855 8.2054 326.865 8.1254C327.105 8.2454 327.185 8.97009 326.945 9.13129L325.945 9.21139C323.575 9.41139 323.485 10.0934 323.485 14.3524V28.6473C323.485 32.9053 323.575 33.4693 325.945 33.7503L326.945 33.8693C327.185 34.0293 327.105 34.7523 326.865 34.8733C324.855 34.7923 323.495 34.7523 321.885 34.7523C320.195 34.7523 318.835 34.7923 316.825 34.8733C316.585 34.7523 316.495 34.1093 316.745 33.8693L317.745 33.7503C320.115 33.4693 320.195 32.9053 320.195 28.6473V14.3524C320.195 10.0934 320.115 9.41139 317.745 9.21139L316.745 9.13129ZM329.195 9.13329C328.955 8.89199 328.955 8.2879 329.275 8.1254C330.965 8.2442 333.085 8.2446 333.815 8.2446C334.455 8.2446 335.135 8.2054 335.655 8.1254C336.448 10.1316 341.005 15.2523 342.436 16.8611L342.525 16.9614L346.425 21.3383C346.935 21.9075 347.417 22.448 347.877 22.9631C349.917 25.2482 351.511 27.034 353.045 28.6073H353.125C353.295 28.4073 353.295 27.7645 353.295 26.9208V26.9203V18.3264C353.295 16.4404 353.245 11.2194 352.485 10.0144C352.245 9.65159 351.605 9.41069 349.995 9.20939L349.315 9.13329C349.035 8.89199 349.075 8.2442 349.395 8.1254C351.245 8.2054 352.605 8.2446 354.135 8.2446C355.865 8.2446 356.905 8.2054 358.275 8.1254C358.595 8.3267 358.595 8.89199 358.355 9.13329L357.785 9.20939C356.505 9.41069 355.695 9.73319 355.535 10.0534C354.913 11.3769 354.927 15.655 354.934 17.789C354.935 17.9882 354.935 18.1687 354.935 18.3264V27.9243C354.935 29.1303 354.935 33.9113 355.055 34.9553C354.975 35.1943 354.735 35.3973 354.295 35.3973C353.815 34.7143 352.645 33.3073 349.155 29.3343L339.835 18.7294C339.459 18.2961 338.882 17.6142 338.253 16.8722C337.077 15.4838 335.723 13.8848 335.175 13.3094H335.105C334.935 13.7914 334.895 14.7134 334.895 15.9184V24.6743C334.895 26.5603 334.935 31.7803 335.615 32.9823C335.865 33.4273 336.665 33.6683 337.665 33.7483L338.915 33.8693C339.155 34.1923 339.115 34.6733 338.835 34.8733C337.025 34.7933 335.615 34.7523 334.135 34.7523C332.445 34.7523 331.365 34.7933 329.955 34.8733C329.675 34.6733 329.635 34.1093 329.875 33.8693L330.965 33.7483C331.885 33.6283 332.525 33.3903 332.725 32.9453C333.256 31.5994 333.249 27.2569 333.246 25.1106C333.246 24.9526 333.245 24.8065 333.245 24.6743V13.0664C333.245 11.9434 333.215 11.0974 332.365 10.1764C331.805 9.61369 330.845 9.33189 329.875 9.20939L329.195 9.13329ZM289.216 9.13129C288.976 8.96879 289.056 8.2449 289.296 8.1274C291.266 8.2074 292.555 8.2446 294.355 8.2446C295.925 8.2446 297.295 8.2074 299.015 8.1274C299.255 8.2449 299.345 8.96879 299.095 9.13129L298.335 9.21139C296.005 9.45259 295.925 10.0534 295.925 14.2704V18.8914C295.925 19.6533 296.005 20.4183 296.445 20.4183C296.805 20.4183 297.295 20.1753 297.575 19.9733C297.897 19.6976 298.377 19.2347 298.813 18.8146C299.136 18.5036 299.434 18.216 299.625 18.0454L303.955 13.7504C304.715 13.0264 306.685 10.9794 307.085 10.4144C307.295 10.1354 307.375 9.93389 307.375 9.77389C307.375 9.61389 307.215 9.49399 306.685 9.37149L305.605 9.13129C305.325 8.85009 305.365 8.3274 305.685 8.1274C307.095 8.2074 308.695 8.2446 310.105 8.2446C311.505 8.2446 312.875 8.2074 314.075 8.1274C314.355 8.3274 314.395 8.89009 314.155 9.13129C313.115 9.21129 311.545 9.61259 310.425 10.2564C309.295 10.8974 307.045 12.7844 304.795 14.9144L301.185 18.3264L301.177 18.3346C300.622 18.8939 300.265 19.2529 300.265 19.5723C300.265 19.8523 300.505 20.1753 301.025 20.8163C301.697 21.5857 302.346 22.3316 302.976 23.0564C305.933 26.4549 308.486 29.389 311.065 32.1023C312.035 33.0653 312.915 33.5883 314.285 33.7483L315.365 33.8713C315.645 34.0703 315.565 34.7513 315.285 34.8753C314.235 34.7913 312.675 34.7523 310.785 34.7523C309.135 34.7523 307.735 34.7913 305.885 34.8753C305.605 34.7913 305.485 34.1113 305.725 33.8713L306.645 33.7073C307.215 33.6273 307.615 33.5073 307.615 33.3093C307.615 33.1044 307.409 32.8441 307.177 32.5504C307.134 32.4958 307.089 32.4401 307.045 32.3833C306.554 31.7595 305.945 31.0859 305.162 30.2198C304.734 29.7473 304.255 29.2175 303.715 28.6073L300.505 24.9923C300.345 24.8122 300.192 24.6407 300.047 24.4776C298.124 22.3148 297.507 21.6213 296.605 21.6213C296.005 21.6213 295.925 22.1433 295.925 23.5493V28.7313C295.925 32.9463 296.005 33.5063 298.255 33.7483L299.335 33.8713C299.575 34.0313 299.505 34.7513 299.255 34.8753C297.296 34.7913 295.925 34.7523 294.355 34.7523C292.715 34.7523 291.345 34.7913 289.706 34.8753C289.466 34.7513 289.376 34.1523 289.616 33.8713L290.426 33.7483C292.555 33.4283 292.636 32.9463 292.636 28.7313V14.2704C292.636 10.0534 292.556 9.41139 290.226 9.21139L289.216 9.13129ZM113.096 22.6229C113.096 15.9984 110.156 8.85199 102.486 8.85199C98.3123 8.85199 92.8933 11.703 92.8933 20.4979C92.8933 26.4379 95.7843 34.1499 103.696 34.1499C108.516 34.1499 113.096 30.5369 113.096 22.6229ZM264.636 22.6229C264.636 15.9984 261.706 8.85199 254.036 8.85199C249.866 8.85199 244.436 11.703 244.436 20.4979C244.436 26.4379 247.336 34.1499 255.246 34.1499C260.066 34.1499 264.636 30.5369 264.636 22.6229ZM31.4466 25.2659V19.238C33.2546 19.255 35.0656 19.315 36.8706 19.4V28.8689L31.4466 25.2659ZM42.2925 32.4769V19.7639C44.1035 19.9239 45.9095 20.1349 47.7105 20.3629V36.0879L42.2925 32.4769ZM53.1285 39.6909V21.1579C54.9425 21.4619 56.7425 21.7999 58.5385 22.1819C57.4715 28.9379 55.5395 34.7379 53.1445 39.7029L53.1305 39.6949V39.7319C51.5005 43.1018 49.6575 46.0918 47.7225 48.7168L47.7125 48.7108V36.0879L53.1285 39.6909ZM36.8706 41.4919V28.8729L42.2905 32.4789V45.1038L36.8706 41.4939V59.7308C34.8536 61.2508 32.9956 62.4268 31.4486 63.2768V37.8869L36.8706 41.4919ZM42.2925 55.0198V45.1018L47.7105 48.7108V48.7248C45.9535 51.1118 44.1155 53.2108 42.2925 55.0198ZM294.711 47.1618C294.741 47.1418 294.832 47.1258 294.911 47.1228C294.992 47.1198 295.081 47.1308 295.111 47.1618C295.228 47.8041 295.868 47.8036 296.778 47.8029L296.871 47.8028H305.271C306.391 47.8028 306.581 47.7628 306.881 47.2248C306.991 47.1848 307.221 47.2048 307.261 47.2868C307.031 48.1358 306.881 49.8138 306.951 50.4398C306.871 50.6018 306.511 50.6018 306.411 50.4788C306.351 49.9618 306.201 49.1938 305.891 48.9648C305.411 48.6118 304.621 48.4468 303.481 48.4468H302.011C301.411 48.4468 301.411 48.4647 301.411 49.0894L301.411 49.1518V58.3808C301.411 60.5548 301.451 60.8698 302.651 60.9708L303.321 61.0348C303.441 61.1158 303.401 61.4898 303.281 61.5508C302.101 61.5118 301.391 61.4898 300.561 61.4898C299.76 61.4898 299.061 61.5103 297.817 61.5468L297.681 61.5508C297.551 61.4898 297.511 61.1348 297.681 61.0348L298.421 60.9708C299.601 60.8698 299.711 60.5548 299.711 58.3808V49.1088C299.711 48.4638 299.711 48.4468 299.091 48.4468H297.951C297.051 48.4468 295.911 48.4888 295.391 48.9648C294.901 49.4208 294.691 49.8778 294.461 50.3978C294.301 50.5218 294.011 50.4158 293.921 50.2538C294.261 49.3188 294.572 47.9898 294.711 47.1618ZM256.822 51.0408C256.822 49.0708 258.362 47.4728 261.062 47.4728C261.702 47.4728 262.442 47.5968 262.992 47.7398C263.252 47.8248 263.542 47.8628 263.712 47.8628C263.902 48.3628 264.082 49.5238 264.082 50.3968C264.002 50.5218 263.672 50.5828 263.572 50.4588C263.302 49.4628 262.742 48.1128 260.752 48.1128C258.722 48.1128 258.282 49.4618 258.282 50.4158C258.282 51.6218 259.272 52.4888 260.042 52.9648L261.702 54.0058C263.012 54.8148 264.292 56.0158 264.292 57.9858C264.292 60.2678 262.572 61.8218 259.882 61.8218C258.132 61.8218 257.032 61.2848 256.642 61.0548C256.392 60.5968 256.122 59.1258 256.082 58.1518C256.182 58.0048 256.502 57.9668 256.582 58.0918C256.892 59.1488 257.742 61.1798 260.152 61.1798C261.892 61.1798 262.742 60.0428 262.742 58.7968C262.742 57.8828 262.552 56.8658 261.042 55.8948L259.072 54.6068C258.032 53.9198 256.822 52.7408 256.822 51.0408ZM116.222 48.2398C116.092 48.1548 116.142 47.8028 116.262 47.7398C117.302 47.7828 118.002 47.8028 118.832 47.8028C119.682 47.8028 120.372 47.7828 121.382 47.7398C121.512 47.8028 121.552 48.1548 121.432 48.2398L120.922 48.2788C119.722 48.3828 119.682 48.7358 119.682 50.8928V55.3748C119.682 58.7108 120.722 60.9078 123.892 60.9078C126.902 60.9078 128.042 58.5478 128.042 55.3948V53.0078C128.042 51.7228 128.002 49.3378 127.652 48.7168C127.502 48.4658 127.132 48.3218 126.612 48.2788L126.092 48.2398C125.972 48.0938 126.012 47.8248 126.132 47.7398C126.922 47.7828 127.692 47.8028 128.492 47.8028C129.372 47.8028 129.932 47.7828 130.672 47.7398C130.842 47.8448 130.822 48.1128 130.722 48.2398L130.222 48.2788C129.702 48.3218 129.302 48.5078 129.182 48.7788C128.892 49.4618 128.892 51.8438 128.892 53.0078V55.3558C128.892 57.1578 128.602 59.0648 127.442 60.3068C126.552 61.2838 125.012 61.8238 123.482 61.8238C122.052 61.8238 120.622 61.5518 119.602 60.6818C118.502 59.7688 117.982 58.2568 117.982 55.7888V50.8928C117.982 48.7358 117.942 48.3828 116.742 48.2788L116.222 48.2398ZM141.852 48.2598C141.722 48.1348 141.722 47.8248 141.892 47.7398C142.762 47.8028 143.862 47.8028 144.232 47.8028C144.562 47.8028 144.912 47.7828 145.182 47.7398C145.591 48.7711 147.925 51.3957 148.675 52.2388L148.732 52.3028L150.742 54.5638C151.006 54.8587 151.257 55.1387 151.495 55.4057C152.547 56.5835 153.371 57.5058 154.162 58.3178H154.212C154.292 58.2148 154.292 57.8818 154.292 57.4468V53.0098C154.292 52.0358 154.272 49.3368 153.872 48.7168C153.752 48.5268 153.422 48.4038 152.592 48.3028L152.242 48.2598C152.092 48.1348 152.112 47.8028 152.282 47.7398C153.232 47.7828 153.932 47.8028 154.722 47.8028C155.612 47.8028 156.152 47.7828 156.862 47.7398C157.022 47.8448 157.022 48.1348 156.902 48.2598L156.612 48.3028C155.952 48.4038 155.532 48.5698 155.452 48.7358C155.131 49.4222 155.138 51.6381 155.141 52.7386C155.142 52.839 155.142 52.93 155.142 53.0098V57.9668C155.142 58.5878 155.142 61.0548 155.202 61.5938C155.162 61.7188 155.032 61.8218 154.802 61.8218C154.562 61.4698 153.952 60.7438 152.152 58.6908L147.342 53.2168C147.147 52.9926 146.849 52.6404 146.525 52.2573C145.918 51.5401 145.219 50.7143 144.932 50.4158H144.892C144.812 50.6648 144.792 51.1438 144.792 51.7618V56.2828C144.792 57.2608 144.812 59.9568 145.162 60.5778C145.292 60.8068 145.702 60.9308 146.222 60.9708L146.862 61.0348C146.992 61.1988 146.972 61.4468 146.822 61.5508C145.892 61.5118 145.162 61.4898 144.392 61.4898C143.532 61.4898 142.972 61.5118 142.242 61.5508C142.092 61.4468 142.072 61.1598 142.202 61.0348L142.762 60.9708C143.232 60.9078 143.572 60.7828 143.672 60.5548C143.946 59.8565 143.943 57.5608 143.942 56.4656C143.942 56.4002 143.942 56.339 143.942 56.2828V50.2928C143.942 49.7118 143.922 49.2758 143.482 48.7988C143.192 48.5078 142.692 48.3638 142.202 48.3028L141.852 48.2598ZM168.802 48.2598C168.672 48.1748 168.722 47.8028 168.842 47.7398C169.882 47.7828 170.582 47.8028 171.452 47.8028C172.282 47.8028 172.992 47.7828 174.022 47.7398C174.152 47.8028 174.192 48.1748 174.062 48.2598L173.552 48.3028C172.322 48.4038 172.282 48.7548 172.282 50.9548V58.3378C172.282 60.5338 172.322 60.8248 173.552 60.9688L174.062 61.0348C174.192 61.1178 174.152 61.4898 174.022 61.5528C172.992 61.5128 172.282 61.4898 171.452 61.4898C170.582 61.4898 169.882 61.5128 168.842 61.5528C168.722 61.4898 168.672 61.1598 168.802 61.0348L169.322 60.9688C170.542 60.8248 170.582 60.5338 170.582 58.3378V50.9548C170.582 48.7548 170.542 48.4038 169.322 48.3028L168.802 48.2598ZM185.322 48.2598C185.182 48.1358 185.202 47.8438 185.372 47.7398C185.962 47.7828 186.632 47.8008 187.522 47.8008C188.432 47.8008 189.162 47.7828 190.032 47.7398C190.182 47.8248 190.222 48.1358 190.072 48.2598L189.762 48.3028C188.972 48.4038 188.812 48.5268 188.792 48.6928C188.832 48.9028 189.182 50.0228 189.822 51.5998L189.858 51.6892C190.805 54.0639 191.745 56.4171 192.772 58.7538C193.201 57.8356 193.733 56.5744 194.182 55.5105C194.403 54.987 194.604 54.5113 194.762 54.1478C195.362 52.7398 196.332 50.3968 196.682 49.5058C196.852 49.0708 196.872 48.8408 196.872 48.6928C196.872 48.5498 196.672 48.3838 195.942 48.3028L195.572 48.2598C195.422 48.1358 195.462 47.8248 195.612 47.7398C196.192 47.7828 196.982 47.8008 197.762 47.8008C198.452 47.8008 199.092 47.7828 199.772 47.7398C199.922 47.8248 199.922 48.1558 199.822 48.2598L199.202 48.3028C198.702 48.3418 198.392 48.5918 198.122 49.0268C197.532 50.0008 196.732 51.6858 195.792 53.7968L194.672 56.3458C193.842 58.2568 192.872 60.6588 192.522 61.7598C192.462 61.7998 192.372 61.8218 192.292 61.8218C192.192 61.8218 192.082 61.7998 191.982 61.7598C191.752 60.8868 191.382 59.8738 191.032 59.0018L187.372 50.0018C186.902 48.8418 186.592 48.4038 185.702 48.3028L185.322 48.2598ZM210.742 48.2598C210.622 48.1748 210.662 47.8028 210.792 47.7398C211.682 47.7838 212.382 47.8028 213.232 47.8028H217.132C218.462 47.8028 219.682 47.8028 219.932 47.7398C220.051 48.093 220.18 49.5716 220.261 50.4877L220.262 50.5018C220.182 50.6258 219.852 50.6658 219.742 50.5408C219.727 50.4955 219.713 50.4508 219.699 50.4066C219.413 49.5004 219.201 48.8292 218.162 48.5698C217.732 48.4648 217.072 48.4448 216.152 48.4448H214.662C214.042 48.4448 214.042 48.4878 214.042 49.2748V53.4238C214.042 54.0058 214.102 54.0058 214.722 54.0058H215.932C216.792 54.0058 217.442 53.9628 217.692 53.8808C217.942 53.7958 218.082 53.6718 218.192 53.1518L218.362 52.3028C218.452 52.1778 218.812 52.1788 218.892 52.3218C218.892 52.5435 218.876 52.8261 218.859 53.1408C218.837 53.5358 218.812 53.9812 218.812 54.4198C218.812 54.839 218.837 55.2728 218.859 55.6521C218.876 55.947 218.892 56.209 218.892 56.4058C218.812 56.5538 218.452 56.5528 218.362 56.4298L218.162 55.6248C218.082 55.2508 217.942 54.9398 217.532 54.8358C217.232 54.7508 216.732 54.7308 215.932 54.7308H214.722C214.102 54.7308 214.042 54.7508 214.042 55.2928V58.2148C214.042 59.3138 214.112 60.0168 214.432 60.3668C214.682 60.6158 215.122 60.8458 216.942 60.8458C218.542 60.8458 219.142 60.7638 219.602 60.5348C219.972 60.3288 220.532 59.6028 221.072 58.5248C221.212 58.4198 221.512 58.4828 221.592 58.6718C221.442 59.3978 220.922 60.9938 220.652 61.5528C218.792 61.5128 216.942 61.4898 215.102 61.4898H213.232C212.342 61.4898 211.632 61.5128 210.412 61.5528C210.282 61.4898 210.252 61.1588 210.372 61.0348L211.052 60.9688C212.242 60.8678 212.342 60.5548 212.342 58.3828V50.9158C212.342 48.7558 212.302 48.4458 211.072 48.3048L210.742 48.2598ZM233.262 47.9058C234.422 47.8008 235.852 47.7398 237.882 47.7398C239.172 47.7398 240.392 47.8448 241.342 48.3648C242.342 48.8818 243.072 49.8158 243.072 51.2698C243.072 53.2398 241.512 54.3158 240.472 54.7308C240.372 54.8538 240.482 55.0638 240.582 55.2308C242.242 57.9038 243.342 59.5638 244.752 60.7438C245.102 61.0538 245.622 61.2818 246.182 61.3218C246.282 61.3648 246.302 61.5318 246.202 61.6128C246.012 61.6758 245.682 61.7188 245.292 61.7188C243.522 61.7188 242.462 61.1988 240.992 59.1068C240.717 58.717 240.363 58.1556 239.997 57.5754C239.642 57.0138 239.276 56.4347 238.962 55.9768C238.652 55.5188 238.322 55.3128 237.492 55.3128C236.552 55.3128 236.512 55.3328 236.512 55.7718V58.3828C236.512 60.5548 236.552 60.8058 237.762 60.9688L238.192 61.0348C238.322 61.1358 238.282 61.4898 238.152 61.5528C237.222 61.5128 236.512 61.4898 235.682 61.4898C234.812 61.4898 234.062 61.5128 233.092 61.5528C232.972 61.4898 232.922 61.1788 233.052 61.0348L233.572 60.9688C234.772 60.8248 234.812 60.5548 234.812 58.3828V50.9378C234.812 48.9648 234.752 48.6128 233.902 48.5078L233.232 48.4278C233.092 48.3218 233.092 47.9878 233.262 47.9058ZM276.612 48.2598C276.482 48.1748 276.522 47.8028 276.652 47.7398C277.692 47.7828 278.392 47.8028 279.262 47.8028C280.092 47.8028 280.802 47.7828 281.832 47.7398C281.962 47.8028 282.002 48.1748 281.872 48.2598L281.352 48.3028C280.132 48.4038 280.092 48.7548 280.092 50.9548V58.3378C280.092 60.5338 280.132 60.8248 281.352 60.9688L281.872 61.0348C282.002 61.1178 281.962 61.4898 281.832 61.5528C280.802 61.5128 280.092 61.4898 279.262 61.4898C278.392 61.4898 277.692 61.5128 276.652 61.5528C276.522 61.4898 276.482 61.1598 276.612 61.0348L277.132 60.9688C278.352 60.8248 278.392 60.5338 278.392 58.3378V50.9548C278.392 48.7548 278.352 48.4038 277.132 48.3028L276.612 48.2598ZM318.011 48.2598C317.891 48.1118 317.911 47.8248 318.061 47.7398C318.721 47.7828 319.471 47.8028 320.471 47.8028C321.421 47.8028 322.161 47.7828 322.681 47.7398C322.871 47.8028 322.871 48.1348 322.741 48.2598L322.471 48.3028C321.751 48.4038 321.601 48.5078 321.601 48.6758C321.601 48.8808 322.141 50.0648 322.251 50.2728C322.423 50.6196 322.596 50.9716 322.769 51.3253C323.362 52.5356 323.965 53.7664 324.591 54.8768C325.231 53.7758 325.921 52.5738 326.541 51.3708L326.666 51.1391C327.226 50.0992 327.891 48.8625 327.891 48.6328C327.891 48.5078 327.521 48.3638 327.011 48.3028L326.641 48.2598C326.501 48.1118 326.521 47.8248 326.681 47.7398C327.431 47.7828 328.041 47.8028 328.671 47.8028C329.321 47.8028 329.901 47.7828 330.601 47.7398C330.771 47.8448 330.791 48.1348 330.651 48.2598L330.061 48.3628C329.105 48.5299 328.5 49.5921 327.648 51.09C327.546 51.2683 327.441 51.4529 327.331 51.6428L326.021 53.8998C325.111 55.4788 325.041 55.6658 325.041 57.2598V58.3398C325.041 60.5558 325.171 60.8878 326.291 60.9708L327.081 61.0348C327.211 61.1598 327.161 61.4878 327.041 61.5508C325.751 61.5098 325.041 61.4878 324.221 61.4878C323.341 61.4878 322.601 61.5098 321.501 61.5508C321.371 61.4878 321.331 61.1598 321.461 61.0348L322.101 60.9708C323.301 60.8458 323.341 60.5558 323.341 58.3398V57.2788C323.341 56.1378 323.281 55.8708 322.681 54.7108L320.241 49.9378C319.531 48.5698 319.221 48.4648 318.591 48.3628L318.011 48.2598ZM241.182 51.5798C241.182 49.9388 240.162 48.3848 237.862 48.3848C236.572 48.3848 236.512 48.4658 236.512 49.0468V53.8998V53.9001C236.512 54.2729 236.512 54.5008 236.572 54.5858C236.642 54.6478 236.952 54.6878 238.012 54.6878C238.762 54.6878 239.542 54.6058 240.142 54.1478C240.702 53.7128 241.182 52.9888 241.182 51.5798ZM21.8644 37.715C22.9569 37.9525 24.0331 38.2725 25.0844 38.6775C24.6581 39.4075 24.1344 40.07 23.5281 40.6488C22.6831 40.3325 21.8181 40.0875 20.9444 39.9063C21.3206 39.2038 21.6306 38.4713 21.8644 37.715ZM13.6231 39.91C12.7481 40.0888 11.8894 40.3363 11.0506 40.6488C10.4456 40.07 9.92061 39.4075 9.49436 38.6775C10.5419 38.275 11.6106 37.9538 12.7006 37.7188C12.9319 38.4713 13.2431 39.2038 13.6231 39.91ZM12.7006 30.52C11.6106 30.2838 10.5419 29.9638 9.49436 29.56C9.92061 28.8338 10.4456 28.1712 11.0506 27.5912C11.8894 27.9062 12.7481 28.15 13.6206 28.3325C13.2431 29.0363 12.9319 29.7675 12.7006 30.52ZM20.9444 28.3363C21.8231 28.1538 22.6831 27.9062 23.5281 27.5912C24.1344 28.1712 24.6581 28.8338 25.0844 29.56C24.0331 29.9663 22.9569 30.2875 21.8644 30.5213C21.6306 29.7688 21.3244 29.04 20.9444 28.3363ZM25.4806 30.3188C25.9644 31.3538 26.2506 32.4938 26.3056 33.6938H22.4069C22.3794 32.8988 22.2744 32.1113 22.0944 31.3438C23.2431 31.0938 24.3769 30.7525 25.4806 30.3188ZM25.4806 37.9188C24.3769 37.4875 23.2431 37.145 22.0944 36.8962C22.2744 36.13 22.3794 35.3388 22.4069 34.545H26.3056C26.2506 35.7463 25.9644 36.885 25.4806 37.9188ZM21.5569 34.545C21.5306 35.285 21.4269 36.015 21.2594 36.73C20.0956 36.52 18.9119 36.4075 17.7144 36.3838V34.545H21.5569ZM21.0244 37.5513C20.7806 38.3075 20.4606 39.0438 20.0644 39.745C19.2869 39.625 18.4994 39.5563 17.7144 39.5375V37.2363C18.8331 37.2575 19.9356 37.3638 21.0244 37.5513ZM22.7819 41.2838C21.5819 42.2038 20.1506 42.8288 18.5844 43.0575C19.3231 42.3263 19.9606 41.53 20.4969 40.6813C21.2681 40.8275 22.0356 41.0288 22.7819 41.2838ZM17.7144 40.3863C18.3356 40.405 18.9569 40.4488 19.5706 40.5313C19.0481 41.315 18.4256 42.0438 17.7144 42.71V40.3863ZM11.7969 41.2838C12.5406 41.03 13.2994 40.83 14.0681 40.6838C14.6044 41.53 15.2419 42.325 15.9781 43.0538C14.4181 42.8263 12.9894 42.2 11.7969 41.2838ZM16.8619 42.7238C16.1444 42.055 15.5194 41.32 14.9919 40.535C15.6119 40.4538 16.2394 40.405 16.8619 40.3863V42.7238ZM14.5031 39.7463C14.1056 39.0463 13.7856 38.3112 13.5456 37.5537C14.6344 37.3662 15.7419 37.2575 16.8619 37.2363V39.5375C16.0731 39.5563 15.2856 39.625 14.5031 39.7463ZM16.8619 36.3838C15.6619 36.4075 14.4756 36.52 13.3081 36.73C13.1344 36.0175 13.0381 35.285 13.0069 34.545H16.8619V36.3838ZM9.09561 37.9188C8.61311 36.885 8.32687 35.7475 8.27312 34.545H12.1581C12.1844 35.34 12.2906 36.13 12.4719 36.8975C11.3231 37.1463 10.1981 37.4875 9.09561 37.9188ZM9.09561 30.3188C10.1981 30.7513 11.3231 31.0925 12.4719 31.3438C12.2906 32.11 12.1844 32.8988 12.1581 33.6938H8.27312C8.32687 32.4938 8.61311 31.3538 9.09561 30.3188ZM13.0069 33.6938C13.0344 32.955 13.1344 32.2238 13.3056 31.5075C14.4744 31.7163 15.6619 31.8325 16.8619 31.8538V33.6938H13.0069ZM13.5419 30.6838C13.7856 29.9275 14.1019 29.1938 14.5006 28.495C15.2769 28.6175 16.0681 28.6863 16.8619 28.7063V31.0038C15.7419 30.9813 14.6344 30.8725 13.5419 30.6838ZM11.7969 26.9538C12.9894 26.0375 14.4181 25.4113 15.9781 25.185C15.2419 25.9113 14.6044 26.71 14.0681 27.5537C13.2994 27.41 12.5406 27.2088 11.7969 26.9538ZM16.8619 27.85C16.2394 27.8362 15.6119 27.7875 14.9919 27.7038C15.5194 26.9188 16.1444 26.1825 16.8619 25.5175V27.85ZM22.7819 26.9538C22.0356 27.2088 21.2681 27.41 20.4969 27.5563C19.9606 26.71 19.3231 25.9088 18.5844 25.1838C20.1506 25.4088 21.5819 26.0338 22.7819 26.9538ZM17.7144 25.53C18.4256 26.1925 19.0481 26.9263 19.5719 27.705C18.9569 27.79 18.3356 27.8362 17.7144 27.85V25.53ZM20.0681 28.4963C20.4644 29.195 20.7844 29.9288 21.0244 30.6863C19.9356 30.8725 18.8331 30.9813 17.7144 31.0038V28.7063C18.5044 28.6863 19.2931 28.6175 20.0681 28.4963ZM21.5569 33.6938H17.7144V31.8538C18.9119 31.8325 20.0956 31.7163 21.2594 31.5113C21.4281 32.225 21.5306 32.955 21.5569 33.6938ZM7.39689 34.1188C7.39689 28.665 11.8344 24.2275 17.2881 24.2275C22.7431 24.2275 27.1806 28.665 27.1806 34.1188C27.1806 39.575 22.7431 44.0125 17.2881 44.0125C11.8344 44.0125 7.39689 39.575 7.39689 34.1188ZM1.79688 22.1863C10.6694 20.3013 19.7706 19.3238 28.8856 19.2388V63.2812C21.1919 59.0325 5.70813 46.9663 1.79688 22.1863Z" fill="black"/>
</svg>
