<?xml version="1.0" encoding="utf-8"?>
<!-- Generator: Adobe Illustrator 21.1.0, SVG Export Plug-In . SVG Version: 6.00 Build 0)  -->
<svg version="1.1" id="Layer_1" xmlns="http://www.w3.org/2000/svg" xmlns:xlink="http://www.w3.org/1999/xlink" x="0px" y="0px"
	 viewBox="0 0 216.5 218" style="enable-background:new 0 0 216.5 218;" xml:space="preserve">
<title>Artboard 2</title>
<polygon points="216.5,0 216.5,216.5 141.5,216.5 141.5,202.4 202.4,202.4 202.4,14.1 14.1,14.1 14.1,146.5 0,146.5 0,0 "/>
<path d="M72.9,217.2H60.2c-1.2,0.1-2.4-0.3-3.5-1c-0.9-0.7-1.6-1.5-2-2.6l-4.2-12.3H23.7l-4.2,12.3c-0.4,1-1.1,1.8-1.9,2.4
	c-1,0.7-2.2,1.1-3.4,1.1H1.4l27.4-70.7h16.8L72.9,217.2z M46.9,190.2l-6.6-19.4c-0.5-1.2-1-2.7-1.5-4.3s-1.1-3.5-1.7-5.4
	c-0.5,2-1,3.8-1.5,5.5c-0.5,1.7-1.1,3.1-1.5,4.4l-6.5,19.3L46.9,190.2z"/>
<path d="M91.8,172.2c1.9-1.8,4-3.3,6.4-4.4c2.4-1.1,5.1-1.7,7.7-1.7c5.4-0.1,10.5,2.4,13.7,6.7c1.7,2.3,3,5,3.8,7.8
	c0.9,3.3,1.4,6.7,1.3,10.2c0,3.8-0.5,7.5-1.6,11.2c-0.9,3.1-2.4,6-4.4,8.6c-1.8,2.3-4.1,4.2-6.8,5.5c-2.7,1.3-5.7,2-8.7,2
	c-1.4,0-2.7-0.1-4.1-0.4c-1.1-0.3-2.3-0.7-3.3-1.2c-1-0.5-1.9-1.2-2.7-1.9c-0.8-0.8-1.6-1.6-2.4-2.4l-0.5,2.5
	c-0.1,0.8-0.6,1.6-1.3,2.1c-0.7,0.4-1.5,0.6-2.3,0.6h-10v-72.7h15L91.8,172.2z M91.8,203.6c1,1.1,2.3,2,3.7,2.6
	c1.3,0.5,2.6,0.8,4,0.8c1.4,0,2.7-0.3,3.9-0.8c1.2-0.6,2.3-1.5,3.1-2.6c1-1.5,1.6-3.1,2-4.8c0.9-4.5,1-9.2,0.2-13.8
	c-0.3-1.5-0.8-3-1.7-4.3c-0.7-1.1-1.6-1.9-2.7-2.4c-1.2-0.5-2.4-0.8-3.7-0.8c-1.7,0-3.3,0.4-4.8,1.2c-1.5,1-2.9,2.2-4,3.5
	L91.8,203.6z"/>
</svg>
