<svg width="134" height="61" viewBox="0 0 134 61" fill="none" xmlns="http://www.w3.org/2000/svg">
<rect width="134" height="61" fill="white"/>
<path d="M1.79959 19.8001V30.0001V30.1001C1.79959 31.1001 1.99962 38.2001 7.69962 47.2001C13.2996 56.1001 22.6996 59.3001 23.9996 59.8001C25.2996 59.3001 34.6996 56.1001 40.2996 47.2001C45.9996 38.2001 46.1996 31.1001 46.1996 30.1001V20.0001V20.2001L1.8996 20.3001V19.8001H1.79959ZM47.2996 29.6001C47.2996 29.9001 47.5996 37.6001 41.2996 47.4001C34.9996 57.4001 24.5996 60.6001 24.0996 60.7001H23.7996C23.3996 60.6001 12.9996 57.4001 6.69962 47.4001C0.899615 38.4001 0.599609 31.2001 0.599609 29.9001V1.0001H47.1996V29.6001H47.2996ZM22.5996 4.80009C22.4996 4.80009 20.5996 4.5001 18.2996 4.5001C16.4996 4.5001 14.8996 5.00009 14.1996 5.30009C13.4996 5.00009 11.8996 4.5001 10.0996 4.5001C7.79961 4.5001 5.89959 4.80009 5.79959 4.80009L5.59961 4.9001V17.0001L5.8996 16.9001C5.8996 16.9001 7.49959 16.5001 9.79959 16.5001C11.5996 16.5001 13.3996 17.0001 14.0996 17.3001H14.2996C14.9996 17.0001 16.7996 16.5001 18.5996 16.5001C20.8996 16.5001 22.3996 16.9001 22.4996 16.9001L22.7996 17.0001V4.9001L22.5996 4.80009ZM36.2996 13.7001C36.1996 14.4001 35.9996 14.9001 35.6996 15.5001C35.7996 15.7001 36.0996 15.8001 36.2996 16.0001C36.7996 15.3001 37.0996 14.4001 37.0996 13.5001C36.7996 13.6001 36.5996 13.7001 36.2996 13.7001ZM35.2996 4.20011C32.8996 4.20011 30.8996 6.20011 30.7996 8.70011C31.0996 8.60011 31.2996 8.5001 31.5996 8.4001C31.7996 6.5001 33.3996 5.10011 35.2996 5.10011C37.3996 5.10011 38.9996 6.70011 38.9996 8.70011C38.9996 10.8001 37.3996 12.4001 35.2996 12.4001H34.9996C34.9996 12.7001 34.8996 13.0001 34.8996 13.2001L35.2996 13.3001C37.7996 13.3001 39.7996 11.2001 39.7996 8.70011C39.7996 6.30011 37.7996 4.20011 35.2996 4.20011ZM37.9996 8.9001C37.1996 8.9001 36.4996 9.1001 35.7996 9.5001C35.9996 9.6001 36.2996 9.80011 36.3996 10.1001C36.8996 9.80011 37.4996 9.70011 37.9996 9.70011H38.2996C38.3996 9.50011 38.3996 9.2001 38.3996 8.9001H37.9996V8.9001ZM32.5996 17.9001C33.3996 17.9001 34.0996 17.7001 34.7996 17.3001C34.5996 17.2001 34.3996 17.0001 34.1996 16.7001C33.6996 17.0001 33.1996 17.1001 32.5996 17.1001C30.5996 17.1001 28.8996 15.4001 28.8996 13.4001C28.8996 11.4001 30.5996 9.70011 32.5996 9.70011C33.9996 9.70011 35.2996 10.5001 35.8996 11.8001C36.1996 11.8001 36.4996 11.7001 36.6996 11.5001C35.9996 9.9001 34.3996 8.9001 32.5996 8.9001C31.3996 8.9001 30.2996 9.40011 29.3996 10.2001C28.4996 11.0001 28.0996 12.2001 28.0996 13.4001C28.0996 14.6001 28.5996 15.7001 29.3996 16.6001C30.2996 17.4001 31.3996 17.9001 32.5996 17.9001ZM31.9996 10.3001C31.6996 10.4001 31.3996 10.5001 31.1996 10.6001C31.5996 11.5001 32.1996 12.2001 32.9996 12.6001C32.9996 12.3001 33.0996 12.1001 33.1996 11.8001C32.6996 11.4001 32.2996 10.9001 31.9996 10.3001ZM37.9996 17.9001C39.1996 17.9001 40.2996 17.4001 41.1996 16.6001C41.9996 15.8001 42.4996 14.6001 42.4996 13.4001C42.4996 11.8001 41.6996 10.3001 40.2996 9.5001C40.2996 9.8001 40.1996 10.1001 40.0996 10.4001C41.0996 11.1001 41.6996 12.2001 41.6996 13.4001C41.6996 15.4001 40.0996 17.1001 37.9996 17.1001C35.9996 17.1001 34.2996 15.4001 34.2996 13.4001C34.2996 12.7001 34.4996 12.0001 34.9996 11.3001C34.7996 11.1001 34.5996 11.0001 34.2996 10.8001C33.7996 11.6001 33.4996 12.5001 33.4996 13.4001C33.4996 14.6001 33.9996 15.7001 34.7996 16.6001C35.5996 17.5001 36.7996 17.9001 37.9996 17.9001ZM13.8996 5.9001V14.9001C12.9996 14.6001 11.3996 14.3001 9.8996 14.3001C8.6996 14.3001 7.39962 14.4001 6.19962 14.6001V5.4001C6.79962 5.3001 8.29961 5.10011 10.0996 5.10011C11.6996 5.10011 13.1996 5.6001 13.8996 5.9001ZM18.2996 5.10011C20.0996 5.10011 21.5996 5.3001 22.1996 5.4001V14.6001C21.5996 14.5001 20.2996 14.3001 18.5996 14.3001C16.9996 14.3001 15.3996 14.6001 14.4996 14.9001V5.9001C15.1996 5.6001 16.6996 5.10011 18.2996 5.10011ZM7.8996 6.70011C7.6996 6.70011 7.59961 6.90011 7.59961 7.10011C7.69961 7.30011 7.89962 7.4001 8.19962 7.4001C8.19962 7.4001 9.29959 7.10011 10.2996 7.10011C11.1996 7.10011 12.1996 7.60011 12.1996 7.60011C12.4996 7.60011 12.6996 7.50009 12.7996 7.30009C12.8996 7.20009 12.7996 6.9001 12.4996 6.9001C12.4996 6.9001 11.3996 6.4001 10.2996 6.4001C9.19959 6.4001 7.9996 6.60011 7.8996 6.70011ZM7.8996 8.5001C7.6996 8.5001 7.59961 8.7001 7.59961 8.9001C7.69961 9.1001 7.89962 9.20011 8.19962 9.20011C8.19962 9.20011 9.29959 9.0001 10.2996 9.0001C11.1996 9.0001 12.1996 9.4001 12.1996 9.4001C12.4996 9.4001 12.6996 9.30011 12.7996 9.20011C12.8996 9.00011 12.7996 8.80011 12.4996 8.70011C12.4996 8.70011 11.3996 8.20011 10.2996 8.20011C9.19959 8.20011 7.9996 8.5001 7.8996 8.5001ZM7.8996 10.3001C7.6996 10.3001 7.59961 10.5001 7.59961 10.7001C7.69961 10.9001 7.89962 11.0001 8.19962 11.0001C8.19962 11.0001 9.29959 10.8001 10.2996 10.8001C11.1996 10.8001 12.1996 11.2001 12.1996 11.2001C12.4996 11.3001 12.6996 11.2001 12.7996 11.0001C12.8996 10.8001 12.7996 10.6001 12.4996 10.5001C12.4996 10.5001 11.3996 10.0001 10.2996 10.0001C9.19959 10.0001 7.9996 10.3001 7.8996 10.3001ZM7.8996 12.1001C7.6996 12.2001 7.59961 12.4001 7.59961 12.6001C7.69961 12.8001 7.89962 12.9001 8.19962 12.8001C8.19962 12.8001 9.29959 12.6001 10.2996 12.6001C11.1996 12.6001 12.1996 13.0001 12.1996 13.0001C12.4996 13.1001 12.6996 13.0001 12.7996 12.8001C12.8996 12.6001 12.7996 12.4001 12.4996 12.3001C12.4996 12.3001 11.3996 11.9001 10.2996 11.9001C9.19959 11.9001 7.9996 12.1001 7.8996 12.1001ZM20.4996 6.70011C20.4996 6.60011 19.2996 6.4001 18.0996 6.4001C17.0996 6.4001 15.9996 6.9001 15.8996 6.9001C15.6996 6.9001 15.5996 7.20009 15.6996 7.30009C15.7996 7.50009 15.9996 7.60011 16.1996 7.60011C16.1996 7.60011 17.1996 7.10011 18.0996 7.10011C19.0996 7.10011 20.2996 7.4001 20.2996 7.4001C20.4996 7.4001 20.7996 7.30011 20.7996 7.10011C20.8996 6.90011 20.7996 6.70011 20.4996 6.70011ZM20.4996 8.5001C20.4996 8.5001 19.2996 8.20011 18.0996 8.20011C17.0996 8.20011 15.9996 8.70011 15.8996 8.70011C15.6996 8.80011 15.5996 9.00011 15.6996 9.20011C15.7996 9.30011 15.9996 9.4001 16.1996 9.4001C16.1996 9.4001 17.1996 9.0001 18.0996 9.0001C19.0996 9.0001 20.2996 9.20011 20.2996 9.20011C20.4996 9.20011 20.7996 9.1001 20.7996 8.9001C20.8996 8.7001 20.7996 8.5001 20.4996 8.5001ZM20.4996 10.3001C20.4996 10.3001 19.2996 10.0001 18.0996 10.0001C17.0996 10.0001 15.9996 10.5001 15.8996 10.5001C15.6996 10.6001 15.5996 10.8001 15.6996 11.0001C15.7996 11.2001 15.9996 11.3001 16.1996 11.2001C16.1996 11.2001 17.1996 10.8001 18.0996 10.8001C19.0996 10.8001 20.2996 11.0001 20.2996 11.0001C20.4996 11.0001 20.7996 10.9001 20.7996 10.7001C20.8996 10.5001 20.7996 10.3001 20.4996 10.3001ZM20.4996 12.1001C20.4996 12.1001 19.2996 11.9001 18.0996 11.9001C17.0996 11.9001 15.9996 12.3001 15.8996 12.3001C15.6996 12.4001 15.5996 12.6001 15.6996 12.8001C15.7996 13.0001 15.9996 13.1001 16.1996 13.0001C16.1996 13.0001 17.1996 12.6001 18.0996 12.6001C19.0996 12.6001 20.2996 12.8001 20.2996 12.8001C20.4996 12.9001 20.7996 12.8001 20.7996 12.6001C20.8996 12.4001 20.7996 12.2001 20.4996 12.1001ZM44.1996 28.1001C44.2996 28.4001 44.2996 28.7001 44.2996 28.9001C44.2996 29.5001 44.0996 30.1001 43.6996 30.5001C42.4996 32.1001 39.2996 32.5001 37.5996 32.6001C37.7996 33.2001 37.9996 34.1001 37.9996 35.4001V37.3001C37.9996 38.5001 38.0996 39.6001 38.5996 40.2001C38.9996 40.7001 39.2996 40.8001 39.4996 40.9001C39.6996 41.1001 39.7996 41.1001 39.8996 41.4001C40.0996 41.5001 40.3996 41.5001 40.5996 41.6001C40.8996 41.8001 41.3996 42.1001 41.3996 42.1001C41.3996 42.1001 40.6996 42.3001 40.3996 42.5001L39.5996 43.1001C39.9996 43.2001 40.1996 43.6001 40.1996 43.6001L38.6996 44.5001C38.5996 44.6001 38.4996 44.7001 38.2996 44.8001C37.9996 45.4001 37.6996 46.1001 37.4996 46.7001C37.2996 47.0001 36.7996 48.3001 36.6996 48.5001C36.3996 48.9001 36.0996 49.1001 35.4996 49.2001L34.6996 49.4001C33.4996 49.8001 32.5996 50.0001 32.1996 49.6001C32.0996 49.6001 31.9996 49.5001 31.9996 49.4001C31.6996 49.5001 31.3996 49.7001 31.3996 49.7001C31.3996 49.7001 31.3996 49.5001 31.6996 49.1001C31.5996 48.9001 31.4996 48.8001 31.3996 48.7001H31.2996C31.0996 48.7001 30.6996 49.0001 30.6996 49.0001C30.6996 49.0001 30.6996 48.7001 30.8996 48.4001C30.9996 48.3001 30.9996 48.2001 31.0996 48.2001C30.9996 48.1001 30.9996 48.0001 30.9996 47.9001H30.8996C30.4996 47.9001 30.2996 48.1001 30.2996 48.1001C30.2996 48.1001 30.1996 47.9001 30.4996 47.5001C30.6996 47.4001 30.8996 47.3001 31.0996 47.2001L31.2996 47.0001C31.5996 46.7001 32.0996 46.6001 32.7996 46.6001H34.4996C34.6996 46.2001 35.0996 45.4001 35.3996 44.6001C35.6996 43.6001 35.9996 42.7001 36.0996 42.4001C35.6996 41.9001 33.9996 40.1001 33.9996 40.1001C33.3996 39.5001 33.0996 39.0001 32.8996 38.8001C32.5996 39.4001 32.0996 40.6001 32.3996 41.1001C32.5996 41.4001 32.6996 41.6001 32.6996 41.8001C32.8996 41.8001 33.0996 41.9001 33.1996 41.9001C33.5996 42.1001 33.9996 42.4001 33.9996 42.4001C33.9996 42.4001 33.3996 42.6001 32.9996 42.8001C32.5996 43.0001 32.1996 43.5001 32.1996 43.5001C32.5996 43.5001 32.7996 43.9001 32.7996 43.9001C32.7996 43.9001 31.7996 44.4001 31.3996 44.7001L30.8996 45.2001C30.7996 45.5001 30.5996 45.7001 30.4996 45.9001C30.3996 46.1001 30.2996 46.4001 30.1996 46.6001L29.8996 47.1001C29.6996 47.5001 29.2996 47.7001 28.6996 47.8001L27.8996 48.1001C26.6996 48.4001 25.7996 48.6001 25.3996 48.3001L25.0996 48.0001C24.8996 48.0001 24.4996 48.3001 24.4996 48.3001C24.4996 48.3001 24.4996 48.1001 24.6996 47.7001C24.7996 47.7001 24.7996 47.6001 24.7996 47.6001C24.6996 47.5001 24.6996 47.4001 24.5996 47.3001C24.2996 47.3001 23.8996 47.6001 23.8996 47.6001C23.8996 47.6001 23.8996 47.4001 24.0996 47.0001C24.1996 46.9001 24.1996 46.8001 24.2996 46.8001C24.1996 46.7001 24.1996 46.5001 24.1996 46.5001H24.0996C23.7996 46.5001 23.3996 46.7001 23.3996 46.7001C23.3996 46.7001 23.3996 46.5001 23.6996 46.1001C23.7996 45.9001 24.0996 45.8001 24.3996 45.8001C24.3996 45.7001 24.4996 45.7001 24.4996 45.7001C24.7996 45.3001 25.2996 45.2001 25.9996 45.2001C26.3996 45.3001 27.3996 45.2001 27.7996 45.2001C27.9996 44.7001 28.5996 43.3001 28.5996 43.3001L28.7996 42.9001C28.8996 42.5001 29.2996 41.8001 29.2996 41.6001C29.2996 41.5001 29.1996 41.5001 29.1996 41.5001C28.5996 40.9001 27.8996 39.9001 27.2996 39.2001L26.7996 38.2001C26.3996 38.3001 26.0996 38.4001 25.6996 38.5001C26.0996 38.8001 26.1996 39.1001 26.1996 39.5001C25.4996 39.3001 24.7996 39.3001 23.7996 39.9001C23.5996 40.1001 23.4996 40.2001 23.2996 40.2001C23.6996 40.5001 23.9996 41.0001 23.9996 41.0001C23.9996 41.0001 23.2996 41.1001 22.6996 41.4001C22.1996 41.6001 21.5996 42.2001 21.5996 42.2001C22.0996 42.3001 22.3996 42.8001 22.3996 42.8001C22.3996 42.8001 21.1996 43.4001 20.5996 43.8001C20.1996 44.0001 19.6996 44.5001 19.2996 44.8001C18.7996 45.6001 18.3996 46.2001 18.3996 46.2001C17.9996 46.8001 17.8996 47.1001 17.6996 47.7001L17.5996 47.9001C17.5996 48.2001 17.4996 48.3001 17.3996 48.5001C17.1996 48.9001 16.7996 49.1001 16.1996 49.2001L15.3996 49.4001C13.9996 49.8001 12.9996 50.0001 12.4996 49.7001C12.3996 49.6001 12.2996 49.5001 12.2996 49.4001C11.9996 49.5001 11.6996 49.7001 11.6996 49.7001C11.6996 49.7001 11.6996 49.5001 11.8996 49.1001C11.8996 49.0001 11.8996 49.0001 11.9996 49.0001C11.7996 48.9001 11.6996 48.7001 11.5996 48.6001C11.3996 48.6001 10.9996 48.8001 10.9996 48.8001C10.9996 48.8001 10.9996 48.6001 11.2996 48.2001L11.3996 48.1001C11.2996 48.0001 11.2996 47.9001 11.2996 47.8001V47.7001H11.1996C10.8996 47.7001 10.4996 48.0001 10.4996 48.0001C10.4996 48.0001 10.4996 47.7001 10.7996 47.4001C10.9996 47.2001 11.1996 47.1001 11.4996 47.1001C11.5996 47.1001 11.5996 47.0001 11.5996 47.0001C11.8996 46.7001 12.4996 46.5001 13.1996 46.6001C13.4996 46.6001 14.3996 46.5001 14.8996 46.5001C15.0996 46.2001 15.3996 45.5001 15.7996 44.2001C16.0996 43.0001 16.3996 41.5001 16.5996 40.7001C16.1996 40.3001 15.4996 39.3001 15.3996 39.1001C14.9996 38.2001 15.0996 37.8001 15.0996 37.3001H14.8996C14.6996 37.6001 14.1996 37.9001 14.0996 38.3001C13.7996 37.9001 13.5996 37.6001 13.4996 37.3001C12.7996 37.6001 11.3996 38.1001 10.8996 37.8001C10.6996 38.0001 10.4996 38.4001 10.2996 38.6001C9.79959 39.0001 9.19962 39.3001 9.19962 39.3001C9.19962 39.3001 9.2996 38.5001 9.3996 38.0001C9.3996 37.2001 9.19962 36.5001 9.19962 36.5001C8.89962 36.9001 8.29959 37.0001 8.29959 37.0001C8.29959 37.0001 8.39959 35.9001 8.29959 34.9001C8.19959 34.4001 8.0996 33.7001 7.9996 33.2001C7.8996 33.1001 7.79959 32.9001 7.79959 32.8001C7.19959 31.9001 6.79962 31.1001 6.69962 31.0001C6.49962 30.7001 6.09959 30.1001 5.79959 29.4001C5.69959 29.3001 4.8996 28.7001 4.8996 28.7001C4.5996 28.4001 4.3996 28.0001 4.3996 27.6001C4.3996 27.4001 4.3996 27.3001 4.4996 27.1001H4.59961C4.49961 27.1001 4.4996 27.0001 4.4996 27.0001C4.2996 26.8001 3.8996 26.7001 3.8996 26.7001C3.8996 26.7001 3.9996 26.5001 4.4996 26.5001V26.4001C4.4996 26.0001 4.59959 25.8001 4.79959 25.5001C4.59959 25.4001 4.29959 25.2001 4.29959 25.2001C4.29959 25.2001 4.4996 25.1001 4.9996 25.2001H5.09961C5.09961 25.1001 5.19962 25.1001 5.19962 25.0001H5.29959C5.29959 25.0001 5.3996 24.9001 5.4996 24.9001C5.4996 24.8001 5.4996 24.7001 5.3996 24.7001C5.2996 24.4001 4.8996 24.1001 4.8996 24.1001C4.8996 24.1001 5.19961 24.0001 5.59961 24.2001C5.79961 24.2001 5.99962 24.5001 6.19962 24.7001H6.69962C7.09962 24.8001 7.29961 25.5001 7.59961 26.4001V26.7001L7.79959 27.2001C7.99959 27.8001 8.2996 28.8001 8.3996 28.9001C8.7996 29.4001 9.49962 30.0001 10.1996 30.6001C10.0996 30.0001 10.1996 29.6001 10.6996 29.1001C10.0996 29.3001 9.29961 28.7001 9.09961 28.3001C9.09961 28.3001 10.1996 28.0001 10.1996 27.4001C10.1996 27.3001 9.49962 27.4001 9.19962 26.4001C9.89962 26.0001 9.6996 25.9001 9.9996 25.4001C10.3996 25.0001 10.7996 24.7001 11.2996 24.8001C11.1996 24.8001 11.0996 24.8001 10.8996 24.6001C10.4996 24.5001 10.2996 24.0001 9.9996 24.1001C10.5996 23.1001 12.2996 22.9001 13.0996 23.2001C12.8996 22.9001 12.5996 22.7001 12.5996 22.4001C13.4996 22.6001 14.4996 22.1001 15.3996 22.3001C16.1996 22.5001 16.5996 22.8001 16.8996 23.5001C17.1996 22.8001 17.5996 22.5001 18.3996 22.3001C19.3996 22.1001 20.2996 22.6001 21.1996 22.4001C21.1996 22.7001 20.8996 22.9001 20.7996 23.2001C21.4996 22.9001 23.1996 23.1001 23.7996 24.1001C23.4996 24.0001 23.2996 24.5001 22.8996 24.6001C22.6996 24.8001 22.6996 24.7001 22.4996 24.8001C22.9996 24.7001 23.4996 25.0001 23.7996 25.4001C24.0996 25.9001 23.8996 26.0001 24.5996 26.4001C24.2996 27.4001 23.5996 27.3001 23.5996 27.4001C23.5996 28.0001 24.6996 28.3001 24.6996 28.3001C24.4996 28.7001 23.6996 29.3001 23.0996 29.1001C23.3996 29.4001 23.5996 29.7001 23.5996 30.0001C24.3996 30.3001 25.3996 30.5001 26.5996 30.6001C28.9996 30.9001 30.3996 30.8001 31.8996 30.7001C32.5996 30.6001 33.3996 30.5001 34.1996 30.5001C35.4996 30.6001 36.4996 30.8001 36.6996 30.8001C38.0996 30.7001 41.4996 30.5001 42.3996 29.5001C42.4996 29.3001 42.5996 29.1001 42.5996 28.9001C42.5996 28.8001 42.5996 28.7001 42.4996 28.6001C42.4996 28.3001 42.2996 28.1001 42.0996 27.9001C41.0996 27.4001 38.7996 28.2001 37.9996 28.5001C36.9996 28.8001 36.3996 29.0001 34.6996 29.3001C33.1996 29.5001 28.7996 29.9001 27.1996 28.6001C26.6996 28.2001 26.3996 27.6001 26.2996 26.9001C26.1996 26.0001 26.4996 25.3001 26.9996 24.8001C27.5996 24.1001 28.5996 23.8001 30.2996 23.8001C30.9996 23.8001 31.9996 23.9001 33.3996 24.0001C33.7996 23.6001 34.8996 22.8001 36.1996 22.9001C37.8996 22.9001 37.7996 23.2001 38.6996 23.3001C39.4996 23.3001 40.3996 23.0001 40.3996 23.0001C40.3996 23.0001 40.2996 23.3001 40.0996 23.5001C39.8996 23.7001 39.5996 23.8001 39.5996 23.8001C39.5996 23.8001 40.4996 23.7001 41.1996 23.8001C41.9996 23.9001 42.6996 24.7001 42.6996 24.7001C42.6996 24.7001 41.8996 24.6001 41.1996 24.7001C40.4996 24.9001 40.0996 25.3001 39.2996 25.3001C38.6996 25.3001 38.2996 25.1001 38.2996 25.1001C38.2996 25.1001 38.2996 25.4001 38.4996 25.6001C38.7996 25.8001 39.1996 25.9001 39.1996 25.9001C39.1996 25.9001 37.0996 26.6001 35.1996 26.1001C33.8996 25.9001 33.4996 25.5001 33.2996 25.3001L30.2996 25.2001C29.1996 25.2001 28.3996 25.4001 28.0996 25.7001C27.9996 25.9001 27.7996 26.4001 27.7996 26.8001C27.8996 27.0001 27.9996 27.3001 28.1996 27.4001C29.3996 28.4001 33.1996 28.0001 34.3996 27.8001C35.8996 27.5001 36.2996 27.4001 37.6996 27.0001C39.3996 26.3001 41.3996 25.8001 42.9996 26.6001C43.5996 26.9001 43.9996 27.3001 44.1996 28.1001ZM20.2996 26.8001C20.4996 26.6001 21.1996 26.1001 20.7996 25.5001C20.4996 24.8001 19.5996 25.1001 19.3996 25.2001C19.3996 25.1001 17.4996 24.3001 17.4996 24.3001L16.7996 25.2001C16.7996 25.2001 15.9996 24.3001 16.0996 24.3001C15.9996 24.3001 14.1996 25.1001 14.1996 25.2001C13.8996 25.1001 13.0996 24.8001 12.6996 25.5001C12.3996 26.1001 12.9996 26.6001 13.2996 26.8001L12.6996 27.9001L14.3996 30.0001V31.3001L15.0996 31.8001C15.2996 32.3001 15.2996 32.6001 15.3996 32.9001C15.4996 33.0001 16.0996 33.1001 16.6996 33.2001H16.7996C17.3996 33.1001 18.0996 33.0001 18.0996 32.9001C18.1996 32.6001 18.2996 32.3001 18.3996 31.8001L19.0996 31.3001V30.0001L20.8996 27.9001L20.2996 26.8001ZM14.2996 26.9001H15.8996L15.7996 27.8001L14.2996 26.9001ZM17.8996 27.8001C17.8996 27.9001 18.0996 30.0001 18.0996 30.0001L16.9996 30.6001V31.4001C16.9996 31.4001 17.1996 31.6001 17.3996 31.6001C17.7996 31.8001 18.1996 31.7001 18.1996 31.7001H18.2996L18.1996 32.0001C18.0996 32.0001 17.6996 32.1001 17.3996 32.0001C17.1996 31.9001 16.9996 31.8001 16.8996 31.7001H16.6996C16.5996 31.7001 16.4996 31.9001 16.1996 32.0001C15.7996 32.1001 15.3996 32.0001 15.3996 32.0001H15.2996V31.7001H15.3996C15.3996 31.7001 15.6996 31.8001 16.0996 31.6001C16.2996 31.6001 16.4996 31.4001 16.5996 31.4001V30.6001C16.4996 30.6001 15.3996 29.8001 15.3996 29.8001H17.4996V26.9001H19.3996C19.3996 26.9001 17.9996 27.8001 17.8996 27.8001ZM31.9996 42.2001C32.1996 42.0001 32.2996 41.9001 32.2996 41.7001C32.2996 41.6001 32.1996 41.5001 32.0996 41.2001C31.8996 41.0001 31.8996 40.8001 31.8996 40.5001C31.8996 39.7001 32.3996 38.7001 32.6996 38.3001C32.5996 38.2001 32.4996 38.1001 32.3996 38.0001L32.2996 37.9001C32.0996 37.8001 31.6996 37.5001 31.4996 37.1001C31.4996 37.1001 31.3996 37.1001 31.3996 37.0001C30.8996 37.0001 29.7996 37.0001 28.6996 37.3001C28.9996 37.5001 29.0996 37.8001 29.0996 38.1001C28.4996 37.9001 27.7996 37.9001 27.1996 38.0001C27.3996 38.3001 27.5996 38.7001 27.6996 38.8001C28.1996 39.5001 28.8996 40.5001 29.4996 41.1001C29.5996 41.2001 29.6996 41.3001 29.6996 41.5001C29.6996 41.8001 29.3996 42.4001 29.0996 43.0001L28.9996 43.4001L28.0996 45.5001H27.9996C27.8996 45.5001 26.4996 45.6001 25.9996 45.6001C25.4996 45.5001 25.0996 45.6001 24.8996 45.8001V46.2001C24.7996 46.3001 24.6996 46.4001 24.6996 46.4001V46.5001C24.9996 46.4001 25.1996 46.4001 25.1996 46.4001C25.1996 46.4001 25.3996 46.6001 25.2996 46.8001C25.2996 47.0001 25.1996 47.1001 25.0996 47.2001C25.0996 47.2001 25.1996 47.2001 25.1996 47.3001C25.4996 47.1001 25.7996 47.1001 25.7996 47.1001C25.7996 47.1001 25.9996 47.4001 25.9996 47.6001C25.8996 47.8001 25.8996 47.8001 25.7996 47.9001C26.1996 48.0001 27.1996 47.7001 27.7996 47.6001L28.6996 47.3001C29.0996 47.2001 29.3996 47.1001 29.5996 46.8001L29.7996 46.3001C29.8996 46.1001 29.9996 45.8001 30.0996 45.6001C30.3996 45.2001 30.6996 44.5001 30.9996 43.9001C31.3996 43.1001 31.6996 42.5001 31.9996 42.2001ZM13.1996 34.4001C12.8996 34.8001 12.3996 35.0001 11.6996 35.1001C11.7996 34.4001 11.6996 34.0001 11.4996 33.5001C11.2996 33.0001 10.6996 32.2001 10.5996 31.7001C10.4996 31.5001 10.4996 31.4001 10.3996 31.3001C9.4996 30.6001 8.4996 29.8001 7.9996 29.1001C7.8996 29.0001 7.6996 28.4001 7.3996 27.3001L7.19962 26.8001V26.5001C6.89962 25.7001 6.69961 25.2001 6.59961 25.1001H6.3996C6.3996 25.1001 6.2996 25.4001 5.8996 25.3001H5.59961L5.4996 25.4001C5.6996 25.6001 5.8996 25.9001 5.8996 25.9001C5.8996 25.9001 5.7996 26.2001 5.4996 26.3001C5.1996 26.3001 4.9996 26.1001 4.9996 26.1001V25.9001C4.8996 26.1001 4.8996 26.4001 4.8996 26.6001C5.1996 26.8001 5.4996 27.1001 5.4996 27.1001C5.4996 27.1001 5.49962 27.4001 5.19962 27.5001C5.09962 27.6001 4.89959 27.6001 4.79959 27.5001C4.79959 27.8001 4.89962 28.1001 5.19962 28.4001L6.09961 29.1001L6.19962 29.2001C6.49962 29.9001 6.7996 30.5001 6.9996 30.7001C7.0996 30.8001 7.39961 31.3001 8.09961 32.6001C9.19961 34.4001 10.6996 37.0001 11.0996 37.5001C11.1996 37.6001 12.2996 37.4001 13.2996 36.9001C12.9996 35.9001 13.2996 35.3001 13.1996 34.4001ZM43.7996 28.2001C43.5996 27.5001 43.2996 27.2001 42.7996 27.0001C41.3996 26.2001 39.4996 26.8001 37.7996 27.4001C36.3996 27.8001 35.9996 28.0001 34.4996 28.2001C32.8996 28.4001 29.1996 28.9001 27.8996 27.8001C27.6996 27.6001 27.3996 27.1001 27.3996 26.8001C27.3996 26.3001 27.5996 25.7001 27.7996 25.4001C28.1996 25.0001 28.9996 24.8001 30.2996 24.8001H33.3996L33.5996 24.6001L33.3996 24.4001C31.9996 24.3001 30.9996 24.2001 30.2996 24.2001C28.6996 24.2001 27.7996 24.5001 27.2996 25.1001C26.8996 25.5001 26.6996 26.1001 26.6996 26.9001C26.7996 27.4001 26.9996 27.9001 27.4996 28.3001C28.8996 29.4001 32.8996 29.1001 34.5996 28.8001C36.2996 28.5001 36.7996 28.4001 37.7996 28.1001H37.8996C38.7996 27.8001 41.1996 27.0001 42.2996 27.6001C42.5996 27.7001 42.7996 28.0001 42.9996 28.4001C43.0996 29.0001 42.9996 29.4001 42.6996 29.7001C41.6996 31.0001 38.3996 31.1001 36.6996 31.2001H36.5996C36.5996 31.2001 35.5996 31.0001 34.1996 31.0001C33.3996 31.0001 32.6996 31.0001 31.8996 31.1001C30.4996 31.2001 28.9996 31.3001 26.4996 31.0001C25.4996 30.9001 24.5996 30.7001 23.5996 30.5001C23.4996 30.8001 23.3996 31.2001 23.1996 31.7001C23.0996 32.2001 22.4996 33.0001 22.2996 33.5001C22.0996 34.0001 21.9996 34.4001 22.0996 35.1001C21.3996 35.0001 20.8996 34.8001 20.6996 34.4001C20.4996 35.6001 21.0996 36.3001 19.6996 38.3001C19.5996 37.7001 18.7996 37.5001 18.7996 36.9001C18.5996 37.5001 18.9996 37.9001 18.3996 39.1001C18.2996 39.4001 17.3996 40.6001 16.9996 40.9001C16.7996 41.7001 16.4996 43.1001 16.1996 44.3001C15.7996 45.8001 15.3996 46.6001 15.1996 46.8001V46.9001H15.0996C14.5996 47.0001 13.4996 47.0001 13.0996 47.0001C12.6996 47.0001 12.2996 47.0001 11.9996 47.2001C12.0996 47.3001 12.0996 47.5001 11.9996 47.6001C11.8996 47.8001 11.7996 47.8001 11.6996 47.9001H11.7996C12.0996 47.8001 12.3996 47.8001 12.3996 47.8001C12.3996 47.8001 12.4996 48.1001 12.3996 48.4001C12.2996 48.5001 12.2996 48.6001 12.1996 48.6001C12.1996 48.7001 12.2996 48.7001 12.2996 48.8001C12.5996 48.6001 12.9996 48.6001 12.9996 48.6001C12.9996 48.6001 13.1996 48.8001 13.0996 49.2001C12.9996 49.3001 12.9996 49.4001 12.8996 49.4001C13.3996 49.5001 14.5996 49.2001 15.2996 49.0001L16.0996 48.8001C16.5996 48.7001 16.8996 48.6001 17.0996 48.2001C17.0996 48.2001 17.1996 48.0001 17.1996 47.8001L17.2996 47.5001C17.4996 47.0001 17.6996 46.6001 18.0996 46.0001C18.8996 44.6001 21.5996 40.3001 21.6996 39.9001C21.6996 39.6001 21.5996 39.1001 21.4996 38.8001L21.3996 38.6001C21.3996 38.6001 29.8996 36.1001 30.3996 36.0001C30.2996 35.7001 29.8996 35.1001 29.8996 35.1001L30.1996 34.8001C30.1996 34.8001 30.8996 35.3001 31.2996 35.7001C31.5996 36.0001 31.8996 36.5001 32.1996 37.0001L32.3996 37.2001C32.6996 37.8001 33.0996 38.2001 33.0996 38.2001V38.3001C33.0996 38.3001 33.3996 38.8001 34.2996 39.8001L36.4996 42.2001V42.3001C36.4996 42.3001 36.1996 43.5001 35.7996 44.8001C35.4996 45.6001 34.9996 46.5001 34.7996 46.9001V47.0001H32.7996C32.2996 47.0001 31.8996 47.1001 31.6996 47.2001C31.6996 47.4001 31.7996 47.5001 31.6996 47.7001C31.5996 47.8001 31.4996 47.9001 31.3996 47.9001L31.4996 48.0001C31.7996 47.9001 31.9996 47.9001 31.9996 47.9001C31.9996 47.9001 32.1996 48.1001 32.0996 48.4001C32.0996 48.6001 31.9996 48.7001 31.8996 48.7001L31.9996 48.8001C32.2996 48.6001 32.7996 48.6001 32.7996 48.6001C32.7996 48.6001 32.8996 48.8001 32.8996 49.1001C32.7996 49.2001 32.6996 49.3001 32.6996 49.4001C33.0996 49.4001 33.9996 49.2001 34.4996 49.0001L35.3996 48.8001C35.8996 48.7001 36.0996 48.5001 36.2996 48.2001C36.3996 48.1001 36.8996 47.0001 37.0996 46.5001C37.5996 45.2001 38.3996 43.6001 38.8996 42.7001L39.1996 42.2001C39.3996 42.0001 39.4996 41.8001 39.4996 41.6001C39.4996 41.4001 39.4996 41.4001 39.2996 41.3001C39.0996 41.2001 38.7996 41.0001 38.2996 40.5001C37.5996 39.6001 37.5996 38.0001 37.5996 36.5001V35.4001C37.5996 34.0001 37.2996 33.0001 37.1996 32.5001L37.0996 32.2001H37.2996C38.8996 32.1001 42.1996 31.8001 43.3996 30.3001C43.8996 29.7001 43.9996 29.0001 43.7996 28.2001ZM53.9996 35.8001H55.1996L57.9996 40.8001V35.8001H58.8996V42.0001H57.6996L54.8996 36.9001V42.0001H53.9996V35.8001ZM62.9996 40.2001V39.8001H62.3996C61.9996 39.8001 60.7996 39.8001 60.7996 40.6001C60.7996 41.1001 61.2996 41.4001 61.6996 41.4001C62.4996 41.4001 62.9996 40.8001 62.9996 40.2001ZM60.4996 38.5001V37.8001C60.8996 37.6001 61.3996 37.4001 61.9996 37.4001C63.2996 37.4001 63.7996 38.0001 63.7996 39.3001V42.0001H62.9996V41.4001C62.7996 41.7001 62.3996 42.1001 61.5996 42.1001C60.5996 42.1001 59.9996 41.7001 59.9996 40.7001C59.9996 39.6001 61.1996 39.2001 62.0996 39.2001H62.9996C62.9996 38.5001 62.6996 38.1001 61.7996 38.1001C61.3996 38.1001 60.8996 38.2001 60.4996 38.5001ZM67.5996 38.2001H66.3996V40.7001C66.3996 41.2001 66.6996 41.5001 67.0996 41.5001C67.3996 41.5001 67.5996 41.4001 67.6996 41.3001V42.0001C67.4996 42.1001 67.1996 42.1001 66.9996 42.1001C66.0996 42.1001 65.5996 41.7001 65.5996 40.8001V38.2001H64.5996V37.5001H65.5996V36.4001L66.3996 36.2001V37.5001H67.5996V38.2001V38.2001ZM68.7996 41.9001V37.4001H69.5996V41.9001H68.7996ZM68.6996 36.5001V35.5001H69.6996V36.5001H68.6996ZM71.6996 39.7001C71.6996 40.5001 72.1996 41.4001 73.1996 41.4001C74.0996 41.4001 74.5996 40.5001 74.5996 39.7001C74.5996 38.8001 73.9996 38.0001 73.1996 38.0001C72.2996 38.1001 71.6996 38.8001 71.6996 39.7001ZM70.7996 39.7001C70.7996 38.3001 71.7996 37.3001 73.1996 37.3001C74.4996 37.3001 75.4996 38.3001 75.4996 39.7001C75.4996 41.0001 74.4996 42.0001 73.1996 42.0001C71.7996 42.0001 70.7996 41.0001 70.7996 39.7001ZM76.5996 37.5001H77.3996V38.2001C77.6996 37.7001 78.2996 37.4001 78.8996 37.4001C80.0996 37.4001 80.5996 38.1001 80.5996 39.3001V42.0001H79.7996V39.7001C79.7996 38.6001 79.4996 38.1001 78.7996 38.1001C77.7996 38.1001 77.3996 38.8001 77.3996 39.9001V42.0001H76.5996V37.5001ZM84.6996 40.2001V39.8001H84.1996C83.6996 39.8001 82.5996 39.8001 82.5996 40.6001C82.5996 41.1001 83.0996 41.4001 83.4996 41.4001C84.2996 41.4001 84.6996 40.8001 84.6996 40.2001ZM82.2996 38.5001L82.1996 37.8001C82.6996 37.6001 83.1996 37.4001 83.6996 37.4001C84.9996 37.4001 85.5996 38.0001 85.5996 39.3001V42.0001H84.7996V41.4001C84.5996 41.7001 84.1996 42.1001 83.3996 42.1001C82.3996 42.1001 81.6996 41.7001 81.6996 40.7001C81.6996 39.6001 82.9996 39.2001 83.7996 39.2001H84.6996C84.6996 38.5001 84.3996 38.1001 83.5996 38.1001C83.0996 38.1001 82.5996 38.2001 82.2996 38.5001ZM87.0996 35.4001H87.8996V42.0001H87.0996V35.4001ZM96.5996 39.4001C96.5996 41.1001 95.6996 42.0001 94.1996 42.0001C92.5996 42.0001 91.7996 41.1001 91.7996 39.4001V35.7001H92.6996V39.2001C92.6996 40.4001 92.9996 41.3001 94.1996 41.3001C95.2996 41.3001 95.6996 40.4001 95.6996 39.2001V35.7001H96.5996V39.4001ZM98.0996 37.5001H98.8996V38.2001C99.1996 37.7001 99.7996 37.4001 100.4 37.4001C101.6 37.4001 102.1 38.1001 102.1 39.3001V42.0001H101.3V39.7001C101.3 38.6001 101 38.1001 100.3 38.1001C99.3996 38.1001 98.8996 38.8001 98.8996 39.9001V42.0001H98.0996V37.5001ZM103.6 37.5001H104.5V42.0001H103.6V37.5001ZM103.6 35.5001H104.5V36.5001H103.6V35.5001ZM108 41.9001H107L105.4 37.4001H106.3L107.5 41.1001H107.6L108.8 37.4001H109.7L108 41.9001ZM111.1 39.2001H113.4C113.4 38.5001 113 38.0001 112.3 38.0001C111.5 38.1001 111.1 38.6001 111.1 39.2001ZM113.9 40.9001V41.7001C113.6 41.9001 113.3 42.0001 112.5 42.0001C110.9 42.0001 110.2 41.1001 110.2 39.6001C110.2 38.2001 111 37.3001 112.3 37.3001C113.8 37.3001 114.3 38.4001 114.3 39.9001H111.1C111.1 40.7001 111.8 41.4001 112.6 41.4001C113.1 41.4001 113.7 41.1001 113.9 40.9001ZM115.3 37.5001H116.1V38.2001C116.3 37.7001 116.8 37.4001 117.3 37.4001H117.9V38.2001C117.7 38.1001 117.5 38.1001 117.4 38.1001C116.6 38.1001 116.2 38.8001 116.2 40.0001V42.0001H115.3V37.5001ZM118.4 41.0001C118.8 41.3001 119.2 41.4001 119.5 41.4001C119.9 41.4001 120.3 41.2001 120.3 40.7001C120.3 39.9001 118.4 40.0001 118.4 38.7001C118.4 37.7001 119.1 37.3001 120 37.3001C120.4 37.3001 120.7 37.4001 121 37.5001L120.9 38.2001C120.8 38.1001 120.3 38.0001 120.1 38.0001C119.6 38.0001 119.3 38.1001 119.3 38.5001C119.3 39.4001 121.2 39.2001 121.2 40.6001C121.2 41.6001 120.5 42.0001 119.6 42.0001C119.2 42.0001 118.8 42.0001 118.4 41.8001V41.0001ZM122.3 37.5001H123.2V42.0001H122.3V37.5001ZM122.3 35.5001H123.2V36.5001H122.3V35.5001ZM127.1 38.2001H125.9V40.7001C125.9 41.2001 126.2 41.5001 126.6 41.5001C126.9 41.5001 127.1 41.4001 127.2 41.3001V42.0001C127 42.1001 126.8 42.1001 126.5 42.1001C125.6 42.1001 125.1 41.7001 125.1 40.8001V38.2001H124.1V37.5001H125.1V36.4001L125.9 36.2001V37.5001H127.1V38.2001ZM127.8 43.2001H128.2C129 43.2001 129.2 42.2001 129.2 42.1001C129.2 42.0001 129.1 41.8001 129.1 41.6001L127.5 37.4001H128.4L129.7 41.2001L130.9 37.4001H131.8L130.1 42.0001C129.8 42.9001 129.5 43.9001 128.4 43.9001C128.1 43.9001 127.9 43.9001 127.8 43.8001V43.2001ZM54.4996 50.2001C54.4996 51.0001 54.9996 51.9001 55.8996 51.9001C56.8996 51.9001 57.3996 51.0001 57.3996 50.2001C57.3996 49.3001 56.7996 48.5001 55.8996 48.5001C54.9996 48.5001 54.4996 49.3001 54.4996 50.2001ZM53.5996 50.2001C53.5996 48.8001 54.5996 47.8001 55.8996 47.8001C57.2996 47.8001 58.1996 48.8001 58.1996 50.2001C58.1996 51.5001 57.2996 52.6001 55.8996 52.6001C54.5996 52.6001 53.5996 51.5001 53.5996 50.2001ZM59.7996 48.6001H58.6996V47.9001H59.7996V47.5001C59.7996 46.4001 60.0996 45.7001 61.2996 45.7001H61.8996V46.4001C61.7996 46.4001 61.5996 46.3001 61.4996 46.3001C60.6996 46.3001 60.6996 46.8001 60.6996 47.4001V47.9001H61.8996V48.6001H60.6996V52.4001H59.7996V48.6001ZM67.8996 47.2001C67.3996 47.0001 67.1996 46.9001 66.6996 46.9001C66.1996 46.9001 65.5996 47.1001 65.5996 47.7001C65.5996 48.9001 68.2996 48.7001 68.2996 50.7001C68.2996 52.0001 67.2996 52.6001 65.9996 52.6001C65.5996 52.6001 65.0996 52.4001 64.6996 52.3001L64.7996 51.5001C65.0996 51.6001 65.6996 51.8001 66.0996 51.8001C66.5996 51.8001 67.2996 51.5001 67.2996 50.8001C67.2996 49.4001 64.6996 49.8001 64.6996 47.8001C64.6996 46.7001 65.4996 46.1001 66.6996 46.1001C67.0996 46.1001 67.5996 46.2001 67.9996 46.4001L67.8996 47.2001ZM69.4996 47.9001H70.3996V52.4001H69.4996V47.9001ZM69.4996 46.0001H70.3996V46.9001H69.4996V46.0001ZM71.8996 47.9001H72.6996V48.6001C72.9996 48.1001 73.5996 47.8001 74.1996 47.8001C75.3996 47.8001 75.8996 48.5001 75.8996 49.8001V52.4001H75.0996V50.1001C75.0996 49.0001 74.7996 48.5001 74.0996 48.5001C73.1996 48.5001 72.6996 49.2001 72.6996 50.3001V52.4001H71.8996V47.9001ZM79.1996 51.8001C79.9996 51.8001 80.4996 51.1001 80.4996 50.2001C80.4996 49.3001 80.0996 48.5001 79.1996 48.5001C78.2996 48.5001 77.8996 49.4001 77.8996 50.2001C77.8996 51.0001 78.3996 51.8001 79.1996 51.8001ZM81.2996 47.9001V52.3001C81.2996 53.6001 80.5996 54.4001 78.9996 54.4001C78.4996 54.4001 78.0996 54.4001 77.3996 54.1001L77.4996 53.3001C78.0996 53.6001 78.4996 53.7001 79.0996 53.7001C79.9996 53.7001 80.4996 53.2001 80.4996 52.2001V51.7001C80.0996 52.2001 79.4996 52.4001 78.9996 52.4001C77.6996 52.4001 76.9996 51.4001 76.9996 50.2001C76.9996 49.1001 77.6996 47.8001 79.0996 47.8001C79.8996 47.8001 80.2996 48.1001 80.4996 48.6001H80.5996V47.9001H81.2996ZM85.4996 50.7001V50.3001H84.8996C84.4996 50.3001 83.2996 50.3001 83.2996 51.1001C83.2996 51.6001 83.7996 51.9001 84.1996 51.9001C84.9996 51.9001 85.4996 51.4001 85.4996 50.7001ZM82.9996 48.9001V48.2001C83.3996 48.0001 83.8996 47.8001 84.4996 47.8001C85.7996 47.8001 86.2996 48.4001 86.2996 49.7001V52.4001H85.5996V51.9001H85.4996C85.2996 52.1001 84.8996 52.6001 84.0996 52.6001C83.0996 52.6001 82.4996 52.1001 82.4996 51.1001C82.4996 50.0001 83.6996 49.6001 84.5996 49.6001C84.8996 49.6001 85.0996 49.6001 85.4996 49.7001C85.4996 48.9001 85.1996 48.5001 84.2996 48.5001C83.8996 48.5001 83.3996 48.7001 82.9996 48.9001ZM91.0996 50.2001C91.1996 49.3001 90.7996 48.5001 89.8996 48.5001C88.9996 48.5001 88.4996 49.3001 88.4996 50.2001C88.4996 50.9001 88.8996 51.9001 89.8996 51.9001C90.7996 51.9001 91.1996 50.9001 91.0996 50.2001ZM87.6996 54.3001V47.9001H88.4996V48.6001C88.7996 48.2001 89.2996 47.8001 90.0996 47.8001C91.3996 47.8001 91.9996 48.9001 91.9996 50.1001C91.9996 51.3001 91.4996 52.6001 90.0996 52.6001C89.2996 52.6001 88.7996 52.2001 88.5996 51.8001H88.4996V54.3001H87.6996ZM93.6996 50.2001C93.6996 51.0001 94.1996 51.9001 95.1996 51.9001C96.0996 51.9001 96.5996 51.0001 96.5996 50.2001C96.5996 49.3001 96.0996 48.5001 95.1996 48.5001C94.2996 48.5001 93.6996 49.3001 93.6996 50.2001ZM92.7996 50.2001C92.7996 48.8001 93.7996 47.8001 95.1996 47.8001C96.4996 47.8001 97.4996 48.8001 97.4996 50.2001C97.4996 51.5001 96.4996 52.6001 95.1996 52.6001C93.7996 52.6001 92.7996 51.5001 92.7996 50.2001ZM98.5996 47.9001H99.3996V48.6001C99.5996 48.1001 100.1 47.8001 100.6 47.8001C100.8 47.8001 100.9 47.8001 101.1 47.9001V48.6001C101 48.6001 100.8 48.5001 100.7 48.5001C99.8996 48.5001 99.3996 49.2001 99.3996 50.4001V52.4001H98.5996V47.9001ZM102.6 49.7001H105C105 49.1001 104.6 48.5001 103.9 48.5001C103 48.5001 102.7 49.2001 102.6 49.7001ZM105.5 51.4001V52.3001C105.2 52.4001 104.8 52.6001 104.1 52.6001C102.5 52.6001 101.8 51.6001 101.8 50.1001C101.8 48.8001 102.6 47.8001 103.9 47.8001C105.4 47.8001 105.9 48.9001 105.9 50.4001H102.6C102.6 51.3001 103.3 51.9001 104.1 51.9001C104.7 51.9001 105.3 51.6001 105.5 51.4001ZM111.4 23.4001C113.1 25.0001 116.5 26.4001 120.6 26.5001C124.2 26.6001 127.1 25.5001 127.3 22.5001C127.7 16.1001 111.1 18.6001 111.8 7.70011C112.1 2.30011 117.5 0.500108 123.3 0.600108C126.5 0.600108 129.6 1.40009 131.4 2.30009V6.10011C129.3 4.70011 126.3 3.80011 123.9 3.70011C120.2 3.70011 117.2 4.3001 117.2 7.0001C117.1 12.7001 133.8 11.3001 133.2 22.1001C132.8 28.2001 126.9 30.1001 120.7 30.0001C117.1 29.9001 113.6 29.2001 111.5 28.1001L111.4 23.4001ZM95.7996 30.0001C88.0996 30.0001 83.6996 26.6001 83.6996 19.5001V1.4001H89.3996V19.5001C89.3996 23.9001 91.5996 26.5001 95.7996 26.5001C99.9996 26.5001 102.1 23.9001 102.1 19.5001V1.4001H107.9V19.5001C107.9 26.6001 103.5 30.0001 95.7996 30.0001ZM74.2996 1.4001H78.0996V29.1001H73.7996C72.5996 29.1001 71.5996 28.5001 70.8996 27.6001L57.7996 8.80009V29.1001H53.9996V1.4001H58.3996C59.4996 1.4001 60.5996 2.0001 61.1996 2.9001L74.3996 21.7001V1.4001H74.2996Z" fill="black"/>
</svg>
