<svg width="375" height="83" viewBox="0 0 375 83" fill="none" xmlns="http://www.w3.org/2000/svg">
<g clip-path="url(#clip0)">
<path fill-rule="evenodd" clip-rule="evenodd" d="M18.8125 8.90625C21.0625 6.90625 21.9375 3.28125 21 0.218752C20.9375 -0.0937481 20.875 -0.0312519 20.8125 0.156248C20 1.46875 18.4375 3.09376 17.25 4.09376L1.8125 18.0938C0.4375 19.3438 0 20.9688 0 22.5313V26.5938C0 26.9063 0.124999 26.7813 0.124999 26.5938C0.374999 25.5313 1.25 24.5313 2.625 23.2188C3.125 22.7813 18.8125 8.90625 18.8125 8.90625ZM28.125 29.5314C28.75 27.9689 29.625 25.8439 30.75 24.6564C30.8125 24.5314 30.875 24.4689 30.875 24.4689C29.3125 25.0314 27.9375 25.0939 26.9375 24.4064C25.9375 23.7189 25.5 22.4689 25.5 21.2189C25.5 20.7189 25.5625 20.2189 25.75 19.7814C25.8003 19.6305 25.8101 19.6415 25.8772 19.7167C25.8934 19.735 25.9131 19.757 25.9375 19.7814C26.875 20.7189 27.9375 21.0939 29.125 20.5939C30.5625 19.9689 34.75 17.8439 34.75 17.8439C35.0625 17.7189 35.375 17.7814 35.625 17.9064C35.875 18.0939 36.3125 18.2814 36.625 18.1564L40.625 16.4689C41.375 16.1564 42.125 16.2814 42.75 16.7814C43.4375 17.2189 44.875 18.2189 45.25 18.5314C45.3125 18.5939 45.1875 18.5939 45.1875 18.5939C44.8125 18.5314 43.3125 18.4689 41.9375 20.0314C41.9375 20.0314 39.1875 22.4064 39.625 27.8439C39.625 28.7189 40.25 32.5314 43.125 32.5314H64.375C66.5 32.5314 68.5625 32.2814 70.5 31.5939C70.5371 31.5754 70.5673 31.5596 70.5919 31.5467C70.6527 31.5149 70.6789 31.5012 70.6889 31.5089C70.6965 31.5146 70.6949 31.5323 70.6922 31.5635V31.5635V31.5636L70.6922 31.5637C70.6902 31.587 70.6875 31.6177 70.6875 31.6564C70.1875 35.8439 66.6875 38.9064 62.375 38.9064H41.8125C40.4375 38.9064 40 38.0939 39.75 37.4689C39.4375 36.7189 37.5 30.7189 37.25 27.7814C37 24.4689 37.75 21.9064 39.1875 20.3439C39.1875 20.3209 39.2128 20.2895 39.2325 20.2652C39.2662 20.2233 39.2831 20.2023 39.125 20.2814C35.1875 22.0939 31.9375 25.1564 30 31.4689C29.8125 31.9689 29.625 32.5314 29.5 33.1564C29.4631 33.318 29.4268 33.4826 29.3902 33.6492C28.9303 35.7379 28.4034 38.1308 25.625 38.5939C24.3125 38.7814 23.3125 38.0939 22.375 37.4064L9.375 27.0939C9.375 27.0939 13.9375 23.0939 14.125 22.9064C14.409 23.1273 16.6202 24.8931 18.853 26.6762C21.0432 28.4253 23.2542 30.191 23.6875 30.5314C24.5625 31.2189 25.1875 31.4064 26.25 31.2814C27.0625 31.1564 27.6875 30.7189 28.125 29.5314ZM3.93775 42.5314C2.00025 40.9064 1.50024 39.0939 1.50024 37.2189C1.50024 35.9064 1.87524 34.5314 2.50024 33.4689L19.1877 46.5939C21.9377 48.6564 24.8752 48.0939 26.6877 46.4064C26.7502 46.3439 26.8127 46.3439 26.7502 46.4689C26.7502 46.5314 26.3127 49.2189 26.0002 50.4064C25.1877 53.7814 20.4377 55.7814 17.3127 53.3439L3.93775 42.5314ZM69.1878 39.7813C68.4378 43.6563 65.0628 46.6563 60.9378 46.6563L44.5628 46.7188C43.7503 46.7188 42.8753 46.5938 42.5003 45.6563C42.5003 45.6563 40.8128 40.6563 40.6253 40.0313C40.5628 39.9063 40.6253 39.9063 40.6878 39.9688C41.1914 40.3605 41.8453 40.3514 42.2907 40.3452C42.3427 40.3445 42.392 40.3438 42.4378 40.3438H62.8753C64.9378 40.3438 66.9378 39.9688 68.7503 39.3438C68.8753 39.3438 69.0628 39.2813 69.1253 39.2188C69.1502 39.2063 69.1727 39.1913 69.1922 39.1783C69.2702 39.1263 69.3003 39.1063 69.2503 39.4063C69.2503 39.4688 69.2346 39.5313 69.219 39.5938C69.2034 39.6563 69.1878 39.7188 69.1878 39.7813ZM44.3122 50.6565C44.3122 50.6565 43.3122 47.969 43.2497 47.719C43.2111 47.6031 43.268 47.6305 43.3465 47.6683C43.3951 47.6917 43.452 47.719 43.4997 47.719C44.0622 48.0315 44.4997 48.0315 45.1872 48.0315H60.2497C62.3747 48.0315 64.4372 47.594 66.3747 46.9065C66.4304 46.888 66.475 46.8639 66.5086 46.8458C66.5883 46.8029 66.6062 46.7932 66.5622 46.969C66.0622 51.094 62.4997 54.344 58.2497 54.344H49.4997C47.0622 54.344 45.0622 52.844 44.3122 50.6565ZM39.9271 58.3646C41.9903 59.7618 45.2211 61.9497 46.3749 65.4689C46.3828 65.5001 46.3915 65.5382 46.4011 65.5795C46.4677 65.8683 46.5703 66.3126 46.6249 65.6564C47.6874 56.2814 42.9374 52.3439 38.9374 49.9064C35.3749 47.6564 34.0624 45.0939 33.9999 42.7814C33.9999 42.7416 34.0015 42.7034 34.0029 42.6696C34.0103 42.4907 34.0127 42.4334 33.7499 42.9064C32.4999 45.0314 30.9374 48.3439 33.8124 52.9064C35.1299 55.0623 38.3411 57.2756 39.3221 57.9518L39.4374 58.0314C39.5913 58.1372 39.7551 58.2481 39.9271 58.3646ZM27.8126 66.6563C26.8126 67.9688 26.1876 69.7813 26.2501 71.6563C26.3126 72.9063 26.7501 74.1563 27.6251 75.5313C27.6876 75.5938 27.8126 75.7813 27.5626 75.6563C20.2501 71.2188 20.3126 60.8438 26.4376 54.7188C26.5001 54.6563 26.5001 54.7813 26.5001 54.8438C26.0626 58.6563 29.5626 61.8438 31.4376 63.4063C32.9376 64.6563 35.4376 66.5313 37.3751 67.9063C39.5001 69.4688 41.0626 71.5313 41.3751 74.2188C42.3751 73.0938 42.0001 71.8438 41.8126 71.3438C41.0298 68.6301 37.981 66.4828 36.3049 65.3023C35.9737 65.069 35.696 64.8735 35.5001 64.7188L35.3479 64.5993C33.6279 63.2491 31.5728 61.636 29.8126 58.8438C28.0626 56.0938 28.2501 50.7813 30.0001 48.9688C30.144 48.8249 30.1406 48.8651 30.1313 48.9763C30.1285 49.01 30.1251 49.0502 30.1251 49.0938C30.0706 51.4914 31.4889 52.9864 32.6403 54.2C32.8095 54.3783 32.9729 54.5506 33.1251 54.7188C34.1554 55.8284 36.7939 57.7924 38.9534 59.3998C40.1998 60.3274 41.2865 61.1364 41.8126 61.5938C45.2501 64.7188 46.8751 70.1563 44.0626 75.7813C42.7501 78.4063 40.5626 81.5313 34.3126 82.2813C34.0001 82.2813 34.0626 82.2188 34.2501 82.1563C36.6876 81.0313 37.0626 79.0313 37.0001 77.5938C36.9376 75.1563 35.3751 73.7188 33.0001 72.0313C29.8126 70.1563 28.4376 68.2188 27.8126 66.6563ZM27.6873 41.8439C27.0623 45.6564 23.3123 47.7189 20.1873 45.5939L3.49976 32.4064C3.87476 32.0314 8.18726 28.0939 8.18726 28.0939L21.6873 38.7814C23.9998 40.4064 25.9373 40.7189 28.2498 38.9064C28.2706 38.9064 28.2845 38.8994 28.2937 38.8948C28.2995 38.8919 28.3034 38.89 28.3061 38.8911C28.3123 38.8935 28.3123 38.9113 28.3123 38.9689C28.2498 39.0314 27.8751 40.9048 27.6875 41.8427L27.6874 41.8433L27.6873 41.8438L27.6873 41.8439ZM0 34.9063C0 35.2188 0.125 35.0938 0.1875 34.8438C0.463859 33.462 1.66894 32.2758 2.89496 31.0689L2.89498 31.0689C3.0553 30.911 3.21599 30.7529 3.375 30.5938C3.375 30.5938 3.5 30.4688 5.375 28.7188C7.25 26.9688 16.875 18.6563 16.875 18.6563C18.9375 16.7813 21.0625 13.4688 20.1875 9.59384C20.1431 9.41623 20.1302 9.42789 20.0817 9.47195C20.0619 9.48991 20.0362 9.51324 20 9.53134C19.5625 10.1563 18.3125 11.3438 16.375 13.0313C14.9735 14.2693 13.2578 15.7692 11.4888 17.3156C8.52438 19.907 5.41039 22.6292 3.375 24.4689C3.25486 24.579 3.12349 24.6971 2.98577 24.821C2.26379 25.4703 1.36742 26.2765 1 26.9064C0 28.3439 0 29.5313 0 30.4688V34.9063ZM242.126 54.4063H245.563V41.2188H249.438V38.5938H245.563V36.9063C245.563 34.5938 246.501 33.3438 248.438 33.3438C249.563 33.3438 250.313 33.6563 250.563 33.7813L251.438 31.0313L251.424 31.0254C251.093 30.8932 250.034 30.4688 248.126 30.4688C244.313 30.4688 242.126 32.9063 242.126 36.6563V38.5938H239.626V41.2188H242.126V54.4063ZM122.751 36.0939C121.501 36.0939 120.501 35.0939 120.501 33.8439C120.501 32.6564 121.501 31.5939 122.751 31.5939C124.063 31.5939 125.063 32.5939 125.063 33.8439C125.063 35.0939 124.063 36.0939 122.751 36.0939ZM124.501 38.5314V54.4064H121.001V38.5314H124.501ZM82.376 46.094C82.376 51.5315 85.126 54.7815 91.251 54.7815C97.126 54.7815 99.9385 51.469 99.9385 45.7815V32.594H96.501V46.094C96.501 49.469 94.9385 51.719 91.376 51.719C87.626 51.719 86.0635 49.7815 86.0635 45.719V32.594H82.376V46.094ZM113.626 43.9064V54.3439H117.064V43.1564C117.064 40.3439 115.751 38.0939 112.376 38.0939C109.689 38.0939 108.126 39.6564 107.314 40.5939V38.4689H103.876V54.3439H107.376V43.4689C107.689 43.0314 109.189 41.0939 111.189 41.0939C113.001 41.0939 113.626 42.1564 113.626 43.9064ZM138.251 38.5315L134.438 50.0315H134.376L130.563 38.5315H126.751L132.751 54.4065H136.001L141.813 38.5315H138.251ZM150.938 52.0939C153.126 52.0939 154.501 51.2814 155.188 50.8439L156.376 53.2189C155.438 53.7814 153.751 54.7814 150.688 54.7814C145.501 54.7814 142.751 51.2189 142.751 46.3439C142.751 41.4689 145.938 38.1564 150.251 38.1564C154.876 38.1564 157.313 41.5314 156.813 46.9689H146.438C146.563 49.9064 147.876 52.0939 150.938 52.0939ZM153.438 44.5314C153.376 42.5314 152.501 40.8439 150.188 40.8439C148.063 40.8439 146.876 42.2814 146.501 44.5314H153.438ZM167.188 41.3439C168.125 41.3439 168.5 41.5314 168.75 41.6564L169.563 38.5314L169.513 38.5116C169.192 38.3818 168.634 38.1564 167.625 38.1564C165.563 38.1564 164.188 39.7189 163.563 40.8439V38.5314H160.063V54.4064H163.563V44.1564C163.875 43.5314 165.063 41.3439 167.188 41.3439ZM175.439 54.844C172.876 54.844 171.064 53.969 170.126 53.2815L171.376 50.7815C171.939 51.219 173.501 52.094 175.251 52.094C177.064 52.094 178.126 51.469 178.126 50.2815C178.126 49.2087 177.021 48.7344 175.286 47.9892L175.285 47.9887C174.998 47.8658 174.695 47.7355 174.376 47.594C172.064 46.5315 170.501 45.344 170.501 42.844C170.501 40.094 172.626 38.219 176.001 38.219C178.649 38.219 180.266 39.1898 180.911 39.5771L180.939 39.594L179.564 42.0315C179.001 41.6565 177.751 40.969 176.126 40.969C174.501 40.969 173.751 41.594 173.751 42.719C173.751 43.8435 174.864 44.3104 176.361 44.9388L176.362 44.9389C176.529 45.0091 176.701 45.0812 176.876 45.1565C179.439 46.219 181.439 47.344 181.439 50.0315C181.439 53.0315 179.189 54.844 175.439 54.844ZM184.063 33.8439C184.063 35.0939 185.063 36.0939 186.313 36.0939C187.625 36.0939 188.625 35.0939 188.625 33.8439C188.625 32.5939 187.625 31.5939 186.313 31.5939C185.063 31.5939 184.063 32.6564 184.063 33.8439ZM188.063 54.4064V38.5314H184.563V54.4064H188.063ZM190.688 41.2189V38.5939H193.25V34.0314H196.75V38.5939H200.563V41.2189H196.75V49.6564C196.75 51.2189 197.188 51.9689 198.438 51.9689C199.375 51.9689 200.25 51.5314 200.563 51.3439L201.563 53.9689C201 54.2814 199.75 54.9064 197.875 54.9064C194.625 54.9064 193.313 53.1564 193.313 50.2814V41.2189H190.688ZM205.813 38.5315H202.063L208 54.0315L207.313 55.9065C206.625 57.9065 205.813 59.0315 203.563 59.0315C202.625 59.0315 202.375 58.969 202.125 58.9065L201.625 61.719C201.938 61.844 202.563 61.969 203.688 61.969C207.813 61.969 209.375 59.6565 210.625 56.219L217.25 38.5315H213.625L209.875 49.969H209.75L205.813 38.5315ZM230.813 54.7814C225.375 54.7814 223.125 50.4064 223.125 46.4689C223.125 42.5939 225.25 38.0939 230.75 38.0939C236.188 38.0939 238.563 42.4689 238.563 46.3439C238.625 50.2814 236.25 54.7814 230.813 54.7814ZM230.688 40.9064C227.875 40.9064 226.813 43.2814 226.813 46.4689C226.813 49.5939 228 52.0939 230.813 52.0939C233.688 52.0939 234.813 49.7189 234.813 46.5314C234.875 43.3439 233.563 40.9064 230.688 40.9064ZM264.688 46.1564H262.438V54.3439H258.75V32.5314H265.125C269.688 32.5314 273.188 34.7189 273.188 39.1564C273.188 43.7814 270 46.1564 264.688 46.1564ZM264.813 35.5314H262.438V43.2814H264.75C268.063 43.2814 269.438 41.9689 269.438 39.3439C269.438 36.9689 268.125 35.5314 264.813 35.5314ZM285.813 43.9063V54.4063H289.25V43.2188C289.25 40.4063 287.938 38.1563 284.563 38.1563C281.875 38.1563 280.25 39.7188 279.5 40.5938V30.7813H276V54.3438H279.5V43.4688C279.813 43.0313 281.375 41.0938 283.375 41.0938C285.188 41.0938 285.813 42.1563 285.813 43.9063ZM300.126 54.7814C294.688 54.7814 292.438 50.4064 292.438 46.4689C292.438 42.5939 294.563 38.0939 300.063 38.0939C305.501 38.0939 307.876 42.4689 307.876 46.3439C307.876 50.2814 305.563 54.7814 300.126 54.7814ZM299.938 40.9064C297.126 40.9064 296.063 43.2814 296.063 46.4689C296.063 49.5939 297.251 52.0939 300.063 52.0939C302.938 52.0939 304.063 49.7189 304.063 46.5314C304.126 43.3439 302.813 40.9064 299.938 40.9064ZM322.688 50.8439C322.001 51.2814 320.626 52.0939 318.438 52.0939C315.438 52.0939 314.126 49.9064 313.938 46.9689H324.313C324.813 41.5314 322.376 38.1564 317.751 38.1564C313.438 38.1564 310.251 41.4689 310.251 46.3439C310.251 51.2189 313.001 54.7814 318.188 54.7814C321.251 54.7814 322.938 53.7814 323.876 53.2189L322.688 50.8439ZM317.688 40.8439C320.001 40.8439 320.876 42.5314 320.938 44.5314H314.001C314.376 42.2814 315.563 40.8439 317.688 40.8439ZM337.313 54.3439V43.9064C337.313 42.1564 336.688 41.0939 334.875 41.0939C332.875 41.0939 331.375 43.0314 331.063 43.4689V54.3439H327.563V38.4689H331V40.5939C331.813 39.6564 333.375 38.0939 336.063 38.0939C339.438 38.0939 340.75 40.3439 340.75 43.1564V54.3439H337.313ZM344.189 33.8439C344.189 35.0939 345.189 36.0939 346.439 36.0939C347.751 36.0939 348.751 35.0939 348.751 33.8439C348.751 32.5939 347.751 31.5939 346.439 31.5939C345.189 31.5939 344.189 32.6564 344.189 33.8439ZM348.251 38.5314H344.751V54.4064H348.251V38.5314ZM350.501 38.5315H354.438L357.75 43.5315L360.75 38.5315H364.375L359.438 45.9065L365.125 54.344H361.188L357.376 48.5315L353.875 54.344H350.313L355.75 46.1565L350.501 38.5315ZM366.625 42.6565C366.625 40.219 368.563 38.5315 370.813 38.5315C373.063 38.5315 375 40.219 375 42.6565C375 45.094 373.063 46.7815 370.813 46.7815C368.563 46.7815 366.625 45.094 366.625 42.6565ZM367.375 42.6565C367.375 44.594 368.875 46.1565 370.813 46.1565C372.75 46.1565 374.25 44.594 374.25 42.6565C374.25 40.7815 372.75 39.219 370.813 39.219C368.875 39.219 367.375 40.719 367.375 42.6565ZM371.626 42.6564C372.189 42.4689 372.564 42.0939 372.564 41.4689C372.564 40.5314 371.751 40.2814 371.001 40.2814H369.189V44.9064H369.939V42.9064H370.939C371.189 42.9064 371.439 43.0939 371.564 43.2814C371.651 43.4568 371.678 43.6322 371.707 43.8292C371.72 43.913 371.733 44.0006 371.751 44.0939V44.8439H372.501V44.0939C372.501 43.9474 372.48 43.8224 372.462 43.7189C372.449 43.6457 372.439 43.5832 372.439 43.5314C372.431 43.5077 372.423 43.477 372.414 43.4413L372.414 43.4404C372.35 43.1937 372.226 42.7109 371.626 42.6564ZM370.939 42.2814H369.939V40.9064H370.939C371.564 40.9064 371.751 41.2189 371.751 41.5939C371.751 41.9689 371.564 42.2814 370.939 42.2814Z" fill="black"/>
</g>
<defs>
<clipPath id="clip0">
<rect width="375" height="82.5" fill="white"/>
</clipPath>
</defs>
</svg>
